<?xml version="1.0" encoding="UTF-8" standalone="no"?>
<svg
   width="16.000311"
   height="16.000315"
   viewBox="52 -51 16.000311 16.000315"
   version="1.1"
   style="fill:none;stroke-linecap:round;stroke-linejoin:round"
   id="svg7"
   sodipodi:docname="spinner-16-03.svg"
   inkscape:version="1.3.2 (091e20ef0f, 2023-11-25)"
   inkscape:export-filename="spinner-16-03.png"
   inkscape:export-xdpi="96"
   inkscape:export-ydpi="96"
   xmlns:inkscape="http://www.inkscape.org/namespaces/inkscape"
   xmlns:sodipodi="http://sodipodi.sourceforge.net/DTD/sodipodi-0.dtd"
   xmlns="http://www.w3.org/2000/svg"
   xmlns:svg="http://www.w3.org/2000/svg"
   xmlns:rdf="http://www.w3.org/1999/02/22-rdf-syntax-ns#"
   xmlns:cc="http://creativecommons.org/ns#"
   xmlns:dc="http://purl.org/dc/elements/1.1/">
  <defs
     id="defs7" />
  <sodipodi:namedview
     id="namedview7"
     pagecolor="#ffffff"
     bordercolor="#cccccc"
     borderopacity="1"
     inkscape:showpageshadow="0"
     inkscape:pageopacity="1"
     inkscape:pagecheckerboard="0"
     inkscape:deskcolor="#d1d1d1"
     inkscape:document-units="px"
     inkscape:zoom="47.125736"
     inkscape:cx="7.8725561"
     inkscape:cy="7.8619462"
     inkscape:window-width="1920"
     inkscape:window-height="1056"
     inkscape:window-x="0"
     inkscape:window-y="24"
     inkscape:window-maximized="1"
     inkscape:current-layer="g7" />
  <g
     transform="matrix(1,0,0,-1,2.9001502e-5,3e-5)"
     id="g7"
     style="fill:none;fill-opacity:1;stroke:#df0000;stroke-opacity:1">
    <path
       id="path12"
       style="fill:#505050;fill-opacity:1;stroke:none;stroke-width:0.250087"
       d="m 66.93347,47.007892 a 2.001354,2.0000439 54.033211 0 1 -0.15204,0.223769 8.0054157,8.0001755 54.033098 0 1 -10.778177,2.702407 8.0054157,8.0001755 54.033098 0 1 -2.932387,-10.934256 8.0054157,8.0001755 54.033098 0 1 10.930212,-2.926178 8.0054157,8.0001755 54.033098 0 1 2.878259,2.847233 8.0054157,8.0001755 54.033098 0 1 0.05009,0.08394 l -9.72e-4,0.0017 a 8.0054157,8.0001755 54.033098 0 1 0.02838,0.04615 2.001354,2.0000439 54.033211 0 1 -0.02507,1.953633 2.001354,2.0000439 54.033211 0 1 -2.733596,0.73037 2.001354,2.0000439 54.033211 0 1 -0.732337,-0.732361 4.0027078,4.0000877 54.032985 0 0 -1.464678,-1.464724 4.0027078,4.0000877 54.032985 0 0 -5.463751,1.462728 4.0027078,4.0000877 54.032985 0 0 1.464839,5.46749 4.0027078,4.0000877 54.032985 0 0 5.466462,-1.463452 2.001354,2.0000439 54.033211 0 1 2.731876,-0.731362 2.001354,2.0000439 54.033211 0 1 0.732915,2.732886 z" />
  </g>
  <metadata
     id="metadata7">
    <rdf:RDF>
      <cc:Work
         rdf:about="">
        <dc:creator>
          <cc:Agent>
            <dc:title>Matthias Seidel</dc:title>
          </cc:Agent>
        </dc:creator>
      </cc:Work>
    </rdf:RDF>
  </metadata>
</svg>
