<?xml version="1.0" encoding="UTF-8" standalone="no"?>
<svg
   width="64"
   height="64"
   viewBox="9.8778 -21.8722 22.827793 22.827793"
   version="1.1"
   style="fill:none;stroke-linecap:round;stroke-linejoin:round"
   id="svg4"
   sodipodi:docname="spinner-64-05.svg"
   inkscape:version="1.3.2 (091e20ef0f, 2023-11-25)"
   inkscape:export-filename="spinner-64-05.png"
   inkscape:export-xdpi="96"
   inkscape:export-ydpi="96"
   xmlns:inkscape="http://www.inkscape.org/namespaces/inkscape"
   xmlns:sodipodi="http://sodipodi.sourceforge.net/DTD/sodipodi-0.dtd"
   xmlns="http://www.w3.org/2000/svg"
   xmlns:svg="http://www.w3.org/2000/svg"
   xmlns:rdf="http://www.w3.org/1999/02/22-rdf-syntax-ns#"
   xmlns:cc="http://creativecommons.org/ns#"
   xmlns:dc="http://purl.org/dc/elements/1.1/">
  <defs
     id="defs4" />
  <sodipodi:namedview
     id="namedview4"
     pagecolor="#ffffff"
     bordercolor="#cccccc"
     borderopacity="1"
     inkscape:showpageshadow="0"
     inkscape:pageopacity="1"
     inkscape:pagecheckerboard="0"
     inkscape:deskcolor="#d1d1d1"
     inkscape:document-units="px"
     inkscape:zoom="11.911385"
     inkscape:cx="31.650392"
     inkscape:cy="31.692368"
     inkscape:window-width="1920"
     inkscape:window-height="1056"
     inkscape:window-x="0"
     inkscape:window-y="24"
     inkscape:window-maximized="1"
     inkscape:current-layer="svg4" />
  <path
     id="path9"
     style="fill:#505050;fill-opacity:1;stroke:none;stroke-width:0.360807;stroke-dasharray:none"
     d="m 31.188204,-4.7441089 a 1.784134,1.7844094 69.144184 0 0 0.105614,-0.2181298 11.41847,11.420231 69.134289 0 0 -4.284938,-15.3802893 11.41847,11.420231 69.134289 0 0 -15.600647,4.180443 11.41847,11.420231 69.134289 0 0 4.179322,15.59841909 11.41847,11.420231 69.134289 0 0 11.200207,0.10304179 1.784134,1.7844094 69.144184 0 0 0.113795,-0.0547357 11.41847,11.420231 69.134289 0 0 0.09137,-0.0440899 1.784134,1.7844094 69.144184 0 1 -0.0081,0.002711 1.784134,1.7844094 69.144184 0 0 0.02145,-0.0104201 11.41847,11.420231 69.134289 0 0 0.08378,-0.0492737 1.784134,1.7844094 69.144184 0 0 0.570981,-0.60126878 1.784134,1.7844094 69.144184 0 0 -0.653011,-2.4372226 1.784134,1.7844094 69.144184 0 0 -1.774825,0.017011 l -0.0097,-0.017029 a 7.8501888,7.8514011 69.143914 0 1 -7.851446,8.446e-4 7.8501888,7.8514011 69.143914 0 1 -2.873301,-10.7239717 7.8501888,7.8514011 69.143914 0 1 10.725507,-2.874071 7.8501888,7.8514011 69.143914 0 1 2.873298,10.7239745 1.784134,1.7844094 69.144184 0 0 0.65301,2.4372224 1.784134,1.7844094 69.144184 0 0 2.437572,-0.6531863 z m 0.192373,-0.5008504 a 1.784134,1.7844094 69.144184 0 0 0.0091,-0.046817 1.784134,1.7844094 69.144184 0 1 -0.0091,0.046817 z m 0.03557,-0.5604462 a 1.784134,1.7844094 69.144184 0 0 -0.0018,-0.027886 1.784134,1.7844094 69.144184 0 1 0.0018,0.027886 z M 31.27672,-6.34888 a 1.784134,1.7844094 69.144184 0 0 -0.01576,-0.031894 1.784134,1.7844094 69.144184 0 1 0.01576,0.031894 z m -0.294691,-0.460598 a 1.784134,1.7844094 69.144184 0 0 -0.02919,-0.033969 1.784134,1.7844094 69.144184 0 1 0.02919,0.033969 z m -4.546644,6.44895117 a 1.784134,1.7844094 69.144184 0 1 -0.03613,0.007604 1.784134,1.7844094 69.144184 0 0 0.03613,-0.007604 z m 3.598307,-7.01346747 a 1.784134,1.7844094 69.144184 0 0 -0.04402,-0.00829 1.784134,1.7844094 69.144184 0 1 0.04402,0.00829 z m -4.21748,7.01895706 a 1.784134,1.7844094 69.144184 0 1 -0.03371,-0.006395 1.784134,1.7844094 69.144184 0 0 0.03371,0.006395 z m 3.662657,-7.05443906 a 1.784134,1.7844094 69.144184 0 0 -0.03549,0.0023 1.784134,1.7844094 69.144184 0 1 0.03549,-0.0023 z m -0.550898,0.1409165 a 1.784134,1.7844094 69.144184 0 0 -0.02505,0.012375 1.784134,1.7844094 69.144184 0 1 0.02505,-0.012375 z m -3.874213,6.59218978 a 1.784134,1.7844094 69.144184 0 1 -0.01752,-0.0133383 1.784134,1.7844094 69.144184 0 0 0.01752,0.0133383 z M 28.471232,-6.97646 a 1.784134,1.7844094 69.144184 0 0 -0.036,0.031289 1.784134,1.7844094 69.144184 0 1 0.036,-0.031289 z m -3.963189,5.640071 a 1.784134,1.7844094 69.144184 0 1 -0.008,-0.018476 1.784134,1.7844094 69.144184 0 0 0.008,0.018476 z m -0.168984,-0.6191182 a 1.784134,1.7844094 69.144184 0 1 -0.0023,-0.020029 1.784134,1.7844094 69.144184 0 0 0.0023,0.020029 z m 0.131864,-0.844169 a 1.784134,1.7844094 69.144184 0 1 0.0085,-0.020325 1.784134,1.7844094 69.144184 0 0 -0.0085,0.020325 z" />
  <metadata
     id="metadata4">
    <rdf:RDF>
      <cc:Work
         rdf:about="">
        <dc:creator>
          <cc:Agent>
            <dc:title>Matthias Seidel</dc:title>
          </cc:Agent>
        </dc:creator>
      </cc:Work>
    </rdf:RDF>
  </metadata>
</svg>
