<?xml version="1.0" encoding="UTF-8" standalone="no"?>
<svg
   width="64"
   height="64"
   viewBox="9.8778 -21.8722 22.827793 22.827793"
   version="1.1"
   style="fill:none;stroke-linecap:round;stroke-linejoin:round"
   id="svg4"
   sodipodi:docname="spinner-64-11.svg"
   inkscape:version="1.3.2 (091e20ef0f, 2023-11-25)"
   inkscape:export-filename="spinner-64-11.png"
   inkscape:export-xdpi="96"
   inkscape:export-ydpi="96"
   xmlns:inkscape="http://www.inkscape.org/namespaces/inkscape"
   xmlns:sodipodi="http://sodipodi.sourceforge.net/DTD/sodipodi-0.dtd"
   xmlns="http://www.w3.org/2000/svg"
   xmlns:svg="http://www.w3.org/2000/svg"
   xmlns:rdf="http://www.w3.org/1999/02/22-rdf-syntax-ns#"
   xmlns:cc="http://creativecommons.org/ns#"
   xmlns:dc="http://purl.org/dc/elements/1.1/">
  <defs
     id="defs4" />
  <sodipodi:namedview
     id="namedview4"
     pagecolor="#ffffff"
     bordercolor="#cccccc"
     borderopacity="1"
     inkscape:showpageshadow="0"
     inkscape:pageopacity="1"
     inkscape:pagecheckerboard="0"
     inkscape:deskcolor="#d1d1d1"
     inkscape:document-units="px"
     inkscape:zoom="11.911385"
     inkscape:cx="31.650392"
     inkscape:cy="31.692368"
     inkscape:window-width="1920"
     inkscape:window-height="1056"
     inkscape:window-x="0"
     inkscape:window-y="24"
     inkscape:window-maximized="1"
     inkscape:current-layer="svg4" />
  <path
     id="path9"
     style="fill:#505050;fill-opacity:1;stroke:none;stroke-width:0.360809;stroke-dasharray:none"
     d="m 11.395159,-16.172553 a 1.7841404,1.7844026 70.76737 0 0 -0.105614,0.218126 11.41851,11.420187 70.760981 0 0 4.285024,15.38031441 11.41851,11.420187 70.760981 0 0 15.600621,-4.18035311 11.41851,11.420187 70.760981 0 0 -4.179408,-15.5984443 11.41851,11.420187 70.760981 0 0 -11.200205,-0.103105 1.7841404,1.7844026 70.76737 0 0 -0.11379,0.05474 11.41851,11.420187 70.760981 0 0 -0.09137,0.04409 1.7841404,1.7844026 70.76737 0 1 0.0081,-0.0027 1.7841404,1.7844026 70.76737 0 0 -0.02145,0.01043 11.41851,11.420187 70.760981 0 0 -0.08377,0.04927 1.7841404,1.7844026 70.76737 0 0 -0.570979,0.601265 1.7841404,1.7844026 70.76737 0 0 0.653024,2.437228 1.7841404,1.7844026 70.76737 0 0 1.774826,-0.017 l 0.0097,0.01703 a 7.8502169,7.8513711 70.772203 0 1 7.851445,-7.99e-4 7.8502169,7.8513711 70.772203 0 1 2.87336,10.7239868 7.8502169,7.8513711 70.772203 0 1 -10.725487,2.8740091 7.8502169,7.8513711 70.772203 0 1 -2.87336,-10.7239909 1.7841404,1.7844026 70.76737 0 0 -0.653023,-2.437225 1.7841404,1.7844026 70.76737 0 0 -2.437568,0.653173 z m -0.192371,0.500849 a 1.7841404,1.7844026 70.76737 0 0 -0.0091,0.04682 1.7841404,1.7844026 70.76737 0 1 0.0091,-0.04682 z m -0.03557,0.560444 a 1.7841404,1.7844026 70.76737 0 0 0.0018,0.02789 1.7841404,1.7844026 70.76737 0 1 -0.0018,-0.02789 z m 0.139431,0.543475 a 1.7841404,1.7844026 70.76737 0 0 0.01575,0.03191 1.7841404,1.7844026 70.76737 0 1 -0.01575,-0.03191 z m 0.29469,0.460602 a 1.7841404,1.7844026 70.76737 0 0 0.02919,0.03397 1.7841404,1.7844026 70.76737 0 1 -0.02919,-0.03397 z m 4.546606,-6.448924 a 1.7841404,1.7844026 70.76737 0 1 0.03612,-0.0076 1.7841404,1.7844026 70.76737 0 0 -0.03612,0.0076 z m -3.598263,7.013445 a 1.7841404,1.7844026 70.76737 0 0 0.04402,0.0083 1.7841404,1.7844026 70.76737 0 1 -0.04402,-0.0083 z m 4.21744,-7.018933 a 1.7841404,1.7844026 70.76737 0 1 0.03371,0.0064 1.7841404,1.7844026 70.76737 0 0 -0.03371,-0.0064 z m -3.662615,7.054417 a 1.7841404,1.7844026 70.76737 0 0 0.03549,-0.0023 1.7841404,1.7844026 70.76737 0 1 -0.03549,0.0023 z m 0.550897,-0.140913 a 1.7841404,1.7844026 70.76737 0 0 0.02504,-0.01238 1.7841404,1.7844026 70.76737 0 1 -0.02504,0.01238 z m 3.87418,-6.592165 a 1.7841404,1.7844026 70.76737 0 1 0.01751,0.01335 1.7841404,1.7844026 70.76737 0 0 -0.01751,-0.01335 z m -3.41744,6.300069 a 1.7841404,1.7844026 70.76737 0 0 0.03601,-0.0313 1.7841404,1.7844026 70.76737 0 1 -0.03601,0.0313 z m 3.963158,-5.640048 a 1.7841404,1.7844026 70.76737 0 1 0.008,0.01847 1.7841404,1.7844026 70.76737 0 0 -0.008,-0.01847 z m 0.168988,0.61912 a 1.7841404,1.7844026 70.76737 0 1 0.0023,0.02002 1.7841404,1.7844026 70.76737 0 0 -0.0023,-0.02002 z m -0.13186,0.844169 a 1.7841404,1.7844026 70.76737 0 1 -0.0085,0.02032 1.7841404,1.7844026 70.76737 0 0 0.0085,-0.02032 z" />
  <metadata
     id="metadata4">
    <rdf:RDF>
      <cc:Work
         rdf:about="">
        <dc:creator>
          <cc:Agent>
            <dc:title>Matthias Seidel</dc:title>
          </cc:Agent>
        </dc:creator>
      </cc:Work>
    </rdf:RDF>
  </metadata>
</svg>
