<?xml version="1.0" encoding="UTF-8" standalone="no"?>
<svg
   width="16"
   height="16"
   viewBox="52 -51 16 16"
   version="1.1"
   style="fill:none;stroke-linecap:round;stroke-linejoin:round"
   id="svg8"
   sodipodi:docname="spinner-16-06.svg"
   inkscape:version="1.3.2 (091e20ef0f, 2023-11-25)"
   inkscape:export-filename="spinner-16-06.png"
   inkscape:export-xdpi="96"
   inkscape:export-ydpi="96"
   xmlns:inkscape="http://www.inkscape.org/namespaces/inkscape"
   xmlns:sodipodi="http://sodipodi.sourceforge.net/DTD/sodipodi-0.dtd"
   xmlns="http://www.w3.org/2000/svg"
   xmlns:svg="http://www.w3.org/2000/svg"
   xmlns:rdf="http://www.w3.org/1999/02/22-rdf-syntax-ns#"
   xmlns:cc="http://creativecommons.org/ns#"
   xmlns:dc="http://purl.org/dc/elements/1.1/">
  <defs
     id="defs8" />
  <sodipodi:namedview
     id="namedview8"
     pagecolor="#ffffff"
     bordercolor="#cccccc"
     borderopacity="1"
     inkscape:showpageshadow="0"
     inkscape:pageopacity="1"
     inkscape:pagecheckerboard="0"
     inkscape:deskcolor="#d1d1d1"
     inkscape:document-units="px"
     inkscape:zoom="54.215385"
     inkscape:cx="8.0051078"
     inkscape:cy="7.9958853"
     inkscape:window-width="1920"
     inkscape:window-height="1056"
     inkscape:window-x="0"
     inkscape:window-y="24"
     inkscape:window-maximized="1"
     inkscape:current-layer="g8" />
  <g
     transform="scale(1,-1)"
     id="g8">
    <path
       id="path10"
       style="fill:#505050;fill-opacity:1;stroke:none;stroke-width:0.249515;stroke-dasharray:none"
       d="m 64.005415,36.06834 a 1.5001165,1.5006878 57.449268 0 1 0.162345,0.109487 8.0006224,8.0036687 57.449525 0 1 0.0034,0.0019 8.0006224,8.0036687 57.449525 0 1 2.761551,10.818326 8.0006224,8.0036687 57.449525 0 1 -10.932515,2.93064 8.0006224,8.0036687 57.449525 0 1 -2.927336,-10.929751 8.0006224,8.0036687 57.449525 0 1 2.834616,-2.869103 1.5001165,1.5006878 57.449268 0 0 -0.03139,0.02702 1.5001165,1.5006878 57.449268 0 1 0.127593,-0.0843 1.5001165,1.5006878 57.449268 0 1 9.73e-4,-0.0017 1.5001165,1.5006878 57.449268 0 1 1.498648,-0.0014 1.5001165,1.5006878 57.449268 0 1 0.548877,2.04933 1.5001165,1.5006878 57.449268 0 1 -0.559134,0.534552 l 0.01033,0.01729 a 5.000389,5.0022929 57.450225 0 0 -1.831832,1.828134 5.000389,5.0022929 57.450225 0 0 1.829587,6.831096 5.000389,5.0022929 57.450225 0 0 6.832821,-1.83165 5.000389,5.0022929 57.450225 0 0 -1.829585,-6.831098 1.5001165,1.5006878 57.449268 0 1 -0.548877,-2.049327 1.5001165,1.5006878 57.449268 0 1 2.049849,-0.549496 z m 0.356356,0.289143 a 1.5001165,1.5006878 57.449268 0 1 0.01398,0.01481 1.5001165,1.5006878 57.449268 0 0 -0.01398,-0.01481 z m 0.361324,1.311678 a 1.5001165,1.5006878 57.449268 0 1 -0.0047,0.01986 1.5001165,1.5006878 57.449268 0 0 0.0047,-0.01986 z m -0.458145,0.804894 a 1.5001165,1.5006878 57.449268 0 1 -0.01486,0.01401 1.5001165,1.5006878 57.449268 0 0 0.01486,-0.01401 z m -1.312016,0.361715 a 1.5001165,1.5006878 57.449268 0 1 -0.01988,-0.0047 1.5001165,1.5006878 57.449268 0 0 0.01988,0.0047 z m -7.273427,-2.510375 a 1.5001165,1.5006878 57.449268 0 0 -0.05822,0.06565 1.5001165,1.5006878 57.449268 0 1 0.05822,-0.06565 z m -0.390118,0.722336 a 1.5001165,1.5006878 57.449268 0 0 -0.0047,0.01986 1.5001165,1.5006878 57.449268 0 1 0.0047,-0.01986 z m 1.730077,1.781308 a 1.5001165,1.5006878 57.449268 0 1 -0.02133,0.0057 1.5001165,1.5006878 57.449268 0 0 0.02133,-0.0057 z m -0.510901,0.0097 a 1.5001165,1.5006878 57.449268 0 1 -0.03728,-0.0057 1.5001165,1.5006878 57.449268 0 0 0.03728,0.0057 z m -0.876537,-0.474302 a 1.5001165,1.5006878 57.449268 0 0 0.01398,0.01481 1.5001165,1.5006878 57.449268 0 1 -0.01398,-0.01481 z" />
  </g>
  <metadata
     id="metadata8">
    <rdf:RDF>
      <cc:Work
         rdf:about="">
        <dc:creator>
          <cc:Agent>
            <dc:title>Matthias Seidel</dc:title>
          </cc:Agent>
        </dc:creator>
      </cc:Work>
    </rdf:RDF>
  </metadata>
</svg>
