<?xml version="1.0" encoding="UTF-8" standalone="no"?>
<svg
   width="32"
   height="32"
   viewBox="44 -56 32 32"
   version="1.1"
   style="fill:none;stroke-linecap:round;stroke-linejoin:round"
   id="svg7"
   sodipodi:docname="spinner-32-08.svg"
   inkscape:version="1.3.2 (091e20ef0f, 2023-11-25)"
   inkscape:export-filename="spinner-32-08.png"
   inkscape:export-xdpi="96"
   inkscape:export-ydpi="96"
   xmlns:inkscape="http://www.inkscape.org/namespaces/inkscape"
   xmlns:sodipodi="http://sodipodi.sourceforge.net/DTD/sodipodi-0.dtd"
   xmlns="http://www.w3.org/2000/svg"
   xmlns:svg="http://www.w3.org/2000/svg"
   xmlns:rdf="http://www.w3.org/1999/02/22-rdf-syntax-ns#"
   xmlns:cc="http://creativecommons.org/ns#"
   xmlns:dc="http://purl.org/dc/elements/1.1/">
  <defs
     id="defs7" />
  <sodipodi:namedview
     id="namedview7"
     pagecolor="#ffffff"
     bordercolor="#cccccc"
     borderopacity="1"
     inkscape:showpageshadow="0"
     inkscape:pageopacity="1"
     inkscape:pagecheckerboard="0"
     inkscape:deskcolor="#d1d1d1"
     inkscape:document-units="px"
     inkscape:zoom="23.379845"
     inkscape:cx="16.125"
     inkscape:cy="16.146386"
     inkscape:window-width="1920"
     inkscape:window-height="1056"
     inkscape:window-x="0"
     inkscape:window-y="24"
     inkscape:window-maximized="1"
     inkscape:current-layer="g7" />
  <g
     transform="matrix(1,0,0,-1,0.125,0.125)"
     id="g7">
    <path
       id="path5"
       style="fill:#505050;fill-opacity:1;stroke:none;stroke-width:0.250125"
       d="m 51.864514,26.252932 a 2.5011037,2.5013962 25.516653 0 1 0.306184,-0.149717 16.007064,16.008936 25.51016 0 1 21.560081,6.008275 16.007064,16.008936 25.51016 0 1 -5.860111,21.868402 16.007064,16.008936 25.51016 0 1 -21.866264,-5.858555 16.007064,16.008936 25.51016 0 1 -0.141675,-15.704146 16.007064,16.008936 25.51016 0 1 0.0022,-0.0081 2.5011037,2.5013962 25.516653 0 1 0.05618,-0.113715 16.007064,16.008936 25.51016 0 1 0.08718,-0.181212 16.007064,16.008936 25.51016 0 1 0.05869,-0.101578 2.5011037,2.5013962 25.516653 0 1 0.853668,-0.815595 2.5011037,2.5013962 25.516653 0 1 3.416602,0.915398 2.5011037,2.5013962 25.516653 0 1 -0.0232,2.488699 l 0.02625,0.0142 a 11.004855,11.006143 25.51096 0 0 -0.0037,11.00456 11.004855,11.006143 25.51096 0 0 15.033055,4.027756 11.004855,11.006143 25.51096 0 0 4.028829,-15.034526 11.004855,11.006143 25.51096 0 0 -15.033057,-4.027757 2.5011037,2.5013962 25.516653 0 1 -3.416605,-0.915402 2.5011037,2.5013962 25.516653 0 1 0.915644,-3.416938 z m 0.704355,-0.269067 a 2.5011037,2.5013962 25.516653 0 1 0.06052,-0.01239 2.5011037,2.5013962 25.516653 0 0 -0.06052,0.01239 z m 0.771725,-0.05073 a 2.5011037,2.5013962 25.516653 0 1 0.05623,0.0036 2.5011037,2.5013962 25.516653 0 0 -0.05623,-0.0036 z m 0.771597,0.195287 a 2.5011037,2.5013962 25.516653 0 1 0.05051,0.025 2.5011037,2.5013962 25.516653 0 0 -0.05051,-0.025 z m 0.647257,0.413753 a 2.5011037,2.5013962 25.516653 0 1 0.04621,0.04099 2.5011037,2.5013962 25.516653 0 0 -0.04621,-0.04099 z M 45.72212,32.90454 a 2.5011037,2.5013962 25.516653 0 0 -0.01118,0.04706 2.5011037,2.5013962 25.516653 0 1 0.01118,-0.04706 z m 9.827984,-5.031824 a 2.5011037,2.5013962 25.516653 0 1 0.01239,0.06054 2.5011037,2.5013962 25.516653 0 0 -0.01239,-0.06054 z m -9.840373,5.905442 a 2.5011037,2.5013962 25.516653 0 0 0.01064,0.04575 2.5011037,2.5013962 25.516653 0 1 -0.01064,-0.04575 z m 9.891035,-5.133664 a 2.5011037,2.5013962 25.516653 0 1 -0.0036,0.05624 2.5011037,2.5013962 25.516653 0 0 0.0036,-0.05624 z m -0.195341,0.771672 a 2.5011037,2.5013962 25.516653 0 1 -0.02501,0.05052 2.5011037,2.5013962 25.516653 0 0 0.02501,-0.05052 z m -0.413787,0.647339 a 2.5011037,2.5013962 25.516653 0 1 -0.04099,0.04624 2.5011037,2.5013962 25.516653 0 0 0.04099,-0.04624 z m -8.511216,5.135699 a 2.5011037,2.5013962 25.516653 0 0 0.04622,0.04099 2.5011037,2.5013962 25.516653 0 1 -0.04622,-0.04099 z m 0.642962,0.429774 a 2.5011037,2.5013962 25.516653 0 0 0.05051,0.025 2.5011037,2.5013962 25.516653 0 1 -0.05051,-0.025 z m 0.765874,0.216643 a 2.5011037,2.5013962 25.516653 0 0 0.05624,0.0036 2.5011037,2.5013962 25.516653 0 1 -0.05624,-0.0036 z m 0.767433,-0.03473 a 2.5011037,2.5013962 25.516653 0 0 0.06052,-0.0124 2.5011037,2.5013962 25.516653 0 1 -0.06052,0.0124 z" />
  </g>
  <metadata
     id="metadata7">
    <rdf:RDF>
      <cc:Work
         rdf:about="">
        <dc:creator>
          <cc:Agent>
            <dc:title>Matthias Seidel</dc:title>
          </cc:Agent>
        </dc:creator>
      </cc:Work>
    </rdf:RDF>
  </metadata>
</svg>
