<?xml version="1.0" encoding="UTF-8" standalone="no"?>
<svg
   width="32"
   height="32"
   viewBox="44 -56 32 32"
   version="1.1"
   style="fill:none;stroke-linecap:round;stroke-linejoin:round"
   id="svg7"
   sodipodi:docname="spinner-32-01.svg"
   inkscape:version="1.3.2 (091e20ef0f, 2023-11-25)"
   inkscape:export-filename="spinner-32-01.png"
   inkscape:export-xdpi="96"
   inkscape:export-ydpi="96"
   xmlns:inkscape="http://www.inkscape.org/namespaces/inkscape"
   xmlns:sodipodi="http://sodipodi.sourceforge.net/DTD/sodipodi-0.dtd"
   xmlns="http://www.w3.org/2000/svg"
   xmlns:svg="http://www.w3.org/2000/svg"
   xmlns:rdf="http://www.w3.org/1999/02/22-rdf-syntax-ns#"
   xmlns:cc="http://creativecommons.org/ns#"
   xmlns:dc="http://purl.org/dc/elements/1.1/">
  <defs
     id="defs7" />
  <sodipodi:namedview
     id="namedview7"
     pagecolor="#ffffff"
     bordercolor="#cccccc"
     borderopacity="1"
     inkscape:showpageshadow="0"
     inkscape:pageopacity="1"
     inkscape:pagecheckerboard="0"
     inkscape:deskcolor="#d1d1d1"
     inkscape:document-units="px"
     inkscape:zoom="23.379845"
     inkscape:cx="16.125"
     inkscape:cy="16.146386"
     inkscape:window-width="1920"
     inkscape:window-height="1056"
     inkscape:window-x="0"
     inkscape:window-y="24"
     inkscape:window-maximized="1"
     inkscape:current-layer="g7" />
  <g
     transform="matrix(1,0,0,-1,0.125,0.125)"
     id="g7">
    <path
       id="path5"
       style="fill:#505050;fill-opacity:1;stroke:none;stroke-width:0.25"
       d="M 59.875,56.125 A 2.5,2.5 0 0 1 59.535156,56.101562 16,16 0 0 1 43.875,40.125 a 16,16 0 0 1 16,-16 16,16 0 0 1 16,16 16,16 0 0 1 -7.724609,13.664062 16,16 0 0 1 -0.0059,0.0059 2.5,2.5 0 0 1 -0.105469,0.07031 16,16 0 0 1 -0.166015,0.113282 16,16 0 0 1 -0.101563,0.05859 2.5,2.5 0 0 1 -1.146484,0.279297 2.5,2.5 0 0 1 -2.5,-2.5 2.5,2.5 0 0 1 1.263672,-2.142578 l -0.01563,-0.02539 A 11,11 0 0 0 70.875,40.125 a 11,11 0 0 0 -11,-11 11,11 0 0 0 -11,11 11,11 0 0 0 11,11 2.5,2.5 0 0 1 2.5,2.5 2.5,2.5 0 0 1 -2.5,2.5 z m -0.744141,-0.119141 a 2.5,2.5 0 0 1 -0.05859,-0.01953 2.5,2.5 0 0 0 0.05859,0.01953 z M 58.4375,55.664062 a 2.5,2.5 0 0 1 -0.04687,-0.03125 2.5,2.5 0 0 0 0.04687,0.03125 z m -0.570312,-0.554687 a 2.5,2.5 0 0 1 -0.03125,-0.04687 2.5,2.5 0 0 0 0.03125,0.04687 z m -0.353516,-0.681641 a 2.5,2.5 0 0 1 -0.01953,-0.05859 2.5,2.5 0 0 0 0.01953,0.05859 z M 68.515625,53.4375 a 2.5,2.5 0 0 0 0.0332,-0.03516 2.5,2.5 0 0 1 -0.0332,0.03516 z M 57.494141,52.880859 a 2.5,2.5 0 0 1 0.01953,-0.05859 2.5,2.5 0 0 0 -0.01953,0.05859 z M 68.962891,52.6875 a 2.5,2.5 0 0 0 0.01367,-0.04492 2.5,2.5 0 0 1 -0.01367,0.04492 z m -11.126953,-0.5 a 2.5,2.5 0 0 1 0.03125,-0.04687 2.5,2.5 0 0 0 -0.03125,0.04687 z m 0.554687,-0.570312 a 2.5,2.5 0 0 1 0.04687,-0.03125 2.5,2.5 0 0 0 -0.04687,0.03125 z m 0.681641,-0.353516 a 2.5,2.5 0 0 1 0.05859,-0.01953 2.5,2.5 0 0 0 -0.05859,0.01953 z m 9.933593,-0.191406 a 2.5,2.5 0 0 0 -0.01953,-0.05859 2.5,2.5 0 0 1 0.01953,0.05859 z m -0.341797,-0.69336 a 2.5,2.5 0 0 0 -0.03125,-0.04687 2.5,2.5 0 0 1 0.03125,0.04687 z m -0.554687,-0.570312 a 2.5,2.5 0 0 0 -0.04687,-0.03125 2.5,2.5 0 0 1 0.04687,0.03125 z m -0.681641,-0.353516 a 2.5,2.5 0 0 0 -0.05859,-0.01953 2.5,2.5 0 0 1 0.05859,0.01953 z" />
  </g>
  <metadata
     id="metadata7">
    <rdf:RDF>
      <cc:Work
         rdf:about="">
        <dc:creator>
          <cc:Agent>
            <dc:title>Matthias Seidel</dc:title>
          </cc:Agent>
        </dc:creator>
      </cc:Work>
    </rdf:RDF>
  </metadata>
</svg>
