<?xml version="1.0" encoding="UTF-8" standalone="no"?>
<svg
   width="16.000311"
   height="16.000315"
   viewBox="52 -51 16.000311 16.000315"
   version="1.1"
   style="fill:none;stroke-linecap:round;stroke-linejoin:round"
   id="svg7"
   sodipodi:docname="spinner-16-04.svg"
   inkscape:version="1.3.2 (091e20ef0f, 2023-11-25)"
   inkscape:export-filename="spinner-16-04.png"
   inkscape:export-xdpi="96"
   inkscape:export-ydpi="96"
   xmlns:inkscape="http://www.inkscape.org/namespaces/inkscape"
   xmlns:sodipodi="http://sodipodi.sourceforge.net/DTD/sodipodi-0.dtd"
   xmlns="http://www.w3.org/2000/svg"
   xmlns:svg="http://www.w3.org/2000/svg"
   xmlns:rdf="http://www.w3.org/1999/02/22-rdf-syntax-ns#"
   xmlns:cc="http://creativecommons.org/ns#"
   xmlns:dc="http://purl.org/dc/elements/1.1/">
  <defs
     id="defs7" />
  <sodipodi:namedview
     id="namedview7"
     pagecolor="#ffffff"
     bordercolor="#cccccc"
     borderopacity="1"
     inkscape:showpageshadow="0"
     inkscape:pageopacity="1"
     inkscape:pagecheckerboard="0"
     inkscape:deskcolor="#d1d1d1"
     inkscape:document-units="px"
     inkscape:zoom="47.125736"
     inkscape:cx="7.8725561"
     inkscape:cy="7.8619462"
     inkscape:window-width="1920"
     inkscape:window-height="1056"
     inkscape:window-x="0"
     inkscape:window-y="24"
     inkscape:window-maximized="1"
     inkscape:current-layer="g7" />
  <g
     transform="matrix(1,0,0,-1,2.9001502e-5,3e-5)"
     id="g7"
     style="fill:none;fill-opacity:1;stroke:#df0000;stroke-opacity:1">
    <path
       id="path12"
       style="fill:#505050;fill-opacity:1;stroke:none;stroke-width:0.249994"
       d="m 67.999969,43.001979 a 2.0004477,1.9994735 45.032611 0 1 -0.01978,0.269768 8.0017907,7.9978939 45.033524 0 1 -7.978278,7.728283 8.0017907,7.9978939 45.033524 0 1 -8.001941,-8.00195 8.0017907,7.9978939 45.033524 0 1 7.998047,-7.99805 8.0017907,7.9978939 45.033524 0 1 3.913959,1.026492 8.0017907,7.9978939 45.033524 0 1 0.0853,0.04764 l 8e-6,0.002 a 8.0017907,7.9978939 45.033524 0 1 0.04762,0.02578 2.0004477,1.9994735 45.032611 0 1 0.954543,1.704174 2.0004477,1.9994735 45.032611 0 1 -2.001001,1.999017 2.0004477,1.9994735 45.032611 0 1 -0.999815,-0.268033 4.0008953,3.9989468 45.033666 0 0 -1.999633,-0.536069 4.0008953,3.9989468 45.033666 0 0 -3.998032,3.998035 4.0008953,3.9989468 45.033666 0 0 3.99998,4.001965 4.0008953,3.9989468 45.033666 0 0 4.000015,-4.000017 2.0004477,1.9994735 45.032611 0 1 1.999017,-1.999016 2.0004477,1.9994735 45.032611 0 1 1.99999,1.999991 z" />
  </g>
  <metadata
     id="metadata7">
    <rdf:RDF>
      <cc:Work
         rdf:about="">
        <dc:creator>
          <cc:Agent>
            <dc:title>Matthias Seidel</dc:title>
          </cc:Agent>
        </dc:creator>
      </cc:Work>
    </rdf:RDF>
  </metadata>
</svg>
