<?xml version="1.0" encoding="UTF-8" standalone="no"?>
<!-- 2024-07-26 20:55:02 Generated by QCAD 3.29.4 SVG Exporter -->

<svg
   width="16"
   height="16"
   viewBox="52 -51 16 16"
   version="1.1"
   style="fill:none;stroke-linecap:round;stroke-linejoin:round"
   id="svg8"
   sodipodi:docname="spinner-16-08.svg"
   inkscape:version="1.3.2 (091e20ef0f, 2023-11-25)"
   inkscape:export-filename="spinner-16-08.png"
   inkscape:export-xdpi="96"
   inkscape:export-ydpi="96"
   xmlns:inkscape="http://www.inkscape.org/namespaces/inkscape"
   xmlns:sodipodi="http://sodipodi.sourceforge.net/DTD/sodipodi-0.dtd"
   xmlns="http://www.w3.org/2000/svg"
   xmlns:svg="http://www.w3.org/2000/svg"
   xmlns:rdf="http://www.w3.org/1999/02/22-rdf-syntax-ns#"
   xmlns:cc="http://creativecommons.org/ns#"
   xmlns:dc="http://purl.org/dc/elements/1.1/">
  <defs
     id="defs8" />
  <sodipodi:namedview
     id="namedview8"
     pagecolor="#ffffff"
     bordercolor="#cccccc"
     borderopacity="1"
     inkscape:showpageshadow="0"
     inkscape:pageopacity="1"
     inkscape:pagecheckerboard="0"
     inkscape:deskcolor="#d1d1d1"
     inkscape:document-units="px"
     inkscape:zoom="54.215385"
     inkscape:cx="8.0051078"
     inkscape:cy="7.9958853"
     inkscape:window-width="1920"
     inkscape:window-height="1056"
     inkscape:window-x="0"
     inkscape:window-y="24"
     inkscape:window-maximized="1"
     inkscape:current-layer="g8" />
  <g
     transform="scale(1,-1)"
     id="g8">
    <!-- Linie -->
    <!-- Linie -->
    <!-- Linie -->
    <!-- Linie -->
    <!-- Kreis -->
    <path
       id="path10"
       style="fill:#505050;fill-opacity:1;stroke:none;stroke-width:0.24954;stroke-dasharray:none"
       d="m 55.999123,36.063092 a 1.5001711,1.5009243 9.1772999 0 1 0.176008,-0.08588 8.0009131,8.0049297 9.1832201 0 1 0.0033,-0.002 8.0009131,8.0049297 9.1832201 0 1 10.749953,3.017003 8.0009131,8.0049297 9.1832201 0 1 -2.92944,10.935026 8.0009131,8.0049297 9.1832201 0 1 -10.929357,-2.929104 8.0009131,8.0049297 9.1832201 0 1 -1.067087,-3.889865 1.5001711,1.5009243 9.1772999 0 0 0.0077,0.0407 1.5001711,1.5009243 9.1772999 0 1 -0.0092,-0.152671 1.5001711,1.5009243 9.1772999 0 1 -10e-4,-0.0017 1.5001711,1.5009243 9.1772999 0 1 0.748272,-1.298828 1.5001711,1.5009243 9.1772999 0 1 2.049256,0.549208 1.5001711,1.5009243 9.1772999 0 1 0.183305,0.751591 l 0.02014,-3.08e-4 a 5.0005706,5.0030811 9.1832401 0 0 0.667087,2.50078 5.0005706,5.0030811 9.1832401 0 0 6.830852,1.83069 5.0005706,5.0030811 9.1832401 0 0 1.830899,-6.834392 5.0005706,5.0030811 9.1832401 0 0 -6.830852,-1.830692 1.5001711,1.5009243 9.1772999 0 1 -2.049258,-0.549213 1.5001711,1.5009243 9.1772999 0 1 0.54927,-2.050321 z m 0.42862,-0.164106 a 1.5001711,1.5009243 9.1772999 0 1 0.0198,-0.0047 1.5001711,1.5009243 9.1772999 0 0 -0.0198,0.0047 z m 1.316639,0.342846 a 1.5001711,1.5009243 9.1772999 0 1 0.01488,0.01398 1.5001711,1.5009243 9.1772999 0 0 -0.01488,-0.01398 z m 0.467949,0.799274 a 1.5001711,1.5009243 9.1772999 0 1 0.0047,0.01989 1.5001711,1.5009243 9.1772999 0 0 -0.0047,-0.01989 z m -0.342897,1.317322 a 1.5001711,1.5009243 9.1772999 0 1 -0.014,0.0149 1.5001711,1.5009243 9.1772999 0 0 0.014,-0.0149 z m -5.811527,5.045077 a 1.5001711,1.5009243 9.1772999 0 0 0.02774,0.08327 1.5001711,1.5009243 9.1772999 0 1 -0.02774,-0.08327 z m 0.430462,0.699075 a 1.5001711,1.5009243 9.1772999 0 0 0.01488,0.01398 1.5001711,1.5009243 9.1772999 0 1 -0.01488,-0.01398 z m 2.407872,-0.607954 a 1.5001711,1.5009243 9.1772999 0 1 -0.0057,0.02132 1.5001711,1.5009243 9.1772999 0 0 0.0057,-0.02132 z m -0.247105,0.447392 a 1.5001711,1.5009243 9.1772999 0 1 -0.0236,0.02944 1.5001711,1.5009243 9.1772999 0 0 0.0236,-0.02944 z m -0.849117,0.522109 a 1.5001711,1.5009243 9.1772999 0 0 0.0198,-0.0047 1.5001711,1.5009243 9.1772999 0 1 -0.0198,0.0047 z" />
    <!-- Linie -->
    <!-- Linie -->
    <!-- Kreis -->
    <!-- Kreis -->
    <!-- Kreis -->
  </g>
  <metadata
     id="metadata8">
    <rdf:RDF>
      <cc:Work
         rdf:about="">
        <dc:creator>
          <cc:Agent>
            <dc:title>Matthias Seidel</dc:title>
          </cc:Agent>
        </dc:creator>
      </cc:Work>
    </rdf:RDF>
  </metadata>
</svg>
