<?xml version="1.0" encoding="UTF-8" standalone="no"?>
<svg
   width="64"
   height="64"
   viewBox="9.8778 -21.8722 22.827793 22.827793"
   version="1.1"
   style="fill:none;stroke-linecap:round;stroke-linejoin:round"
   id="svg4"
   sodipodi:docname="spinner-64-01.svg"
   inkscape:version="1.3.2 (091e20ef0f, 2023-11-25)"
   inkscape:export-filename="spinner-64-01.png"
   inkscape:export-xdpi="96"
   inkscape:export-ydpi="96"
   xmlns:inkscape="http://www.inkscape.org/namespaces/inkscape"
   xmlns:sodipodi="http://sodipodi.sourceforge.net/DTD/sodipodi-0.dtd"
   xmlns="http://www.w3.org/2000/svg"
   xmlns:svg="http://www.w3.org/2000/svg"
   xmlns:rdf="http://www.w3.org/1999/02/22-rdf-syntax-ns#"
   xmlns:cc="http://creativecommons.org/ns#"
   xmlns:dc="http://purl.org/dc/elements/1.1/">
  <defs
     id="defs4" />
  <sodipodi:namedview
     id="namedview4"
     pagecolor="#ffffff"
     bordercolor="#cccccc"
     borderopacity="1"
     inkscape:showpageshadow="0"
     inkscape:pageopacity="1"
     inkscape:pagecheckerboard="0"
     inkscape:deskcolor="#d1d1d1"
     inkscape:document-units="px"
     inkscape:zoom="11.911385"
     inkscape:cx="31.650392"
     inkscape:cy="31.692368"
     inkscape:window-width="1920"
     inkscape:window-height="1056"
     inkscape:window-x="0"
     inkscape:window-y="24"
     inkscape:window-maximized="1"
     inkscape:current-layer="svg4" />
  <path
     id="path9"
     style="fill:#505050;fill-opacity:1;stroke:none;stroke-width:0.360624;stroke-dasharray:none"
     d="m 21.291696,-21.8722 a 1.7833726,1.7833724 0 0 0 -0.241589,0.01761 11.413597,11.413595 0 0 0 -11.172307,11.396286 11.413597,11.413595 0 0 0 11.413896,11.413895 11.413597,11.413595 0 0 0 11.413897,-11.413895 11.413597,11.413595 0 0 0 -5.507266,-9.746007 1.7833726,1.7833724 0 0 0 -0.104244,-0.07114 11.413597,11.413595 0 0 0 -0.08382,-0.05705 1.7833726,1.7833724 0 0 1 0.0064,0.0057 1.7833726,1.7833724 0 0 0 -0.01973,-0.01339 11.413597,11.413595 0 0 0 -0.08452,-0.04789 1.7833726,1.7833724 0 0 0 -0.80577,-0.193695 1.7833726,1.7833724 0 0 0 -1.783399,1.783398 1.7833726,1.7833724 0 0 0 0.90156,1.527723 l -0.0099,0.0169 a 7.8468389,7.8468376 0 0 1 3.9239,6.79551 7.8468389,7.8468376 0 0 1 -7.847097,7.8470973 7.8468389,7.8468376 0 0 1 -7.847098,-7.8470973 7.8468389,7.8468376 0 0 1 7.847098,-7.847096 1.7833726,1.7833724 0 0 0 1.7834,-1.783399 1.7833726,1.7833724 0 0 0 -1.7834,-1.783399 z m -0.529667,0.08382 a 1.7833726,1.7833724 0 0 0 -0.04508,0.0155 1.7833726,1.7833724 0 0 1 0.04508,-0.0155 z m -0.502901,0.249338 a 1.7833726,1.7833724 0 0 0 -0.02324,0.0155 1.7833726,1.7833724 0 0 1 0.02324,-0.0155 z m -0.400772,0.39232 a 1.7833726,1.7833724 0 0 0 -0.01973,0.02958 1.7833726,1.7833724 0 0 1 0.01973,-0.02958 z m -0.251451,0.485293 a 1.7833726,1.7833724 0 0 0 -0.01479,0.04226 1.7833726,1.7833724 0 0 1 0.01479,-0.04226 z m 7.854142,0.712091 a 1.7833726,1.7833724 0 0 1 0.02465,0.02747 1.7833726,1.7833724 0 0 0 -0.02465,-0.02747 z m -7.868933,0.390911 a 1.7833726,1.7833724 0 0 0 0.01479,0.04226 1.7833726,1.7833724 0 0 1 -0.01479,-0.04226 z m 8.18307,0.142278 a 1.7833726,1.7833724 0 0 1 0.01127,0.0324 1.7833726,1.7833724 0 0 0 -0.01127,-0.0324 z m -7.936549,0.355694 a 1.7833726,1.7833724 0 0 0 0.01973,0.02958 1.7833726,1.7833724 0 0 1 -0.01973,-0.02958 z m 0.39725,0.406406 a 1.7833726,1.7833724 0 0 0 0.02324,0.0155 1.7833726,1.7833724 0 0 1 -0.02324,-0.0155 z m 7.642133,0.05846 a 1.7833726,1.7833724 0 0 1 -0.0028,0.02184 1.7833726,1.7833724 0 0 0 0.0028,-0.02184 z m -7.161066,0.190878 a 1.7833726,1.7833724 0 0 0 0.04508,0.0155 1.7833726,1.7833724 0 0 1 -0.04508,-0.0155 z m 6.862425,0.61137 a 1.7833726,1.7833724 0 0 1 -0.01197,0.0162 1.7833726,1.7833724 0 0 0 0.01197,-0.0162 z m -0.451485,0.455711 a 1.7833726,1.7833724 0 0 1 -0.0162,0.01197 1.7833726,1.7833724 0 0 0 0.0162,-0.01197 z m -0.796613,0.307798 a 1.7833726,1.7833724 0 0 1 -0.02184,0.0028 1.7833726,1.7833724 0 0 0 0.02184,-0.0028 z" />
  <metadata
     id="metadata4">
    <rdf:RDF>
      <cc:Work
         rdf:about="">
        <dc:creator>
          <cc:Agent>
            <dc:title>Matthias Seidel</dc:title>
          </cc:Agent>
        </dc:creator>
      </cc:Work>
    </rdf:RDF>
  </metadata>
</svg>
