<?xml version="1.0" encoding="UTF-8" standalone="no"?>
<svg
   width="32"
   height="32"
   viewBox="44 -56 32 32"
   version="1.1"
   style="fill:none;stroke-linecap:round;stroke-linejoin:round"
   id="svg7"
   sodipodi:docname="spinner-32-02.svg"
   inkscape:version="1.3.2 (091e20ef0f, 2023-11-25)"
   inkscape:export-filename="spinner-32-02.png"
   inkscape:export-xdpi="96"
   inkscape:export-ydpi="96"
   xmlns:inkscape="http://www.inkscape.org/namespaces/inkscape"
   xmlns:sodipodi="http://sodipodi.sourceforge.net/DTD/sodipodi-0.dtd"
   xmlns="http://www.w3.org/2000/svg"
   xmlns:svg="http://www.w3.org/2000/svg"
   xmlns:rdf="http://www.w3.org/1999/02/22-rdf-syntax-ns#"
   xmlns:cc="http://creativecommons.org/ns#"
   xmlns:dc="http://purl.org/dc/elements/1.1/">
  <defs
     id="defs7" />
  <sodipodi:namedview
     id="namedview7"
     pagecolor="#ffffff"
     bordercolor="#cccccc"
     borderopacity="1"
     inkscape:showpageshadow="0"
     inkscape:pageopacity="1"
     inkscape:pagecheckerboard="0"
     inkscape:deskcolor="#d1d1d1"
     inkscape:document-units="px"
     inkscape:zoom="23.379845"
     inkscape:cx="16.125"
     inkscape:cy="16.146386"
     inkscape:window-width="1920"
     inkscape:window-height="1056"
     inkscape:window-x="0"
     inkscape:window-y="24"
     inkscape:window-maximized="1"
     inkscape:current-layer="g7" />
  <g
     transform="matrix(1,0,0,-1,0.125,0.125)"
     id="g7">
    <path
       id="path5"
       style="fill:#505050;fill-opacity:1;stroke:none;stroke-width:0.250125"
       d="m 67.886114,53.997431 a 2.5011578,2.5013419 0 0 1 -0.306175,0.149705 16.00741,16.008588 0 0 1 -21.560353,-6.009255 16.00741,16.008588 0 0 1 5.859118,-21.868137 16.00741,16.008588 0 0 1 21.866528,5.859549 16.00741,16.008588 0 0 1 0.14239,15.704154 16.00741,16.008588 0 0 1 -0.0022,0.0081 2.5011578,2.5013419 0 0 1 -0.05621,0.113686 16.00741,16.008588 0 0 1 -0.08717,0.181209 16.00741,16.008588 0 0 1 -0.05869,0.101577 2.5011578,2.5013419 0 0 1 -0.853632,0.815557 2.5011578,2.5013419 0 0 1 -3.416644,-0.915554 2.5011578,2.5013419 0 0 1 0.02309,-2.488698 l -0.02624,-0.01418 a 11.005094,11.005904 0 0 0 0.0032,-11.004516 11.005094,11.005904 0 0 0 -15.033238,-4.02844 11.005094,11.005904 0 0 0 -4.028144,15.034344 11.005094,11.005904 0 0 0 15.033238,4.02844 2.5011578,2.5013419 0 0 1 3.416646,0.915556 2.5011578,2.5013419 0 0 1 -0.915488,3.416896 z m -0.704342,0.269036 a 2.5011578,2.5013419 0 0 1 -0.06054,0.01239 2.5011578,2.5013419 0 0 0 0.06054,-0.01239 z m -0.771722,0.0507 a 2.5011578,2.5013419 0 0 1 -0.05624,-0.0036 2.5011578,2.5013419 0 0 0 0.05624,0.0036 z m -0.771606,-0.195322 a 2.5011578,2.5013419 0 0 1 -0.05052,-0.02498 2.5011578,2.5013419 0 0 0 0.05052,0.02498 z M 64.991171,53.70806 a 2.5011578,2.5013419 0 0 1 -0.04623,-0.04099 2.5011578,2.5013419 0 0 0 0.04623,0.04099 z m 9.037037,-6.361957 a 2.5011578,2.5013419 0 0 0 0.01117,-0.04707 2.5011578,2.5013419 0 0 1 -0.01117,0.04707 z m -9.827755,5.031376 a 2.5011578,2.5013419 0 0 1 -0.01239,-0.06053 2.5011578,2.5013419 0 0 0 0.01239,0.06053 z m 9.840104,-5.904996 a 2.5011578,2.5013419 0 0 0 -0.01063,-0.04576 2.5011578,2.5013419 0 0 1 0.01063,0.04576 z M 64.149755,51.6057 a 2.5011578,2.5013419 0 0 1 0.0036,-0.05624 2.5011578,2.5013419 0 0 0 -0.0036,0.05624 z m 0.195308,-0.771662 a 2.5011578,2.5013419 0 0 1 0.02497,-0.05053 2.5011578,2.5013419 0 0 0 -0.02497,0.05053 z m 0.413751,-0.647322 a 2.5011578,2.5013419 0 0 1 0.04099,-0.04623 2.5011578,2.5013419 0 0 0 -0.04099,0.04623 z m 8.510981,-5.135314 a 2.5011578,2.5013419 0 0 0 -0.04623,-0.04099 2.5011578,2.5013419 0 0 1 0.04623,0.04099 z m -0.642983,-0.429799 a 2.5011578,2.5013419 0 0 0 -0.05052,-0.02498 2.5011578,2.5013419 0 0 1 0.05052,0.02498 z m -0.765883,-0.216677 a 2.5011578,2.5013419 0 0 0 -0.05625,-0.0036 2.5011578,2.5013419 0 0 1 0.05625,0.0036 z m -0.767431,0.03469 a 2.5011578,2.5013419 0 0 0 -0.06054,0.01239 2.5011578,2.5013419 0 0 1 0.06054,-0.01239 z" />
  </g>
  <metadata
     id="metadata7">
    <rdf:RDF>
      <cc:Work
         rdf:about="">
        <dc:creator>
          <cc:Agent>
            <dc:title>Matthias Seidel</dc:title>
          </cc:Agent>
        </dc:creator>
      </cc:Work>
    </rdf:RDF>
  </metadata>
</svg>
