<?xml version="1.0" encoding="UTF-8" standalone="no"?>
<svg
   width="64"
   height="64"
   viewBox="28 -62 64 64"
   version="1.1"
   style="fill:none;stroke-linecap:round;stroke-linejoin:round"
   id="svg7"
   sodipodi:docname="spinner-64-07.svg"
   inkscape:version="1.3.2 (091e20ef0f, 2023-11-25)"
   inkscape:export-filename="spinner-64-07.png"
   inkscape:export-xdpi="96"
   inkscape:export-ydpi="96"
   xmlns:inkscape="http://www.inkscape.org/namespaces/inkscape"
   xmlns:sodipodi="http://sodipodi.sourceforge.net/DTD/sodipodi-0.dtd"
   xmlns="http://www.w3.org/2000/svg"
   xmlns:svg="http://www.w3.org/2000/svg"
   xmlns:rdf="http://www.w3.org/1999/02/22-rdf-syntax-ns#"
   xmlns:cc="http://creativecommons.org/ns#"
   xmlns:dc="http://purl.org/dc/elements/1.1/">
  <defs
     id="defs7" />
  <sodipodi:namedview
     id="namedview7"
     pagecolor="#ffffff"
     bordercolor="#cccccc"
     borderopacity="1"
     inkscape:showpageshadow="0"
     inkscape:pageopacity="1"
     inkscape:pagecheckerboard="0"
     inkscape:deskcolor="#d1d1d1"
     inkscape:document-units="px"
     inkscape:zoom="13.712062"
     inkscape:cx="32.015608"
     inkscape:cy="31.979144"
     inkscape:window-width="1920"
     inkscape:window-height="1056"
     inkscape:window-x="0"
     inkscape:window-y="24"
     inkscape:window-maximized="1"
     inkscape:current-layer="g7" />
  <g
     transform="scale(1,-1)"
     id="g7">
    <path
       id="path12"
       style="fill:#505050;fill-opacity:1;stroke:none;stroke-width:0.249448;stroke-dasharray:none"
       d="m 60.004432,-1.9999997 a 4.9993075,5.0006925 44.99946 0 1 0.681633,0.048735 A 31.995569,32.004431 45.0021 0 1 92,29.995568 31.995569,32.004431 45.0021 0 1 59.995567,62 31.995569,32.004431 45.0021 0 1 28,30.004433 a 31.995569,32.004431 45.0021 0 1 4.158432,-15.750577 31.995569,32.004431 45.0021 0 1 0.138666,-0.246134 31.995569,32.004431 45.0021 0 1 0.02345,-0.04103 4.9993075,5.0006925 44.99946 0 1 4.299171,-2.463483 4.9993075,5.0006925 44.99946 0 1 4.999307,4.999308 4.9993075,5.0006925 44.99946 0 1 -0.717142,2.472754 l 0.05469,0.03125 A 21.996953,22.003047 44.996727 0 0 38.000001,30.003048 21.996953,22.003047 44.996727 0 0 59.996954,52.000001 21.996953,22.003047 44.996727 0 0 82.000001,29.996953 21.996953,22.003047 44.996727 0 0 60.00305,8.000001 4.9993075,5.0006925 44.99946 0 1 55.003742,3.0006931 a 4.9993075,5.0006925 44.99946 0 1 5.00069,-5.0006928 z m 1.484344,0.2341686 a 4.9993075,5.0006925 44.99946 0 1 0.124992,0.042953 4.9993075,5.0006925 44.99946 0 0 -0.124992,-0.042953 z m 1.39834,0.6912142 a 4.9993075,5.0006925 44.99946 0 1 0.08396,0.056668 4.9993075,5.0006925 44.99946 0 0 -0.08396,-0.056668 z M 64.02173,0.03264612 A 4.9993075,5.0006925 44.99946 0 1 64.0784,0.1165894 4.9993075,5.0006925 44.99946 0 0 64.02173,0.03264612 Z m 0.704892,1.35732298 a 4.9993075,5.0006925 44.99946 0 1 0.04294,0.1249927 4.9993075,5.0006925 44.99946 0 0 -0.04294,-0.1249927 z m 0.04253,3.0937463 a 4.9993075,5.0006925 44.99946 0 1 -0.04298,0.1250156 4.9993075,5.0006925 44.99946 0 0 0.04298,-0.1250156 z m -0.691599,1.3985303 a 4.9993075,5.0006925 44.99946 0 1 -0.05668,0.083981 4.9993075,5.0006925 44.99946 0 0 0.05668,-0.083981 z m -1.107576,1.1349202 a 4.9993075,5.0006925 44.99946 0 1 -0.08399,0.056678 4.9993075,5.0006925 44.99946 0 0 0.08399,-0.056678 z m -1.357521,0.7052592 a 4.9993075,5.0006925 44.99946 0 1 -0.125009,0.042979 4.9993075,5.0006925 44.99946 0 0 0.125009,-0.042979 z M 31.853226,17.98827 a 4.9993075,5.0006925 44.99946 0 0 0.04294,0.124999 4.9993075,5.0006925 44.99946 0 1 -0.04294,-0.124999 z m 0.691214,1.398343 a 4.9993075,5.0006925 44.99946 0 0 0.05659,0.084 4.9993075,5.0006925 44.99946 0 1 -0.05659,-0.084 z m 7.2948,0.873989 a 4.9993075,5.0006925 44.99946 0 1 -0.07618,0.06837 4.9993075,5.0006925 44.99946 0 0 0.07618,-0.06837 z m -6.187535,0.260622 a 4.9993075,5.0006925 44.99946 0 0 0.08395,0.05667 4.9993075,5.0006925 44.99946 0 1 -0.08395,-0.05667 z m 4.701081,0.639975 a 4.9993075,5.0006925 44.99946 0 1 -0.0918,0.03127 4.9993075,5.0006925 44.99946 0 0 0.0918,-0.03127 z m -3.343759,0.06492 a 4.9993075,5.0006925 44.99946 0 0 0.124993,0.04295 4.9993075,5.0006925 44.99946 0 1 -0.124993,-0.04295 z" />
  </g>
  <metadata
     id="metadata7">
    <rdf:RDF>
      <cc:Work
         rdf:about="">
        <dc:creator>
          <cc:Agent>
            <dc:title>Matthias Seidel</dc:title>
          </cc:Agent>
        </dc:creator>
      </cc:Work>
    </rdf:RDF>
  </metadata>
</svg>
