<?xml version="1.0" encoding="UTF-8" standalone="no"?>
<svg
   width="16.000311"
   height="16.000315"
   viewBox="52 -51 16.000311 16.000315"
   version="1.1"
   style="fill:none;stroke-linecap:round;stroke-linejoin:round"
   id="svg7"
   sodipodi:docname="spinner-16-09.svg"
   inkscape:version="1.3.2 (091e20ef0f, 2023-11-25)"
   inkscape:export-filename="spinner-16-09.png"
   inkscape:export-xdpi="96"
   inkscape:export-ydpi="96"
   xmlns:inkscape="http://www.inkscape.org/namespaces/inkscape"
   xmlns:sodipodi="http://sodipodi.sourceforge.net/DTD/sodipodi-0.dtd"
   xmlns="http://www.w3.org/2000/svg"
   xmlns:svg="http://www.w3.org/2000/svg"
   xmlns:rdf="http://www.w3.org/1999/02/22-rdf-syntax-ns#"
   xmlns:cc="http://creativecommons.org/ns#"
   xmlns:dc="http://purl.org/dc/elements/1.1/">
  <defs
     id="defs7" />
  <sodipodi:namedview
     id="namedview7"
     pagecolor="#ffffff"
     bordercolor="#cccccc"
     borderopacity="1"
     inkscape:showpageshadow="0"
     inkscape:pageopacity="1"
     inkscape:pagecheckerboard="0"
     inkscape:deskcolor="#d1d1d1"
     inkscape:document-units="px"
     inkscape:zoom="47.125736"
     inkscape:cx="7.8725561"
     inkscape:cy="7.8619462"
     inkscape:window-width="1920"
     inkscape:window-height="1056"
     inkscape:window-x="0"
     inkscape:window-y="24"
     inkscape:window-maximized="1"
     inkscape:current-layer="g7" />
  <g
     transform="matrix(1,0,0,-1,2.9001502e-5,3e-5)"
     id="g7"
     style="fill:none;fill-opacity:1;stroke:#df0000;stroke-opacity:1">
    <path
       id="path12"
       style="fill:#505050;fill-opacity:1;stroke:none;stroke-width:0.250074"
       d="m 53.065521,38.992605 a 2.0011819,2.0000227 60.561076 0 1 0.152047,-0.223774 8.0047278,8.0000908 60.562048 0 1 10.777309,-2.70309 8.0047278,8.0000908 60.562048 0 1 2.931412,10.934071 8.0047278,8.0000908 60.562048 0 1 -10.929342,2.926868 8.0047278,8.0000908 60.562048 0 1 -2.877801,-2.847051 8.0047278,8.0000908 60.562048 0 1 -0.05009,-0.08393 l 9.73e-4,-0.0017 a 8.0047278,8.0000908 60.562048 0 1 -0.02838,-0.04614 2.0011819,2.0000227 60.561076 0 1 0.02519,-1.953634 2.0011819,2.0000227 60.561076 0 1 2.73338,-0.730542 2.0011819,2.0000227 60.561076 0 1 0.732222,0.732315 4.002364,4.0000454 60.562989 0 0 1.464441,1.464628 4.002364,4.0000454 60.562989 0 0 5.463317,-1.463072 4.002364,4.0000454 60.562989 0 0 -1.464352,-5.467397 4.002364,4.0000454 60.562989 0 0 -5.466026,1.463798 2.0011819,2.0000227 60.561076 0 1 -2.731658,0.731535 2.0011819,2.0000227 60.561076 0 1 -0.732674,-2.732839 z" />
  </g>
  <metadata
     id="metadata7">
    <rdf:RDF>
      <cc:Work
         rdf:about="">
        <dc:creator>
          <cc:Agent>
            <dc:title>Matthias Seidel</dc:title>
          </cc:Agent>
        </dc:creator>
      </cc:Work>
    </rdf:RDF>
  </metadata>
</svg>
