<?xml version="1.0" encoding="UTF-8" standalone="no"?>
<svg
   width="32"
   height="32"
   viewBox="44 -56 32 31.999999"
   version="1.1"
   style="fill:none;stroke-linecap:round;stroke-linejoin:round"
   id="svg7"
   sodipodi:docname="spinner-32-10.svg"
   inkscape:version="1.3.2 (091e20ef0f, 2023-11-25)"
   inkscape:export-filename="spinner-32-10.png"
   inkscape:export-xdpi="96"
   inkscape:export-ydpi="96"
   xmlns:inkscape="http://www.inkscape.org/namespaces/inkscape"
   xmlns:sodipodi="http://sodipodi.sourceforge.net/DTD/sodipodi-0.dtd"
   xmlns="http://www.w3.org/2000/svg"
   xmlns:svg="http://www.w3.org/2000/svg"
   xmlns:rdf="http://www.w3.org/1999/02/22-rdf-syntax-ns#"
   xmlns:cc="http://creativecommons.org/ns#"
   xmlns:dc="http://purl.org/dc/elements/1.1/">
  <defs
     id="defs7" />
  <sodipodi:namedview
     id="namedview7"
     pagecolor="#ffffff"
     bordercolor="#cccccc"
     borderopacity="1"
     inkscape:showpageshadow="0"
     inkscape:pageopacity="1"
     inkscape:pagecheckerboard="0"
     inkscape:deskcolor="#d1d1d1"
     inkscape:document-units="px"
     inkscape:zoom="27.317829"
     inkscape:cx="15.996879"
     inkscape:cy="16.015182"
     inkscape:window-width="1920"
     inkscape:window-height="1056"
     inkscape:window-x="0"
     inkscape:window-y="24"
     inkscape:window-maximized="1"
     inkscape:current-layer="g7" />
  <g
     transform="scale(1,-1)"
     id="g7">
    <path
       id="path12"
       style="fill:#505050;fill-opacity:1;stroke:none;stroke-width:0.24945;stroke-dasharray:none"
       d="M 44,39.997709 A 2.500358,2.4996419 45.021206 0 1 44.023392,39.657867 16.002292,15.997709 45.023101 0 1 59.99771,24 16.002292,15.997709 45.023101 0 1 76,40.002291 16.002292,15.997709 45.023101 0 1 60.002295,56 16.002292,15.997709 45.023101 0 1 52.105512,53.91098 16.002292,15.997709 45.023101 0 1 52.003938,53.85238 l -7e-6,-0.002 a 2.500358,2.4996419 45.021206 0 1 -1.252244,-2.160348 2.500358,2.4996419 45.021206 0 1 2.499643,-2.499639 2.500358,2.4996419 45.021206 0 1 1.236378,0.357599 l 0.01563,-0.02542 a 11.001577,10.998426 45.015151 0 0 5.498244,1.47744 A 11.001577,10.998426 45.015151 0 0 71.000005,40.001585 11.001577,10.998426 45.015151 0 0 59.998431,29.000009 11.001577,10.998426 45.015151 0 0 49.00001,39.998434 2.500358,2.4996419 45.021206 0 1 46.500366,42.498074 2.500358,2.4996419 45.021206 0 1 44.00001,39.997719 Z m 0.119037,-0.744124 a 2.500358,2.4996419 45.021206 0 1 0.01952,-0.05858 2.500358,2.4996419 45.021206 0 0 -0.01952,0.05858 z m 0.341703,-0.693308 a 2.500358,2.4996419 45.021206 0 1 0.03122,-0.04689 2.500358,2.4996419 45.021206 0 0 -0.03122,0.04689 z m 0.554607,-0.570229 a 2.500358,2.4996419 45.021206 0 1 0.04689,-0.03123 2.500358,2.4996419 45.021206 0 0 -0.04689,0.03123 z m 0.681592,-0.353423 a 2.500358,2.4996419 45.021206 0 1 0.05859,-0.01952 2.500358,2.4996419 45.021206 0 0 -0.05859,0.01952 z m 1.546872,-0.01932 a 2.500358,2.4996419 45.021206 0 1 0.05858,0.01956 2.500358,2.4996419 45.021206 0 0 -0.05858,-0.01956 z m 0.693404,0.3419 a 2.500358,2.4996419 45.021206 0 1 0.04688,0.03123 2.500358,2.4996419 45.021206 0 0 -0.04688,-0.03123 z m 0.570391,0.554773 a 2.500358,2.4996419 45.021206 0 1 0.03122,0.04689 2.500358,2.4996419 45.021206 0 0 -0.03122,-0.04689 z m 0.353618,0.681687 a 2.500358,2.4996419 45.021206 0 1 0.01953,0.05859 2.500358,2.4996419 45.021206 0 0 -0.01953,-0.05859 z m 5.134932,14.875734 a 2.500358,2.4996419 45.021206 0 0 0.05859,-0.01952 2.500358,2.4996419 45.021206 0 1 -0.05859,0.01952 z M 54.689461,53.7297 a 2.500358,2.4996419 45.021206 0 0 0.04688,-0.03123 2.500358,2.4996419 45.021206 0 1 -0.04688,0.03123 z m 0.440886,-3.65033 a 2.500358,2.4996419 45.021206 0 1 0.03521,0.04098 2.500358,2.4996419 45.021206 0 0 -0.03521,-0.04098 z m 0.129349,3.095721 a 2.500358,2.4996419 45.021206 0 0 0.03122,-0.04688 2.500358,2.4996419 45.021206 0 1 -0.03122,0.04688 z m 0.321931,-2.351518 a 2.500358,2.4996419 45.021206 0 1 0.01371,0.04294 2.500358,2.4996419 45.021206 0 0 -0.01371,-0.04294 z m 0.03149,1.66993 a 2.500358,2.4996419 45.021206 0 0 0.01952,-0.05858 2.500358,2.4996419 45.021206 0 1 -0.01952,0.05858 z" />
  </g>
  <metadata
     id="metadata7">
    <rdf:RDF>
      <cc:Work
         rdf:about="">
        <dc:creator>
          <cc:Agent>
            <dc:title>Matthias Seidel</dc:title>
          </cc:Agent>
        </dc:creator>
      </cc:Work>
    </rdf:RDF>
  </metadata>
</svg>
