<?xml version="1.0" encoding="UTF-8" standalone="no"?>
<svg
   width="32"
   height="32"
   viewBox="44 -56 32 31.999999"
   version="1.1"
   style="fill:none;stroke-linecap:round;stroke-linejoin:round"
   id="svg7"
   sodipodi:docname="spinner-32-07.svg"
   inkscape:version="1.3.2 (091e20ef0f, 2023-11-25)"
   inkscape:export-filename="spinner-32-07.png"
   inkscape:export-xdpi="96"
   inkscape:export-ydpi="96"
   xmlns:inkscape="http://www.inkscape.org/namespaces/inkscape"
   xmlns:sodipodi="http://sodipodi.sourceforge.net/DTD/sodipodi-0.dtd"
   xmlns="http://www.w3.org/2000/svg"
   xmlns:svg="http://www.w3.org/2000/svg"
   xmlns:rdf="http://www.w3.org/1999/02/22-rdf-syntax-ns#"
   xmlns:cc="http://creativecommons.org/ns#"
   xmlns:dc="http://purl.org/dc/elements/1.1/">
  <defs
     id="defs7" />
  <sodipodi:namedview
     id="namedview7"
     pagecolor="#ffffff"
     bordercolor="#cccccc"
     borderopacity="1"
     inkscape:showpageshadow="0"
     inkscape:pageopacity="1"
     inkscape:pagecheckerboard="0"
     inkscape:deskcolor="#d1d1d1"
     inkscape:document-units="px"
     inkscape:zoom="27.317829"
     inkscape:cx="15.996879"
     inkscape:cy="16.015182"
     inkscape:window-width="1920"
     inkscape:window-height="1056"
     inkscape:window-x="0"
     inkscape:window-y="24"
     inkscape:window-maximized="1"
     inkscape:current-layer="g7" />
  <g
     transform="scale(1,-1)"
     id="g7">
    <path
       id="path12"
       style="fill:#505050;fill-opacity:1;stroke:none;stroke-width:0.249449;stroke-dasharray:none"
       d="M 60.002293,24 A 2.4996416,2.5003583 45.022378 0 1 60.342134,24.02339 15.997707,16.002294 45.021644 0 1 76,39.997707 15.997707,16.002294 45.021644 0 1 59.997707,56 15.997707,16.002294 45.021644 0 1 44,40.002297 a 15.997707,16.002294 45.021644 0 1 2.089022,-7.896784 15.997707,16.002294 45.021644 0 1 0.0586,-0.101573 l 0.002,-7e-6 a 2.4996416,2.5003583 45.022378 0 1 2.16035,-1.252239 2.4996416,2.5003583 45.022378 0 1 2.499641,2.499642 2.4996416,2.5003583 45.022378 0 1 -0.3576,1.236378 l 0.02541,0.01562 A 10.998424,11.001579 45.017736 0 0 48.999987,40.001584 10.998424,11.001579 45.017736 0 0 59.998412,51.000005 10.998424,11.001579 45.017736 0 0 70.999989,39.998431 10.998424,11.001579 45.017736 0 0 60.001565,29.000009 2.4996416,2.5003583 45.022378 0 1 57.501924,26.500366 2.4996416,2.5003583 45.022378 0 1 60.00228,24.00001 Z m 0.744124,0.119036 a 2.4996416,2.5003583 45.022378 0 1 0.05859,0.01953 2.4996416,2.5003583 45.022378 0 0 -0.05859,-0.01953 z m 0.693309,0.341701 a 2.4996416,2.5003583 45.022378 0 1 0.04689,0.03123 2.4996416,2.5003583 45.022378 0 0 -0.04689,-0.03123 z m 0.570231,0.554606 a 2.4996416,2.5003583 45.022378 0 1 0.03123,0.04688 2.4996416,2.5003583 45.022378 0 0 -0.03123,-0.04688 z m 0.353415,0.681594 a 2.4996416,2.5003583 45.022378 0 1 0.01952,0.05859 2.4996416,2.5003583 45.022378 0 0 -0.01952,-0.05859 z m 0.01932,1.546872 a 2.4996416,2.5003583 45.022378 0 1 -0.01955,0.05859 2.4996416,2.5003583 45.022378 0 0 0.01955,-0.05859 z m -0.341904,0.693404 a 2.4996416,2.5003583 45.022378 0 1 -0.03123,0.04688 2.4996416,2.5003583 45.022378 0 0 0.03123,-0.04688 z m -0.554773,0.570391 a 2.4996416,2.5003583 45.022378 0 1 -0.04689,0.03122 2.4996416,2.5003583 45.022378 0 0 0.04689,-0.03122 z m -0.681688,0.353618 a 2.4996416,2.5003583 45.022378 0 1 -0.05859,0.01953 2.4996416,2.5003583 45.022378 0 0 0.05859,-0.01953 z m -14.875728,5.134936 a 2.4996416,2.5003583 45.022378 0 0 0.01952,0.05859 2.4996416,2.5003583 45.022378 0 1 -0.01952,-0.05859 z m 0.341703,0.693304 a 2.4996416,2.5003583 45.022378 0 0 0.03123,0.04688 2.4996416,2.5003583 45.022378 0 1 -0.03123,-0.04688 z m 3.650328,0.440885 a 2.4996416,2.5003583 45.022378 0 1 -0.04098,0.03521 2.4996416,2.5003583 45.022378 0 0 0.04098,-0.03521 z m -3.09572,0.12935 a 2.4996416,2.5003583 45.022378 0 0 0.04688,0.03123 2.4996416,2.5003583 45.022378 0 1 -0.04688,-0.03123 z m 2.351518,0.321929 a 2.4996416,2.5003583 45.022378 0 1 -0.04295,0.01371 2.4996416,2.5003583 45.022378 0 0 0.04295,-0.01371 z m -1.669929,0.03149 a 2.4996416,2.5003583 45.022378 0 0 0.05859,0.01953 2.4996416,2.5003583 45.022378 0 1 -0.05859,-0.01953 z" />
  </g>
  <metadata
     id="metadata7">
    <rdf:RDF>
      <cc:Work
         rdf:about="">
        <dc:creator>
          <cc:Agent>
            <dc:title>Matthias Seidel</dc:title>
          </cc:Agent>
        </dc:creator>
      </cc:Work>
    </rdf:RDF>
  </metadata>
</svg>
