<?xml version="1.0" encoding="UTF-8" standalone="no"?>
<svg
   width="32"
   height="32"
   viewBox="44 -56 32 32"
   version="1.1"
   style="fill:none;stroke-linecap:round;stroke-linejoin:round"
   id="svg7"
   sodipodi:docname="spinner-32-06.svg"
   inkscape:version="1.3.2 (091e20ef0f, 2023-11-25)"
   inkscape:export-filename="spinner-32-06.png"
   inkscape:export-xdpi="96"
   inkscape:export-ydpi="96"
   xmlns:inkscape="http://www.inkscape.org/namespaces/inkscape"
   xmlns:sodipodi="http://sodipodi.sourceforge.net/DTD/sodipodi-0.dtd"
   xmlns="http://www.w3.org/2000/svg"
   xmlns:svg="http://www.w3.org/2000/svg"
   xmlns:rdf="http://www.w3.org/1999/02/22-rdf-syntax-ns#"
   xmlns:cc="http://creativecommons.org/ns#"
   xmlns:dc="http://purl.org/dc/elements/1.1/">
  <defs
     id="defs7" />
  <sodipodi:namedview
     id="namedview7"
     pagecolor="#ffffff"
     bordercolor="#cccccc"
     borderopacity="1"
     inkscape:showpageshadow="0"
     inkscape:pageopacity="1"
     inkscape:pagecheckerboard="0"
     inkscape:deskcolor="#d1d1d1"
     inkscape:document-units="px"
     inkscape:zoom="23.379845"
     inkscape:cx="16.125"
     inkscape:cy="16.146386"
     inkscape:window-width="1920"
     inkscape:window-height="1056"
     inkscape:window-x="0"
     inkscape:window-y="24"
     inkscape:window-maximized="1"
     inkscape:current-layer="g7" />
  <g
     transform="matrix(1,0,0,-1,0.125,0.125)"
     id="g7">
    <path
       id="path5"
       style="fill:#505050;fill-opacity:1;stroke:none;stroke-width:0.250052"
       d="m 67.882509,26.265369 a 2.5002658,2.5007745 88.380615 0 1 0.282684,0.190238 16.001701,16.004957 88.373206 0 1 5.575409,21.668463 16.001701,16.004957 88.373206 0 1 -21.863204,5.857156 16.001701,16.004957 88.373206 0 1 -5.858095,-21.858699 16.001701,16.004957 88.373206 0 1 13.525971,-7.972046 16.001701,16.004957 88.373206 0 1 0.0081,-0.0021 2.5002658,2.5007745 88.380615 0 1 0.126537,-0.0082 16.001701,16.004957 88.373206 0 1 0.200475,-0.0151 16.001701,16.004957 88.373206 0 1 0.117285,3.8e-5 2.5002658,2.5007745 88.380615 0 1 1.13288,0.331394 2.5002658,2.5007745 88.380615 0 1 0.915327,3.415419 2.5002658,2.5007745 88.380615 0 1 -2.166335,1.223837 l 8.36e-4,0.02982 a 11.001169,11.003408 88.387286 0 0 -9.529674,5.497155 11.001169,11.003408 88.387286 0 0 4.027439,15.027855 11.001169,11.003408 88.387286 0 0 15.030955,-4.026793 11.001169,11.003408 88.387286 0 0 -4.02744,-15.027857 2.5002658,2.5007745 88.380615 0 1 -0.915327,-3.415424 2.5002658,2.5007745 88.380615 0 1 3.416127,-0.91518 z m 0.585053,0.475299 a 2.5002658,2.5007745 88.380615 0 1 0.04099,0.0462 2.5002658,2.5007745 88.380615 0 0 -0.04099,-0.0462 z m 0.429696,0.642751 a 2.5002658,2.5007745 88.380615 0 1 0.02499,0.05048 2.5002658,2.5007745 88.380615 0 0 -0.02499,-0.05048 z m 0.216622,0.765611 a 2.5002658,2.5007745 88.380615 0 1 0.0036,0.05622 2.5002658,2.5007745 88.380615 0 0 -0.0036,-0.05622 z m -0.03468,0.767159 a 2.5002658,2.5007745 88.380615 0 1 -0.01239,0.06049 2.5002658,2.5007745 88.380615 0 0 0.01239,-0.06049 z M 59.053034,24.272343 a 2.5002658,2.5007745 88.380615 0 0 -0.04633,0.01385 2.5002658,2.5007745 88.380615 0 1 0.04633,-0.01385 z m 9.269399,5.993391 a 2.5002658,2.5007745 88.380615 0 1 -0.04621,0.04098 2.5002658,2.5007745 88.380615 0 0 0.04621,-0.04098 z m -10.03198,-5.567457 a 2.5002658,2.5007745 88.380615 0 0 -0.03429,0.03208 2.5002658,2.5007745 88.380615 0 1 0.03429,-0.03208 z m 9.389093,5.997075 a 2.5002658,2.5007745 88.380615 0 1 -0.0505,0.02499 2.5002658,2.5007745 88.380615 0 0 0.0505,-0.02499 z m -0.765767,0.21659 a 2.5002658,2.5007745 88.380615 0 1 -0.05625,0.0036 2.5002658,2.5007745 88.380615 0 0 0.05625,-0.0036 z m -0.767315,-0.03467 a 2.5002658,2.5007745 88.380615 0 1 -0.06052,-0.01238 2.5002658,2.5007745 88.380615 0 0 0.06052,0.01238 z m -8.701112,-4.801498 a 2.5002658,2.5007745 88.380615 0 0 -0.01238,0.06051 2.5002658,2.5007745 88.380615 0 1 0.01238,-0.06051 z m -0.0507,0.77145 a 2.5002658,2.5007745 88.380615 0 0 0.0036,0.05622 2.5002658,2.5007745 88.380615 0 1 -0.0036,-0.05622 z m 0.195273,0.771329 a 2.5002658,2.5007745 88.380615 0 0 0.02499,0.05049 2.5002658,2.5007745 88.380615 0 1 -0.02499,-0.05049 z m 0.413689,0.647038 a 2.5002658,2.5007745 88.380615 0 0 0.04099,0.0462 2.5002658,2.5007745 88.380615 0 1 -0.04099,-0.0462 z" />
  </g>
  <metadata
     id="metadata7">
    <rdf:RDF>
      <cc:Work
         rdf:about="">
        <dc:creator>
          <cc:Agent>
            <dc:title>Matthias Seidel</dc:title>
          </cc:Agent>
        </dc:creator>
      </cc:Work>
    </rdf:RDF>
  </metadata>
</svg>
