<?xml version="1.0" encoding="UTF-8" standalone="no"?>
<svg
   width="32"
   height="32"
   viewBox="44 -56 32 32"
   version="1.1"
   style="fill:none;stroke-linecap:round;stroke-linejoin:round"
   id="svg7"
   sodipodi:docname="spinner-32-04.svg"
   inkscape:version="1.3.2 (091e20ef0f, 2023-11-25)"
   inkscape:export-filename="spinner-32-04.png"
   inkscape:export-xdpi="96"
   inkscape:export-ydpi="96"
   xmlns:inkscape="http://www.inkscape.org/namespaces/inkscape"
   xmlns:sodipodi="http://sodipodi.sourceforge.net/DTD/sodipodi-0.dtd"
   xmlns="http://www.w3.org/2000/svg"
   xmlns:svg="http://www.w3.org/2000/svg"
   xmlns:rdf="http://www.w3.org/1999/02/22-rdf-syntax-ns#"
   xmlns:cc="http://creativecommons.org/ns#"
   xmlns:dc="http://purl.org/dc/elements/1.1/">
  <defs
     id="defs7" />
  <sodipodi:namedview
     id="namedview7"
     pagecolor="#ffffff"
     bordercolor="#cccccc"
     borderopacity="1"
     inkscape:showpageshadow="0"
     inkscape:pageopacity="1"
     inkscape:pagecheckerboard="0"
     inkscape:deskcolor="#d1d1d1"
     inkscape:document-units="px"
     inkscape:zoom="23.379845"
     inkscape:cx="16.125"
     inkscape:cy="16.146386"
     inkscape:window-width="1920"
     inkscape:window-height="1056"
     inkscape:window-x="0"
     inkscape:window-y="24"
     inkscape:window-maximized="1"
     inkscape:current-layer="g7" />
  <g
     transform="matrix(1,0,0,-1,0.125,0.125)"
     id="g7">
    <path
       id="path5"
       style="fill:#505050;fill-opacity:1;stroke:none;stroke-width:0.25"
       d="m 75.874988,40.126662 a 2.5002594,2.4997398 45.055975 0 1 -0.0234,0.339843 A 16.001661,15.998335 45.055253 0 1 59.876656,56.125 16.001661,15.998335 45.055253 0 1 43.875,40.123338 16.001661,15.998335 45.055253 0 1 59.87333,24.125 a 16.001661,15.998335 45.055253 0 1 13.66486,7.72603 16.001661,15.998335 45.055253 0 1 0.0059,0.006 2.5002594,2.4997398 45.055975 0 1 0.07036,0.105456 16.001661,15.998335 45.055253 0 1 0.113293,0.166028 16.001661,15.998335 45.055253 0 1 0.0586,0.10157 2.5002594,2.4997398 45.055975 0 1 0.279414,1.146513 2.5002594,2.4997398 45.055975 0 1 -2.499738,2.49974 2.5002594,2.4997398 45.055975 0 1 -2.14271,-1.263891 l -0.0254,0.01563 A 11.001141,10.998854 45.063387 0 0 59.873861,29.125005 11.001141,10.998854 45.063387 0 0 48.87501,40.123862 11.001141,10.998854 45.063387 0 0 59.876148,51.125006 11.001141,10.998854 45.063387 0 0 70.875,40.126148 2.5002594,2.4997398 45.055975 0 1 73.374742,37.626407 2.5002594,2.4997398 45.055975 0 1 75.875,40.126667 Z m -0.119064,0.74413 a 2.5002594,2.4997398 45.055975 0 1 -0.01952,0.05859 2.5002594,2.4997398 45.055975 0 0 0.01952,-0.05859 z m -0.341726,0.693323 a 2.5002594,2.4997398 45.055975 0 1 -0.03121,0.04687 2.5002594,2.4997398 45.055975 0 0 0.03121,-0.04687 z m -0.554629,0.570254 a 2.5002594,2.4997398 45.055975 0 1 -0.04688,0.03122 2.5002594,2.4997398 45.055975 0 0 0.04688,-0.03122 z m -0.681603,0.353447 a 2.5002594,2.4997398 45.055975 0 1 -0.05858,0.01952 2.5002594,2.4997398 45.055975 0 0 0.05858,-0.01952 z M 73.186587,31.485757 a 2.5002594,2.4997398 45.055975 0 0 -0.03516,-0.03319 2.5002594,2.4997398 45.055975 0 1 0.03516,0.03319 z m -0.555494,11.021427 a 2.5002594,2.4997398 45.055975 0 1 -0.05858,-0.01953 2.5002594,2.4997398 45.055975 0 0 0.05858,0.01953 z m -0.19455,-11.468769 a 2.5002594,2.4997398 45.055975 0 0 -0.04492,-0.01366 2.5002594,2.4997398 45.055975 0 1 0.04492,0.01366 z m -0.498846,11.126899 a 2.5002594,2.4997398 45.055975 0 1 -0.04688,-0.03123 2.5002594,2.4997398 45.055975 0 0 0.04688,0.03123 z m -0.570369,-0.554746 a 2.5002594,2.4997398 45.055975 0 1 -0.03123,-0.0469 2.5002594,2.4997398 45.055975 0 0 0.03123,0.0469 z m -0.353583,-0.68168 a 2.5002594,2.4997398 45.055975 0 1 -0.01954,-0.05859 2.5002594,2.4997398 45.055975 0 0 0.01954,0.05859 z m -0.192437,-9.933614 a 2.5002594,2.4997398 45.055975 0 0 -0.05858,0.01953 2.5002594,2.4997398 45.055975 0 1 0.05858,-0.01953 z m -0.693327,0.341722 a 2.5002594,2.4997398 45.055975 0 0 -0.04688,0.03122 2.5002594,2.4997398 45.055975 0 1 0.04688,-0.03122 z m -0.570253,0.554628 a 2.5002594,2.4997398 45.055975 0 0 -0.03121,0.04689 2.5002594,2.4997398 45.055975 0 1 0.03121,-0.04689 z m -0.353442,0.681606 a 2.5002594,2.4997398 45.055975 0 0 -0.01952,0.05859 2.5002594,2.4997398 45.055975 0 1 0.01952,-0.05859 z" />
  </g>
  <metadata
     id="metadata7">
    <rdf:RDF>
      <cc:Work
         rdf:about="">
        <dc:creator>
          <cc:Agent>
            <dc:title>Matthias Seidel</dc:title>
          </cc:Agent>
        </dc:creator>
      </cc:Work>
    </rdf:RDF>
  </metadata>
</svg>
