<?xml version="1.0" encoding="UTF-8" standalone="no"?>
<!-- 2024-07-26 20:33:55 Generated by QCAD 3.29.4 SVG Exporter -->

<svg
   width="64"
   height="64"
   viewBox="28 -62 64 64"
   version="1.1"
   style="fill:none;stroke-linecap:round;stroke-linejoin:round"
   id="svg7"
   sodipodi:docname="spinner-64-10.svg"
   inkscape:version="1.3.2 (091e20ef0f, 2023-11-25)"
   inkscape:export-filename="spinner-64-10.png"
   inkscape:export-xdpi="96"
   inkscape:export-ydpi="96"
   xmlns:inkscape="http://www.inkscape.org/namespaces/inkscape"
   xmlns:sodipodi="http://sodipodi.sourceforge.net/DTD/sodipodi-0.dtd"
   xmlns="http://www.w3.org/2000/svg"
   xmlns:svg="http://www.w3.org/2000/svg"
   xmlns:rdf="http://www.w3.org/1999/02/22-rdf-syntax-ns#"
   xmlns:cc="http://creativecommons.org/ns#"
   xmlns:dc="http://purl.org/dc/elements/1.1/">
  <defs
     id="defs7" />
  <sodipodi:namedview
     id="namedview7"
     pagecolor="#ffffff"
     bordercolor="#cccccc"
     borderopacity="1"
     inkscape:showpageshadow="0"
     inkscape:pageopacity="1"
     inkscape:pagecheckerboard="0"
     inkscape:deskcolor="#d1d1d1"
     inkscape:document-units="px"
     inkscape:zoom="13.712062"
     inkscape:cx="32.015608"
     inkscape:cy="31.979144"
     inkscape:window-width="1920"
     inkscape:window-height="1056"
     inkscape:window-x="0"
     inkscape:window-y="24"
     inkscape:window-maximized="1"
     inkscape:current-layer="g7" />
  <g
     transform="scale(1,-1)"
     id="g7">
    <!-- Kreis -->
    <!-- Kreis -->
    <!-- Linie -->
    <!-- Linie -->
    <!-- Linie -->
    <!-- Linie -->
    <!-- Kreis -->
    <path
       id="path12"
       style="fill:#505050;fill-opacity:1;stroke:none;stroke-width:0.249448;stroke-dasharray:none"
       d="M 28.000004,29.995547 A 5.0006958,4.9993037 45.00464 0 1 28.048737,29.313913 32.004453,31.995546 45.007081 0 1 59.995546,-1.9999997 32.004453,31.995546 45.007081 0 1 92,30.004457 32.004453,31.995546 45.007081 0 1 60.004456,62 32.004453,31.995546 45.007081 0 1 44.253879,57.841557 32.004453,31.995546 45.007081 0 1 44.007734,57.70291 a 32.004453,31.995546 45.007081 0 1 -0.04103,-0.02345 5.0006958,4.9993037 45.00464 0 1 -2.463487,-4.299172 5.0006958,4.9993037 45.00464 0 1 4.999304,-4.999305 5.0006958,4.9993037 45.00464 0 1 2.472755,0.717143 l 0.03126,-0.05469 A 22.003062,21.996937 45.003711 0 0 60.003062,52.00002 22.003062,21.996937 45.003711 0 0 81.999997,30.003083 22.003062,21.996937 45.003711 0 0 59.996935,8.0000202 22.003062,21.996937 45.003711 0 0 38,29.996956 5.0006958,4.9993037 45.00464 0 1 33.000696,34.996262 5.0006958,4.9993037 45.00464 0 1 28,29.995567 Z m 0.234168,-1.484345 a 5.0006958,4.9993037 45.00464 0 1 0.04295,-0.124993 5.0006958,4.9993037 45.00464 0 0 -0.04295,0.124993 z m 0.691213,-1.398339 a 5.0006958,4.9993037 45.00464 0 1 0.05667,-0.08396 5.0006958,4.9993037 45.00464 0 0 -0.05667,0.08396 z m 1.107262,-1.134613 a 5.0006958,4.9993037 45.00464 0 1 0.08394,-0.05667 5.0006958,4.9993037 45.00464 0 0 -0.08394,0.05667 z m 1.357324,-0.704889 a 5.0006958,4.9993037 45.00464 0 1 0.124997,-0.04293 5.0006958,4.9993037 45.00464 0 0 -0.124997,0.04293 z m 3.093747,-0.04252 a 5.0006958,4.9993037 45.00464 0 1 0.125019,0.04297 5.0006958,4.9993037 45.00464 0 0 -0.125019,-0.04297 z m 1.398529,0.6916 a 5.0006958,4.9993037 45.00464 0 1 0.08398,0.05668 5.0006958,4.9993037 45.00464 0 0 -0.08398,-0.05668 z m 1.134921,1.107576 a 5.0006958,4.9993037 45.00464 0 1 0.05668,0.08399 5.0006958,4.9993037 45.00464 0 0 -0.05668,-0.08399 z m 0.705262,1.357521 a 5.0006958,4.9993037 45.00464 0 1 0.04297,0.125008 5.0006958,4.9993037 45.00464 0 0 -0.04297,-0.125008 z m 10.265866,29.759238 a 5.0006958,4.9993037 45.00464 0 0 0.124997,-0.04293 5.0006958,4.9993037 45.00464 0 1 -0.124997,0.04293 z m 1.398342,-0.691214 a 5.0006958,4.9993037 45.00464 0 0 0.084,-0.05659 5.0006958,4.9993037 45.00464 0 1 -0.084,0.05659 z m 0.873983,-7.294799 a 5.0006958,4.9993037 45.00464 0 1 0.06837,0.07618 5.0006958,4.9993037 45.00464 0 0 -0.06837,-0.07618 z m 0.260627,6.187535 a 5.0006958,4.9993037 45.00464 0 0 0.05666,-0.08395 5.0006958,4.9993037 45.00464 0 1 -0.05666,0.08395 z m 0.639971,-4.70108 a 5.0006958,4.9993037 45.00464 0 1 0.03126,0.09181 5.0006958,4.9993037 45.00464 0 0 -0.03126,-0.09181 z m 0.06492,3.343758 a 5.0006958,4.9993037 45.00464 0 0 0.04296,-0.124994 5.0006958,4.9993037 45.00464 0 1 -0.04296,0.124994 z" />
    <!-- Kreis -->
    <!-- Linie -->
    <!-- Linie -->
  </g>
  <metadata
     id="metadata7">
    <rdf:RDF>
      <cc:Work
         rdf:about="">
        <dc:creator>
          <cc:Agent>
            <dc:title>Matthias Seidel</dc:title>
          </cc:Agent>
        </dc:creator>
      </cc:Work>
    </rdf:RDF>
  </metadata>
</svg>
