<?xml version="1.0" encoding="UTF-8" standalone="no"?>
<svg
   width="32"
   height="32"
   viewBox="44 -56 32 32"
   version="1.1"
   style="fill:none;stroke-linecap:round;stroke-linejoin:round"
   id="svg7"
   sodipodi:docname="spinner-32-03.svg"
   inkscape:version="1.3.2 (091e20ef0f, 2023-11-25)"
   inkscape:export-filename="spinner-32-03.png"
   inkscape:export-xdpi="96"
   inkscape:export-ydpi="96"
   xmlns:inkscape="http://www.inkscape.org/namespaces/inkscape"
   xmlns:sodipodi="http://sodipodi.sourceforge.net/DTD/sodipodi-0.dtd"
   xmlns="http://www.w3.org/2000/svg"
   xmlns:svg="http://www.w3.org/2000/svg"
   xmlns:rdf="http://www.w3.org/1999/02/22-rdf-syntax-ns#"
   xmlns:cc="http://creativecommons.org/ns#"
   xmlns:dc="http://purl.org/dc/elements/1.1/">
  <defs
     id="defs7" />
  <sodipodi:namedview
     id="namedview7"
     pagecolor="#ffffff"
     bordercolor="#cccccc"
     borderopacity="1"
     inkscape:showpageshadow="0"
     inkscape:pageopacity="1"
     inkscape:pagecheckerboard="0"
     inkscape:deskcolor="#d1d1d1"
     inkscape:document-units="px"
     inkscape:zoom="23.379845"
     inkscape:cx="16.125"
     inkscape:cy="16.146386"
     inkscape:window-width="1920"
     inkscape:window-height="1056"
     inkscape:window-x="0"
     inkscape:window-y="24"
     inkscape:window-maximized="1"
     inkscape:current-layer="g7" />
  <g
     transform="matrix(1,0,0,-1,0.125,0.125)"
     id="g7">
    <path
       id="path5"
       style="fill:#505050;fill-opacity:1;stroke:none;stroke-width:0.250052"
       d="m 73.734838,48.132872 a 2.5007863,2.5002538 81.29163 0 1 -0.190232,0.282677 16.005033,16.001625 81.292629 0 1 -21.668314,5.574846 16.005033,16.001625 81.292629 0 1 -5.857726,-21.863359 16.005033,16.001625 81.292629 0 1 21.858545,-5.857524 16.005033,16.001625 81.292629 0 1 7.972399,13.52618 16.005033,16.001625 81.292629 0 1 0.0021,0.0081 2.5007863,2.5002538 81.29163 0 1 0.0082,0.126534 16.005033,16.001625 81.292629 0 1 0.0151,0.200474 16.005033,16.001625 81.292629 0 1 -3.9e-5,0.117288 2.5007863,2.5002538 81.29163 0 1 -0.331364,1.132873 2.5007863,2.5002538 81.29163 0 1 -3.415397,0.915238 2.5007863,2.5002538 81.29163 0 1 -1.223893,-2.166368 l -0.02981,8.4e-4 a 11.003459,11.001116 81.291568 0 0 -5.497425,-9.529803 11.003459,11.001116 81.291568 0 0 -15.027749,4.027048 11.003459,11.001116 81.291568 0 0 4.027186,15.03106 11.003459,11.001116 81.291568 0 0 15.02775,-4.027048 2.5007863,2.5002538 81.29163 0 1 3.4154,-0.915237 2.5007863,2.5002538 81.29163 0 1 0.915269,3.416149 z m -0.475282,0.585041 a 2.5007863,2.5002538 81.29163 0 1 -0.04621,0.04099 2.5007863,2.5002538 81.29163 0 0 0.04621,-0.04099 z m -0.64274,0.42968 a 2.5007863,2.5002538 81.29163 0 1 -0.05048,0.02499 2.5007863,2.5002538 81.29163 0 0 0.05048,-0.02499 z m -0.765605,0.216603 a 2.5007863,2.5002538 81.29163 0 1 -0.05622,0.0036 2.5007863,2.5002538 81.29163 0 0 0.05622,-0.0036 z m -0.767159,-0.0347 a 2.5007863,2.5002538 81.29163 0 1 -0.06051,-0.01238 2.5007863,2.5002538 81.29163 0 0 0.06051,0.01238 z M 75.727635,39.30345 a 2.5007863,2.5002538 81.29163 0 0 -0.01386,-0.04634 2.5007863,2.5002538 81.29163 0 1 0.01386,0.04634 z m -5.993149,9.269244 a 2.5007863,2.5002538 81.29163 0 1 -0.04098,-0.04621 2.5007863,2.5002538 81.29163 0 0 0.04098,0.04621 z M 75.30168,38.540859 a 2.5007863,2.5002538 81.29163 0 0 -0.03208,-0.0343 2.5007863,2.5002538 81.29163 0 1 0.03208,0.0343 z m -5.996829,9.388936 a 2.5007863,2.5002538 81.29163 0 1 -0.02499,-0.0505 2.5007863,2.5002538 81.29163 0 0 0.02499,0.0505 z m -0.216608,-0.765773 a 2.5007863,2.5002538 81.29163 0 1 -0.0036,-0.05624 2.5007863,2.5002538 81.29163 0 0 0.0036,0.05624 z m 0.03465,-0.767313 a 2.5007863,2.5002538 81.29163 0 1 0.01238,-0.06052 2.5007863,2.5002538 81.29163 0 0 -0.01238,0.06052 z m 4.801269,-8.700987 a 2.5007863,2.5002538 81.29163 0 0 -0.06051,-0.01238 2.5007863,2.5002538 81.29163 0 1 0.06051,0.01238 z m -0.77145,-0.05072 a 2.5007863,2.5002538 81.29163 0 0 -0.05622,0.0036 2.5007863,2.5002538 81.29163 0 1 0.05622,-0.0036 z m -0.771324,0.195254 a 2.5007863,2.5002538 81.29163 0 0 -0.05049,0.02501 2.5007863,2.5002538 81.29163 0 1 0.05049,-0.02501 z m -0.647027,0.413671 a 2.5007863,2.5002538 81.29163 0 0 -0.04621,0.04099 2.5007863,2.5002538 81.29163 0 1 0.04621,-0.04099 z" />
  </g>
  <metadata
     id="metadata7">
    <rdf:RDF>
      <cc:Work
         rdf:about="">
        <dc:creator>
          <cc:Agent>
            <dc:title>Matthias Seidel</dc:title>
          </cc:Agent>
        </dc:creator>
      </cc:Work>
    </rdf:RDF>
  </metadata>
</svg>
