<?xml version="1.0" encoding="UTF-8" standalone="no"?>
<svg
   width="64"
   height="64"
   viewBox="9.8778 -21.8722 22.827793 22.827793"
   version="1.1"
   style="fill:none;stroke-linecap:round;stroke-linejoin:round"
   id="svg4"
   sodipodi:docname="spinner-64-03.svg"
   inkscape:version="1.3.2 (091e20ef0f, 2023-11-25)"
   inkscape:export-filename="spinner-64-03.png"
   inkscape:export-xdpi="96"
   inkscape:export-ydpi="96"
   xmlns:inkscape="http://www.inkscape.org/namespaces/inkscape"
   xmlns:sodipodi="http://sodipodi.sourceforge.net/DTD/sodipodi-0.dtd"
   xmlns="http://www.w3.org/2000/svg"
   xmlns:svg="http://www.w3.org/2000/svg"
   xmlns:rdf="http://www.w3.org/1999/02/22-rdf-syntax-ns#"
   xmlns:cc="http://creativecommons.org/ns#"
   xmlns:dc="http://purl.org/dc/elements/1.1/">
  <defs
     id="defs4" />
  <sodipodi:namedview
     id="namedview4"
     pagecolor="#ffffff"
     bordercolor="#cccccc"
     borderopacity="1"
     inkscape:showpageshadow="0"
     inkscape:pageopacity="1"
     inkscape:pagecheckerboard="0"
     inkscape:deskcolor="#d1d1d1"
     inkscape:document-units="px"
     inkscape:zoom="11.911385"
     inkscape:cx="31.650392"
     inkscape:cy="31.692368"
     inkscape:window-width="1920"
     inkscape:window-height="1056"
     inkscape:window-x="0"
     inkscape:window-y="24"
     inkscape:window-maximized="1"
     inkscape:current-layer="svg4" />
  <path
     id="path9"
     style="fill:#505050;fill-opacity:1;stroke:none;stroke-width:0.360708;stroke-dasharray:none"
     d="m 31.179803,-16.171334 a 1.7835998,1.7839662 14.507959 0 0 -0.136054,-0.200474 11.415051,11.417396 14.498076 0 0 -15.457598,-3.97786 11.415051,11.417396 14.498076 0 0 -4.179139,15.5968692 11.415051,11.417396 14.498076 0 0 15.593652,4.17833652 11.415051,11.417396 14.498076 0 0 5.687935,-9.64580572 1.7835998,1.7839662 14.507959 0 0 0.0095,-0.125888 11.415051,11.417396 14.498076 0 0 0.0075,-0.101147 1.7835998,1.7839662 14.507959 0 1 -0.0017,0.0084 1.7835998,1.7839662 14.507959 0 0 0.0017,-0.02378 11.415051,11.417396 14.498076 0 0 -7.79e-4,-0.09717 1.7835998,1.7839662 14.507959 0 0 -0.235135,-0.794908 1.7835998,1.7839662 14.507959 0 0 -2.436477,-0.652857 1.7835998,1.7839662 14.507959 0 0 -0.872467,1.545174 l -0.01959,-1.15e-4 a 7.8478383,7.8494511 14.503827 0 1 -3.924025,6.7983241 7.8478383,7.8494511 14.503827 0 1 -10.720695,-2.8726209 7.8478383,7.8494511 14.503827 0 1 2.873175,-10.7229092 7.8478383,7.8494511 14.503827 0 1 10.720695,2.872624 1.7835998,1.7839662 14.507959 0 0 2.436478,0.652857 1.7835998,1.7839662 14.507959 0 0 0.652982,-2.436982 z m -0.33745,-0.416911 a 1.7835998,1.7839662 14.507959 0 0 -0.03598,-0.03128 1.7835998,1.7839662 14.507959 0 1 0.03598,0.03128 z M 30.37492,-16.89918 a 1.7835998,1.7839662 14.507959 0 0 -0.02504,-0.01239 1.7835998,1.7839662 14.507959 0 1 0.02504,0.01239 z m -0.540213,-0.15094 a 1.7835998,1.7839662 14.507959 0 0 -0.0355,-0.0023 1.7835998,1.7839662 14.507959 0 1 0.0355,0.0023 z m -0.546079,0.02492 a 1.7835998,1.7839662 14.507959 0 0 -0.044,0.0083 1.7835998,1.7839662 14.507959 0 1 0.044,-0.0083 z m 3.310489,7.1600577 a 1.7835998,1.7839662 14.507959 0 1 -0.01148,0.035082 1.7835998,1.7839662 14.507959 0 0 0.01148,-0.035082 z m -4.273275,-6.6211467 a 1.7835998,1.7839662 14.507959 0 0 -0.02919,0.03396 1.7835998,1.7839662 14.507959 0 1 0.02919,-0.03396 z m 3.968519,7.1599787 a 1.7835998,1.7839662 14.507959 0 1 -0.02239,0.025988 1.7835998,1.7839662 14.507959 0 0 0.02239,-0.025988 z M 28.017779,-16.02365 a 1.7835998,1.7839662 14.507959 0 0 -0.01575,0.03188 1.7835998,1.7839662 14.507959 0 1 0.01575,-0.03188 z m -0.153381,0.547413 a 1.7835998,1.7839662 14.507959 0 0 -0.0018,0.02788 1.7835998,1.7839662 14.507959 0 1 0.0018,-0.02788 z m 3.770636,6.6494512 a 1.7835998,1.7839662 14.507959 0 1 -0.02031,0.0085 1.7835998,1.7839662 14.507959 0 0 0.02031,-0.0085 z m -3.74606,-6.1079932 a 1.7835998,1.7839662 14.507959 0 0 0.0091,0.0468 1.7835998,1.7839662 14.507959 0 1 -0.0091,-0.0468 z m 2.901847,6.2505742 a 1.7835998,1.7839662 14.507959 0 1 -0.01999,-0.00231 1.7835998,1.7839662 14.507959 0 0 0.01999,0.00231 z m -0.620479,-0.1631578 a 1.7835998,1.7839662 14.507959 0 1 -0.01849,-0.00802 1.7835998,1.7839662 14.507959 0 0 0.01849,0.00802 z m -0.664933,-0.5361268 a 1.7835998,1.7839662 14.507959 0 1 -0.01335,-0.017517 1.7835998,1.7839662 14.507959 0 0 0.01335,0.017517 z" />
  <metadata
     id="metadata4">
    <rdf:RDF>
      <cc:Work
         rdf:about="">
        <dc:creator>
          <cc:Agent>
            <dc:title>Matthias Seidel</dc:title>
          </cc:Agent>
        </dc:creator>
      </cc:Work>
    </rdf:RDF>
  </metadata>
</svg>
