<?xml version="1.0" encoding="UTF-8" standalone="no"?>
<svg
   width="64"
   height="64"
   viewBox="9.8778 -21.8722 22.827793 22.827793"
   version="1.1"
   style="fill:none;stroke-linecap:round;stroke-linejoin:round"
   id="svg4"
   sodipodi:docname="spinner-64-09.svg"
   inkscape:version="1.3.2 (091e20ef0f, 2023-11-25)"
   inkscape:export-filename="spinner-64-09.png"
   inkscape:export-xdpi="96"
   inkscape:export-ydpi="96"
   xmlns:inkscape="http://www.inkscape.org/namespaces/inkscape"
   xmlns:sodipodi="http://sodipodi.sourceforge.net/DTD/sodipodi-0.dtd"
   xmlns="http://www.w3.org/2000/svg"
   xmlns:svg="http://www.w3.org/2000/svg"
   xmlns:rdf="http://www.w3.org/1999/02/22-rdf-syntax-ns#"
   xmlns:cc="http://creativecommons.org/ns#"
   xmlns:dc="http://purl.org/dc/elements/1.1/">
  <defs
     id="defs4" />
  <sodipodi:namedview
     id="namedview4"
     pagecolor="#ffffff"
     bordercolor="#cccccc"
     borderopacity="1"
     inkscape:showpageshadow="0"
     inkscape:pageopacity="1"
     inkscape:pagecheckerboard="0"
     inkscape:deskcolor="#d1d1d1"
     inkscape:document-units="px"
     inkscape:zoom="11.911385"
     inkscape:cx="31.650392"
     inkscape:cy="31.692368"
     inkscape:window-width="1920"
     inkscape:window-height="1056"
     inkscape:window-x="0"
     inkscape:window-y="24"
     inkscape:window-maximized="1"
     inkscape:current-layer="svg4" />
  <path
     id="path9"
     style="fill:#505050;fill-opacity:1;stroke:none;stroke-width:0.36071;stroke-dasharray:none"
     d="m 11.403715,-4.7454954 a 1.7836157,1.7839504 8.4837506 0 0 0.136057,0.2004777 11.415152,11.417293 8.4746425 0 0 15.457689,3.9782068 11.415152,11.417293 8.4746425 0 0 4.178791,-15.5967751 11.415152,11.417293 8.4746425 0 0 -15.593747,-4.178687 11.415152,11.417293 8.4746425 0 0 -5.68772,9.645677 1.7836157,1.7839504 8.4837506 0 0 -0.00949,0.125888 11.415152,11.417293 8.4746425 0 0 -0.0075,0.101149 1.7836157,1.7839504 8.4837506 0 1 0.00172,-0.0084 1.7836157,1.7839504 8.4837506 0 0 -0.0017,0.02377 11.415152,11.417293 8.4746425 0 0 7.829e-4,0.09716 1.7836157,1.7839504 8.4837506 0 0 0.2351521,0.7949145 1.7836157,1.7839504 8.4837506 0 0 2.436493,0.6529117 1.7836157,1.7839504 8.4837506 0 0 0.872433,-1.5451552 l 0.01959,1.28e-4 a 7.8479083,7.8493814 8.4854709 0 1 3.923874,-6.798235 7.8479083,7.8493814 8.4854709 0 1 10.720759,2.872861 7.8479083,7.8493814 8.4854709 0 1 -2.872935,10.7228431 7.8479083,7.8493814 8.4854709 0 1 -10.720762,-2.8728641 1.7836157,1.7839504 8.4837506 0 0 -2.436491,-0.652912 1.7836157,1.7839504 8.4837506 0 0 -0.652928,2.4369672 z m 0.337463,0.4169176 a 1.7836157,1.7839504 8.4837506 0 0 0.03598,0.031276 1.7836157,1.7839504 8.4837506 0 1 -0.03598,-0.031276 z m 0.467438,0.3109464 a 1.7836157,1.7839504 8.4837506 0 0 0.02505,0.012379 1.7836157,1.7839504 8.4837506 0 1 -0.02505,-0.012379 z m 0.540219,0.1509477 a 1.7836157,1.7839504 8.4837506 0 0 0.0355,0.00231 1.7836157,1.7839504 8.4837506 0 1 -0.0355,-0.00231 z m 0.546077,-0.024902 a 1.7836157,1.7839504 8.4837506 0 0 0.04401,-0.0083 1.7836157,1.7839504 8.4837506 0 1 -0.04401,0.0083 z M 9.9842625,-11.051715 a 1.7836157,1.7839504 8.4837506 0 1 0.011477,-0.03508 1.7836157,1.7839504 8.4837506 0 0 -0.011477,0.03508 z m 4.2734255,6.6212358 a 1.7836157,1.7839504 8.4837506 0 0 0.02919,-0.033967 1.7836157,1.7839504 8.4837506 0 1 -0.02919,0.033967 z m -3.96868,-7.1600668 a 1.7836157,1.7839504 8.4837506 0 1 0.02239,-0.02598 1.7836157,1.7839504 8.4837506 0 0 -0.02239,0.02598 z m 4.276732,6.6974348 a 1.7836157,1.7839504 8.4837506 0 0 0.01575,-0.031876 1.7836157,1.7839504 8.4837506 0 1 -0.01575,0.031876 z m 0.153369,-0.5474096 a 1.7836157,1.7839504 8.4837506 0 0 0.0018,-0.027868 1.7836157,1.7839504 8.4837506 0 1 -0.0018,0.027868 z m -3.770781,-6.6495382 a 1.7836157,1.7839504 8.4837506 0 1 0.02031,-0.0085 1.7836157,1.7839504 8.4837506 0 0 -0.02031,0.0085 z m 3.746193,6.1080798 a 1.7836157,1.7839504 8.4837506 0 0 -0.0091,-0.046814 1.7836157,1.7839504 8.4837506 0 1 0.0091,0.046814 z m -2.901987,-6.2506388 a 1.7836157,1.7839504 8.4837506 0 1 0.01999,0.0023 1.7836157,1.7839504 8.4837506 0 0 -0.01999,-0.0023 z m 0.620484,0.16317 a 1.7836157,1.7839504 8.4837506 0 1 0.01849,0.008 1.7836157,1.7839504 8.4837506 0 0 -0.01849,-0.008 z m 0.664945,0.536142 a 1.7836157,1.7839504 8.4837506 0 1 0.01335,0.01752 1.7836157,1.7839504 8.4837506 0 0 -0.01335,-0.01752 z" />
  <metadata
     id="metadata4">
    <rdf:RDF>
      <cc:Work
         rdf:about="">
        <dc:creator>
          <cc:Agent>
            <dc:title>Matthias Seidel</dc:title>
          </cc:Agent>
        </dc:creator>
      </cc:Work>
    </rdf:RDF>
  </metadata>
</svg>
