<?xml version="1.0" encoding="UTF-8" standalone="no"?>
<svg
   width="16"
   height="16"
   viewBox="52 -51 16 16"
   version="1.1"
   style="fill:none;stroke-linecap:round;stroke-linejoin:round"
   id="svg8"
   sodipodi:docname="spinner-16-03.svg"
   inkscape:version="1.3.2 (091e20ef0f, 2023-11-25)"
   inkscape:export-filename="spinner-16-03.png"
   inkscape:export-xdpi="96"
   inkscape:export-ydpi="96"
   xmlns:inkscape="http://www.inkscape.org/namespaces/inkscape"
   xmlns:sodipodi="http://sodipodi.sourceforge.net/DTD/sodipodi-0.dtd"
   xmlns="http://www.w3.org/2000/svg"
   xmlns:svg="http://www.w3.org/2000/svg"
   xmlns:rdf="http://www.w3.org/1999/02/22-rdf-syntax-ns#"
   xmlns:cc="http://creativecommons.org/ns#"
   xmlns:dc="http://purl.org/dc/elements/1.1/">
  <defs
     id="defs8" />
  <sodipodi:namedview
     id="namedview8"
     pagecolor="#ffffff"
     bordercolor="#cccccc"
     borderopacity="1"
     inkscape:showpageshadow="0"
     inkscape:pageopacity="1"
     inkscape:pagecheckerboard="0"
     inkscape:deskcolor="#d1d1d1"
     inkscape:document-units="px"
     inkscape:zoom="54.215385"
     inkscape:cx="8.0051078"
     inkscape:cy="7.9958853"
     inkscape:window-width="1920"
     inkscape:window-height="1056"
     inkscape:window-x="0"
     inkscape:window-y="24"
     inkscape:window-maximized="1"
     inkscape:current-layer="g8" />
  <g
     transform="scale(1,-1)"
     id="g8">
    <path
       id="path10"
       style="fill:#505050;fill-opacity:1;stroke:none;stroke-width:0.249526;stroke-dasharray:none"
       d="m 66.933081,47.00564 a 1.5007806,1.5001539 50.088802 0 1 -0.109491,0.162346 8.0041632,8.0008213 50.088801 0 1 -0.0019,0.0034 8.0041632,8.0008213 50.088801 0 1 -10.819168,2.761197 8.0041632,8.0008213 50.088801 0 1 -2.931254,-10.932611 8.0041632,8.0008213 50.088801 0 1 10.930602,-2.926978 8.0041632,8.0008213 50.088801 0 1 2.869443,2.834711 1.5007806,1.5001539 50.088802 0 0 -0.02701,-0.03139 1.5007806,1.5001539 50.088802 0 1 0.0843,0.127602 1.5007806,1.5001539 50.088802 0 1 0.0017,9.84e-4 1.5007806,1.5001539 50.088802 0 1 0.0014,1.498649 1.5007806,1.5001539 50.088802 0 1 -2.049489,0.54881 1.5007806,1.5001539 50.088802 0 1 -0.534617,-0.559153 l -0.01724,0.01034 a 5.002602,5.0005133 50.088801 0 0 -1.828353,-1.831892 5.002602,5.0005133 50.088801 0 0 -6.831627,1.829361 5.002602,5.0005133 50.088801 0 0 1.832034,6.832883 5.002602,5.0005133 50.088801 0 0 6.831627,-1.82936 1.5007806,1.5001539 50.088802 0 1 2.049487,-0.548809 1.5007806,1.5001539 50.088802 0 1 0.54961,2.049866 z m -0.289152,0.35635 a 1.5007806,1.5001539 50.088802 0 1 -0.01483,0.01399 1.5007806,1.5001539 50.088802 0 0 0.01483,-0.01399 z m -1.311783,0.361279 a 1.5007806,1.5001539 50.088802 0 1 -0.01985,-0.0047 1.5007806,1.5001539 50.088802 0 0 0.01985,0.0047 z m -0.804995,-0.458142 a 1.5007806,1.5001539 50.088802 0 1 -0.01399,-0.01484 1.5007806,1.5001539 50.088802 0 0 0.01399,0.01484 z m -0.361792,-1.312028 a 1.5007806,1.5001539 50.088802 0 1 0.0047,-0.01985 1.5007806,1.5001539 50.088802 0 0 -0.0047,0.01985 z m 2.510354,-7.273345 a 1.5007806,1.5001539 50.088802 0 0 -0.06566,-0.05822 1.5007806,1.5001539 50.088802 0 1 0.06566,0.05822 z m -0.72241,-0.390143 a 1.5007806,1.5001539 50.088802 0 0 -0.01985,-0.0047 1.5007806,1.5001539 50.088802 0 1 0.01985,0.0047 z m -1.781405,1.730019 a 1.5007806,1.5001539 50.088802 0 1 -0.0057,-0.02134 1.5007806,1.5001539 50.088802 0 0 0.0057,0.02134 z m -0.0097,-0.510901 a 1.5007806,1.5001539 50.088802 0 1 0.0057,-0.0373 1.5007806,1.5001539 50.088802 0 0 -0.0057,0.0373 z m 0.474317,-0.876522 a 1.5007806,1.5001539 50.088802 0 0 -0.01483,0.01399 1.5007806,1.5001539 50.088802 0 1 0.01483,-0.01399 z" />
  </g>
  <metadata
     id="metadata8">
    <rdf:RDF>
      <cc:Work
         rdf:about="">
        <dc:creator>
          <cc:Agent>
            <dc:title>Matthias Seidel</dc:title>
          </cc:Agent>
        </dc:creator>
      </cc:Work>
    </rdf:RDF>
  </metadata>
</svg>
