<?xml version="1.0" encoding="UTF-8" standalone="no"?>
<svg
   width="32"
   height="32"
   viewBox="44 -56 32 32"
   version="1.1"
   style="fill:none;stroke-linecap:round;stroke-linejoin:round"
   id="svg7"
   sodipodi:docname="spinner-32-07.svg"
   inkscape:version="1.3.2 (091e20ef0f, 2023-11-25)"
   inkscape:export-filename="spinner-32-07.png"
   inkscape:export-xdpi="96"
   inkscape:export-ydpi="96"
   xmlns:inkscape="http://www.inkscape.org/namespaces/inkscape"
   xmlns:sodipodi="http://sodipodi.sourceforge.net/DTD/sodipodi-0.dtd"
   xmlns="http://www.w3.org/2000/svg"
   xmlns:svg="http://www.w3.org/2000/svg"
   xmlns:rdf="http://www.w3.org/1999/02/22-rdf-syntax-ns#"
   xmlns:cc="http://creativecommons.org/ns#"
   xmlns:dc="http://purl.org/dc/elements/1.1/">
  <defs
     id="defs7" />
  <sodipodi:namedview
     id="namedview7"
     pagecolor="#ffffff"
     bordercolor="#cccccc"
     borderopacity="1"
     inkscape:showpageshadow="0"
     inkscape:pageopacity="1"
     inkscape:pagecheckerboard="0"
     inkscape:deskcolor="#d1d1d1"
     inkscape:document-units="px"
     inkscape:zoom="23.379845"
     inkscape:cx="16.125"
     inkscape:cy="16.146386"
     inkscape:window-width="1920"
     inkscape:window-height="1056"
     inkscape:window-x="0"
     inkscape:window-y="24"
     inkscape:window-maximized="1"
     inkscape:current-layer="g7" />
  <g
     transform="matrix(1,0,0,-1,0.125,0.125)"
     id="g7">
    <path
       id="path5"
       style="fill:#505050;fill-opacity:1;stroke:none;stroke-width:0.25"
       d="M 59.876452,24.125 A 2.499773,2.5002271 45.018239 0 1 60.216296,24.14841 15.998547,16.001454 45.013695 0 1 75.875,40.123549 15.998547,16.001454 45.013695 0 1 59.873549,56.125 15.998547,16.001454 45.013695 0 1 43.875,40.126455 a 15.998547,16.001454 45.013695 0 1 7.725851,-13.664762 15.998547,16.001454 45.013695 0 1 0.006,-0.0059 2.499773,2.5002271 45.018239 0 1 0.105458,-0.07036 15.998547,16.001454 45.013695 0 1 0.166024,-0.113296 15.998547,16.001454 45.013695 0 1 0.101565,-0.0586 2.499773,2.5002271 45.018239 0 1 1.146509,-0.2794 2.499773,2.5002271 45.018239 0 1 2.499772,2.499771 2.499773,2.5002271 45.018239 0 1 -1.263863,2.142694 l 0.01563,0.02541 a 10.999,11.000999 45.024765 0 0 -5.502998,9.523995 10.999,11.000999 45.024765 0 0 10.999001,10.998999 10.999,11.000999 45.024765 0 0 11.001,-11.000996 10.999,11.000999 45.024765 0 0 -10.999003,-10.999001 2.499773,2.5002271 45.018239 0 1 -2.499773,-2.499776 2.499773,2.5002271 45.018239 0 1 2.500228,-2.500226 z m 0.744131,0.119075 a 2.499773,2.5002271 45.018239 0 1 0.05858,0.01952 2.499773,2.5002271 45.018239 0 0 -0.05858,-0.01952 z m 0.693327,0.341735 a 2.499773,2.5002271 45.018239 0 1 0.04687,0.03122 2.499773,2.5002271 45.018239 0 0 -0.04687,-0.03122 z m 0.570262,0.554637 a 2.499773,2.5002271 45.018239 0 1 0.03122,0.04688 2.499773,2.5002271 45.018239 0 0 -0.03122,-0.04688 z m 0.353456,0.681609 a 2.499773,2.5002271 45.018239 0 1 0.01951,0.05857 2.499773,2.5002271 45.018239 0 0 -0.01951,-0.05857 z M 51.235582,26.81329 a 2.499773,2.5002271 45.018239 0 0 -0.03319,0.03515 2.499773,2.5002271 45.018239 0 1 0.03319,-0.03515 z m 11.021434,0.555639 a 2.499773,2.5002271 45.018239 0 1 -0.01953,0.05859 2.499773,2.5002271 45.018239 0 0 0.01953,-0.05859 z m -11.468767,0.194399 a 2.499773,2.5002271 45.018239 0 0 -0.01366,0.04492 2.499773,2.5002271 45.018239 0 1 0.01366,-0.04492 z m 11.126906,0.498992 a 2.499773,2.5002271 45.018239 0 1 -0.03123,0.04688 2.499773,2.5002271 45.018239 0 0 0.03123,-0.04688 z m -0.554738,0.570364 a 2.499773,2.5002271 45.018239 0 1 -0.0469,0.03123 2.499773,2.5002271 45.018239 0 0 0.0469,-0.03123 z m -0.681677,0.353574 a 2.499773,2.5002271 45.018239 0 1 -0.05859,0.01954 2.499773,2.5002271 45.018239 0 0 0.05859,-0.01954 z m -9.933612,0.192306 a 2.499773,2.5002271 45.018239 0 0 0.01953,0.05858 2.499773,2.5002271 45.018239 0 1 -0.01953,-0.05858 z m 0.341732,0.693332 a 2.499773,2.5002271 45.018239 0 0 0.03122,0.04688 2.499773,2.5002271 45.018239 0 1 -0.03122,-0.04688 z m 0.554635,0.570262 a 2.499773,2.5002271 45.018239 0 0 0.04688,0.03122 2.499773,2.5002271 45.018239 0 1 -0.04688,-0.03122 z m 0.681611,0.35345 a 2.499773,2.5002271 45.018239 0 0 0.05858,0.01951 2.499773,2.5002271 45.018239 0 1 -0.05858,-0.01951 z" />
  </g>
  <metadata
     id="metadata7">
    <rdf:RDF>
      <cc:Work
         rdf:about="">
        <dc:creator>
          <cc:Agent>
            <dc:title>Matthias Seidel</dc:title>
          </cc:Agent>
        </dc:creator>
      </cc:Work>
    </rdf:RDF>
  </metadata>
</svg>
