<?xml version="1.0" encoding="UTF-8" standalone="no"?>
<!-- 2024-07-26 20:55:02 Generated by QCAD 3.29.4 SVG Exporter -->

<svg
   width="16"
   height="16"
   viewBox="52 -51 16 16"
   version="1.1"
   style="fill:none;stroke-linecap:round;stroke-linejoin:round"
   id="svg8"
   sodipodi:docname="spinner-16-01.svg"
   inkscape:version="1.3.2 (091e20ef0f, 2023-11-25)"
   inkscape:export-filename="spinner-16-01.png"
   inkscape:export-xdpi="96"
   inkscape:export-ydpi="96"
   xmlns:inkscape="http://www.inkscape.org/namespaces/inkscape"
   xmlns:sodipodi="http://sodipodi.sourceforge.net/DTD/sodipodi-0.dtd"
   xmlns="http://www.w3.org/2000/svg"
   xmlns:svg="http://www.w3.org/2000/svg"
   xmlns:rdf="http://www.w3.org/1999/02/22-rdf-syntax-ns#"
   xmlns:cc="http://creativecommons.org/ns#"
   xmlns:dc="http://purl.org/dc/elements/1.1/">
  <defs
     id="defs8" />
  <sodipodi:namedview
     id="namedview8"
     pagecolor="#ffffff"
     bordercolor="#cccccc"
     borderopacity="1"
     inkscape:showpageshadow="0"
     inkscape:pageopacity="1"
     inkscape:pagecheckerboard="0"
     inkscape:deskcolor="#d1d1d1"
     inkscape:document-units="px"
     inkscape:zoom="54.215385"
     inkscape:cx="8.0051078"
     inkscape:cy="7.9958854"
     inkscape:window-width="1920"
     inkscape:window-height="1056"
     inkscape:window-x="0"
     inkscape:window-y="24"
     inkscape:window-maximized="1"
     inkscape:current-layer="g8" />
  <g
     transform="scale(1,-1)"
     id="g8">
    <!-- Linie -->
    <!-- Linie -->
    <!-- Linie -->
    <!-- Linie -->
    <!-- Kreis -->
    <path
       id="path10"
       style="stroke:none;stroke-width:0.24944882;fill:#505050;fill-opacity:1;stroke-dasharray:none"
       d="M 60 51 A 1.5 1.5 0 0 1 59.804688 50.986328 A 8 8 0 0 1 59.800781 50.986328 A 8 8 0 0 1 52 43 A 8 8 0 0 1 60 35 A 8 8 0 0 1 68 43 A 8 8 0 0 1 66.980469 46.900391 A 1.5 1.5 0 0 0 66.994141 46.861328 A 1.5 1.5 0 0 1 66.925781 46.998047 A 1.5 1.5 0 0 1 66.925781 47 A 1.5 1.5 0 0 1 65.628906 47.75 A 1.5 1.5 0 0 1 64.128906 46.25 A 1.5 1.5 0 0 1 64.345703 45.507812 L 64.328125 45.498047 A 5 5 0 0 0 65 43 A 5 5 0 0 0 60 38 A 5 5 0 0 0 55 43 A 5 5 0 0 0 60 48 A 1.5 1.5 0 0 1 61.5 49.5 A 1.5 1.5 0 0 1 60 51 z M 59.546875 50.927734 A 1.5 1.5 0 0 1 59.527344 50.921875 A 1.5 1.5 0 0 0 59.546875 50.927734 z M 58.578125 49.972656 A 1.5 1.5 0 0 1 58.572266 49.953125 A 1.5 1.5 0 0 0 58.578125 49.972656 z M 58.572266 49.046875 A 1.5 1.5 0 0 1 58.578125 49.027344 A 1.5 1.5 0 0 0 58.572266 49.046875 z M 59.527344 48.078125 A 1.5 1.5 0 0 1 59.546875 48.072266 A 1.5 1.5 0 0 0 59.527344 48.078125 z M 67.080078 46.617188 A 1.5 1.5 0 0 0 67.097656 46.53125 A 1.5 1.5 0 0 1 67.080078 46.617188 z M 67.056641 45.796875 A 1.5 1.5 0 0 0 67.050781 45.777344 A 1.5 1.5 0 0 1 67.056641 45.796875 z M 64.667969 45.119141 A 1.5 1.5 0 0 1 64.683594 45.103516 A 1.5 1.5 0 0 0 64.667969 45.119141 z M 65.105469 44.855469 A 1.5 1.5 0 0 1 65.140625 44.841797 A 1.5 1.5 0 0 0 65.105469 44.855469 z M 66.101562 44.828125 A 1.5 1.5 0 0 0 66.082031 44.822266 A 1.5 1.5 0 0 1 66.101562 44.828125 z " />
    <!-- Linie -->
    <!-- Linie -->
    <!-- Kreis -->
    <!-- Kreis -->
    <!-- Kreis -->
  </g>
  <metadata
     id="metadata8">
    <rdf:RDF>
      <cc:Work
         rdf:about="">
        <dc:creator>
          <cc:Agent>
            <dc:title>Matthias Seidel</dc:title>
          </cc:Agent>
        </dc:creator>
      </cc:Work>
    </rdf:RDF>
  </metadata>
</svg>
