<?xml version="1.0" encoding="UTF-8" standalone="no"?>
<svg
   width="16"
   height="16"
   viewBox="52 -51 16 16"
   version="1.1"
   style="fill:none;stroke-linecap:round;stroke-linejoin:round"
   id="svg8"
   sodipodi:docname="spinner-16-10.svg"
   inkscape:version="1.3.2 (091e20ef0f, 2023-11-25)"
   inkscape:export-filename="spinner-16-10.png"
   inkscape:export-xdpi="96"
   inkscape:export-ydpi="96"
   xmlns:inkscape="http://www.inkscape.org/namespaces/inkscape"
   xmlns:sodipodi="http://sodipodi.sourceforge.net/DTD/sodipodi-0.dtd"
   xmlns="http://www.w3.org/2000/svg"
   xmlns:svg="http://www.w3.org/2000/svg"
   xmlns:rdf="http://www.w3.org/1999/02/22-rdf-syntax-ns#"
   xmlns:cc="http://creativecommons.org/ns#"
   xmlns:dc="http://purl.org/dc/elements/1.1/">
  <defs
     id="defs8" />
  <sodipodi:namedview
     id="namedview8"
     pagecolor="#ffffff"
     bordercolor="#cccccc"
     borderopacity="1"
     inkscape:showpageshadow="0"
     inkscape:pageopacity="1"
     inkscape:pagecheckerboard="0"
     inkscape:deskcolor="#d1d1d1"
     inkscape:document-units="px"
     inkscape:zoom="54.215385"
     inkscape:cx="8.0051078"
     inkscape:cy="7.9958853"
     inkscape:window-width="1920"
     inkscape:window-height="1056"
     inkscape:window-x="0"
     inkscape:window-y="24"
     inkscape:window-maximized="1"
     inkscape:current-layer="g8" />
  <g
     transform="scale(1,-1)"
     id="g8">
    <path
       id="path10"
       style="fill:#505050;fill-opacity:1;stroke:none;stroke-width:0.249448;stroke-dasharray:none"
       d="m 52.000064,42.998692 a 1.5002331,1.4997614 45.329744 0 1 0.01364,-0.195307 8.0012434,7.998728 45.337791 0 1 -5.4e-5,-0.0039 A 8.0012434,7.998728 45.337791 0 1 59.998769,35 8.0012434,7.998728 45.337791 0 1 68,43.001258 8.0012434,7.998728 45.337791 0 1 60.001288,51 8.0012434,7.998728 45.337791 0 1 56.10075,49.979858 a 1.5002331,1.4997614 45.329744 0 0 0.03908,0.01367 1.5002331,1.4997614 45.329744 0 1 -0.136751,-0.06834 1.5002331,1.4997614 45.329744 0 1 -0.002,9e-6 1.5002331,1.4997614 45.329744 0 1 -0.75026,-1.296958 1.5002331,1.4997614 45.329744 0 1 1.49976,-1.499766 1.5002331,1.4997614 45.329744 0 1 0.742219,0.216916 l 0.0098,-0.0176 a 5.0007772,4.9992049 45.336945 0 0 2.498175,0.672243 5.0007772,4.9992049 45.336945 0 0 4.999196,-4.999218 5.0007772,4.9992049 45.336945 0 0 -5.000767,-5.000785 5.0007772,4.9992049 45.336945 0 0 -4.999198,4.999217 1.5002331,1.4997614 45.329744 0 1 -1.499765,1.499765 A 1.5002331,1.4997614 45.329744 0 1 52,42.998774 Z m 0.0722,-0.453113 a 1.5002331,1.4997614 45.329744 0 1 0.0058,-0.0195 1.5002331,1.4997614 45.329744 0 0 -0.0058,0.0195 z m 0.954919,-0.9686 a 1.5002331,1.4997614 45.329744 0 1 0.01956,-0.0059 1.5002331,1.4997614 45.329744 0 0 -0.01956,0.0059 z m 0.925779,-0.0057 a 1.5002331,1.4997614 45.329744 0 1 0.01957,0.0059 1.5002331,1.4997614 45.329744 0 0 -0.01957,-0.0059 z m 0.968894,0.955233 a 1.5002331,1.4997614 45.329744 0 1 0.0059,0.01958 1.5002331,1.4997614 45.329744 0 0 -0.0059,-0.01958 z m 1.46212,7.552963 a 1.5002331,1.4997614 45.329744 0 0 0.08595,0.0176 1.5002331,1.4997614 45.329744 0 1 -0.08595,-0.0176 z m 0.820304,-0.02332 a 1.5002331,1.4997614 45.329744 0 0 0.01956,-0.0059 1.5002331,1.4997614 45.329744 0 1 -0.01956,0.0059 z m 0.677361,-2.388565 a 1.5002331,1.4997614 45.329744 0 1 0.01558,0.01561 1.5002331,1.4997614 45.329744 0 0 -0.01558,-0.01561 z m 0.263753,0.437532 a 1.5002331,1.4997614 45.329744 0 1 0.0137,0.03513 1.5002331,1.4997614 45.329744 0 0 -0.0137,-0.03513 z m 0.0275,0.996097 a 1.5002331,1.4997614 45.329744 0 0 0.0058,-0.0195 1.5002331,1.4997614 45.329744 0 1 -0.0058,0.0195 z" />
  </g>
  <metadata
     id="metadata8">
    <rdf:RDF>
      <cc:Work
         rdf:about="">
        <dc:creator>
          <cc:Agent>
            <dc:title>Matthias Seidel</dc:title>
          </cc:Agent>
        </dc:creator>
      </cc:Work>
    </rdf:RDF>
  </metadata>
</svg>
