<?xml version="1.0" encoding="UTF-8" standalone="no"?>
<svg
   width="32"
   height="32"
   viewBox="44 -56 32 31.999999"
   version="1.1"
   style="fill:none;stroke-linecap:round;stroke-linejoin:round"
   id="svg7"
   sodipodi:docname="spinner-32-09.svg"
   inkscape:version="1.3.2 (091e20ef0f, 2023-11-25)"
   inkscape:export-filename="spinner-32-09.png"
   inkscape:export-xdpi="96"
   inkscape:export-ydpi="96"
   xmlns:inkscape="http://www.inkscape.org/namespaces/inkscape"
   xmlns:sodipodi="http://sodipodi.sourceforge.net/DTD/sodipodi-0.dtd"
   xmlns="http://www.w3.org/2000/svg"
   xmlns:svg="http://www.w3.org/2000/svg"
   xmlns:rdf="http://www.w3.org/1999/02/22-rdf-syntax-ns#"
   xmlns:cc="http://creativecommons.org/ns#"
   xmlns:dc="http://purl.org/dc/elements/1.1/">
  <defs
     id="defs7" />
  <sodipodi:namedview
     id="namedview7"
     pagecolor="#ffffff"
     bordercolor="#cccccc"
     borderopacity="1"
     inkscape:showpageshadow="0"
     inkscape:pageopacity="1"
     inkscape:pagecheckerboard="0"
     inkscape:deskcolor="#d1d1d1"
     inkscape:document-units="px"
     inkscape:zoom="27.317829"
     inkscape:cx="15.996879"
     inkscape:cy="16.015182"
     inkscape:window-width="1920"
     inkscape:window-height="1056"
     inkscape:window-x="0"
     inkscape:window-y="24"
     inkscape:window-maximized="1"
     inkscape:current-layer="g7" />
  <g
     transform="scale(1,-1)"
     id="g7">
    <path
       id="path12"
       style="fill:#505050;fill-opacity:1;stroke:none;stroke-width:0.249507;stroke-dasharray:none"
       d="m 46.134531,31.990479 a 2.5010029,2.5001535 58.748809 0 1 0.190208,-0.282653 16.006419,16.000984 58.745768 0 1 21.668659,-5.572272 16.006419,16.000984 58.745768 0 1 5.860597,21.864057 16.006419,16.000984 58.745768 0 1 -21.858863,5.854927 16.006419,16.000984 58.745768 0 1 -5.796365,-5.759063 16.006419,16.000984 58.745768 0 1 -0.05869,-0.10156 l 9.73e-4,-0.0017 a 2.5010029,2.5001535 58.748809 0 1 -0.0045,-2.497502 2.5010029,2.5001535 58.748809 0 1 3.415447,-0.91483 2.5010029,2.5001535 58.748809 0 1 0.892256,0.928122 l 0.02624,-0.0142 a 11.004415,11.000677 58.746795 0 0 4.024339,4.029688 11.004415,11.000677 58.746795 0 0 15.02797,-4.025263 11.004415,11.000677 58.746795 0 0 -4.029159,-15.03154 11.004415,11.000677 58.746795 0 0 -15.027968,4.025263 2.5010029,2.5001535 58.748809 0 1 -3.415449,0.91483 2.5010029,2.5001535 58.748809 0 1 -0.915718,-3.416256 z m 0.475235,-0.584983 a 2.5010029,2.5001535 58.748809 0 1 0.04621,-0.04097 2.5010029,2.5001535 58.748809 0 0 -0.04621,0.04097 z m 0.642723,-0.429599 a 2.5010029,2.5001535 58.748809 0 1 0.0505,-0.025 2.5010029,2.5001535 58.748809 0 0 -0.0505,0.025 z m 0.765613,-0.216509 a 2.5010029,2.5001535 58.748809 0 1 0.05623,-0.0036 2.5010029,2.5001535 58.748809 0 0 -0.05623,0.0036 z m 0.767202,0.03479 a 2.5010029,2.5001535 58.748809 0 1 0.06052,0.0124 2.5010029,2.5001535 58.748809 0 0 -0.06052,-0.0124 z m 1.349723,0.756953 a 2.5010029,2.5001535 58.748809 0 1 0.04097,0.04624 2.5010029,2.5001535 58.748809 0 0 -0.04097,-0.04624 z m 0.429726,0.64295 a 2.5010029,2.5001535 58.748809 0 1 0.025,0.05049 2.5010029,2.5001535 58.748809 0 0 -0.025,-0.05049 z m 0.216707,0.765802 a 2.5010029,2.5001535 58.748809 0 1 0.0036,0.05623 2.5010029,2.5001535 58.748809 0 0 -0.0036,-0.05623 z m -0.03455,0.767307 a 2.5010029,2.5001535 58.748809 0 1 -0.01238,0.06052 2.5010029,2.5001535 58.748809 0 0 0.01238,-0.06052 z m -2.990491,15.45286 a 2.5010029,2.5001535 58.748809 0 0 0.06052,0.0124 2.5010029,2.5001535 58.748809 0 1 -0.06052,-0.0124 z m 0.771488,0.0508 a 2.5010029,2.5001535 58.748809 0 0 0.05623,-0.0036 2.5010029,2.5001535 58.748809 0 1 -0.05623,0.0036 z m 2.207362,-2.941206 a 2.5010029,2.5001535 58.748809 0 1 0.01001,0.0531 2.5010029,2.5001535 58.748809 0 0 -0.01001,-0.0531 z m -1.436022,2.746043 a 2.5010029,2.5001535 58.748809 0 0 0.05049,-0.02499 2.5010029,2.5001535 58.748809 0 1 -0.05049,0.02499 z m 1.454814,-1.875742 a 2.5010029,2.5001535 58.748809 0 1 -0.0096,0.04405 2.5010029,2.5001535 58.748809 0 0 0.0096,-0.04405 z m -0.807803,1.462153 a 2.5010029,2.5001535 58.748809 0 0 0.04621,-0.04098 2.5010029,2.5001535 58.748809 0 1 -0.04621,0.04098 z" />
  </g>
  <metadata
     id="metadata7">
    <rdf:RDF>
      <cc:Work
         rdf:about="">
        <dc:creator>
          <cc:Agent>
            <dc:title>Matthias Seidel</dc:title>
          </cc:Agent>
        </dc:creator>
      </cc:Work>
    </rdf:RDF>
  </metadata>
</svg>
