<?xml version="1.0" encoding="UTF-8" standalone="no"?>
<svg
   width="32"
   height="32"
   viewBox="44 -56 32 32"
   version="1.1"
   style="fill:none;stroke-linecap:round;stroke-linejoin:round"
   id="svg7"
   sodipodi:docname="spinner-32-12.svg"
   inkscape:version="1.3.2 (091e20ef0f, 2023-11-25)"
   inkscape:export-filename="spinner-32-12.png"
   inkscape:export-xdpi="96"
   inkscape:export-ydpi="96"
   xmlns:inkscape="http://www.inkscape.org/namespaces/inkscape"
   xmlns:sodipodi="http://sodipodi.sourceforge.net/DTD/sodipodi-0.dtd"
   xmlns="http://www.w3.org/2000/svg"
   xmlns:svg="http://www.w3.org/2000/svg"
   xmlns:rdf="http://www.w3.org/1999/02/22-rdf-syntax-ns#"
   xmlns:cc="http://creativecommons.org/ns#"
   xmlns:dc="http://purl.org/dc/elements/1.1/">
  <defs
     id="defs7" />
  <sodipodi:namedview
     id="namedview7"
     pagecolor="#ffffff"
     bordercolor="#cccccc"
     borderopacity="1"
     inkscape:showpageshadow="0"
     inkscape:pageopacity="1"
     inkscape:pagecheckerboard="0"
     inkscape:deskcolor="#d1d1d1"
     inkscape:document-units="px"
     inkscape:zoom="23.379845"
     inkscape:cx="16.125"
     inkscape:cy="16.146386"
     inkscape:window-width="1920"
     inkscape:window-height="1056"
     inkscape:window-x="0"
     inkscape:window-y="24"
     inkscape:window-maximized="1"
     inkscape:current-layer="g7" />
  <g
     transform="matrix(1,0,0,-1,0.125,0.125)"
     id="g7">
    <path
       id="path5"
       style="fill:#505050;fill-opacity:1;stroke:none;stroke-width:0.250052"
       d="M 51.86745,53.984645 A 2.5002646,2.5007752 87.5565 0 1 51.584768,53.794407 16.001694,16.004961 87.548334 0 1 46.00942,32.125969 16.001694,16.004961 87.548334 0 1 67.872642,26.26875 a 16.001694,16.004961 87.548334 0 1 5.858031,21.858677 16.001694,16.004961 87.548334 0 1 -13.525995,7.972083 16.001694,16.004961 87.548334 0 1 -0.0081,0.0021 2.5002646,2.5007752 87.5565 0 1 -0.12654,0.0082 16.001694,16.004961 87.548334 0 1 -0.200474,0.0151 16.001694,16.004961 87.548334 0 1 -0.117284,-3.8e-5 2.5002646,2.5007752 87.5565 0 1 -1.132879,-0.33139 2.5002646,2.5007752 87.5565 0 1 -0.915318,-3.415415 2.5002646,2.5007752 87.5565 0 1 2.166338,-1.223848 l -8.27e-4,-0.02982 a 11.001164,11.00341 87.563976 0 0 9.52971,-5.497234 11.001164,11.00341 87.563976 0 0 -4.027398,-15.02784 11.001164,11.00341 87.563976 0 0 -15.030964,4.026835 11.001164,11.00341 87.563976 0 0 4.027396,15.027842 2.5002646,2.5007752 87.5565 0 1 0.915315,3.415421 2.5002646,2.5007752 87.5565 0 1 -3.416129,0.915189 z m -0.585051,-0.475296 a 2.5002646,2.5007752 87.5565 0 1 -0.04099,-0.04619 2.5002646,2.5007752 87.5565 0 0 0.04099,0.04619 z m -0.42969,-0.642754 a 2.5002646,2.5007752 87.5565 0 1 -0.02499,-0.05048 2.5002646,2.5007752 87.5565 0 0 0.02499,0.05048 z m -0.216617,-0.765611 a 2.5002646,2.5007752 87.5565 0 1 -0.0036,-0.05622 2.5002646,2.5007752 87.5565 0 0 0.0036,0.05622 z m 0.03468,-0.767158 a 2.5002646,2.5007752 87.5565 0 1 0.01239,-0.06049 2.5002646,2.5007752 87.5565 0 0 -0.01239,0.06049 z m 10.02615,4.643816 a 2.5002646,2.5007752 87.5565 0 0 0.04634,-0.01384 2.5002646,2.5007752 87.5565 0 1 -0.04634,0.01384 z m -9.269387,-5.993361 a 2.5002646,2.5007752 87.5565 0 1 0.04622,-0.041 2.5002646,2.5007752 87.5565 0 0 -0.04622,0.041 z M 61.4595,55.551708 a 2.5002646,2.5007752 87.5565 0 0 0.03429,-0.03208 2.5002646,2.5007752 87.5565 0 1 -0.03429,0.03208 z m -9.389075,-5.997047 a 2.5002646,2.5007752 87.5565 0 1 0.0505,-0.02499 2.5002646,2.5007752 87.5565 0 0 -0.0505,0.02499 z m 0.765769,-0.21659 a 2.5002646,2.5007752 87.5565 0 1 0.05625,-0.0036 2.5002646,2.5007752 87.5565 0 0 -0.05625,0.0036 z m 0.767315,0.03467 a 2.5002646,2.5007752 87.5565 0 1 0.06052,0.01238 2.5002646,2.5007752 87.5565 0 0 -0.06052,-0.01238 z m 8.701097,4.801472 a 2.5002646,2.5007752 87.5565 0 0 0.0124,-0.06051 2.5002646,2.5007752 87.5565 0 1 -0.0124,0.06051 z m 0.0507,-0.771449 a 2.5002646,2.5007752 87.5565 0 0 -0.0036,-0.05622 2.5002646,2.5007752 87.5565 0 1 0.0036,0.05622 z m -0.195273,-0.771329 a 2.5002646,2.5007752 87.5565 0 0 -0.02499,-0.05049 2.5002646,2.5007752 87.5565 0 1 0.02499,0.05049 z m -0.413692,-0.647037 a 2.5002646,2.5007752 87.5565 0 0 -0.04098,-0.04618 2.5002646,2.5007752 87.5565 0 1 0.04098,0.04618 z" />
  </g>
  <metadata
     id="metadata7">
    <rdf:RDF>
      <cc:Work
         rdf:about="">
        <dc:creator>
          <cc:Agent>
            <dc:title>Matthias Seidel</dc:title>
          </cc:Agent>
        </dc:creator>
      </cc:Work>
    </rdf:RDF>
  </metadata>
</svg>
