<?xml version="1.0" encoding="UTF-8" standalone="no"?>
<svg
   width="64"
   height="64"
   viewBox="28 -62 64 64"
   version="1.1"
   style="fill:none;stroke-linecap:round;stroke-linejoin:round"
   id="svg7"
   sodipodi:docname="spinner-64-08.svg"
   inkscape:version="1.3.2 (091e20ef0f, 2023-11-25)"
   inkscape:export-filename="spinner-64-08.png"
   inkscape:export-xdpi="96"
   inkscape:export-ydpi="96"
   xmlns:inkscape="http://www.inkscape.org/namespaces/inkscape"
   xmlns:sodipodi="http://sodipodi.sourceforge.net/DTD/sodipodi-0.dtd"
   xmlns="http://www.w3.org/2000/svg"
   xmlns:svg="http://www.w3.org/2000/svg"
   xmlns:rdf="http://www.w3.org/1999/02/22-rdf-syntax-ns#"
   xmlns:cc="http://creativecommons.org/ns#"
   xmlns:dc="http://purl.org/dc/elements/1.1/">
  <defs
     id="defs7" />
  <sodipodi:namedview
     id="namedview7"
     pagecolor="#ffffff"
     bordercolor="#cccccc"
     borderopacity="1"
     inkscape:showpageshadow="0"
     inkscape:pageopacity="1"
     inkscape:pagecheckerboard="0"
     inkscape:deskcolor="#d1d1d1"
     inkscape:document-units="px"
     inkscape:zoom="13.712062"
     inkscape:cx="32.015608"
     inkscape:cy="31.979144"
     inkscape:window-width="1920"
     inkscape:window-height="1056"
     inkscape:window-x="0"
     inkscape:window-y="24"
     inkscape:window-maximized="1"
     inkscape:current-layer="g7" />
  <g
     transform="scale(1,-1)"
     id="g7">
    <path
       id="path12"
       style="fill:#505050;fill-opacity:1;stroke:none;stroke-width:0.249534;stroke-dasharray:none"
       d="M 43.995634,2.2547018 A 5.0006004,5.0028672 8.8961882 0 1 44.610467,1.9559589 32.003844,32.01835 8.8970108 0 1 87.713359,13.971076 32.003844,32.01835 8.8970108 0 1 75.995984,57.709294 32.003844,32.01835 8.8970108 0 1 32.27826,45.99292 32.003844,32.01835 8.8970108 0 1 28.003208,30.266347 32.003844,32.01835 8.8970108 0 1 28.000207,29.983731 32.003844,32.01835 8.8970108 0 1 28,29.93645 a 5.0006004,5.0028672 8.8961882 0 1 2.492075,-4.28492 5.0006004,5.0028672 8.8961882 0 1 6.830895,1.830684 5.0006004,5.0028672 8.8961882 0 1 0.615468,2.501145 l 0.06301,-2.82e-4 A 22.002642,22.012616 8.8969182 0 0 40.939977,40.989505 22.002642,22.012616 8.8969182 0 0 70.995912,49.044512 22.002642,22.012616 8.8969182 0 0 79.051607,18.974487 22.002642,22.012616 8.8969182 0 0 48.995673,10.919479 5.0006004,5.0028672 8.8961882 0 1 42.164778,9.0887953 5.0006004,5.0028672 8.8961882 0 1 43.995615,2.2546998 Z M 45.39855,1.7150871 a 5.0006004,5.0028672 8.8961882 0 1 0.129756,-0.025309 5.0006004,5.0028672 8.8961882 0 0 -0.129756,0.025309 z m 1.556996,-0.1006055 a 5.0006004,5.0028672 8.8961882 0 1 0.101071,0.0071 5.0006004,5.0028672 8.8961882 0 0 -0.101071,-0.0071 z m 1.536621,0.3917842 a 5.0006004,5.0028672 8.8961882 0 1 0.09107,0.044382 5.0006004,5.0028672 8.8961882 0 0 -0.09107,-0.044382 z m 1.28944,0.8233945 a 5.0006004,5.0028672 8.8961882 0 1 0.09971,0.086815 5.0006004,5.0028672 8.8961882 0 0 -0.09971,-0.086815 z m 1.584102,2.6591743 a 5.0006004,5.0028672 8.8961882 0 1 0.0253,0.1298142 5.0006004,5.0028672 8.8961882 0 0 -0.0253,-0.1298142 z m 0.100348,1.5576515 a 5.0006004,5.0028672 8.8961882 0 1 -0.0071,0.1011143 5.0006004,5.0028672 8.8961882 0 0 0.0071,-0.1011143 z M 51.07423,8.5838239 a 5.0006004,5.0028672 8.8961882 0 1 -0.04441,0.09112 5.0006004,5.0028672 8.8961882 0 0 0.04441,-0.09112 z m -0.823225,1.2901037 a 5.0006004,5.0028672 8.8961882 0 1 -0.08679,0.09977 5.0006004,5.0028672 8.8961882 0 0 0.08679,-0.09977 z M 29.606501,33.654547 a 5.0006004,5.0028672 8.8961882 0 0 0.09971,0.08682 5.0006004,5.0028672 8.8961882 0 1 -0.09971,-0.08682 z m 1.298106,0.865776 a 5.0006004,5.0028672 8.8961882 0 0 0.09103,0.04447 5.0006004,5.0028672 8.8961882 0 1 -0.09103,-0.04447 z m 6.756171,-2.891783 a 5.0006004,5.0028672 8.8961882 0 1 -0.0318,0.09734 5.0006004,5.0028672 8.8961882 0 0 0.0318,-0.09734 z m -5.229563,3.320942 a 5.0006004,5.0028672 8.8961882 0 0 0.101063,0.0071 5.0006004,5.0028672 8.8961882 0 1 -0.101063,-0.0071 z m 4.392344,-1.797101 a 5.0006004,5.0028672 8.8961882 0 1 -0.06389,0.07301 5.0006004,5.0028672 8.8961882 0 0 0.06389,-0.07301 z m -2.864038,1.728867 a 5.0006004,5.0028672 8.8961882 0 0 0.129754,-0.02531 5.0006004,5.0028672 8.8961882 0 1 -0.129754,0.02531 z" />
  </g>
  <metadata
     id="metadata7">
    <rdf:RDF>
      <cc:Work
         rdf:about="">
        <dc:creator>
          <cc:Agent>
            <dc:title>Matthias Seidel</dc:title>
          </cc:Agent>
        </dc:creator>
      </cc:Work>
    </rdf:RDF>
  </metadata>
</svg>
