<?xml version="1.0" encoding="UTF-8" standalone="no"?>
<svg
   width="64"
   height="64"
   viewBox="28 -62 64 64"
   version="1.1"
   style="fill:none;stroke-linecap:round;stroke-linejoin:round"
   id="svg7"
   sodipodi:docname="spinner-64-02.svg"
   inkscape:version="1.3.2 (091e20ef0f, 2023-11-25)"
   inkscape:export-filename="spinner-64-02.png"
   inkscape:export-xdpi="96"
   inkscape:export-ydpi="96"
   xmlns:inkscape="http://www.inkscape.org/namespaces/inkscape"
   xmlns:sodipodi="http://sodipodi.sourceforge.net/DTD/sodipodi-0.dtd"
   xmlns="http://www.w3.org/2000/svg"
   xmlns:svg="http://www.w3.org/2000/svg"
   xmlns:rdf="http://www.w3.org/1999/02/22-rdf-syntax-ns#"
   xmlns:cc="http://creativecommons.org/ns#"
   xmlns:dc="http://purl.org/dc/elements/1.1/">
  <defs
     id="defs7" />
  <sodipodi:namedview
     id="namedview7"
     pagecolor="#ffffff"
     bordercolor="#cccccc"
     borderopacity="1"
     inkscape:showpageshadow="0"
     inkscape:pageopacity="1"
     inkscape:pagecheckerboard="0"
     inkscape:deskcolor="#d1d1d1"
     inkscape:document-units="px"
     inkscape:zoom="13.712062"
     inkscape:cx="32.015608"
     inkscape:cy="31.979144"
     inkscape:window-width="1920"
     inkscape:window-height="1056"
     inkscape:window-x="0"
     inkscape:window-y="24"
     inkscape:window-maximized="1"
     inkscape:current-layer="g7" />
  <g
     transform="scale(1,-1)"
     id="g7">
    <path
       id="path12"
       style="fill:#505050;fill-opacity:1;stroke:none;stroke-width:0.249535;stroke-dasharray:none"
       d="M 76.006296,57.746406 A 5.0006559,5.002813 0 0 1 75.391484,58.045108 32.004198,32.018003 0 0 1 32.287749,46.027004 32.004198,32.018003 0 0 1 44.002099,2.2895987 32.004198,32.018003 0 0 1 87.720646,14.009001 a 32.004198,32.018003 0 0 1 4.276143,15.726868 32.004198,32.018003 0 0 1 0.003,0.282619 A 32.004198,32.018003 0 0 1 92,30.065754 5.0006559,5.002813 0 0 1 89.508223,34.350504 5.0006559,5.002813 0 0 1 82.6772,32.519348 5.0006559,5.002813 0 0 1 82.061557,30.01816 l -0.063,2.81e-4 a 22.002886,22.012377 0 0 0 -2.939302,-11.006627 22.002886,22.012377 0 0 0 -30.056501,-8.057089 22.002886,22.012377 0 0 0 -8.053616,30.069466 22.002886,22.012377 0 0 0 30.056501,8.057089 5.0006559,5.002813 0 0 1 6.831023,1.831157 5.0006559,5.002813 0 0 1 -1.830366,6.833969 z m -1.402878,0.539517 a 5.0006559,5.002813 0 0 1 -0.129755,0.0253 5.0006559,5.002813 0 0 0 0.129755,-0.0253 z m -1.556989,0.100499 a 5.0006559,5.002813 0 0 1 -0.101067,-0.0071 5.0006559,5.002813 0 0 0 0.101067,0.0071 z m -1.536648,-0.391893 a 5.0006559,5.002813 0 0 1 -0.09106,-0.04443 5.0006559,5.002813 0 0 0 0.09106,0.04443 z m -1.289497,-0.823485 a 5.0006559,5.002813 0 0 1 -0.09972,-0.08682 5.0006559,5.002813 0 0 0 0.09972,0.08682 z M 68.63599,54.511767 a 5.0006559,5.002813 0 0 1 -0.02529,-0.129811 5.0006559,5.002813 0 0 0 0.02529,0.129811 z m -0.100456,-1.557661 a 5.0006559,5.002813 0 0 1 0.0071,-0.101111 5.0006559,5.002813 0 0 0 -0.0071,0.101111 z m 0.391723,-1.537312 a 5.0006559,5.002813 0 0 1 0.04442,-0.0911 5.0006559,5.002813 0 0 0 -0.04442,0.0911 z m 0.823131,-1.290052 a 5.0006559,5.002813 0 0 1 0.08678,-0.09977 5.0006559,5.002813 0 0 0 -0.08678,0.09977 z m 20.64287,-23.779186 a 5.0006559,5.002813 0 0 0 -0.09972,-0.08682 5.0006559,5.002813 0 0 1 0.09972,0.08682 z m -1.298165,-0.865865 a 5.0006559,5.002813 0 0 0 -0.09105,-0.04443 5.0006559,5.002813 0 0 1 0.09105,0.04443 z m -6.755973,2.891314 a 5.0006559,5.002813 0 0 1 0.03179,-0.09734 5.0006559,5.002813 0 0 0 -0.03179,0.09734 z m 5.229335,-3.320581 a 5.0006559,5.002813 0 0 0 -0.101066,-0.0071 5.0006559,5.002813 0 0 1 0.101066,0.0071 z m -4.392222,1.796799 a 5.0006559,5.002813 0 0 1 0.06388,-0.073 5.0006559,5.002813 0 0 0 -0.06388,0.073 z m 2.863921,-1.728665 a 5.0006559,5.002813 0 0 0 -0.129755,0.0253 5.0006559,5.002813 0 0 1 0.129755,-0.0253 z" />
  </g>
  <metadata
     id="metadata7">
    <rdf:RDF>
      <cc:Work
         rdf:about="">
        <dc:creator>
          <cc:Agent>
            <dc:title>Matthias Seidel</dc:title>
          </cc:Agent>
        </dc:creator>
      </cc:Work>
    </rdf:RDF>
  </metadata>
</svg>
