<?xml version="1.0" encoding="UTF-8" standalone="no"?>
<svg
   width="64"
   height="64"
   viewBox="9.8778 -21.8722 22.827793 22.827793"
   version="1.1"
   style="fill:none;stroke-linecap:round;stroke-linejoin:round"
   id="svg4"
   sodipodi:docname="spinner-64-10.svg"
   inkscape:version="1.3.2 (091e20ef0f, 2023-11-25)"
   inkscape:export-filename="spinner-64-10.png"
   inkscape:export-xdpi="96"
   inkscape:export-ydpi="96"
   xmlns:inkscape="http://www.inkscape.org/namespaces/inkscape"
   xmlns:sodipodi="http://sodipodi.sourceforge.net/DTD/sodipodi-0.dtd"
   xmlns="http://www.w3.org/2000/svg"
   xmlns:svg="http://www.w3.org/2000/svg"
   xmlns:rdf="http://www.w3.org/1999/02/22-rdf-syntax-ns#"
   xmlns:cc="http://creativecommons.org/ns#"
   xmlns:dc="http://purl.org/dc/elements/1.1/">
  <defs
     id="defs4" />
  <sodipodi:namedview
     id="namedview4"
     pagecolor="#ffffff"
     bordercolor="#cccccc"
     borderopacity="1"
     inkscape:showpageshadow="0"
     inkscape:pageopacity="1"
     inkscape:pagecheckerboard="0"
     inkscape:deskcolor="#d1d1d1"
     inkscape:document-units="px"
     inkscape:zoom="11.911385"
     inkscape:cx="31.650392"
     inkscape:cy="31.692368"
     inkscape:window-width="1920"
     inkscape:window-height="1056"
     inkscape:window-x="0"
     inkscape:window-y="24"
     inkscape:window-maximized="1"
     inkscape:current-layer="svg4" />
  <path
     id="path9"
     style="fill:#505050;fill-opacity:1;stroke:none;stroke-width:0.360627;stroke-dasharray:none"
     d="M 9.8778,-10.457258 A 1.7832095,1.7835355 44.999842 0 0 9.895386,-10.215672 11.412552,11.414638 44.995776 0 0 21.290652,0.95559292 11.412552,11.414638 44.995776 0 0 32.705593,-10.459346 11.412552,11.414638 44.995776 0 0 21.292741,-21.8722 a 11.412552,11.414638 44.995776 0 0 -9.746511,5.508157 1.7832095,1.7835355 44.999842 0 0 -0.07114,0.104251 11.412552,11.414638 44.995776 0 0 -0.05706,0.08383 1.7832095,1.7835355 44.999842 0 1 0.0057,-0.0064 1.7832095,1.7835355 44.999842 0 0 -0.01336,0.01974 11.412552,11.414638 44.995776 0 0 -0.04789,0.08451 1.7832095,1.7835355 44.999842 0 0 -0.19377,0.805789 1.7832095,1.7835355 44.999842 0 0 1.783236,1.783237 1.7832095,1.7835355 44.999842 0 0 1.527808,-0.901702 l 0.0169,0.0099 a 7.8461211,7.8475559 44.999335 0 1 6.795872,-3.924521 7.8461211,7.8475559 44.999335 0 1 7.846379,7.846378 7.8461211,7.8475559 44.999335 0 1 -7.847816,7.8478148 7.8461211,7.8475559 44.999335 0 1 -7.84638,-7.8463818 1.7832095,1.7835355 44.999842 0 0 -1.783234,-1.783236 1.7832095,1.7835355 44.999842 0 0 -1.7835629,1.783564 z m 0.083775,0.5296594 a 1.7832095,1.7835355 44.999842 0 0 0.015519,0.045065 1.7832095,1.7835355 44.999842 0 1 -0.015519,-0.045065 z m 0.249287,0.5028801 a 1.7832095,1.7835355 44.999842 0 0 0.0155,0.023239 1.7832095,1.7835355 44.999842 0 1 -0.0155,-0.023239 z m 0.392287,0.4007333 a 1.7832095,1.7835355 44.999842 0 0 0.02958,0.019746 1.7832095,1.7835355 44.999842 0 1 -0.02958,-0.019746 z m 0.485267,0.2514095 a 1.7832095,1.7835355 44.999842 0 0 0.04225,0.014813 1.7832095,1.7835355 44.999842 0 1 -0.04225,-0.014813 z m 0.712809,-7.8542043 a 1.7832095,1.7835355 44.999842 0 1 0.02747,-0.02463 1.7832095,1.7835355 44.999842 0 0 -0.02747,0.02463 z m 0.390196,7.8688932 a 1.7832095,1.7835355 44.999842 0 0 0.04225,-0.014817 1.7832095,1.7835355 44.999842 0 1 -0.04225,0.014817 z m 0.143026,-8.1830832 a 1.7832095,1.7835355 44.999842 0 1 0.03237,-0.01131 1.7832095,1.7835355 44.999842 0 0 -0.03237,0.01131 z m 0.354967,7.93652 a 1.7832095,1.7835355 44.999842 0 0 0.02957,-0.019725 1.7832095,1.7835355 44.999842 0 1 -0.02957,0.019725 z m 0.406441,-0.3972862 a 1.7832095,1.7835355 44.999842 0 0 0.01549,-0.023228 1.7832095,1.7835355 44.999842 0 1 -0.01549,0.023228 z m 0.05917,-7.6421388 a 1.7832095,1.7835355 44.999842 0 1 0.02183,0.0028 1.7832095,1.7835355 44.999842 0 0 -0.02183,-0.0028 z m 0.190217,7.161049 a 1.7832095,1.7835355 44.999842 0 0 0.01553,-0.045081 1.7832095,1.7835355 44.999842 0 1 -0.01553,0.045081 z m 0.611998,-6.862481 a 1.7832095,1.7835355 44.999842 0 1 0.01616,0.01199 1.7832095,1.7835355 44.999842 0 0 -0.01616,-0.01199 z m 0.455674,0.451438 a 1.7832095,1.7835355 44.999842 0 1 0.01201,0.01617 1.7832095,1.7835355 44.999842 0 0 -0.01201,-0.01617 z m 0.307725,0.796586 a 1.7832095,1.7835355 44.999842 0 1 0.0028,0.02184 1.7832095,1.7835355 44.999842 0 0 -0.0028,-0.02184 z" />
  <metadata
     id="metadata4">
    <rdf:RDF>
      <cc:Work
         rdf:about="">
        <dc:creator>
          <cc:Agent>
            <dc:title>Matthias Seidel</dc:title>
          </cc:Agent>
        </dc:creator>
      </cc:Work>
    </rdf:RDF>
  </metadata>
</svg>
