<?xml version="1.0" encoding="UTF-8" standalone="no"?>
<svg
   width="16.000311"
   height="16.000315"
   viewBox="52 -51 16.000311 16.000315"
   version="1.1"
   style="fill:none;stroke-linecap:round;stroke-linejoin:round"
   id="svg7"
   sodipodi:docname="spinner-16-12.svg"
   inkscape:version="1.3.2 (091e20ef0f, 2023-11-25)"
   inkscape:export-filename="spinner-16-12.png"
   inkscape:export-xdpi="96"
   inkscape:export-ydpi="96"
   xmlns:inkscape="http://www.inkscape.org/namespaces/inkscape"
   xmlns:sodipodi="http://sodipodi.sourceforge.net/DTD/sodipodi-0.dtd"
   xmlns="http://www.w3.org/2000/svg"
   xmlns:svg="http://www.w3.org/2000/svg"
   xmlns:rdf="http://www.w3.org/1999/02/22-rdf-syntax-ns#"
   xmlns:cc="http://creativecommons.org/ns#"
   xmlns:dc="http://purl.org/dc/elements/1.1/">
  <defs
     id="defs7" />
  <sodipodi:namedview
     id="namedview7"
     pagecolor="#ffffff"
     bordercolor="#cccccc"
     borderopacity="1"
     inkscape:showpageshadow="0"
     inkscape:pageopacity="1"
     inkscape:pagecheckerboard="0"
     inkscape:deskcolor="#d1d1d1"
     inkscape:document-units="px"
     inkscape:zoom="47.125736"
     inkscape:cx="7.8725561"
     inkscape:cy="7.8619462"
     inkscape:window-width="1920"
     inkscape:window-height="1056"
     inkscape:window-x="0"
     inkscape:window-y="24"
     inkscape:window-maximized="1"
     inkscape:current-layer="g7" />
  <g
     transform="matrix(1,0,0,-1,2.9001502e-5,3e-5)"
     id="g7"
     style="fill:none;fill-opacity:1;stroke:#df0000;stroke-opacity:1">
    <path
       id="path12"
       style="fill:#505050;fill-opacity:1;stroke:none;stroke-width:0.250073"
       d="M 55.992548,49.934477 A 2.0000225,2.0011813 60.585695 0 1 55.768773,49.78243 8.0000903,8.0047254 60.587133 0 1 53.06568,39.005125 a 8.0000903,8.0047254 60.587133 0 1 10.934071,-2.931409 8.0000903,8.0047254 60.587133 0 1 2.926869,10.92934 8.0000903,8.0047254 60.587133 0 1 -2.847049,2.877798 8.0000903,8.0047254 60.587133 0 1 -0.08394,0.05009 l -0.0017,-9.72e-4 a 8.0000903,8.0047254 60.587133 0 1 -0.04614,0.02838 2.0000225,2.0011813 60.585695 0 1 -1.953633,-0.02519 2.0000225,2.0011813 60.585695 0 1 -0.730543,-2.733379 2.0000225,2.0011813 60.585695 0 1 0.732315,-0.732222 4.0000451,4.0023629 60.588238 0 0 1.464628,-1.46444 4.0000451,4.0023629 60.588238 0 0 -1.463074,-5.463315 4.0000451,4.0023629 60.588238 0 0 -5.467397,1.46435 4.0000451,4.0023629 60.588238 0 0 1.463799,5.466024 2.0000225,2.0011813 60.585695 0 1 0.731536,2.731657 2.0000225,2.0011813 60.585695 0 1 -2.732838,0.732674 z" />
  </g>
  <metadata
     id="metadata7">
    <rdf:RDF>
      <cc:Work
         rdf:about="">
        <dc:creator>
          <cc:Agent>
            <dc:title>Matthias Seidel</dc:title>
          </cc:Agent>
        </dc:creator>
      </cc:Work>
    </rdf:RDF>
  </metadata>
</svg>
