<?xml version="1.0" encoding="UTF-8" standalone="no"?>
<svg
   width="32"
   height="32"
   viewBox="44 -56 32 32"
   version="1.1"
   style="fill:none;stroke-linecap:round;stroke-linejoin:round"
   id="svg7"
   sodipodi:docname="spinner-32-05.svg"
   inkscape:version="1.3.2 (091e20ef0f, 2023-11-25)"
   inkscape:export-filename="spinner-32-05.png"
   inkscape:export-xdpi="96"
   inkscape:export-ydpi="96"
   xmlns:inkscape="http://www.inkscape.org/namespaces/inkscape"
   xmlns:sodipodi="http://sodipodi.sourceforge.net/DTD/sodipodi-0.dtd"
   xmlns="http://www.w3.org/2000/svg"
   xmlns:svg="http://www.w3.org/2000/svg"
   xmlns:rdf="http://www.w3.org/1999/02/22-rdf-syntax-ns#"
   xmlns:cc="http://creativecommons.org/ns#"
   xmlns:dc="http://purl.org/dc/elements/1.1/">
  <defs
     id="defs7" />
  <sodipodi:namedview
     id="namedview7"
     pagecolor="#ffffff"
     bordercolor="#cccccc"
     borderopacity="1"
     inkscape:showpageshadow="0"
     inkscape:pageopacity="1"
     inkscape:pagecheckerboard="0"
     inkscape:deskcolor="#d1d1d1"
     inkscape:document-units="px"
     inkscape:zoom="23.379845"
     inkscape:cx="16.125"
     inkscape:cy="16.146386"
     inkscape:window-width="1920"
     inkscape:window-height="1056"
     inkscape:window-x="0"
     inkscape:window-y="24"
     inkscape:window-maximized="1"
     inkscape:current-layer="g7" />
  <g
     transform="matrix(1,0,0,-1,0.125,0.125)"
     id="g7">
    <path
       id="path5"
       style="fill:#505050;fill-opacity:1;stroke:none;stroke-width:0.250125"
       d="m 73.747011,32.114608 a 2.5014094,2.5010903 27.415657 0 1 0.149724,0.306182 16.009021,16.006978 27.404452 0 1 -6.008134,21.560042 16.009021,16.006978 27.404452 0 1 -21.86844,-5.860257 16.009021,16.006978 27.404452 0 1 5.858408,-21.866224 16.009021,16.006978 27.404452 0 1 15.704146,-0.14157 16.009021,16.006978 27.404452 0 1 0.0081,0.0022 2.5014094,2.5010903 27.415657 0 1 0.113713,0.05618 16.009021,16.006978 27.404452 0 1 0.181209,0.08719 16.009021,16.006978 27.404452 0 1 0.101579,0.05869 2.5014094,2.5010903 27.415657 0 1 0.815601,0.853674 2.5014094,2.5010903 27.415657 0 1 -0.915376,3.416596 2.5014094,2.5010903 27.415657 0 1 -2.488698,-0.02322 l -0.01419,0.02625 a 11.006201,11.004796 27.426847 0 0 -11.004518,-0.0038 11.006201,11.004796 27.426847 0 0 -4.027656,15.033028 11.006201,11.004796 27.426847 0 0 15.034553,4.02893 11.006201,11.004796 27.426847 0 0 4.027656,-15.03303 2.5014094,2.5010903 27.415657 0 1 0.915378,-3.4166 2.5014094,2.5010903 27.415657 0 1 3.416944,0.915667 z m 0.269073,0.704357 a 2.5014094,2.5010903 27.415657 0 1 0.0124,0.06053 2.5014094,2.5010903 27.415657 0 0 -0.0124,-0.06053 z m 0.05074,0.771725 a 2.5014094,2.5010903 27.415657 0 1 -0.0036,0.05623 2.5014094,2.5010903 27.415657 0 0 0.0036,-0.05623 z m -0.195284,0.771596 a 2.5014094,2.5010903 27.415657 0 1 -0.025,0.05051 2.5014094,2.5010903 27.415657 0 0 0.025,-0.05051 z m -0.413746,0.647254 a 2.5014094,2.5010903 27.415657 0 1 -0.04099,0.04621 2.5014094,2.5010903 27.415657 0 0 0.04099,-0.04621 z m -6.362431,-9.037371 a 2.5014094,2.5010903 27.415657 0 0 -0.04706,-0.01117 2.5014094,2.5010903 27.415657 0 1 0.04706,0.01117 z m 5.031889,9.828017 a 2.5014094,2.5010903 27.415657 0 1 -0.06053,0.01239 2.5014094,2.5010903 27.415657 0 0 0.06053,-0.01239 z m -5.905508,-9.840412 a 2.5014094,2.5010903 27.415657 0 0 -0.04575,0.01064 2.5014094,2.5010903 27.415657 0 1 0.04575,-0.01064 z m 5.13373,9.89107 a 2.5014094,2.5010903 27.415657 0 1 -0.05624,-0.0036 2.5014094,2.5010903 27.415657 0 0 0.05624,0.0036 z m -0.771672,-0.195347 a 2.5014094,2.5010903 27.415657 0 1 -0.05052,-0.02501 2.5014094,2.5010903 27.415657 0 0 0.05052,0.02501 z m -0.647343,-0.41379 a 2.5014094,2.5010903 27.415657 0 1 -0.04624,-0.04099 2.5014094,2.5010903 27.415657 0 0 0.04624,0.04099 z m -5.135756,-8.511251 a 2.5014094,2.5010903 27.415657 0 0 -0.04099,0.04623 2.5014094,2.5010903 27.415657 0 1 0.04099,-0.04623 z m -0.42977,0.64296 a 2.5014094,2.5010903 27.415657 0 0 -0.025,0.05051 2.5014094,2.5010903 27.415657 0 1 0.025,-0.05051 z m -0.216637,0.765872 a 2.5014094,2.5010903 27.415657 0 0 -0.0036,0.05624 2.5014094,2.5010903 27.415657 0 1 0.0036,-0.05624 z m 0.03473,0.767433 a 2.5014094,2.5010903 27.415657 0 0 0.0124,0.06053 2.5014094,2.5010903 27.415657 0 1 -0.0124,-0.06053 z" />
  </g>
  <metadata
     id="metadata7">
    <rdf:RDF>
      <cc:Work
         rdf:about="">
        <dc:creator>
          <cc:Agent>
            <dc:title>Matthias Seidel</dc:title>
          </cc:Agent>
        </dc:creator>
      </cc:Work>
    </rdf:RDF>
  </metadata>
</svg>
