<?xml version="1.0" encoding="UTF-8" standalone="no"?>
<svg
   width="64"
   height="64"
   viewBox="9.8778 -21.8722 22.827793 22.827793"
   version="1.1"
   style="fill:none;stroke-linecap:round;stroke-linejoin:round"
   id="svg4"
   sodipodi:docname="spinner-64-02.svg"
   inkscape:version="1.3.2 (091e20ef0f, 2023-11-25)"
   inkscape:export-filename="spinner-64-02.png"
   inkscape:export-xdpi="96"
   inkscape:export-ydpi="96"
   xmlns:inkscape="http://www.inkscape.org/namespaces/inkscape"
   xmlns:sodipodi="http://sodipodi.sourceforge.net/DTD/sodipodi-0.dtd"
   xmlns="http://www.w3.org/2000/svg"
   xmlns:svg="http://www.w3.org/2000/svg"
   xmlns:rdf="http://www.w3.org/1999/02/22-rdf-syntax-ns#"
   xmlns:cc="http://creativecommons.org/ns#"
   xmlns:dc="http://purl.org/dc/elements/1.1/">
  <defs
     id="defs4" />
  <sodipodi:namedview
     id="namedview4"
     pagecolor="#ffffff"
     bordercolor="#cccccc"
     borderopacity="1"
     inkscape:showpageshadow="0"
     inkscape:pageopacity="1"
     inkscape:pagecheckerboard="0"
     inkscape:deskcolor="#d1d1d1"
     inkscape:document-units="px"
     inkscape:zoom="11.911385"
     inkscape:cx="31.650392"
     inkscape:cy="31.692368"
     inkscape:window-width="1920"
     inkscape:window-height="1056"
     inkscape:window-x="0"
     inkscape:window-y="24"
     inkscape:window-maximized="1"
     inkscape:current-layer="svg4" />
  <path
     id="path9"
     style="fill:#505050;fill-opacity:1;stroke:none;stroke-width:0.360806;stroke-dasharray:none"
     d="m 27.00629,-20.355103 a 1.7843744,1.784169 89.975833 0 0 -0.218124,-0.105603 11.420008,11.418694 89.962214 0 0 -15.380511,4.285726 11.420008,11.418694 89.962214 0 0 4.179642,15.60043162 11.420008,11.418694 89.962214 0 0 15.598636,-4.18012192 11.420008,11.418694 89.962214 0 0 0.103617,-11.2002117 1.7843744,1.784169 89.975833 0 0 -0.05473,-0.113796 11.420008,11.418694 89.962214 0 0 -0.04408,-0.09137 1.7843744,1.784169 89.975833 0 1 0.0027,0.0081 1.7843744,1.784169 89.975833 0 0 -0.01039,-0.02147 11.420008,11.418694 89.962214 0 0 -0.04927,-0.08378 1.7843744,1.784169 89.975833 0 0 -0.601239,-0.57095 1.7843744,1.784169 89.975833 0 0 -2.437256,0.653135 1.7843744,1.784169 89.975833 0 0 0.01692,1.774824 l -0.01703,0.0097 a 7.8512469,7.8503429 89.964302 0 1 4.42e-4,7.8514443 7.8512469,7.8503429 89.964302 0 1 -10.724121,2.8738509 7.8512469,7.8503429 89.964302 0 1 -2.87352,-10.7253582 7.8512469,7.8503429 89.964302 0 1 10.724122,-2.873848 1.7843744,1.784169 89.975833 0 0 2.437257,-0.653136 1.7843744,1.784169 89.975833 0 0 -0.653062,-2.437538 z m -0.500838,-0.192351 a 1.7843744,1.784169 89.975833 0 0 -0.04681,-0.0091 1.7843744,1.784169 89.975833 0 1 0.04681,0.0091 z m -0.560445,-0.03554 a 1.7843744,1.784169 89.975833 0 0 -0.02789,0.0018 1.7843744,1.784169 89.975833 0 1 0.02789,-0.0018 z m -0.543481,0.139451 a 1.7843744,1.784169 89.975833 0 0 -0.0319,0.01576 1.7843744,1.784169 89.975833 0 1 0.0319,-0.01576 z m -0.460615,0.294717 a 1.7843744,1.784169 89.975833 0 0 -0.03395,0.02922 1.7843744,1.784169 89.975833 0 1 0.03395,-0.02922 z m 6.44872,4.546313 a 1.7843744,1.784169 89.975833 0 1 0.0076,0.03613 1.7843744,1.784169 89.975833 0 0 -0.0076,-0.03613 z m -7.013283,-3.597949 a 1.7843744,1.784169 89.975833 0 0 -0.0083,0.04402 1.7843744,1.784169 89.975833 0 1 0.0083,-0.04402 z m 7.018741,4.21712 a 1.7843744,1.784169 89.975833 0 1 -0.0064,0.03371 1.7843744,1.784169 89.975833 0 0 0.0064,-0.03371 z m -7.054249,-3.662291 a 1.7843744,1.784169 89.975833 0 0 0.0023,0.0355 1.7843744,1.784169 89.975833 0 1 -0.0023,-0.0355 z m 0.140888,0.550892 a 1.7843744,1.784169 89.975833 0 0 0.01239,0.02505 1.7843744,1.784169 89.975833 0 1 -0.01239,-0.02505 z m 6.591994,3.87387 a 1.7843744,1.784169 89.975833 0 1 -0.01335,0.01752 1.7843744,1.784169 89.975833 0 0 0.01335,-0.01752 z m -6.299916,-3.417147 a 1.7843744,1.784169 89.975833 0 0 0.0313,0.03598 1.7843744,1.784169 89.975833 0 1 -0.0313,-0.03598 z m 5.639867,3.9629 a 1.7843744,1.784169 89.975833 0 1 -0.01848,0.008 1.7843744,1.784169 89.975833 0 0 0.01848,-0.008 z m -0.619129,0.16901 a 1.7843744,1.784169 89.975833 0 1 -0.02003,0.0023 1.7843744,1.784169 89.975833 0 0 0.02003,-0.0023 z m -0.844163,-0.13182 a 1.7843744,1.784169 89.975833 0 1 -0.02032,-0.0085 1.7843744,1.784169 89.975833 0 0 0.02032,0.0085 z" />
  <metadata
     id="metadata4">
    <rdf:RDF>
      <cc:Work
         rdf:about="">
        <dc:creator>
          <cc:Agent>
            <dc:title>Matthias Seidel</dc:title>
          </cc:Agent>
        </dc:creator>
      </cc:Work>
    </rdf:RDF>
  </metadata>
</svg>
