<?xml version="1.0" encoding="UTF-8" standalone="no"?>
<svg
   width="32"
   height="32"
   viewBox="44 -56 32 31.999999"
   version="1.1"
   style="fill:none;stroke-linecap:round;stroke-linejoin:round"
   id="svg7"
   sodipodi:docname="spinner-32-12.svg"
   inkscape:version="1.3.2 (091e20ef0f, 2023-11-25)"
   inkscape:export-filename="spinner-32-12.png"
   inkscape:export-xdpi="96"
   inkscape:export-ydpi="96"
   xmlns:inkscape="http://www.inkscape.org/namespaces/inkscape"
   xmlns:sodipodi="http://sodipodi.sourceforge.net/DTD/sodipodi-0.dtd"
   xmlns="http://www.w3.org/2000/svg"
   xmlns:svg="http://www.w3.org/2000/svg"
   xmlns:rdf="http://www.w3.org/1999/02/22-rdf-syntax-ns#"
   xmlns:cc="http://creativecommons.org/ns#"
   xmlns:dc="http://purl.org/dc/elements/1.1/">
  <defs
     id="defs7" />
  <sodipodi:namedview
     id="namedview7"
     pagecolor="#ffffff"
     bordercolor="#cccccc"
     borderopacity="1"
     inkscape:showpageshadow="0"
     inkscape:pageopacity="1"
     inkscape:pagecheckerboard="0"
     inkscape:deskcolor="#d1d1d1"
     inkscape:document-units="px"
     inkscape:zoom="27.317829"
     inkscape:cx="15.996879"
     inkscape:cy="16.015182"
     inkscape:window-width="1920"
     inkscape:window-height="1056"
     inkscape:window-x="0"
     inkscape:window-y="24"
     inkscape:window-maximized="1"
     inkscape:current-layer="g7" />
  <g
     transform="scale(1,-1)"
     id="g7">
    <path
       id="path12"
       style="fill:#505050;fill-opacity:1;stroke:none;stroke-width:0.249507;stroke-dasharray:none"
       d="m 51.990477,53.865471 a 2.5001508,2.5010021 58.855544 0 1 -0.282653,-0.190209 16.000966,16.006415 58.85834 0 1 -5.572269,-21.668625 16.000966,16.006415 58.85834 0 1 21.864057,-5.86059 16.000966,16.006415 58.85834 0 1 5.854925,21.858831 16.000966,16.006415 58.85834 0 1 -5.759063,5.796357 16.000966,16.006415 58.85834 0 1 -0.101559,0.05869 l -0.0017,-9.72e-4 a 2.5001508,2.5010021 58.855544 0 1 -2.497502,0.0045 2.5001508,2.5010021 58.855544 0 1 -0.914828,-3.415443 2.5001508,2.5010021 58.855544 0 1 0.928121,-0.892254 l -0.0142,-0.02625 a 11.000665,11.004411 58.85302 0 0 4.02969,-4.024327 11.000665,11.004411 58.85302 0 0 -4.025264,-15.027947 11.000665,11.004411 58.85302 0 0 -15.031539,4.029154 11.000665,11.004411 58.85302 0 0 4.025261,15.027946 2.5001508,2.5010021 58.855544 0 1 0.914831,3.415443 2.5001508,2.5010021 58.855544 0 1 -3.416257,0.915717 z m -0.584983,-0.475235 a 2.5001508,2.5010021 58.855544 0 1 -0.04098,-0.04619 2.5001508,2.5010021 58.855544 0 0 0.04098,0.04619 z m -0.429598,-0.642722 a 2.5001508,2.5010021 58.855544 0 1 -0.02499,-0.0505 2.5001508,2.5010021 58.855544 0 0 0.02499,0.0505 z m -0.216508,-0.765612 a 2.5001508,2.5010021 58.855544 0 1 -0.0036,-0.05623 2.5001508,2.5010021 58.855544 0 0 0.0036,0.05623 z m 0.03479,-0.7672 a 2.5001508,2.5010021 58.855544 0 1 0.0124,-0.06052 2.5001508,2.5010021 58.855544 0 0 -0.0124,0.06052 z m 0.756952,-1.349723 a 2.5001508,2.5010021 58.855544 0 1 0.04623,-0.04096 2.5001508,2.5010021 58.855544 0 0 -0.04623,0.04096 z m 0.642949,-0.429725 a 2.5001508,2.5010021 58.855544 0 1 0.05049,-0.025 2.5001508,2.5010021 58.855544 0 0 -0.05049,0.025 z m 0.765803,-0.216707 a 2.5001508,2.5010021 58.855544 0 1 0.05623,-0.0036 2.5001508,2.5010021 58.855544 0 0 -0.05623,0.0036 z m 0.767306,0.03455 a 2.5001508,2.5010021 58.855544 0 1 0.06052,0.01238 2.5001508,2.5010021 58.855544 0 0 -0.06052,-0.01238 z m 15.452862,2.990486 a 2.5001508,2.5010021 58.855544 0 0 0.0124,-0.06052 2.5001508,2.5010021 58.855544 0 1 -0.0124,0.06052 z m 0.0508,-0.771486 a 2.5001508,2.5010021 58.855544 0 0 -0.0036,-0.05623 2.5001508,2.5010021 58.855544 0 1 0.0036,0.05623 z m -2.941206,-2.207359 a 2.5001508,2.5010021 58.855544 0 1 0.0531,-0.01002 2.5001508,2.5010021 58.855544 0 0 -0.0531,0.01002 z m 2.746044,1.436019 a 2.5001508,2.5010021 58.855544 0 0 -0.02499,-0.05049 2.5001508,2.5010021 58.855544 0 1 0.02499,0.05049 z m -1.875743,-1.454813 a 2.5001508,2.5010021 58.855544 0 1 0.04404,0.0096 2.5001508,2.5010021 58.855544 0 0 -0.04404,-0.0096 z m 1.462153,0.807801 a 2.5001508,2.5010021 58.855544 0 0 -0.04096,-0.0462 2.5001508,2.5010021 58.855544 0 1 0.04096,0.0462 z" />
  </g>
  <metadata
     id="metadata7">
    <rdf:RDF>
      <cc:Work
         rdf:about="">
        <dc:creator>
          <cc:Agent>
            <dc:title>Matthias Seidel</dc:title>
          </cc:Agent>
        </dc:creator>
      </cc:Work>
    </rdf:RDF>
  </metadata>
</svg>
