<?xml version="1.0" encoding="UTF-8" standalone="no"?>
<!-- 2024-07-26 20:33:55 Generated by QCAD 3.29.4 SVG Exporter -->

<svg
   width="64"
   height="64"
   viewBox="28 -62 64 64"
   version="1.1"
   style="fill:none;stroke-linecap:round;stroke-linejoin:round"
   id="svg7"
   sodipodi:docname="spinner-64-09.svg"
   inkscape:version="1.3.2 (091e20ef0f, 2023-11-25)"
   inkscape:export-filename="spinner-64-09.png"
   inkscape:export-xdpi="96"
   inkscape:export-ydpi="96"
   xmlns:inkscape="http://www.inkscape.org/namespaces/inkscape"
   xmlns:sodipodi="http://sodipodi.sourceforge.net/DTD/sodipodi-0.dtd"
   xmlns="http://www.w3.org/2000/svg"
   xmlns:svg="http://www.w3.org/2000/svg"
   xmlns:rdf="http://www.w3.org/1999/02/22-rdf-syntax-ns#"
   xmlns:cc="http://creativecommons.org/ns#"
   xmlns:dc="http://purl.org/dc/elements/1.1/">
  <defs
     id="defs7" />
  <sodipodi:namedview
     id="namedview7"
     pagecolor="#ffffff"
     bordercolor="#cccccc"
     borderopacity="1"
     inkscape:showpageshadow="0"
     inkscape:pageopacity="1"
     inkscape:pagecheckerboard="0"
     inkscape:deskcolor="#d1d1d1"
     inkscape:document-units="px"
     inkscape:zoom="13.712062"
     inkscape:cx="32.015608"
     inkscape:cy="31.979144"
     inkscape:window-width="1920"
     inkscape:window-height="1056"
     inkscape:window-x="0"
     inkscape:window-y="24"
     inkscape:window-maximized="1"
     inkscape:current-layer="g7" />
  <g
     transform="scale(1,-1)"
     id="g7">
    <!-- Kreis -->
    <!-- Kreis -->
    <!-- Linie -->
    <!-- Linie -->
    <!-- Linie -->
    <!-- Linie -->
    <!-- Kreis -->
    <path
       id="path12"
       style="fill:#505050;fill-opacity:1;stroke:none;stroke-width:0.24951;stroke-dasharray:none"
       d="m 32.267163,13.980201 a 5.0021026,5.0004145 57.785566 0 1 0.38309,-0.566029 32.013457,32.002655 57.785064 0 1 43.335758,-11.143931 32.013457,32.002655 57.785064 0 1 11.721564,43.728787 32.013457,32.002655 57.785064 0 1 -43.718846,11.709958 32.013457,32.002655 57.785064 0 1 -11.56559,-11.479904 32.013457,32.002655 57.785064 0 1 -0.143907,-0.243206 32.013457,32.002655 57.785064 0 1 -0.02382,-0.04083 5.0021026,5.0004145 57.785566 0 1 0.01574,-4.955945 5.0021026,5.0004145 57.785566 0 1 6.831071,-1.829682 5.0021026,5.0004145 57.785566 0 1 1.783583,1.857968 l 0.05443,-0.03174 a 22.009252,22.001824 57.78659 0 0 8.048055,8.06105 22.009252,22.001824 57.78659 0 0 30.056707,-8.050597 22.009252,22.001824 57.78659 0 0 -8.058576,-30.06354 22.009252,22.001824 57.78659 0 0 -30.056706,8.050596 5.0021026,5.0004145 57.785566 0 1 -6.831071,1.829682 5.0021026,5.0004145 57.785566 0 1 -1.831496,-6.832621 z m 0.945154,-1.168556 a 5.0021026,5.0004145 57.785566 0 1 0.09972,-0.08678 5.0021026,5.0004145 57.785566 0 0 -0.09972,0.08678 z m 1.298095,-0.865461 a 5.0021026,5.0004145 57.785566 0 1 0.09108,-0.04438 5.0021026,5.0004145 57.785566 0 0 -0.09108,0.04438 z m 1.526645,-0.428933 a 5.0021026,5.0004145 57.785566 0 1 0.10106,-0.0071 5.0021026,5.0004145 57.785566 0 0 -0.10106,0.0071 z m 1.528385,0.06835 a 5.0021026,5.0004145 57.785566 0 1 0.129759,0.02533 5.0021026,5.0004145 57.785566 0 0 -0.129759,-0.02533 z m 2.70146,1.510575 a 5.0021026,5.0004145 57.785566 0 1 0.08682,0.09975 5.0021026,5.0004145 57.785566 0 0 -0.08682,-0.09975 z m 0.865729,1.298544 a 5.0021026,5.0004145 57.785566 0 1 0.04441,0.0911 5.0021026,5.0004145 57.785566 0 0 -0.04441,-0.0911 z m 0.429337,1.526997 a 5.0021026,5.0004145 57.785566 0 1 0.0071,0.101099 5.0021026,5.0004145 57.785566 0 0 -0.0071,-0.101099 z m -0.06788,1.528585 a 5.0021026,5.0004145 57.785566 0 1 -0.02528,0.129774 5.0021026,5.0004145 57.785566 0 0 0.02528,-0.129774 z m -5.988357,30.910999 a 5.0021026,5.0004145 57.785566 0 0 0.129761,0.02533 5.0021026,5.0004145 57.785566 0 1 -0.129761,-0.02533 z m 1.557081,0.100712 a 5.0021026,5.0004145 57.785566 0 0 0.101069,-0.007 5.0021026,5.0004145 57.785566 0 1 -0.101069,0.007 z m 4.405124,-5.881326 a 5.0021026,5.0004145 57.785566 0 1 0.02113,0.10018 5.0021026,5.0004145 57.785566 0 0 -0.02113,-0.10018 z m -2.868463,5.489759 a 5.0021026,5.0004145 57.785566 0 0 0.09107,-0.04437 5.0021026,5.0004145 57.785566 0 1 -0.09107,0.04437 z m 2.905331,-3.751794 a 5.0021026,5.0004145 57.785566 0 1 -0.01883,0.09515 5.0021026,5.0004145 57.785566 0 0 0.01883,-0.09515 z m -1.615897,2.928704 a 5.0021026,5.0004145 57.785566 0 0 0.09972,-0.08678 5.0021026,5.0004145 57.785566 0 1 -0.09972,0.08678 z" />
    <!-- Kreis -->
    <!-- Linie -->
    <!-- Linie -->
  </g>
  <metadata
     id="metadata7">
    <rdf:RDF>
      <cc:Work
         rdf:about="">
        <dc:creator>
          <cc:Agent>
            <dc:title>Matthias Seidel</dc:title>
          </cc:Agent>
        </dc:creator>
      </cc:Work>
    </rdf:RDF>
  </metadata>
</svg>
