<?xml version="1.0" encoding="UTF-8" standalone="no"?>
<svg
   width="32"
   height="32"
   viewBox="44 -56 32 31.999999"
   version="1.1"
   style="fill:none;stroke-linecap:round;stroke-linejoin:round"
   id="svg7"
   sodipodi:docname="spinner-32-06.svg"
   inkscape:version="1.3.2 (091e20ef0f, 2023-11-25)"
   inkscape:export-filename="spinner-32-06.png"
   inkscape:export-xdpi="96"
   inkscape:export-ydpi="96"
   xmlns:inkscape="http://www.inkscape.org/namespaces/inkscape"
   xmlns:sodipodi="http://sodipodi.sourceforge.net/DTD/sodipodi-0.dtd"
   xmlns="http://www.w3.org/2000/svg"
   xmlns:svg="http://www.w3.org/2000/svg"
   xmlns:rdf="http://www.w3.org/1999/02/22-rdf-syntax-ns#"
   xmlns:cc="http://creativecommons.org/ns#"
   xmlns:dc="http://purl.org/dc/elements/1.1/">
  <defs
     id="defs7" />
  <sodipodi:namedview
     id="namedview7"
     pagecolor="#ffffff"
     bordercolor="#cccccc"
     borderopacity="1"
     inkscape:showpageshadow="0"
     inkscape:pageopacity="1"
     inkscape:pagecheckerboard="0"
     inkscape:deskcolor="#d1d1d1"
     inkscape:document-units="px"
     inkscape:zoom="27.317829"
     inkscape:cx="15.996879"
     inkscape:cy="16.015182"
     inkscape:window-width="1920"
     inkscape:window-height="1056"
     inkscape:window-x="0"
     inkscape:window-y="24"
     inkscape:window-maximized="1"
     inkscape:current-layer="g7" />
  <g
     transform="scale(1,-1)"
     id="g7">
    <path
       id="path12"
       style="fill:#505050;fill-opacity:1;stroke:none;stroke-width:0.249507;stroke-dasharray:none"
       d="m 68.00955,26.137739 a 2.5001529,2.5010094 58.407995 0 1 0.282654,0.190205 16.000979,16.006461 58.407437 0 1 5.572225,21.668695 16.000979,16.006461 58.407437 0 1 -21.864071,5.860659 16.000979,16.006461 58.407437 0 1 -5.854878,-21.858901 16.000979,16.006461 58.407437 0 1 5.759077,-5.796391 16.000979,16.006461 58.407437 0 1 0.101559,-0.05869 l 0.0017,9.73e-4 a 2.5001529,2.5010094 58.407995 0 1 2.4975,-0.0045 2.5001529,2.5010094 58.407995 0 1 0.914825,3.415454 2.5001529,2.5010094 58.407995 0 1 -0.928125,0.892259 l 0.01419,0.02624 a 11.000673,11.004443 58.411147 0 0 -4.029658,4.024381 11.000673,11.004443 58.411147 0 0 4.02523,15.027995 11.000673,11.004443 58.411147 0 0 15.031548,-4.029201 11.000673,11.004443 58.411147 0 0 -4.025229,-15.027995 2.5001529,2.5010094 58.407995 0 1 -0.914823,-3.415455 2.5001529,2.5010094 58.407995 0 1 3.416258,-0.915727 z m 0.584982,0.475235 a 2.5001529,2.5010094 58.407995 0 1 0.04098,0.04622 2.5001529,2.5010094 58.407995 0 0 -0.04098,-0.04622 z m 0.4296,0.642721 a 2.5001529,2.5010094 58.407995 0 1 0.025,0.0505 2.5001529,2.5010094 58.407995 0 0 -0.025,-0.0505 z m 0.21651,0.765614 a 2.5001529,2.5010094 58.407995 0 1 0.0036,0.05623 2.5001529,2.5010094 58.407995 0 0 -0.0036,-0.05623 z m -0.0348,0.767203 a 2.5001529,2.5010094 58.407995 0 1 -0.0124,0.06052 2.5001529,2.5010094 58.407995 0 0 0.0124,-0.06052 z m -0.756957,1.349727 a 2.5001529,2.5010094 58.407995 0 1 -0.04623,0.04098 2.5001529,2.5010094 58.407995 0 0 0.04623,-0.04098 z m -0.642954,0.429726 a 2.5001529,2.5010094 58.407995 0 1 -0.0505,0.025 2.5001529,2.5010094 58.407995 0 0 0.0505,-0.025 z m -0.765802,0.21671 a 2.5001529,2.5010094 58.407995 0 1 -0.05623,0.0036 2.5001529,2.5010094 58.407995 0 0 0.05623,-0.0036 z m -0.767308,-0.03455 a 2.5001529,2.5010094 58.407995 0 1 -0.06052,-0.01238 2.5001529,2.5010094 58.407995 0 0 0.06052,0.01238 z m -15.45285,-2.990458 a 2.5001529,2.5010094 58.407995 0 0 -0.0124,0.06052 2.5001529,2.5010094 58.407995 0 1 0.0124,-0.06052 z m -0.0508,0.77149 a 2.5001529,2.5010094 58.407995 0 0 0.0036,0.05623 2.5001529,2.5010094 58.407995 0 1 -0.0036,-0.05623 z m 2.941201,2.207359 a 2.5001529,2.5010094 58.407995 0 1 -0.05311,0.01 2.5001529,2.5010094 58.407995 0 0 0.05311,-0.01 z m -2.74604,-1.436018 a 2.5001529,2.5010094 58.407995 0 0 0.02499,0.0505 2.5001529,2.5010094 58.407995 0 1 -0.02499,-0.0505 z m 1.875739,1.454811 a 2.5001529,2.5010094 58.407995 0 1 -0.04406,-0.0096 2.5001529,2.5010094 58.407995 0 0 0.04406,0.0096 z m -1.462153,-0.807797 a 2.5001529,2.5010094 58.407995 0 0 0.04098,0.04622 2.5001529,2.5010094 58.407995 0 1 -0.04098,-0.04622 z" />
  </g>
  <metadata
     id="metadata7">
    <rdf:RDF>
      <cc:Work
         rdf:about="">
        <dc:creator>
          <cc:Agent>
            <dc:title>Matthias Seidel</dc:title>
          </cc:Agent>
        </dc:creator>
      </cc:Work>
    </rdf:RDF>
  </metadata>
</svg>
