<?xml version="1.0" encoding="UTF-8" standalone="no"?>
<svg
   width="64"
   height="64"
   viewBox="9.8778 -21.8722 22.827793 22.827793"
   version="1.1"
   style="fill:none;stroke-linecap:round;stroke-linejoin:round"
   id="svg4"
   sodipodi:docname="spinner-64-06.svg"
   inkscape:version="1.3.2 (091e20ef0f, 2023-11-25)"
   inkscape:export-filename="spinner-64-06.png"
   inkscape:export-xdpi="96"
   inkscape:export-ydpi="96"
   xmlns:inkscape="http://www.inkscape.org/namespaces/inkscape"
   xmlns:sodipodi="http://sodipodi.sourceforge.net/DTD/sodipodi-0.dtd"
   xmlns="http://www.w3.org/2000/svg"
   xmlns:svg="http://www.w3.org/2000/svg"
   xmlns:rdf="http://www.w3.org/1999/02/22-rdf-syntax-ns#"
   xmlns:cc="http://creativecommons.org/ns#"
   xmlns:dc="http://purl.org/dc/elements/1.1/">
  <defs
     id="defs4" />
  <sodipodi:namedview
     id="namedview4"
     pagecolor="#ffffff"
     bordercolor="#cccccc"
     borderopacity="1"
     inkscape:showpageshadow="0"
     inkscape:pageopacity="1"
     inkscape:pagecheckerboard="0"
     inkscape:deskcolor="#d1d1d1"
     inkscape:document-units="px"
     inkscape:zoom="11.911385"
     inkscape:cx="31.650392"
     inkscape:cy="31.692368"
     inkscape:window-width="1920"
     inkscape:window-height="1056"
     inkscape:window-x="0"
     inkscape:window-y="24"
     inkscape:window-maximized="1"
     inkscape:current-layer="svg4" />
  <path
     id="path9"
     style="fill:#505050;fill-opacity:1;stroke:none;stroke-width:0.360709;stroke-dasharray:none"
     d="m 27.004475,-0.5703455 a 1.783949,1.7836168 7.5357397 0 0 0.200478,-0.13605939 11.417285,11.41516 7.5243687 0 0 3.978256,-15.45769611 11.417285,11.41516 7.5243687 0 0 -15.596764,-4.17874 11.417285,11.41516 7.5243687 0 0 -4.178736,15.5937555 11.417285,11.41516 7.5243687 0 0 9.645661,5.68768701 1.783949,1.7836168 7.5357397 0 0 0.125884,0.009492 11.417285,11.41516 7.5243687 0 0 0.101148,0.0075 1.783949,1.7836168 7.5357397 0 1 -0.0084,-0.001702 1.783949,1.7836168 7.5357397 0 0 0.02378,0.001701 11.417285,11.41516 7.5243687 0 0 0.09716,-7.8205e-4 1.783949,1.7836168 7.5357397 0 0 0.794915,-0.23515518 1.783949,1.7836168 7.5357397 0 0 0.652919,-2.43649398 1.783949,1.7836168 7.5357397 0 0 -1.545152,-0.8724269 l 1.14e-4,-0.019592 a 7.8493755,7.847913 7.5364715 0 1 -6.798224,-3.9238509 7.8493755,7.847913 7.5364715 0 1 2.872895,-10.7207665 7.8493755,7.847913 7.5364715 0 1 10.722837,2.8729 7.8493755,7.847913 7.5364715 0 1 -2.872899,10.7207673 1.783949,1.7836168 7.5357397 0 0 -0.65292,2.4364932 1.783949,1.7836168 7.5357397 0 0 2.436965,0.65292035 z m 0.416918,-0.33746457 a 1.783949,1.7836168 7.5357397 0 0 0.03128,-0.0359842 1.783949,1.7836168 7.5357397 0 1 -0.03128,0.0359842 z m 0.310948,-0.46743983 a 1.783949,1.7836168 7.5357397 0 0 0.01238,-0.025043 1.783949,1.7836168 7.5357397 0 1 -0.01238,0.025043 z m 0.15095,-0.5402192 a 1.783949,1.7836168 7.5357397 0 0 0.0023,-0.035491 1.783949,1.7836168 7.5357397 0 1 -0.0023,0.035491 z m -0.0249,-0.5460763 a 1.783949,1.7836168 7.5357397 0 0 -0.0083,-0.044 1.783949,1.7836168 7.5357397 0 1 0.0083,0.044 z m -7.160142,3.31067122 a 1.783949,1.7836168 7.5357397 0 1 -0.03508,-0.0114765 1.783949,1.7836168 7.5357397 0 0 0.03508,0.0114765 z M 27.3195,-3.4243195 a 1.783949,1.7836168 7.5357397 0 0 -0.03397,-0.02918 1.783949,1.7836168 7.5357397 0 1 0.03397,0.02918 z m -7.160081,3.96870153 a 1.783949,1.7836168 7.5357397 0 1 -0.02599,-0.0223867 1.783949,1.7836168 7.5357397 0 0 0.02599,0.0223867 z m 6.69745,-4.27675183 a 1.783949,1.7836168 7.5357397 0 0 -0.03187,-0.015748 1.783949,1.7836168 7.5357397 0 1 0.03187,0.015748 z M 26.30946,-3.8857369 a 1.783949,1.7836168 7.5357397 0 0 -0.02787,-0.00181 1.783949,1.7836168 7.5357397 0 1 0.02787,0.00181 z m -6.649551,3.77080123 a 1.783949,1.7836168 7.5357397 0 1 -0.0085,-0.0203054 1.783949,1.7836168 7.5357397 0 0 0.0085,0.0203054 z m 6.108093,-3.74621203 a 1.783949,1.7836168 7.5357397 0 0 -0.04681,0.0091 1.783949,1.7836168 7.5357397 0 1 0.04681,-0.0091 z m -6.250649,2.90200672 a 1.783949,1.7836168 7.5357397 0 1 0.0023,-0.0199949 1.783949,1.7836168 7.5357397 0 0 -0.0023,0.0199949 z m 0.163172,-0.62048382 a 1.783949,1.7836168 7.5357397 0 1 0.008,-0.018491 1.783949,1.7836168 7.5357397 0 0 -0.008,0.018491 z m 0.536144,-0.6649465 a 1.783949,1.7836168 7.5357397 0 1 0.01752,-0.013348 1.783949,1.7836168 7.5357397 0 0 -0.01752,0.013348 z" />
  <metadata
     id="metadata4">
    <rdf:RDF>
      <cc:Work
         rdf:about="">
        <dc:creator>
          <cc:Agent>
            <dc:title>Matthias Seidel</dc:title>
          </cc:Agent>
        </dc:creator>
      </cc:Work>
    </rdf:RDF>
  </metadata>
</svg>
