<?xml version="1.0" encoding="UTF-8" standalone="no"?>
<svg
   width="64"
   height="64"
   viewBox="28 -62 64 64"
   version="1.1"
   style="fill:none;stroke-linecap:round;stroke-linejoin:round"
   id="svg7"
   sodipodi:docname="spinner-64-03.svg"
   inkscape:version="1.3.2 (091e20ef0f, 2023-11-25)"
   inkscape:export-filename="spinner-64-03.png"
   inkscape:export-xdpi="96"
   inkscape:export-ydpi="96"
   xmlns:inkscape="http://www.inkscape.org/namespaces/inkscape"
   xmlns:sodipodi="http://sodipodi.sourceforge.net/DTD/sodipodi-0.dtd"
   xmlns="http://www.w3.org/2000/svg"
   xmlns:svg="http://www.w3.org/2000/svg"
   xmlns:rdf="http://www.w3.org/1999/02/22-rdf-syntax-ns#"
   xmlns:cc="http://creativecommons.org/ns#"
   xmlns:dc="http://purl.org/dc/elements/1.1/">
  <defs
     id="defs7" />
  <sodipodi:namedview
     id="namedview7"
     pagecolor="#ffffff"
     bordercolor="#cccccc"
     borderopacity="1"
     inkscape:showpageshadow="0"
     inkscape:pageopacity="1"
     inkscape:pagecheckerboard="0"
     inkscape:deskcolor="#d1d1d1"
     inkscape:document-units="px"
     inkscape:zoom="13.712062"
     inkscape:cx="32.015608"
     inkscape:cy="31.979144"
     inkscape:window-width="1920"
     inkscape:window-height="1056"
     inkscape:window-x="0"
     inkscape:window-y="24"
     inkscape:window-maximized="1"
     inkscape:current-layer="g7" />
  <g
     transform="scale(1,-1)"
     id="g7">
    <path
       id="path12"
       style="fill:#505050;fill-opacity:1;stroke:none;stroke-width:0.249519;stroke-dasharray:none"
       d="M 87.730075,46.020756 A 5.0023672,5.0004509 51.449312 0 1 87.346983,46.586772 32.01515,32.002886 51.44901 0 1 44.009002,57.729207 32.01515,32.002886 51.44901 0 1 32.285224,14.000017 32.01515,32.002886 51.44901 0 1 76.006297,2.2915673 32.01515,32.002886 51.44901 0 1 87.57298,13.771869 a 32.01515,32.002886 51.44901 0 1 0.143907,0.243223 32.01515,32.002886 51.44901 0 1 0.02382,0.04083 5.0023672,5.0004509 51.449312 0 1 -0.01557,4.955945 5.0023672,5.0004509 51.449312 0 1 -6.831418,1.829446 5.0023672,5.0004509 51.449312 0 1 -1.783756,-1.858029 l -0.05442,0.03174 a 22.010416,22.001984 51.449073 0 0 -8.048824,-8.061319 22.010416,22.001984 51.449073 0 0 -30.058238,8.049559 22.010416,22.001984 51.449073 0 0 8.060097,30.063818 22.010416,22.001984 51.449073 0 0 30.058238,-8.049559 5.0023672,5.0004509 51.449312 0 1 6.831418,-1.829445 5.0023672,5.0004509 51.449312 0 1 1.831841,6.832684 z m -0.945169,1.168523 a 5.0023672,5.0004509 51.449312 0 1 -0.09972,0.08678 5.0023672,5.0004509 51.449312 0 0 0.09972,-0.08678 z m -1.298143,0.865416 a 5.0023672,5.0004509 51.449312 0 1 -0.09108,0.04438 5.0023672,5.0004509 51.449312 0 0 0.09108,-0.04438 z m -1.526723,0.42888 a 5.0023672,5.0004509 51.449312 0 1 -0.101075,0.0071 5.0023672,5.0004509 51.449312 0 0 0.101075,-0.0071 z m -1.528479,-0.0684 a 5.0023672,5.0004509 51.449312 0 1 -0.12977,-0.02533 5.0023672,5.0004509 51.449312 0 0 0.12977,0.02533 z m -2.701678,-1.510659 a 5.0023672,5.0004509 51.449312 0 1 -0.08681,-0.09977 5.0023672,5.0004509 51.449312 0 0 0.08681,0.09977 z m -0.865828,-1.298577 a 5.0023672,5.0004509 51.449312 0 1 -0.04441,-0.09111 5.0023672,5.0004509 51.449312 0 0 0.04441,0.09111 z m -0.429414,-1.527014 a 5.0023672,5.0004509 51.449312 0 1 -0.0071,-0.101092 5.0023672,5.0004509 51.449312 0 0 0.0071,0.101092 z m 0.06783,-1.528584 a 5.0023672,5.0004509 51.449312 0 1 0.02527,-0.129777 5.0023672,5.0004509 51.449312 0 0 -0.02527,0.129777 z m 5.987657,-30.910792 a 5.0023672,5.0004509 51.449312 0 0 -0.12977,-0.02533 5.0023672,5.0004509 51.449312 0 1 0.12977,0.02533 z m -1.557177,-0.100766 a 5.0023672,5.0004509 51.449312 0 0 -0.101066,0.007 5.0023672,5.0004509 51.449312 0 1 0.101066,-0.007 z m -4.405187,5.881172 a 5.0023672,5.0004509 51.449312 0 1 -0.02114,-0.100181 5.0023672,5.0004509 51.449312 0 0 0.02114,0.100181 z m 2.868446,-5.48966 a 5.0023672,5.0004509 51.449312 0 0 -0.09108,0.04437 5.0023672,5.0004509 51.449312 0 1 0.09108,-0.04437 z m -2.905376,3.751696 a 5.0023672,5.0004509 51.449312 0 1 0.01882,-0.09515 5.0023672,5.0004509 51.449312 0 0 -0.01882,0.09515 z m 1.615896,-2.928647 a 5.0023672,5.0004509 51.449312 0 0 -0.09972,0.08678 5.0023672,5.0004509 51.449312 0 1 0.09972,-0.08678 z" />
  </g>
  <metadata
     id="metadata7">
    <rdf:RDF>
      <cc:Work
         rdf:about="">
        <dc:creator>
          <cc:Agent>
            <dc:title>Matthias Seidel</dc:title>
          </cc:Agent>
        </dc:creator>
      </cc:Work>
    </rdf:RDF>
  </metadata>
</svg>
