<?xml version="1.0" encoding="UTF-8" standalone="no"?>
<svg
   width="32"
   height="32"
   viewBox="44 -56 32 32"
   version="1.1"
   style="fill:none;stroke-linecap:round;stroke-linejoin:round"
   id="svg7"
   sodipodi:docname="spinner-32-11.svg"
   inkscape:version="1.3.2 (091e20ef0f, 2023-11-25)"
   inkscape:export-filename="spinner-32-11.png"
   inkscape:export-xdpi="96"
   inkscape:export-ydpi="96"
   xmlns:inkscape="http://www.inkscape.org/namespaces/inkscape"
   xmlns:sodipodi="http://sodipodi.sourceforge.net/DTD/sodipodi-0.dtd"
   xmlns="http://www.w3.org/2000/svg"
   xmlns:svg="http://www.w3.org/2000/svg"
   xmlns:rdf="http://www.w3.org/1999/02/22-rdf-syntax-ns#"
   xmlns:cc="http://creativecommons.org/ns#"
   xmlns:dc="http://purl.org/dc/elements/1.1/">
  <defs
     id="defs7" />
  <sodipodi:namedview
     id="namedview7"
     pagecolor="#ffffff"
     bordercolor="#cccccc"
     borderopacity="1"
     inkscape:showpageshadow="0"
     inkscape:pageopacity="1"
     inkscape:pagecheckerboard="0"
     inkscape:deskcolor="#d1d1d1"
     inkscape:document-units="px"
     inkscape:zoom="23.379845"
     inkscape:cx="16.125"
     inkscape:cy="16.146386"
     inkscape:window-width="1920"
     inkscape:window-height="1056"
     inkscape:window-x="0"
     inkscape:window-y="24"
     inkscape:window-maximized="1"
     inkscape:current-layer="g7" />
  <g
     transform="matrix(1,0,0,-1,0.125,0.125)"
     id="g7">
    <path
       id="path5"
       style="fill:#505050;fill-opacity:1;stroke:none;stroke-width:0.250125"
       d="m 46.002941,48.135473 a 2.5013981,2.5011021 25.774213 0 1 -0.14972,-0.306183 16.008948,16.007053 25.76278 0 1 6.008257,-21.560076 16.008948,16.007053 25.76278 0 1 21.868407,5.860131 16.008948,16.007053 25.76278 0 1 -5.858536,21.866259 16.008948,16.007053 25.76278 0 1 -15.704147,0.14166 16.008948,16.007053 25.76278 0 1 -0.0081,-0.0022 2.5013981,2.5011021 25.774213 0 1 -0.113716,-0.05618 16.008948,16.007053 25.76278 0 1 -0.181212,-0.08718 16.008948,16.007053 25.76278 0 1 -0.101578,-0.05869 2.5013981,2.5011021 25.774213 0 1 -0.815595,-0.853668 2.5013981,2.5011021 25.774213 0 1 0.915394,-3.416601 2.5013981,2.5011021 25.774213 0 1 2.4887,0.0232 l 0.0142,-0.02625 a 11.006151,11.004849 25.784832 0 0 11.004563,0.0037 A 11.006151,11.004849 25.784832 0 0 69.3976,34.630342 11.006151,11.004849 25.784832 0 0 54.363072,30.6015 11.006151,11.004849 25.784832 0 0 50.335327,45.634555 2.5013981,2.5011021 25.774213 0 1 49.419928,49.051159 2.5013981,2.5011021 25.774213 0 1 46.002989,48.135512 Z m -0.269068,-0.704355 a 2.5013981,2.5011021 25.774213 0 1 -0.0124,-0.06052 2.5013981,2.5011021 25.774213 0 0 0.0124,0.06052 z m -0.05073,-0.771726 a 2.5013981,2.5011021 25.774213 0 1 0.0036,-0.05623 2.5013981,2.5011021 25.774213 0 0 -0.0036,0.05623 z m 0.195291,-0.771597 a 2.5013981,2.5011021 25.774213 0 1 0.025,-0.05051 2.5013981,2.5011021 25.774213 0 0 -0.025,0.05051 z m 0.413748,-0.647257 a 2.5013981,2.5011021 25.774213 0 1 0.04099,-0.04621 2.5013981,2.5011021 25.774213 0 0 -0.04099,0.04621 z m 6.362375,9.037334 a 2.5013981,2.5011021 25.774213 0 0 0.04706,0.01119 2.5013981,2.5011021 25.774213 0 1 -0.04706,-0.01119 z m -5.031837,-9.82799 a 2.5013981,2.5011021 25.774213 0 1 0.06054,-0.0124 2.5013981,2.5011021 25.774213 0 0 -0.06054,0.0124 z m 5.905451,9.840379 a 2.5013981,2.5011021 25.774213 0 0 0.04575,-0.01064 2.5013981,2.5011021 25.774213 0 1 -0.04575,0.01064 z M 48.394499,44.39922 a 2.5013981,2.5011021 25.774213 0 1 0.05624,0.0036 2.5013981,2.5011021 25.774213 0 0 -0.05624,-0.0036 z m 0.771672,0.195344 a 2.5013981,2.5011021 25.774213 0 1 0.05052,0.02501 2.5013981,2.5011021 25.774213 0 0 -0.05052,-0.02501 z m 0.647339,0.413788 a 2.5013981,2.5011021 25.774213 0 1 0.04624,0.04099 2.5013981,2.5011021 25.774213 0 0 -0.04624,-0.04099 z m 5.135706,8.511221 a 2.5013981,2.5011021 25.774213 0 0 0.041,-0.04622 2.5013981,2.5011021 25.774213 0 1 -0.041,0.04622 z m 0.429772,-0.642962 a 2.5013981,2.5011021 25.774213 0 0 0.025,-0.05051 2.5013981,2.5011021 25.774213 0 1 -0.025,0.05051 z m 0.216641,-0.765874 a 2.5013981,2.5011021 25.774213 0 0 0.0036,-0.05624 2.5013981,2.5011021 25.774213 0 1 -0.0036,0.05624 z m -0.03473,-0.767436 a 2.5013981,2.5011021 25.774213 0 0 -0.0124,-0.06051 2.5013981,2.5011021 25.774213 0 1 0.0124,0.06051 z" />
  </g>
  <metadata
     id="metadata7">
    <rdf:RDF>
      <cc:Work
         rdf:about="">
        <dc:creator>
          <cc:Agent>
            <dc:title>Matthias Seidel</dc:title>
          </cc:Agent>
        </dc:creator>
      </cc:Work>
    </rdf:RDF>
  </metadata>
</svg>
