<?xml version="1.0" encoding="UTF-8" standalone="no"?>
<svg
   width="32"
   height="32"
   viewBox="44 -56 32 31.999999"
   version="1.1"
   style="fill:none;stroke-linecap:round;stroke-linejoin:round"
   id="svg7"
   sodipodi:docname="spinner-32-01.svg"
   inkscape:version="1.3.2 (091e20ef0f, 2023-11-25)"
   inkscape:export-filename="spinner-32-01.png"
   inkscape:export-xdpi="96"
   inkscape:export-ydpi="96"
   xmlns:inkscape="http://www.inkscape.org/namespaces/inkscape"
   xmlns:sodipodi="http://sodipodi.sourceforge.net/DTD/sodipodi-0.dtd"
   xmlns="http://www.w3.org/2000/svg"
   xmlns:svg="http://www.w3.org/2000/svg"
   xmlns:rdf="http://www.w3.org/1999/02/22-rdf-syntax-ns#"
   xmlns:cc="http://creativecommons.org/ns#"
   xmlns:dc="http://purl.org/dc/elements/1.1/">
  <defs
     id="defs7" />
  <sodipodi:namedview
     id="namedview7"
     pagecolor="#ffffff"
     bordercolor="#cccccc"
     borderopacity="1"
     inkscape:showpageshadow="0"
     inkscape:pageopacity="1"
     inkscape:pagecheckerboard="0"
     inkscape:deskcolor="#d1d1d1"
     inkscape:document-units="px"
     inkscape:zoom="27.317829"
     inkscape:cx="15.996879"
     inkscape:cy="16.015182"
     inkscape:window-width="1920"
     inkscape:window-height="1056"
     inkscape:window-x="0"
     inkscape:window-y="24"
     inkscape:window-maximized="1"
     inkscape:current-layer="g7" />
  <g
     transform="scale(1,-1)"
     id="g7">
    <path
       id="path12"
       style="stroke:none;stroke-width:0.24944882;fill:#505050;fill-opacity:1;stroke-dasharray:none"
       d="M 60 56 A 2.5 2.5 0 0 1 59.660156 55.976562 A 16 16 0 0 1 44 40 A 16 16 0 0 1 60 24 A 16 16 0 0 1 76 40 A 16 16 0 0 1 73.912109 47.896484 A 16 16 0 0 1 73.853516 47.998047 L 73.851562 47.998047 A 2.5 2.5 0 0 1 71.691406 49.25 A 2.5 2.5 0 0 1 69.191406 46.75 A 2.5 2.5 0 0 1 69.548828 45.513672 L 69.523438 45.498047 A 11 11 0 0 0 71 40 A 11 11 0 0 0 60 29 A 11 11 0 0 0 49 40 A 11 11 0 0 0 60 51 A 2.5 2.5 0 0 1 62.5 53.5 A 2.5 2.5 0 0 1 60 56 z M 59.255859 55.880859 A 2.5 2.5 0 0 1 59.197266 55.861328 A 2.5 2.5 0 0 0 59.255859 55.880859 z M 58.5625 55.539062 A 2.5 2.5 0 0 1 58.515625 55.507812 A 2.5 2.5 0 0 0 58.5625 55.539062 z M 57.992188 54.984375 A 2.5 2.5 0 0 1 57.960938 54.9375 A 2.5 2.5 0 0 0 57.992188 54.984375 z M 57.638672 54.302734 A 2.5 2.5 0 0 1 57.619141 54.244141 A 2.5 2.5 0 0 0 57.638672 54.302734 z M 57.619141 52.755859 A 2.5 2.5 0 0 1 57.638672 52.697266 A 2.5 2.5 0 0 0 57.619141 52.755859 z M 57.960938 52.0625 A 2.5 2.5 0 0 1 57.992188 52.015625 A 2.5 2.5 0 0 0 57.960938 52.0625 z M 58.515625 51.492188 A 2.5 2.5 0 0 1 58.5625 51.460938 A 2.5 2.5 0 0 0 58.515625 51.492188 z M 59.197266 51.138672 A 2.5 2.5 0 0 1 59.255859 51.119141 A 2.5 2.5 0 0 0 59.197266 51.138672 z M 74.072266 46.005859 A 2.5 2.5 0 0 0 74.052734 45.947266 A 2.5 2.5 0 0 1 74.072266 46.005859 z M 73.730469 45.3125 A 2.5 2.5 0 0 0 73.699219 45.265625 A 2.5 2.5 0 0 1 73.730469 45.3125 z M 70.080078 44.871094 A 2.5 2.5 0 0 1 70.121094 44.835938 A 2.5 2.5 0 0 0 70.080078 44.871094 z M 73.175781 44.742188 A 2.5 2.5 0 0 0 73.128906 44.710938 A 2.5 2.5 0 0 1 73.175781 44.742188 z M 70.824219 44.419922 A 2.5 2.5 0 0 1 70.867188 44.40625 A 2.5 2.5 0 0 0 70.824219 44.419922 z M 72.494141 44.388672 A 2.5 2.5 0 0 0 72.435547 44.369141 A 2.5 2.5 0 0 1 72.494141 44.388672 z " />
  </g>
  <metadata
     id="metadata7">
    <rdf:RDF>
      <cc:Work
         rdf:about="">
        <dc:creator>
          <cc:Agent>
            <dc:title>Matthias Seidel</dc:title>
          </cc:Agent>
        </dc:creator>
      </cc:Work>
    </rdf:RDF>
  </metadata>
</svg>
