<?xml version="1.0" encoding="UTF-8" standalone="no"?>
<!-- 2024-07-26 20:55:02 Generated by QCAD 3.29.4 SVG Exporter -->

<svg
   width="16"
   height="16"
   viewBox="52 -51 16 16"
   version="1.1"
   style="fill:none;stroke-linecap:round;stroke-linejoin:round"
   id="svg8"
   sodipodi:docname="spinner-16-09.svg"
   inkscape:version="1.3.2 (091e20ef0f, 2023-11-25)"
   inkscape:export-filename="spinner-16-09.png"
   inkscape:export-xdpi="96"
   inkscape:export-ydpi="96"
   xmlns:inkscape="http://www.inkscape.org/namespaces/inkscape"
   xmlns:sodipodi="http://sodipodi.sourceforge.net/DTD/sodipodi-0.dtd"
   xmlns="http://www.w3.org/2000/svg"
   xmlns:svg="http://www.w3.org/2000/svg"
   xmlns:rdf="http://www.w3.org/1999/02/22-rdf-syntax-ns#"
   xmlns:cc="http://creativecommons.org/ns#"
   xmlns:dc="http://purl.org/dc/elements/1.1/">
  <defs
     id="defs8" />
  <sodipodi:namedview
     id="namedview8"
     pagecolor="#ffffff"
     bordercolor="#cccccc"
     borderopacity="1"
     inkscape:showpageshadow="0"
     inkscape:pageopacity="1"
     inkscape:pagecheckerboard="0"
     inkscape:deskcolor="#d1d1d1"
     inkscape:document-units="px"
     inkscape:zoom="54.215385"
     inkscape:cx="8.0051078"
     inkscape:cy="7.9958853"
     inkscape:window-width="1920"
     inkscape:window-height="1056"
     inkscape:window-x="0"
     inkscape:window-y="24"
     inkscape:window-maximized="1"
     inkscape:current-layer="g8" />
  <g
     transform="scale(1,-1)"
     id="g8">
    <!-- Linie -->
    <!-- Linie -->
    <!-- Linie -->
    <!-- Linie -->
    <!-- Kreis -->
    <path
       id="path10"
       style="fill:#505050;fill-opacity:1;stroke:none;stroke-width:0.249514;stroke-dasharray:none"
       d="m 53.066684,38.994623 a 1.5006752,1.5001132 58.538784 0 1 0.109488,-0.162345 8.0036012,8.0006043 58.544557 0 1 0.0019,-0.0034 8.0036012,8.0006043 58.544557 0 1 10.818234,-2.76161 8.0036012,8.0006043 58.544557 0 1 2.930543,10.932494 8.0036012,8.0006043 58.544557 0 1 -10.929653,2.927401 8.0036012,8.0006043 58.544557 0 1 -2.869057,-2.834599 1.5006752,1.5001132 58.538784 0 0 0.02702,0.03139 1.5006752,1.5001132 58.538784 0 1 -0.0843,-0.127591 1.5006752,1.5001132 58.538784 0 1 -0.0017,-9.72e-4 1.5006752,1.5001132 58.538784 0 1 -0.0014,-1.498647 1.5006752,1.5001132 58.538784 0 1 2.049312,-0.548888 1.5006752,1.5001132 58.538784 0 1 0.534542,0.559131 l 0.01729,-0.01034 a 5.0022508,5.0003776 58.545276 0 0 1.828104,1.83182 5.0022508,5.0003776 58.545276 0 0 6.831037,-1.829628 5.0022508,5.0003776 58.545276 0 0 -1.831591,-6.832808 5.0022508,5.0003776 58.545276 0 0 -6.831038,1.829626 1.5006752,1.5001132 58.538784 0 1 -2.049316,0.548885 1.5006752,1.5001132 58.538784 0 1 -0.549478,-2.049846 z m 0.289143,-0.356357 a 1.5006752,1.5001132 58.538784 0 1 0.0148,-0.01397 1.5006752,1.5001132 58.538784 0 0 -0.0148,0.01397 z m 1.311666,-0.361332 a 1.5006752,1.5001132 58.538784 0 1 0.01988,0.0047 1.5006752,1.5001132 58.538784 0 0 -0.01988,-0.0047 z m 0.804893,0.458123 a 1.5006752,1.5001132 58.538784 0 1 0.01402,0.01488 1.5006752,1.5001132 58.538784 0 0 -0.01402,-0.01488 z m 0.361703,1.312015 a 1.5006752,1.5001132 58.538784 0 1 -0.0047,0.0199 1.5006752,1.5001132 58.538784 0 0 0.0047,-0.0199 z m -2.510391,7.27344 a 1.5006752,1.5001132 58.538784 0 0 0.06566,0.05823 1.5006752,1.5001132 58.538784 0 1 -0.06566,-0.05823 z m 0.722328,0.390106 a 1.5006752,1.5001132 58.538784 0 0 0.01988,0.0047 1.5006752,1.5001132 58.538784 0 1 -0.01988,-0.0047 z m 1.781302,-1.730086 a 1.5006752,1.5001132 58.538784 0 1 0.0057,0.02131 1.5006752,1.5001132 58.538784 0 0 -0.0057,-0.02131 z m 0.0097,0.5109 a 1.5006752,1.5001132 58.538784 0 1 -0.0057,0.03729 1.5006752,1.5001132 58.538784 0 0 0.0057,-0.03729 z m -0.474302,0.87654 a 1.5006752,1.5001132 58.538784 0 0 0.0148,-0.01397 1.5006752,1.5001132 58.538784 0 1 -0.0148,0.01397 z" />
    <!-- Linie -->
    <!-- Linie -->
    <!-- Kreis -->
    <!-- Kreis -->
    <!-- Kreis -->
  </g>
  <metadata
     id="metadata8">
    <rdf:RDF>
      <cc:Work
         rdf:about="">
        <dc:creator>
          <cc:Agent>
            <dc:title>Matthias Seidel</dc:title>
          </cc:Agent>
        </dc:creator>
      </cc:Work>
    </rdf:RDF>
  </metadata>
</svg>
