<?xml version="1.0" encoding="UTF-8" standalone="no"?>
<!-- 2024-07-26 20:33:55 Generated by QCAD 3.29.4 SVG Exporter -->

<svg
   width="64"
   height="64"
   viewBox="28 -62 64 64"
   version="1.1"
   style="fill:none;stroke-linecap:round;stroke-linejoin:round"
   id="svg7"
   sodipodi:docname="spinner-64-05.svg"
   inkscape:version="1.3.2 (091e20ef0f, 2023-11-25)"
   inkscape:export-filename="spinner-64-05.png"
   inkscape:export-xdpi="96"
   inkscape:export-ydpi="96"
   xmlns:inkscape="http://www.inkscape.org/namespaces/inkscape"
   xmlns:sodipodi="http://sodipodi.sourceforge.net/DTD/sodipodi-0.dtd"
   xmlns="http://www.w3.org/2000/svg"
   xmlns:svg="http://www.w3.org/2000/svg"
   xmlns:rdf="http://www.w3.org/1999/02/22-rdf-syntax-ns#"
   xmlns:cc="http://creativecommons.org/ns#"
   xmlns:dc="http://purl.org/dc/elements/1.1/">
  <defs
     id="defs7" />
  <sodipodi:namedview
     id="namedview7"
     pagecolor="#ffffff"
     bordercolor="#cccccc"
     borderopacity="1"
     inkscape:showpageshadow="0"
     inkscape:pageopacity="1"
     inkscape:pagecheckerboard="0"
     inkscape:deskcolor="#d1d1d1"
     inkscape:document-units="px"
     inkscape:zoom="13.712062"
     inkscape:cx="32.015608"
     inkscape:cy="31.979144"
     inkscape:window-width="1920"
     inkscape:window-height="1056"
     inkscape:window-x="0"
     inkscape:window-y="24"
     inkscape:window-maximized="1"
     inkscape:current-layer="g7" />
  <g
     transform="scale(1,-1)"
     id="g7">
    <!-- Kreis -->
    <!-- Kreis -->
    <!-- Linie -->
    <!-- Linie -->
    <!-- Linie -->
    <!-- Linie -->
    <!-- Kreis -->
    <path
       id="path12"
       style="fill:#505050;fill-opacity:1;stroke:none;stroke-width:0.249534;stroke-dasharray:none"
       d="m 87.745363,13.995505 a 5.0028613,5.0006082 8.414929 0 1 0.29874,0.614832 A 32.018312,32.003893 8.4150929 0 1 76.028813,57.713293 32.018312,32.003893 8.4150929 0 1 32.290642,45.99609 32.018312,32.003893 8.4150929 0 1 44.007193,2.2783031 a 32.018312,32.003893 8.4150929 0 1 15.72659,-4.2751182 32.018312,32.003893 8.4150929 0 1 0.282618,-0.00298 32.018312,32.003893 8.4150929 0 1 0.04727,-2.044e-4 5.0028613,5.0006082 8.414929 0 1 4.28491,2.49205864 5.0028613,5.0006082 8.414929 0 1 -1.830711,6.83090426 5.0028613,5.0006082 8.414929 0 1 -2.501148,0.6154798 l 2.82e-4,0.063003 a 22.01259,22.002676 8.4146562 0 0 -11.006427,2.9385788 22.01259,22.002676 8.4146562 0 0 -8.055128,30.05598 22.01259,22.002676 8.4146562 0 0 30.069992,8.055575 22.01259,22.002676 8.4146562 0 0 8.055129,-30.055977 5.0028613,5.0006082 8.414929 0 1 1.830711,-6.830905 5.0028613,5.0006082 8.414929 0 1 6.834088,1.830811 z m 0.539609,1.402914 a 5.0028613,5.0006082 8.414929 0 1 0.02531,0.129756 5.0028613,5.0006082 8.414929 0 0 -0.02531,-0.129756 z m 0.100599,1.556996 a 5.0028613,5.0006082 8.414929 0 1 -0.0071,0.101071 5.0028613,5.0006082 8.414929 0 0 0.0071,-0.101071 z m -0.391791,1.536623 a 5.0028613,5.0006082 8.414929 0 1 -0.04437,0.09108 5.0028613,5.0006082 8.414929 0 0 0.04437,-0.09108 z m -0.823399,1.289444 a 5.0028613,5.0006082 8.414929 0 1 -0.08682,0.09971 5.0028613,5.0006082 8.414929 0 0 0.08682,-0.09971 z M 84.511203,21.3656 a 5.0028613,5.0006082 8.414929 0 1 -0.129816,0.02529 5.0028613,5.0006082 8.414929 0 0 0.129816,-0.02529 z m -1.557654,0.100352 a 5.0028613,5.0006082 8.414929 0 1 -0.101119,-0.0071 5.0028613,5.0006082 8.414929 0 0 0.101119,0.0071 z M 81.416212,21.07413 a 5.0028613,5.0006082 8.414929 0 1 -0.09112,-0.04441 5.0028613,5.0006082 8.414929 0 0 0.09112,0.04441 z m -1.290103,-0.823218 a 5.0028613,5.0006082 8.414929 0 1 -0.09977,-0.08679 5.0028613,5.0006082 8.414929 0 0 0.09977,0.08679 z M 56.345578,-0.39350673 a 5.0028613,5.0006082 8.414929 0 0 -0.08682,0.0997121 5.0028613,5.0006082 8.414929 0 1 0.08682,-0.0997121 z m -0.865781,1.29810874 a 5.0028613,5.0006082 8.414929 0 0 -0.04447,0.091028 5.0028613,5.0006082 8.414929 0 1 0.04447,-0.091028 z m 2.891754,6.75616189 a 5.0028613,5.0006082 8.414929 0 1 -0.09734,-0.031795 5.0028613,5.0006082 8.414929 0 0 0.09734,0.031795 z M 55.05063,2.4312122 a 5.0028613,5.0006082 8.414929 0 0 -0.0071,0.101065 5.0028613,5.0006082 8.414929 0 1 0.0071,-0.101065 z m 1.797084,4.3923394 a 5.0028613,5.0006082 8.414929 0 1 -0.07301,-0.063881 5.0028613,5.0006082 8.414929 0 0 0.07301,0.063881 z M 55.118862,3.9595181 a 5.0028613,5.0006082 8.414929 0 0 0.02531,0.1297564 5.0028613,5.0006082 8.414929 0 1 -0.02531,-0.1297564 z" />
    <!-- Kreis -->
    <!-- Linie -->
    <!-- Linie -->
  </g>
  <metadata
     id="metadata7">
    <rdf:RDF>
      <cc:Work
         rdf:about="">
        <dc:creator>
          <cc:Agent>
            <dc:title>Matthias Seidel</dc:title>
          </cc:Agent>
        </dc:creator>
      </cc:Work>
    </rdf:RDF>
  </metadata>
</svg>
