<?xml version="1.0" encoding="UTF-8" standalone="no"?>
<svg
   width="64"
   height="64"
   viewBox="9.8778 -21.8722 22.827793 22.827793"
   version="1.1"
   style="fill:none;stroke-linecap:round;stroke-linejoin:round"
   id="svg4"
   sodipodi:docname="spinner-64-04.svg"
   inkscape:version="1.3.2 (091e20ef0f, 2023-11-25)"
   inkscape:export-filename="spinner-64-04.png"
   inkscape:export-xdpi="96"
   inkscape:export-ydpi="96"
   xmlns:inkscape="http://www.inkscape.org/namespaces/inkscape"
   xmlns:sodipodi="http://sodipodi.sourceforge.net/DTD/sodipodi-0.dtd"
   xmlns="http://www.w3.org/2000/svg"
   xmlns:svg="http://www.w3.org/2000/svg"
   xmlns:rdf="http://www.w3.org/1999/02/22-rdf-syntax-ns#"
   xmlns:cc="http://creativecommons.org/ns#"
   xmlns:dc="http://purl.org/dc/elements/1.1/">
  <defs
     id="defs4" />
  <sodipodi:namedview
     id="namedview4"
     pagecolor="#ffffff"
     bordercolor="#cccccc"
     borderopacity="1"
     inkscape:showpageshadow="0"
     inkscape:pageopacity="1"
     inkscape:pagecheckerboard="0"
     inkscape:deskcolor="#d1d1d1"
     inkscape:document-units="px"
     inkscape:zoom="11.911385"
     inkscape:cx="31.650392"
     inkscape:cy="31.692368"
     inkscape:window-width="1920"
     inkscape:window-height="1056"
     inkscape:window-x="0"
     inkscape:window-y="24"
     inkscape:window-maximized="1"
     inkscape:current-layer="svg4" />
  <path
     id="path9"
     style="fill:#505050;fill-opacity:1;stroke:none;stroke-width:0.360625;stroke-dasharray:none"
     d="M 32.705593,-10.459477 A 1.7831894,1.7835557 44.999757 0 0 32.688008,-10.701064 11.412425,11.414768 44.995587 0 0 21.292868,-21.8722 11.412425,11.414768 44.995587 0 0 9.8778001,-10.457131 11.412425,11.414768 44.995587 0 0 21.290523,0.95559291 a 11.412425,11.414768 44.995587 0 0 9.746573,-5.50826781 1.7831894,1.7835557 44.999757 0 0 0.07115,-0.104248 11.412425,11.414768 44.995587 0 0 0.05706,-0.083827 1.7831894,1.7835557 44.999757 0 1 -0.0057,0.00642 1.7831894,1.7835557 44.999757 0 0 0.01336,-0.019739 11.412425,11.414768 44.995587 0 0 0.0479,-0.084521 1.7831894,1.7835557 44.999757 0 0 0.193777,-0.8057911 1.7831894,1.7835557 44.999757 0 0 -1.783216,-1.7832157 1.7831894,1.7835557 44.999757 0 0 -1.527816,0.9017173 l -0.01691,-0.00989 a 7.8460326,7.8476447 44.99548 0 1 -6.795916,3.9245987 7.8460326,7.8476447 44.99548 0 1 -7.846291,-7.8462893 7.8460326,7.8476447 44.99548 0 1 7.847905,-7.847905 7.8460326,7.8476447 44.99548 0 1 7.84629,7.846293 1.7831894,1.7835557 44.999757 0 0 1.783215,1.783216 1.7831894,1.7835557 44.999757 0 0 1.783583,-1.783583 z m -0.08377,-0.529658 a 1.7831894,1.7835557 44.999757 0 0 -0.01552,-0.04507 1.7831894,1.7835557 44.999757 0 1 0.01552,0.04507 z m -0.249284,-0.502877 a 1.7831894,1.7835557 44.999757 0 0 -0.01549,-0.02324 1.7831894,1.7835557 44.999757 0 1 0.01549,0.02324 z m -0.392279,-0.400732 a 1.7831894,1.7835557 44.999757 0 0 -0.02958,-0.01973 1.7831894,1.7835557 44.999757 0 1 0.02958,0.01973 z m -0.485267,-0.251399 a 1.7831894,1.7835557 44.999757 0 0 -0.04225,-0.01481 1.7831894,1.7835557 44.999757 0 1 0.04225,0.01481 z m -0.712899,7.8542141 a 1.7831894,1.7835557 44.999757 0 1 -0.02747,0.024636 1.7831894,1.7835557 44.999757 0 0 0.02747,-0.024636 z m -0.390103,-7.8688941 a 1.7831894,1.7835557 44.999757 0 0 -0.04225,0.01482 1.7831894,1.7835557 44.999757 0 1 0.04225,-0.01482 z m -0.143119,8.1830854 a 1.7831894,1.7835557 44.999757 0 1 -0.03237,0.011308 1.7831894,1.7835557 44.999757 0 0 0.03237,-0.011308 z m -0.354877,-7.9365164 a 1.7831894,1.7835557 44.999757 0 0 -0.02957,0.01973 1.7831894,1.7835557 44.999757 0 1 0.02957,-0.01973 z m -0.406446,0.397291 a 1.7831894,1.7835557 44.999757 0 0 -0.0155,0.02323 1.7831894,1.7835557 44.999757 0 1 0.0155,-0.02323 z m -0.05925,7.6421389 a 1.7831894,1.7835557 44.999757 0 1 -0.02183,-0.00279 1.7831894,1.7835557 44.999757 0 0 0.02183,0.00279 z M 29.23816,-11.033871 a 1.7831894,1.7835557 44.999757 0 0 -0.01552,0.04507 1.7831894,1.7835557 44.999757 0 1 0.01552,-0.04507 z m -0.612074,6.8624885 a 1.7831894,1.7835557 44.999757 0 1 -0.01616,-0.011993 1.7831894,1.7835557 44.999757 0 0 0.01616,0.011993 z m -0.455668,-0.4514336 a 1.7831894,1.7835557 44.999757 0 1 -0.012,-0.016186 1.7831894,1.7835557 44.999757 0 0 0.012,0.016186 z m -0.307715,-0.7965812 a 1.7831894,1.7835557 44.999757 0 1 -0.0028,-0.02184 1.7831894,1.7835557 44.999757 0 0 0.0028,0.02184 z" />
  <metadata
     id="metadata4">
    <rdf:RDF>
      <cc:Work
         rdf:about="">
        <dc:creator>
          <cc:Agent>
            <dc:title>Matthias Seidel</dc:title>
          </cc:Agent>
        </dc:creator>
      </cc:Work>
    </rdf:RDF>
  </metadata>
</svg>
