<?xml version="1.0" encoding="UTF-8" standalone="no"?>
<svg
   width="64"
   height="64"
   viewBox="9.8778 -21.8722 22.827793 22.827793"
   version="1.1"
   style="fill:none;stroke-linecap:round;stroke-linejoin:round"
   id="svg4"
   sodipodi:docname="spinner-64-07.svg"
   inkscape:version="1.3.2 (091e20ef0f, 2023-11-25)"
   inkscape:export-filename="spinner-64-07.png"
   inkscape:export-xdpi="96"
   inkscape:export-ydpi="96"
   xmlns:inkscape="http://www.inkscape.org/namespaces/inkscape"
   xmlns:sodipodi="http://sodipodi.sourceforge.net/DTD/sodipodi-0.dtd"
   xmlns="http://www.w3.org/2000/svg"
   xmlns:svg="http://www.w3.org/2000/svg"
   xmlns:rdf="http://www.w3.org/1999/02/22-rdf-syntax-ns#"
   xmlns:cc="http://creativecommons.org/ns#"
   xmlns:dc="http://purl.org/dc/elements/1.1/">
  <defs
     id="defs4" />
  <sodipodi:namedview
     id="namedview4"
     pagecolor="#ffffff"
     bordercolor="#cccccc"
     borderopacity="1"
     inkscape:showpageshadow="0"
     inkscape:pageopacity="1"
     inkscape:pagecheckerboard="0"
     inkscape:deskcolor="#d1d1d1"
     inkscape:document-units="px"
     inkscape:zoom="11.911385"
     inkscape:cx="31.650392"
     inkscape:cy="31.692368"
     inkscape:window-width="1920"
     inkscape:window-height="1056"
     inkscape:window-x="0"
     inkscape:window-y="24"
     inkscape:window-maximized="1"
     inkscape:current-layer="svg4" />
  <path
     id="path9"
     style="fill:#505050;fill-opacity:1;stroke:none;stroke-width:0.360626;stroke-dasharray:none"
     d="M 21.292725,0.95559292 A 1.783533,1.783212 45.000683 0 0 21.534313,0.93800467 11.414622,11.412569 44.99353 0 0 32.705593,-10.457276 11.414622,11.412569 44.99353 0 0 21.29067,-21.8722 11.414622,11.412569 44.99353 0 0 9.8778001,-10.459333 a 11.414622,11.412569 44.99353 0 0 5.5081439,9.74650378 1.783533,1.783212 45.000683 0 0 0.104247,0.0711476 11.414622,11.412569 44.99353 0 0 0.08383,0.0570574 1.783533,1.783212 45.000683 0 1 -0.0064,-0.005673 1.783533,1.783212 45.000683 0 0 0.01973,0.0133604 11.414622,11.412569 44.99353 0 0 0.08451,0.0478928 1.783533,1.783212 45.000683 0 0 0.805789,0.1937672 1.783533,1.783212 45.000683 0 0 1.783239,-1.78323868 1.783533,1.783212 45.000683 0 0 -0.901699,-1.5278049 l 0.0099,-0.016907 a 7.8475449,7.8461321 44.9972 0 1 -3.924511,-6.7958666 7.8475449,7.8461321 44.9972 0 1 7.846389,-7.846391 7.8475449,7.8461321 44.9972 0 1 7.847804,7.847805 7.8475449,7.8461321 44.9972 0 1 -7.846393,7.8463908 1.783533,1.783212 45.000683 0 0 -1.783239,1.78323746 1.783533,1.783212 45.000683 0 0 1.783561,1.78356047 z m 0.52966,-0.0837766 a 1.783533,1.783212 45.000683 0 0 0.04507,-0.01552 1.783533,1.783212 45.000683 0 1 -0.04507,0.01552 z m 0.502881,-0.24928937 a 1.783533,1.783212 45.000683 0 0 0.02323,-0.0154947 1.783533,1.783212 45.000683 0 1 -0.02323,0.0154947 z M 22.726,0.23023923 a 1.783533,1.783212 45.000683 0 0 0.01974,-0.02958 1.783533,1.783212 45.000683 0 1 -0.01974,0.02958 z m 0.25141,-0.48526593 a 1.783533,1.783212 45.000683 0 0 0.01481,-0.0422464 1.783533,1.783212 45.000683 0 1 -0.01481,0.0422464 z m -7.854204,-0.71279869 a 1.783533,1.783212 45.000683 0 1 -0.02463,-0.0274732 1.783533,1.783212 45.000683 0 0 0.02463,0.0274732 z M 22.9921,-1.3580316 a 1.783533,1.783212 45.000683 0 0 -0.01483,-0.042247 1.783533,1.783212 45.000683 0 1 0.01483,0.042247 z m -8.183083,-0.1430148 a 1.783533,1.783212 45.000683 0 1 -0.01131,-0.032375 1.783533,1.783212 45.000683 0 0 0.01131,0.032375 z m 7.936521,-0.3549775 a 1.783533,1.783212 45.000683 0 0 -0.01973,-0.029567 1.783533,1.783212 45.000683 0 1 0.01973,0.029567 z m -0.397286,-0.4064405 a 1.783533,1.783212 45.000683 0 0 -0.02322,-0.015499 1.783533,1.783212 45.000683 0 1 0.02322,0.015499 z m -7.642139,-0.059154 a 1.783533,1.783212 45.000683 0 1 0.0028,-0.021831 1.783533,1.783212 45.000683 0 0 -0.0028,0.021831 z m 7.16105,-0.1902291 a 1.783533,1.783212 45.000683 0 0 -0.04508,-0.015521 1.783533,1.783212 45.000683 0 1 0.04508,0.015521 z m -6.86248,-0.6119869 a 1.783533,1.783212 45.000683 0 1 0.01199,-0.016163 1.783533,1.783212 45.000683 0 0 -0.01199,0.016163 z m 0.451438,-0.4556747 a 1.783533,1.783212 45.000683 0 1 0.01617,-0.012012 1.783533,1.783212 45.000683 0 0 -0.01617,0.012012 z m 0.796586,-0.3077252 a 1.783533,1.783212 45.000683 0 1 0.02184,-0.0028 1.783533,1.783212 45.000683 0 0 -0.02184,0.0028 z" />
  <metadata
     id="metadata4">
    <rdf:RDF>
      <cc:Work
         rdf:about="">
        <dc:creator>
          <cc:Agent>
            <dc:title>Matthias Seidel</dc:title>
          </cc:Agent>
        </dc:creator>
      </cc:Work>
    </rdf:RDF>
  </metadata>
</svg>
