<?xml version="1.0" encoding="UTF-8" standalone="no"?>
<svg
   width="16.000311"
   height="16.000315"
   viewBox="52 -51 16.000311 16.000315"
   version="1.1"
   style="fill:none;stroke-linecap:round;stroke-linejoin:round"
   id="svg7"
   sodipodi:docname="spinner-16-05.svg"
   inkscape:version="1.3.2 (091e20ef0f, 2023-11-25)"
   inkscape:export-filename="spinner-16-05.png"
   inkscape:export-xdpi="96"
   inkscape:export-ydpi="96"
   xmlns:inkscape="http://www.inkscape.org/namespaces/inkscape"
   xmlns:sodipodi="http://sodipodi.sourceforge.net/DTD/sodipodi-0.dtd"
   xmlns="http://www.w3.org/2000/svg"
   xmlns:svg="http://www.w3.org/2000/svg"
   xmlns:rdf="http://www.w3.org/1999/02/22-rdf-syntax-ns#"
   xmlns:cc="http://creativecommons.org/ns#"
   xmlns:dc="http://purl.org/dc/elements/1.1/">
  <defs
     id="defs7" />
  <sodipodi:namedview
     id="namedview7"
     pagecolor="#ffffff"
     bordercolor="#cccccc"
     borderopacity="1"
     inkscape:showpageshadow="0"
     inkscape:pageopacity="1"
     inkscape:pagecheckerboard="0"
     inkscape:deskcolor="#d1d1d1"
     inkscape:document-units="px"
     inkscape:zoom="47.125736"
     inkscape:cx="7.8725561"
     inkscape:cy="7.8619462"
     inkscape:window-width="1920"
     inkscape:window-height="1056"
     inkscape:window-x="0"
     inkscape:window-y="24"
     inkscape:window-maximized="1"
     inkscape:current-layer="g7" />
  <g
     transform="matrix(1,0,0,-1,2.9001502e-5,3e-5)"
     id="g7"
     style="fill:none;fill-opacity:1;stroke:#df0000;stroke-opacity:1">
    <path
       id="path12"
       style="fill:#505050;fill-opacity:1;stroke:none;stroke-width:0.250109"
       d="m 66.940004,38.999604 a 2.0016431,2.0001228 9.3669454 0 1 0.117826,0.243592 8.0065723,8.000491 9.3674143 0 1 -3.047108,10.685362 8.0065723,8.000491 9.3674143 0 1 -10.93753,-2.929835 8.0065723,8.000491 9.3674143 0 1 2.929274,-10.928948 8.0065723,8.000491 9.3674143 0 1 3.905215,-1.068344 8.0065723,8.000491 9.3674143 0 1 0.09775,-0.0014 l 10e-4,0.0017 a 8.0065723,8.000491 9.3674143 0 1 0.05416,-0.0015 2.0016431,2.0001228 9.3669454 0 1 1.679769,0.998899 2.0016431,2.0001228 9.3669454 0 1 -0.733856,2.732553 2.0016431,2.0001228 9.3669454 0 1 -1.000493,0.267867 4.0032861,4.0002453 9.3676826 0 0 -2.000987,0.535734 4.0032861,4.0002453 9.3676826 0 0 -1.464273,5.463121 4.0032861,4.0002453 9.3676826 0 0 5.468402,1.46627 4.0032861,4.0002453 9.3676826 0 0 1.464999,-5.465829 2.0016431,2.0001228 9.3669454 0 1 0.732138,-2.731559 2.0016431,2.0001228 9.3669454 0 1 2.733705,0.732276 z" />
  </g>
  <metadata
     id="metadata7">
    <rdf:RDF>
      <cc:Work
         rdf:about="">
        <dc:creator>
          <cc:Agent>
            <dc:title>Matthias Seidel</dc:title>
          </cc:Agent>
        </dc:creator>
      </cc:Work>
    </rdf:RDF>
  </metadata>
</svg>
