<?xml version="1.0" encoding="UTF-8" standalone="no"?>
<!-- 2024-07-26 20:55:02 Generated by QCAD 3.29.4 SVG Exporter -->

<svg
   width="16"
   height="16"
   viewBox="52 -51 16 16"
   version="1.1"
   style="fill:none;stroke-linecap:round;stroke-linejoin:round"
   id="svg8"
   sodipodi:docname="spinner-16-02.svg"
   inkscape:version="1.3.2 (091e20ef0f, 2023-11-25)"
   inkscape:export-filename="spinner-16-02.png"
   inkscape:export-xdpi="96"
   inkscape:export-ydpi="96"
   xmlns:inkscape="http://www.inkscape.org/namespaces/inkscape"
   xmlns:sodipodi="http://sodipodi.sourceforge.net/DTD/sodipodi-0.dtd"
   xmlns="http://www.w3.org/2000/svg"
   xmlns:svg="http://www.w3.org/2000/svg"
   xmlns:rdf="http://www.w3.org/1999/02/22-rdf-syntax-ns#"
   xmlns:cc="http://creativecommons.org/ns#"
   xmlns:dc="http://purl.org/dc/elements/1.1/">
  <defs
     id="defs8" />
  <sodipodi:namedview
     id="namedview8"
     pagecolor="#ffffff"
     bordercolor="#cccccc"
     borderopacity="1"
     inkscape:showpageshadow="0"
     inkscape:pageopacity="1"
     inkscape:pagecheckerboard="0"
     inkscape:deskcolor="#d1d1d1"
     inkscape:document-units="px"
     inkscape:zoom="54.215385"
     inkscape:cx="8.0051078"
     inkscape:cy="7.9958853"
     inkscape:window-width="1920"
     inkscape:window-height="1056"
     inkscape:window-x="0"
     inkscape:window-y="24"
     inkscape:window-maximized="1"
     inkscape:current-layer="g8" />
  <g
     transform="scale(1,-1)"
     id="g8">
    <!-- Linie -->
    <!-- Linie -->
    <!-- Linie -->
    <!-- Linie -->
    <!-- Kreis -->
    <path
       id="path10"
       style="fill:#505050;fill-opacity:1;stroke:none;stroke-width:0.24954;stroke-dasharray:none"
       d="m 64.001549,49.937218 a 1.5001936,1.5009058 0 0 1 -0.176004,0.08587 8.0010328,8.0048312 0 0 1 -0.0034,0.002 8.0010328,8.0048312 0 0 1 -10.75021,-3.017845 8.0010328,8.0048312 0 0 1 2.928581,-10.934802 8.0010328,8.0048312 0 0 1 10.929614,2.929971 8.0010328,8.0048312 0 0 1 1.067394,3.889951 1.5001936,1.5009058 0 0 0 -0.0077,-0.04069 1.5001936,1.5009058 0 0 1 0.0092,0.152674 1.5001936,1.5009058 0 0 1 9.76e-4,0.0017 1.5001936,1.5009058 0 0 1 -0.748222,1.298741 1.5001936,1.5009058 0 0 1 -2.049304,-0.549369 1.5001936,1.5009058 0 0 1 -0.183365,-0.751607 l -0.0201,3.33e-4 a 5.0006455,5.0030195 0 0 0 -0.667287,-2.500833 5.0006455,5.0030195 0 0 0 -6.831009,-1.831232 5.0006455,5.0030195 0 0 0 -1.830363,6.834251 5.0006455,5.0030195 0 0 0 6.831009,1.831233 1.5001936,1.5009058 0 0 1 2.049302,0.549369 1.5001936,1.5009058 0 0 1 -0.549109,2.050276 z m -0.428606,0.164078 a 1.5001936,1.5009058 0 0 1 -0.01984,0.0047 1.5001936,1.5009058 0 0 0 0.01984,-0.0047 z m -1.316671,-0.342954 a 1.5001936,1.5009058 0 0 1 -0.01484,-0.01399 1.5001936,1.5009058 0 0 0 0.01484,0.01399 z m -0.468025,-0.799304 a 1.5001936,1.5009058 0 0 1 -0.0047,-0.01985 1.5001936,1.5009058 0 0 0 0.0047,0.01985 z m 0.342791,-1.317296 a 1.5001936,1.5009058 0 0 1 0.01398,-0.01485 1.5001936,1.5009058 0 0 0 -0.01398,0.01485 z m 5.811141,-5.044619 a 1.5001936,1.5009058 0 0 0 -0.02775,-0.08326 1.5001936,1.5009058 0 0 1 0.02775,0.08326 z M 67.51167,41.898007 a 1.5001936,1.5009058 0 0 0 -0.01484,-0.01399 1.5001936,1.5009058 0 0 1 0.01484,0.01399 z m -2.407829,0.607767 a 1.5001936,1.5009058 0 0 1 0.0057,-0.02135 1.5001936,1.5009058 0 0 0 -0.0057,0.02135 z m 0.247082,-0.447366 a 1.5001936,1.5009058 0 0 1 0.02361,-0.02944 1.5001936,1.5009058 0 0 0 -0.02361,0.02944 z m 0.84908,-0.522042 a 1.5001936,1.5009058 0 0 0 -0.01984,0.0047 1.5001936,1.5009058 0 0 1 0.01984,-0.0047 z" />
    <!-- Linie -->
    <!-- Linie -->
    <!-- Kreis -->
    <!-- Kreis -->
    <!-- Kreis -->
  </g>
  <metadata
     id="metadata8">
    <rdf:RDF>
      <cc:Work
         rdf:about="">
        <dc:creator>
          <cc:Agent>
            <dc:title>Matthias Seidel</dc:title>
          </cc:Agent>
        </dc:creator>
      </cc:Work>
    </rdf:RDF>
  </metadata>
</svg>
