<?xml version="1.0" encoding="UTF-8" standalone="no"?>
<svg
   width="32"
   height="32"
   viewBox="44 -56 32 32"
   version="1.1"
   style="fill:none;stroke-linecap:round;stroke-linejoin:round"
   id="svg7"
   sodipodi:docname="spinner-32-09.svg"
   inkscape:version="1.3.2 (091e20ef0f, 2023-11-25)"
   inkscape:export-filename="spinner-32-09.png"
   inkscape:export-xdpi="96"
   inkscape:export-ydpi="96"
   xmlns:inkscape="http://www.inkscape.org/namespaces/inkscape"
   xmlns:sodipodi="http://sodipodi.sourceforge.net/DTD/sodipodi-0.dtd"
   xmlns="http://www.w3.org/2000/svg"
   xmlns:svg="http://www.w3.org/2000/svg"
   xmlns:rdf="http://www.w3.org/1999/02/22-rdf-syntax-ns#"
   xmlns:cc="http://creativecommons.org/ns#"
   xmlns:dc="http://purl.org/dc/elements/1.1/">
  <defs
     id="defs7" />
  <sodipodi:namedview
     id="namedview7"
     pagecolor="#ffffff"
     bordercolor="#cccccc"
     borderopacity="1"
     inkscape:showpageshadow="0"
     inkscape:pageopacity="1"
     inkscape:pagecheckerboard="0"
     inkscape:deskcolor="#d1d1d1"
     inkscape:document-units="px"
     inkscape:zoom="23.379845"
     inkscape:cx="16.125"
     inkscape:cy="16.146386"
     inkscape:window-width="1920"
     inkscape:window-height="1056"
     inkscape:window-x="0"
     inkscape:window-y="24"
     inkscape:window-maximized="1"
     inkscape:current-layer="g7" />
  <g
     transform="matrix(1,0,0,-1,0.125,0.125)"
     id="g7">
    <path
       id="path5"
       style="fill:#505050;fill-opacity:1;stroke:none;stroke-width:0.250052"
       d="m 46.015348,32.117442 a 2.5007753,2.5002645 87.440421 0 1 0.190241,-0.282681 16.004962,16.001693 87.436425 0 1 21.668436,-5.575338 16.004962,16.001693 87.436425 0 1 5.857228,21.863225 16.004962,16.001693 87.436425 0 1 -21.858674,5.858022 16.004962,16.001693 87.436425 0 1 -7.972089,-13.525998 16.004962,16.001693 87.436425 0 1 -0.0021,-0.0081 2.5007753,2.5002645 87.440421 0 1 -0.0082,-0.126539 16.004962,16.001693 87.436425 0 1 -0.0151,-0.200475 16.004962,16.001693 87.436425 0 1 3.8e-5,-0.117285 2.5007753,2.5002645 87.440421 0 1 0.331389,-1.132879 2.5007753,2.5002645 87.440421 0 1 3.415416,-0.915316 2.5007753,2.5002645 87.440421 0 1 1.223846,2.16634 l 0.02982,-8.28e-4 a 11.003411,11.001163 87.436262 0 0 5.497229,9.529716 11.003411,11.001163 87.436262 0 0 15.027838,-4.027391 11.003411,11.001163 87.436262 0 0 -4.026842,-15.030968 11.003411,11.001163 87.436262 0 0 -15.02784,4.02739 2.5007753,2.5002645 87.440421 0 1 -3.41542,0.915314 2.5007753,2.5002645 87.440421 0 1 -0.915191,-3.41613 z m 0.475296,-0.585051 a 2.5007753,2.5002645 87.440421 0 1 0.0462,-0.04098 2.5007753,2.5002645 87.440421 0 0 -0.0462,0.04098 z m 0.642753,-0.429689 a 2.5007753,2.5002645 87.440421 0 1 0.05048,-0.02499 2.5007753,2.5002645 87.440421 0 0 -0.05048,0.02499 z m 0.765609,-0.216621 a 2.5007753,2.5002645 87.440421 0 1 0.05622,-0.0036 2.5007753,2.5002645 87.440421 0 0 -0.05622,0.0036 z m 0.767159,0.03468 a 2.5007753,2.5002645 87.440421 0 1 0.06049,0.01239 2.5007753,2.5002645 87.440421 0 0 -0.06049,-0.01239 z M 44.022352,40.94691 a 2.5007753,2.5002645 87.440421 0 0 0.01385,0.04634 2.5007753,2.5002645 87.440421 0 1 -0.01385,-0.04634 z m 5.993359,-9.269382 a 2.5007753,2.5002645 87.440421 0 1 0.04099,0.04622 2.5007753,2.5002645 87.440421 0 0 -0.04099,-0.04622 z M 44.448289,41.70949 a 2.5007753,2.5002645 87.440421 0 0 0.03208,0.03429 2.5007753,2.5002645 87.440421 0 1 -0.03208,-0.03429 z m 5.997042,-9.389073 a 2.5007753,2.5002645 87.440421 0 1 0.02499,0.0505 2.5007753,2.5002645 87.440421 0 0 -0.02499,-0.0505 z m 0.216592,0.765769 a 2.5007753,2.5002645 87.440421 0 1 0.0036,0.05625 2.5007753,2.5002645 87.440421 0 0 -0.0036,-0.05625 z m -0.03467,0.767315 a 2.5007753,2.5002645 87.440421 0 1 -0.01238,0.06052 2.5007753,2.5002645 87.440421 0 0 0.01238,-0.06052 z m -4.801467,8.701096 a 2.5007753,2.5002645 87.440421 0 0 0.0605,0.01239 2.5007753,2.5002645 87.440421 0 1 -0.0605,-0.01239 z m 0.771449,0.0507 a 2.5007753,2.5002645 87.440421 0 0 0.05622,-0.0036 2.5007753,2.5002645 87.440421 0 1 -0.05622,0.0036 z m 0.771328,-0.195271 a 2.5007753,2.5002645 87.440421 0 0 0.05049,-0.02499 2.5007753,2.5002645 87.440421 0 1 -0.05049,0.02499 z m 0.647037,-0.41369 a 2.5007753,2.5002645 87.440421 0 0 0.04619,-0.04099 2.5007753,2.5002645 87.440421 0 1 -0.04619,0.04099 z" />
  </g>
  <metadata
     id="metadata7">
    <rdf:RDF>
      <cc:Work
         rdf:about="">
        <dc:creator>
          <cc:Agent>
            <dc:title>Matthias Seidel</dc:title>
          </cc:Agent>
        </dc:creator>
      </cc:Work>
    </rdf:RDF>
  </metadata>
</svg>
