<?xml version="1.0" encoding="UTF-8" standalone="no"?>
<svg
   width="64"
   height="64"
   viewBox="9.8778 -21.8722 22.827793 22.827793"
   version="1.1"
   style="fill:none;stroke-linecap:round;stroke-linejoin:round"
   id="svg4"
   sodipodi:docname="spinner-64-08.svg"
   inkscape:version="1.3.2 (091e20ef0f, 2023-11-25)"
   inkscape:export-filename="spinner-64-08.png"
   inkscape:export-xdpi="96"
   inkscape:export-ydpi="96"
   xmlns:inkscape="http://www.inkscape.org/namespaces/inkscape"
   xmlns:sodipodi="http://sodipodi.sourceforge.net/DTD/sodipodi-0.dtd"
   xmlns="http://www.w3.org/2000/svg"
   xmlns:svg="http://www.w3.org/2000/svg"
   xmlns:rdf="http://www.w3.org/1999/02/22-rdf-syntax-ns#"
   xmlns:cc="http://creativecommons.org/ns#"
   xmlns:dc="http://purl.org/dc/elements/1.1/">
  <defs
     id="defs4" />
  <sodipodi:namedview
     id="namedview4"
     pagecolor="#ffffff"
     bordercolor="#cccccc"
     borderopacity="1"
     inkscape:showpageshadow="0"
     inkscape:pageopacity="1"
     inkscape:pagecheckerboard="0"
     inkscape:deskcolor="#d1d1d1"
     inkscape:document-units="px"
     inkscape:zoom="11.911385"
     inkscape:cx="31.650392"
     inkscape:cy="31.692368"
     inkscape:window-width="1920"
     inkscape:window-height="1056"
     inkscape:window-x="0"
     inkscape:window-y="24"
     inkscape:window-maximized="1"
     inkscape:current-layer="svg4" />
  <path
     id="path9"
     style="fill:#505050;fill-opacity:1;stroke:none;stroke-width:0.360808;stroke-dasharray:none"
     d="m 15.577438,-0.56176039 a 1.784402,1.7841412 70.999209 0 0 0.218129,0.1056132 11.420184,11.418516 70.990539 0 0 15.380316,-4.28503471 11.420184,11.418516 70.990539 0 0 -4.180342,-15.6006201 11.420184,11.418516 70.990539 0 0 -15.598447,4.179419 11.420184,11.418516 70.990539 0 0 -0.103113,11.2002081 1.784402,1.7841412 70.999209 0 0 0.05474,0.1137943 11.420184,11.418516 70.990539 0 0 0.04409,0.091372 1.784402,1.7841412 70.999209 0 1 -0.0027,-0.00811 1.784402,1.7841412 70.999209 0 0 0.01042,0.021445 11.420184,11.418516 70.990539 0 0 0.04927,0.083772 1.784402,1.7841412 70.999209 0 0 0.601266,0.5709779 1.784402,1.7841412 70.999209 0 0 2.437227,-0.6530263 1.784402,1.7841412 70.999209 0 0 -0.017,-1.7748257 l 0.01704,-0.00969 a 7.8513687,7.8502206 71.000457 0 1 -7.93e-4,-7.8514453 7.8513687,7.8502206 71.000457 0 1 10.723989,-2.873368 7.8513687,7.8502206 71.000457 0 1 2.874001,10.7254861 7.8513687,7.8502206 71.000457 0 1 -10.723993,2.8733668 1.784402,1.7841412 70.999209 0 0 -2.437226,0.6530252 1.784402,1.7841412 70.999209 0 0 0.653171,2.43756796 z m 0.50085,0.19237037 a 1.784402,1.7841412 70.999209 0 0 0.04681,0.009098 1.784402,1.7841412 70.999209 0 1 -0.04681,-0.009098 z m 0.560446,0.0355668 a 1.784402,1.7841412 70.999209 0 0 0.02789,-0.001805 1.784402,1.7841412 70.999209 0 1 -0.02789,0.001805 z m 0.543474,-0.13943156 a 1.784402,1.7841412 70.999209 0 0 0.03191,-0.0157546 1.784402,1.7841412 70.999209 0 1 -0.03191,0.0157546 z m 0.460603,-0.29469014 a 1.784402,1.7841412 70.999209 0 0 0.03397,-0.0291956 1.784402,1.7841412 70.999209 0 1 -0.03397,0.0291956 z M 11.193889,-5.3145474 a 1.784402,1.7841412 70.999209 0 1 -0.0076,-0.036124 1.784402,1.7841412 70.999209 0 0 0.0076,0.036124 z m 7.013442,3.5982586 a 1.784402,1.7841412 70.999209 0 0 0.0083,-0.044023 1.784402,1.7841412 70.999209 0 1 -0.0083,0.044023 z m -7.01893,-4.2174355 a 1.784402,1.7841412 70.999209 0 1 0.0064,-0.033708 1.784402,1.7841412 70.999209 0 0 -0.0064,0.033708 z m 7.054415,3.6626122 a 1.784402,1.7841412 70.999209 0 0 -0.0023,-0.035488 1.784402,1.7841412 70.999209 0 1 0.0023,0.035488 z m -0.140913,-0.5508972 a 1.784402,1.7841412 70.999209 0 0 -0.01237,-0.025045 1.784402,1.7841412 70.999209 0 1 0.01237,0.025045 z m -6.592165,-3.8741719 a 1.784402,1.7841412 70.999209 0 1 0.01335,-0.017514 1.784402,1.7841412 70.999209 0 0 -0.01335,0.017514 z m 6.300068,3.4174344 a 1.784402,1.7841412 70.999209 0 0 -0.0313,-0.035999 1.784402,1.7841412 70.999209 0 1 0.0313,0.035999 z m -5.640044,-3.9631527 a 1.784402,1.7841412 70.999209 0 1 0.01848,-0.008 1.784402,1.7841412 70.999209 0 0 -0.01848,0.008 z m 0.619118,-0.1689887 a 1.784402,1.7841412 70.999209 0 1 0.02002,-0.00232 1.784402,1.7841412 70.999209 0 0 -0.02002,0.00232 z m 0.844169,0.131859 a 1.784402,1.7841412 70.999209 0 1 0.02032,0.0085 1.784402,1.7841412 70.999209 0 0 -0.02032,-0.0085 z" />
  <metadata
     id="metadata4">
    <rdf:RDF>
      <cc:Work
         rdf:about="">
        <dc:creator>
          <cc:Agent>
            <dc:title>Matthias Seidel</dc:title>
          </cc:Agent>
        </dc:creator>
      </cc:Work>
    </rdf:RDF>
  </metadata>
</svg>
