<?xml version="1.0" encoding="UTF-8" standalone="no"?>
<svg
   width="32"
   height="32"
   viewBox="44 -56 32 31.999999"
   version="1.1"
   style="fill:none;stroke-linecap:round;stroke-linejoin:round"
   id="svg7"
   sodipodi:docname="spinner-32-08.svg"
   inkscape:version="1.3.2 (091e20ef0f, 2023-11-25)"
   inkscape:export-filename="spinner-32-08.png"
   inkscape:export-xdpi="96"
   inkscape:export-ydpi="96"
   xmlns:inkscape="http://www.inkscape.org/namespaces/inkscape"
   xmlns:sodipodi="http://sodipodi.sourceforge.net/DTD/sodipodi-0.dtd"
   xmlns="http://www.w3.org/2000/svg"
   xmlns:svg="http://www.w3.org/2000/svg"
   xmlns:rdf="http://www.w3.org/1999/02/22-rdf-syntax-ns#"
   xmlns:cc="http://creativecommons.org/ns#"
   xmlns:dc="http://purl.org/dc/elements/1.1/">
  <defs
     id="defs7" />
  <sodipodi:namedview
     id="namedview7"
     pagecolor="#ffffff"
     bordercolor="#cccccc"
     borderopacity="1"
     inkscape:showpageshadow="0"
     inkscape:pageopacity="1"
     inkscape:pagecheckerboard="0"
     inkscape:deskcolor="#d1d1d1"
     inkscape:document-units="px"
     inkscape:zoom="27.317829"
     inkscape:cx="15.996879"
     inkscape:cy="16.015182"
     inkscape:window-width="1920"
     inkscape:window-height="1056"
     inkscape:window-x="0"
     inkscape:window-y="24"
     inkscape:window-maximized="1"
     inkscape:current-layer="g7" />
  <g
     transform="scale(1,-1)"
     id="g7">
    <path
       id="path12"
       style="fill:#505050;fill-opacity:1;stroke:none;stroke-width:0.249529;stroke-dasharray:none"
       d="m 51.998455,26.128142 a 2.5002353,2.5013708 9.2148938 0 1 0.306077,-0.149726 16.001507,16.008774 9.2127611 0 1 21.552222,6.007709 16.001507,16.008774 9.2127611 0 1 -5.858593,21.868557 16.001507,16.008774 9.2127611 0 1 -21.858296,-5.85798 16.001507,16.008774 9.2127611 0 1 -2.139738,-7.886578 16.001507,16.008774 9.2127611 0 1 -3.7e-5,-0.117313 l 0.0017,-0.001 a 2.5002353,2.5013708 9.2148938 0 1 1.245086,-2.165539 2.5002353,2.5013708 9.2148938 0 1 3.415358,0.915311 2.5002353,2.5013708 9.2148938 0 1 0.30857,1.25005 l 0.02983,8.23e-4 a 11.001037,11.006034 9.2115286 0 0 1.469966,5.502611 11.001037,11.006034 9.2115286 0 0 15.02758,4.027361 11.001037,11.006034 9.2115286 0 0 4.027784,-15.034632 11.001037,11.006034 9.2115286 0 0 -15.027579,-4.027361 2.5002353,2.5013708 9.2148938 0 1 -3.415359,-0.915312 2.5002353,2.5013708 9.2148938 0 1 0.915403,-3.416959 z m 0.70411,-0.269085 a 2.5002353,2.5013708 9.2148938 0 1 0.06051,-0.01238 2.5002353,2.5013708 9.2148938 0 0 -0.06051,0.01238 z m 0.771452,-0.05075 a 2.5002353,2.5013708 9.2148938 0 1 0.05623,0.0036 2.5002353,2.5013708 9.2148938 0 0 -0.05623,-0.0036 z m 0.771314,0.195269 a 2.5002353,2.5013708 9.2148938 0 1 0.0505,0.02499 2.5002353,2.5013708 9.2148938 0 0 -0.0505,-0.02499 z m 0.647013,0.41374 a 2.5002353,2.5013708 9.2148938 0 1 0.04621,0.041 2.5002353,2.5013708 9.2148938 0 0 -0.04621,-0.041 z m 0.790348,1.33052 a 2.5002353,2.5013708 9.2148938 0 1 0.01236,0.06054 2.5002353,2.5013708 9.2148938 0 0 -0.01236,-0.06054 z m 0.05062,0.771775 a 2.5002353,2.5013708 9.2148938 0 1 -0.0036,0.05623 2.5002353,2.5013708 9.2148938 0 0 0.0036,-0.05623 z m -0.195297,0.771678 a 2.5002353,2.5013708 9.2148938 0 1 -0.02501,0.0505 2.5002353,2.5013708 9.2148938 0 0 0.02501,-0.0505 z m -0.413645,0.647353 a 2.5002353,2.5013708 9.2148938 0 1 -0.04099,0.04623 2.5002353,2.5013708 9.2148938 0 0 0.04099,-0.04623 z m -10.317666,11.88975 a 2.5002353,2.5013708 9.2148938 0 0 0.04621,0.041 2.5002353,2.5013708 9.2148938 0 1 -0.04621,-0.041 z m 0.642724,0.429744 a 2.5002353,2.5013708 9.2148938 0 0 0.0505,0.02499 2.5002353,2.5013708 9.2148938 0 1 -0.0505,-0.02499 z m 3.382497,-1.443942 a 2.5002353,2.5013708 9.2148938 0 1 -0.01788,0.051 2.5002353,2.5013708 9.2148938 0 0 0.01788,-0.051 z m -2.616899,1.660565 a 2.5002353,2.5013708 9.2148938 0 0 0.05622,0.0036 2.5002353,2.5013708 9.2148938 0 1 -0.05622,-0.0036 z m 2.197944,-0.89733 a 2.5002353,2.5013708 9.2148938 0 1 -0.03035,0.03336 2.5002353,2.5013708 9.2148938 0 0 0.03035,-0.03336 z m -1.430785,0.862591 a 2.5002353,2.5013708 9.2148938 0 0 0.06051,-0.01239 2.5002353,2.5013708 9.2148938 0 1 -0.06051,0.01239 z" />
  </g>
  <metadata
     id="metadata7">
    <rdf:RDF>
      <cc:Work
         rdf:about="">
        <dc:creator>
          <cc:Agent>
            <dc:title>Matthias Seidel</dc:title>
          </cc:Agent>
        </dc:creator>
      </cc:Work>
    </rdf:RDF>
  </metadata>
</svg>
