<?xml version="1.0" encoding="UTF-8" standalone="no"?>
<svg
   width="32"
   height="32"
   viewBox="44 -56 32 31.999999"
   version="1.1"
   style="fill:none;stroke-linecap:round;stroke-linejoin:round"
   id="svg7"
   sodipodi:docname="spinner-32-02.svg"
   inkscape:version="1.3.2 (091e20ef0f, 2023-11-25)"
   inkscape:export-filename="spinner-32-02.png"
   inkscape:export-xdpi="96"
   inkscape:export-ydpi="96"
   xmlns:inkscape="http://www.inkscape.org/namespaces/inkscape"
   xmlns:sodipodi="http://sodipodi.sourceforge.net/DTD/sodipodi-0.dtd"
   xmlns="http://www.w3.org/2000/svg"
   xmlns:svg="http://www.w3.org/2000/svg"
   xmlns:rdf="http://www.w3.org/1999/02/22-rdf-syntax-ns#"
   xmlns:cc="http://creativecommons.org/ns#"
   xmlns:dc="http://purl.org/dc/elements/1.1/">
  <defs
     id="defs7" />
  <sodipodi:namedview
     id="namedview7"
     pagecolor="#ffffff"
     bordercolor="#cccccc"
     borderopacity="1"
     inkscape:showpageshadow="0"
     inkscape:pageopacity="1"
     inkscape:pagecheckerboard="0"
     inkscape:deskcolor="#d1d1d1"
     inkscape:document-units="px"
     inkscape:zoom="27.317829"
     inkscape:cx="15.996879"
     inkscape:cy="16.015182"
     inkscape:window-width="1920"
     inkscape:window-height="1056"
     inkscape:window-x="0"
     inkscape:window-y="24"
     inkscape:window-maximized="1"
     inkscape:current-layer="g7" />
  <g
     transform="scale(1,-1)"
     id="g7">
    <path
       id="path12"
       style="fill:#505050;fill-opacity:1;stroke:none;stroke-width:0.249529;stroke-dasharray:none"
       d="m 68.002544,53.872431 a 2.500265,2.5013419 0 0 1 -0.306066,0.149705 16.001696,16.008588 0 0 1 -21.552657,-6.009255 16.001696,16.008588 0 0 1 5.857027,-21.868137 16.001696,16.008588 0 0 1 21.858722,5.859549 16.001696,16.008588 0 0 1 2.140303,7.886732 16.001696,16.008588 0 0 1 3.8e-5,0.117316 l -0.0017,9.77e-4 a 2.500265,2.5013419 0 0 1 -1.244905,2.165463 2.500265,2.5013419 0 0 1 -3.415426,-0.915555 2.500265,2.5013419 0 0 1 -0.308659,-1.250073 l -0.0298,-8.37e-4 a 11.001166,11.005904 0 0 0 -1.470432,-5.502681 11.001166,11.005904 0 0 0 -15.027872,-4.02844 11.001166,11.005904 0 0 0 -4.026706,15.034344 11.001166,11.005904 0 0 0 15.027872,4.02844 2.500265,2.5013419 0 0 1 3.415426,0.915556 2.500265,2.5013419 0 0 1 -0.915161,3.416896 z m -0.704091,0.269036 a 2.500265,2.5013419 0 0 1 -0.06052,0.01239 2.500265,2.5013419 0 0 0 0.06052,-0.01239 z m -0.771447,0.0507 a 2.500265,2.5013419 0 0 1 -0.05623,-0.0036 2.500265,2.5013419 0 0 0 0.05623,0.0036 z m -0.771329,-0.195322 a 2.500265,2.5013419 0 0 1 -0.05051,-0.02498 2.500265,2.5013419 0 0 0 0.05051,0.02498 z M 65.108634,53.58306 a 2.500265,2.5013419 0 0 1 -0.04621,-0.041 2.500265,2.5013419 0 0 0 0.04621,0.041 z m -0.790436,-1.330581 a 2.500265,2.5013419 0 0 1 -0.01238,-0.06054 2.500265,2.5013419 0 0 0 0.01238,0.06054 z M 64.267528,51.4807 a 2.500265,2.5013419 0 0 1 0.0036,-0.05625 2.500265,2.5013419 0 0 0 -0.0036,0.05625 z m 0.195238,-0.771662 a 2.500265,2.5013419 0 0 1 0.02497,-0.05053 2.500265,2.5013419 0 0 0 -0.02497,0.05053 z m 0.413603,-0.647322 a 2.500265,2.5013419 0 0 1 0.04099,-0.04623 2.500265,2.5013419 0 0 0 -0.04099,0.04623 z M 75.193175,38.172695 a 2.500265,2.5013419 0 0 0 -0.04621,-0.041 2.500265,2.5013419 0 0 1 0.04621,0.041 z m -0.642752,-0.429798 a 2.500265,2.5013419 0 0 0 -0.05051,-0.02498 2.500265,2.5013419 0 0 1 0.05051,0.02498 z m -3.382393,1.443701 a 2.500265,2.5013419 0 0 1 0.01794,-0.05098 2.500265,2.5013419 0 0 0 -0.01794,0.05098 z m 2.616782,-1.660378 a 2.500265,2.5013419 0 0 0 -0.05623,-0.0036 2.500265,2.5013419 0 0 1 0.05623,0.0036 z m -2.197878,0.897172 a 2.500265,2.5013419 0 0 1 0.03038,-0.03334 2.500265,2.5013419 0 0 0 -0.03038,0.03334 z m 1.430721,-0.862487 a 2.500265,2.5013419 0 0 0 -0.06052,0.01239 2.500265,2.5013419 0 0 1 0.06052,-0.01239 z" />
  </g>
  <metadata
     id="metadata7">
    <rdf:RDF>
      <cc:Work
         rdf:about="">
        <dc:creator>
          <cc:Agent>
            <dc:title>Matthias Seidel</dc:title>
          </cc:Agent>
        </dc:creator>
      </cc:Work>
    </rdf:RDF>
  </metadata>
</svg>
