<?xml version="1.0" encoding="UTF-8" standalone="no"?>
<!-- 2024-07-26 20:33:55 Generated by QCAD 3.29.4 SVG Exporter -->

<svg
   width="64"
   height="64"
   viewBox="28 -62 64 64"
   version="1.1"
   style="fill:none;stroke-linecap:round;stroke-linejoin:round"
   id="svg7"
   sodipodi:docname="spinner-64-11.svg"
   inkscape:version="1.3.2 (091e20ef0f, 2023-11-25)"
   inkscape:export-filename="spinner-64-11.png"
   inkscape:export-xdpi="96"
   inkscape:export-ydpi="96"
   xmlns:inkscape="http://www.inkscape.org/namespaces/inkscape"
   xmlns:sodipodi="http://sodipodi.sourceforge.net/DTD/sodipodi-0.dtd"
   xmlns="http://www.w3.org/2000/svg"
   xmlns:svg="http://www.w3.org/2000/svg"
   xmlns:rdf="http://www.w3.org/1999/02/22-rdf-syntax-ns#"
   xmlns:cc="http://creativecommons.org/ns#"
   xmlns:dc="http://purl.org/dc/elements/1.1/">
  <defs
     id="defs7" />
  <sodipodi:namedview
     id="namedview7"
     pagecolor="#ffffff"
     bordercolor="#cccccc"
     borderopacity="1"
     inkscape:showpageshadow="0"
     inkscape:pageopacity="1"
     inkscape:pagecheckerboard="0"
     inkscape:deskcolor="#d1d1d1"
     inkscape:document-units="px"
     inkscape:zoom="13.712062"
     inkscape:cx="32.015608"
     inkscape:cy="31.979144"
     inkscape:window-width="1920"
     inkscape:window-height="1056"
     inkscape:window-x="0"
     inkscape:window-y="24"
     inkscape:window-maximized="1"
     inkscape:current-layer="g7" />
  <g
     transform="scale(1,-1)"
     id="g7">
    <!-- Kreis -->
    <!-- Kreis -->
    <!-- Linie -->
    <!-- Linie -->
    <!-- Linie -->
    <!-- Linie -->
    <!-- Kreis -->
    <path
       id="path12"
       style="fill:#505050;fill-opacity:1;stroke:none;stroke-width:0.249534;stroke-dasharray:none"
       d="M 32.254709,46.004356 A 5.0028678,5.0005998 8.94216 0 1 31.955964,45.389523 32.018354,32.003841 8.9424216 0 1 43.971065,2.2866348 32.018354,32.003841 8.9424216 0 1 87.709288,14.004027 32.018354,32.003841 8.9424216 0 1 75.992929,57.721746 32.018354,32.003841 8.9424216 0 1 60.26636,61.996792 a 32.018354,32.003841 8.9424216 0 1 -0.282617,0.003 32.018354,32.003841 8.9424216 0 1 -0.04728,2.07e-4 5.0028678,5.0005998 8.94216 0 1 -4.284921,-2.492076 5.0028678,5.0005998 8.94216 0 1 1.830681,-6.830895 5.0028678,5.0005998 8.94216 0 1 2.501145,-0.615468 l -2.73e-4,-0.06301 A 22.012619,22.00264 8.9414941 0 0 70.989522,49.060028 22.012619,22.00264 8.9414941 0 0 79.044517,19.004096 22.012619,22.00264 8.9414941 0 0 48.974488,10.94839 22.012619,22.00264 8.9414941 0 0 40.919492,41.004321 5.0028678,5.0005998 8.94216 0 1 39.088813,47.835217 5.0028678,5.0005998 8.94216 0 1 32.254715,46.004375 Z m -0.539616,-1.402917 a 5.0028678,5.0005998 8.94216 0 1 -0.02531,-0.129755 5.0028678,5.0005998 8.94216 0 0 0.02531,0.129755 z m -0.100606,-1.556995 a 5.0028678,5.0005998 8.94216 0 1 0.0071,-0.101072 5.0028678,5.0005998 8.94216 0 0 -0.0071,0.101072 z m 0.391784,-1.536621 a 5.0028678,5.0005998 8.94216 0 1 0.04438,-0.09107 5.0028678,5.0005998 8.94216 0 0 -0.04438,0.09107 z m 0.823396,-1.289439 a 5.0028678,5.0005998 8.94216 0 1 0.08683,-0.09971 5.0028678,5.0005998 8.94216 0 0 -0.08683,0.09971 z m 2.659179,-1.584095 a 5.0028678,5.0005998 8.94216 0 1 0.129812,-0.02531 5.0028678,5.0005998 8.94216 0 0 -0.129812,0.02531 z m 1.55765,-0.100346 a 5.0028678,5.0005998 8.94216 0 1 0.101113,0.0071 5.0028678,5.0005998 8.94216 0 0 -0.101113,-0.0071 z m 1.537337,0.391826 a 5.0028678,5.0005998 8.94216 0 1 0.09112,0.04441 5.0028678,5.0005998 8.94216 0 0 -0.09112,-0.04441 z m 1.290105,0.823224 a 5.0028678,5.0005998 8.94216 0 1 0.09976,0.0868 5.0028678,5.0005998 8.94216 0 0 -0.09976,-0.0868 z m 23.780628,20.644515 a 5.0028678,5.0005998 8.94216 0 0 0.08683,-0.09971 5.0028678,5.0005998 8.94216 0 1 -0.08683,0.09971 z m 0.865775,-1.298106 a 5.0028678,5.0005998 8.94216 0 0 0.04447,-0.09103 5.0028678,5.0005998 8.94216 0 1 -0.04447,0.09103 z m -2.891785,-6.756171 a 5.0028678,5.0005998 8.94216 0 1 0.09734,0.0318 5.0028678,5.0005998 8.94216 0 0 -0.09734,-0.0318 z m 3.320944,5.229564 a 5.0028678,5.0005998 8.94216 0 0 0.0071,-0.101059 5.0028678,5.0005998 8.94216 0 1 -0.0071,0.101059 z m -1.797103,-4.392346 a 5.0028678,5.0005998 8.94216 0 1 0.07301,0.0639 5.0028678,5.0005998 8.94216 0 0 -0.07301,-0.0639 z m 1.728865,2.86404 a 5.0028678,5.0005998 8.94216 0 0 -0.0253,-0.12976 5.0028678,5.0005998 8.94216 0 1 0.0253,0.12976 z" />
    <!-- Kreis -->
    <!-- Linie -->
    <!-- Linie -->
  </g>
  <metadata
     id="metadata7">
    <rdf:RDF>
      <cc:Work
         rdf:about="">
        <dc:creator>
          <cc:Agent>
            <dc:title>Matthias Seidel</dc:title>
          </cc:Agent>
        </dc:creator>
      </cc:Work>
    </rdf:RDF>
  </metadata>
</svg>
