<?xml version="1.0" encoding="UTF-8" standalone="no"?>
<svg
   width="64"
   height="64"
   viewBox="28 -62 64 64"
   version="1.1"
   style="fill:none;stroke-linecap:round;stroke-linejoin:round"
   id="svg7"
   sodipodi:docname="spinner-64-06.svg"
   inkscape:version="1.3.2 (091e20ef0f, 2023-11-25)"
   inkscape:export-filename="spinner-64-06.png"
   inkscape:export-xdpi="96"
   inkscape:export-ydpi="96"
   xmlns:inkscape="http://www.inkscape.org/namespaces/inkscape"
   xmlns:sodipodi="http://sodipodi.sourceforge.net/DTD/sodipodi-0.dtd"
   xmlns="http://www.w3.org/2000/svg"
   xmlns:svg="http://www.w3.org/2000/svg"
   xmlns:rdf="http://www.w3.org/1999/02/22-rdf-syntax-ns#"
   xmlns:cc="http://creativecommons.org/ns#"
   xmlns:dc="http://purl.org/dc/elements/1.1/">
  <defs
     id="defs7" />
  <sodipodi:namedview
     id="namedview7"
     pagecolor="#ffffff"
     bordercolor="#cccccc"
     borderopacity="1"
     inkscape:showpageshadow="0"
     inkscape:pageopacity="1"
     inkscape:pagecheckerboard="0"
     inkscape:deskcolor="#d1d1d1"
     inkscape:document-units="px"
     inkscape:zoom="13.712062"
     inkscape:cx="32.015608"
     inkscape:cy="31.979144"
     inkscape:window-width="1920"
     inkscape:window-height="1056"
     inkscape:window-x="0"
     inkscape:window-y="24"
     inkscape:window-maximized="1"
     inkscape:current-layer="g7" />
  <g
     transform="scale(1,-1)"
     id="g7">
    <path
       id="path12"
       style="fill:#505050;fill-opacity:1;stroke:none;stroke-width:0.249511;stroke-dasharray:none"
       d="M 76.019851,2.2738154 A 5.0004196,5.0021165 57.36342 0 1 76.585878,2.6569055 32.002686,32.013545 57.362788 0 1 87.72973,45.992805 32.002686,32.013545 57.362788 0 1 44.000922,57.714495 32.002686,32.013545 57.362788 0 1 32.291044,13.995506 32.002686,32.013545 57.362788 0 1 43.77097,2.4298499 a 32.002686,32.013545 57.362788 0 1 0.243218,-0.1438897 32.002686,32.013545 57.362788 0 1 0.04083,-0.023812 5.0004196,5.0021165 57.36342 0 1 4.955945,0.015731 5.0004196,5.0021165 57.36342 0 1 1.829668,6.8310922 5.0004196,5.0021165 57.36342 0 1 -1.857971,1.7835946 l 0.03174,0.05442 a 22.001846,22.009313 57.363604 0 0 -8.06106,8.048099 22.001846,22.009313 57.363604 0 0 8.050541,30.056806 22.001846,22.009313 57.363604 0 0 30.063555,-8.058663 22.001846,22.009313 57.363604 0 0 -8.05054,-30.056804 5.0004196,5.0021165 57.36342 0 1 -1.829669,-6.831093 5.0004196,5.0021165 57.36342 0 1 6.832624,-1.8315156 z m 1.168554,0.9451547 a 5.0004196,5.0021165 57.36342 0 1 0.08678,0.099717 5.0004196,5.0021165 57.36342 0 0 -0.08678,-0.099717 z m 0.865458,1.2980985 a 5.0004196,5.0021165 57.36342 0 1 0.04438,0.09108 5.0004196,5.0021165 57.36342 0 0 -0.04438,-0.09108 z m 0.428931,1.5266501 a 5.0004196,5.0021165 57.36342 0 1 0.0071,0.1010626 5.0004196,5.0021165 57.36342 0 0 -0.0071,-0.1010626 z m -0.06835,1.5283908 a 5.0004196,5.0021165 57.36342 0 1 -0.02532,0.1297613 5.0004196,5.0021165 57.36342 0 0 0.02532,-0.1297613 z m -1.510575,2.7014755 a 5.0004196,5.0021165 57.36342 0 1 -0.09976,0.08681 5.0004196,5.0021165 57.36342 0 0 0.09976,-0.08681 z m -1.298549,0.865734 a 5.0004196,5.0021165 57.36342 0 1 -0.0911,0.04441 5.0004196,5.0021165 57.36342 0 0 0.0911,-0.04441 z m -1.526998,0.429341 a 5.0004196,5.0021165 57.36342 0 1 -0.101099,0.0071 5.0004196,5.0021165 57.36342 0 0 0.101099,-0.0071 z m -1.528586,-0.06788 a 5.0004196,5.0021165 57.36342 0 1 -0.129775,-0.02528 5.0004196,5.0021165 57.36342 0 0 0.129775,0.02528 z M 41.63875,5.5124582 a 5.0004196,5.0021165 57.36342 0 0 -0.02533,0.1297632 5.0004196,5.0021165 57.36342 0 1 0.02533,-0.1297632 z m -0.100716,1.5570856 a 5.0004196,5.0021165 57.36342 0 0 0.007,0.1010676 5.0004196,5.0021165 57.36342 0 1 -0.007,-0.1010676 z m 5.881317,4.4051312 a 5.0004196,5.0021165 57.36342 0 1 -0.100178,0.02113 5.0004196,5.0021165 57.36342 0 0 0.100178,-0.02113 z M 41.929597,8.6062105 a 5.0004196,5.0021165 57.36342 0 0 0.04437,0.091075 5.0004196,5.0021165 57.36342 0 1 -0.04437,-0.091075 z m 3.75179,2.9053355 a 5.0004196,5.0021165 57.36342 0 1 -0.09515,-0.01882 5.0004196,5.0021165 57.36342 0 0 0.09515,0.01882 z m -2.9287,-1.6158997 a 5.0004196,5.0021165 57.36342 0 0 0.08678,0.099717 5.0004196,5.0021165 57.36342 0 1 -0.08678,-0.099717 z" />
  </g>
  <metadata
     id="metadata7">
    <rdf:RDF>
      <cc:Work
         rdf:about="">
        <dc:creator>
          <cc:Agent>
            <dc:title>Matthias Seidel</dc:title>
          </cc:Agent>
        </dc:creator>
      </cc:Work>
    </rdf:RDF>
  </metadata>
</svg>
