<?xml version="1.0" encoding="UTF-8" standalone="no"?>
<svg
   width="16.000311"
   height="16.000315"
   viewBox="52 -51 16.000311 16.000315"
   version="1.1"
   style="fill:none;stroke-linecap:round;stroke-linejoin:round"
   id="svg7"
   sodipodi:docname="spinner-16-10.svg"
   inkscape:version="1.3.2 (091e20ef0f, 2023-11-25)"
   inkscape:export-filename="spinner-16-10.png"
   inkscape:export-xdpi="96"
   inkscape:export-ydpi="96"
   xmlns:inkscape="http://www.inkscape.org/namespaces/inkscape"
   xmlns:sodipodi="http://sodipodi.sourceforge.net/DTD/sodipodi-0.dtd"
   xmlns="http://www.w3.org/2000/svg"
   xmlns:svg="http://www.w3.org/2000/svg"
   xmlns:rdf="http://www.w3.org/1999/02/22-rdf-syntax-ns#"
   xmlns:cc="http://creativecommons.org/ns#"
   xmlns:dc="http://purl.org/dc/elements/1.1/">
  <defs
     id="defs7" />
  <sodipodi:namedview
     id="namedview7"
     pagecolor="#ffffff"
     bordercolor="#cccccc"
     borderopacity="1"
     inkscape:showpageshadow="0"
     inkscape:pageopacity="1"
     inkscape:pagecheckerboard="0"
     inkscape:deskcolor="#d1d1d1"
     inkscape:document-units="px"
     inkscape:zoom="47.125736"
     inkscape:cx="7.8725561"
     inkscape:cy="7.8619462"
     inkscape:window-width="1920"
     inkscape:window-height="1056"
     inkscape:window-x="0"
     inkscape:window-y="24"
     inkscape:window-maximized="1"
     inkscape:current-layer="g7" />
  <g
     transform="matrix(1,0,0,-1,2.9001502e-5,3e-5)"
     id="g7"
     style="fill:none;fill-opacity:1;stroke:#df0000;stroke-opacity:1">
    <path
       id="path12"
       style="fill:#505050;fill-opacity:1;stroke:none;stroke-width:0.249993"
       d="m 51.999983,42.998002 a 2.0004669,1.9994522 45.085348 0 1 0.01978,-0.269769 8.001868,7.9978088 45.085987 0 1 7.978191,-7.728203 8.001868,7.9978088 45.085987 0 1 8.002016,8.002032 8.001868,7.9978088 45.085987 0 1 -7.997959,7.997968 8.001868,7.9978088 45.085987 0 1 -3.913965,-1.026533 8.001868,7.9978088 45.085987 0 1 -0.08531,-0.04763 l -7e-6,-0.002 a 8.001868,7.9978088 45.085987 0 1 -0.04763,-0.02576 2.0004669,1.9994522 45.085348 0 1 -0.954561,-1.704184 2.0004669,1.9994522 45.085348 0 1 2.000982,-1.998997 2.0004669,1.9994522 45.085348 0 1 0.999818,0.268044 4.0009341,3.9989044 45.086133 0 0 1.999633,0.536088 4.0009341,3.9989044 45.086133 0 0 3.997988,-3.997994 4.0009341,3.9989044 45.086133 0 0 -4.000016,-4.002006 4.0009341,3.9989044 45.086133 0 0 -3.99997,3.999976 2.0004669,1.9994522 45.085348 0 1 -1.998994,1.998996 2.0004669,1.9994522 45.085348 0 1 -2.00001,-2.000009 z" />
  </g>
  <metadata
     id="metadata7">
    <rdf:RDF>
      <cc:Work
         rdf:about="">
        <dc:creator>
          <cc:Agent>
            <dc:title>Matthias Seidel</dc:title>
          </cc:Agent>
        </dc:creator>
      </cc:Work>
    </rdf:RDF>
  </metadata>
</svg>
