<?xml version="1.0" encoding="UTF-8" standalone="no"?>
<svg
   width="32"
   height="32"
   viewBox="44 -56 32 31.999999"
   version="1.1"
   style="fill:none;stroke-linecap:round;stroke-linejoin:round"
   id="svg7"
   sodipodi:docname="spinner-32-04.svg"
   inkscape:version="1.3.2 (091e20ef0f, 2023-11-25)"
   inkscape:export-filename="spinner-32-04.png"
   inkscape:export-xdpi="96"
   inkscape:export-ydpi="96"
   xmlns:inkscape="http://www.inkscape.org/namespaces/inkscape"
   xmlns:sodipodi="http://sodipodi.sourceforge.net/DTD/sodipodi-0.dtd"
   xmlns="http://www.w3.org/2000/svg"
   xmlns:svg="http://www.w3.org/2000/svg"
   xmlns:rdf="http://www.w3.org/1999/02/22-rdf-syntax-ns#"
   xmlns:cc="http://creativecommons.org/ns#"
   xmlns:dc="http://purl.org/dc/elements/1.1/">
  <defs
     id="defs7" />
  <sodipodi:namedview
     id="namedview7"
     pagecolor="#ffffff"
     bordercolor="#cccccc"
     borderopacity="1"
     inkscape:showpageshadow="0"
     inkscape:pageopacity="1"
     inkscape:pagecheckerboard="0"
     inkscape:deskcolor="#d1d1d1"
     inkscape:document-units="px"
     inkscape:zoom="27.317829"
     inkscape:cx="15.996879"
     inkscape:cy="16.015182"
     inkscape:window-width="1920"
     inkscape:window-height="1056"
     inkscape:window-x="0"
     inkscape:window-y="24"
     inkscape:window-maximized="1"
     inkscape:current-layer="g7" />
  <g
     transform="scale(1,-1)"
     id="g7">
    <path
       id="path12"
       style="fill:#505050;fill-opacity:1;stroke:none;stroke-width:0.249449;stroke-dasharray:none"
       d="M 76,40.002157 A 2.5003372,2.4996632 44.999787 0 1 75.976609,40.341998 16.002158,15.997845 44.999613 0 1 60.002158,56 16.002158,15.997845 44.999613 0 1 44,39.997843 16.002158,15.997845 44.999613 0 1 59.997843,24 a 16.002158,15.997845 44.999613 0 1 7.896766,2.088955 16.002158,15.997845 44.999613 0 1 0.10157,0.0586 l -2e-6,0.002 a 2.5003372,2.4996632 44.999787 0 1 1.252234,2.160331 2.5003372,2.4996632 44.999787 0 1 -2.499663,2.499664 2.5003372,2.4996632 44.999787 0 1 -1.236376,-0.357591 l -0.01562,0.0254 a 11.001484,10.998518 45.000182 0 0 -5.49824,-1.477345 11.001484,10.998518 45.000182 0 0 -10.998517,10.998518 11.001484,10.998518 45.000182 0 0 11.001482,11.001483 11.001484,10.998518 45.000182 0 0 10.998518,-10.998517 2.5003372,2.4996632 44.999787 0 1 2.499665,-2.499663 2.5003372,2.4996632 44.999787 0 1 2.500335,2.500337 z m -0.119042,0.744125 a 2.5003372,2.4996632 44.999787 0 1 -0.01952,0.0586 2.5003372,2.4996632 44.999787 0 0 0.01952,-0.0586 z m -0.341704,0.693312 a 2.5003372,2.4996632 44.999787 0 1 -0.03123,0.04689 2.5003372,2.4996632 44.999787 0 0 0.03123,-0.04689 z m -0.554611,0.570237 a 2.5003372,2.4996632 44.999787 0 1 -0.04688,0.03123 2.5003372,2.4996632 44.999787 0 0 0.04688,-0.03123 z m -0.681599,0.353417 a 2.5003372,2.4996632 44.999787 0 1 -0.05859,0.01952 2.5003372,2.4996632 44.999787 0 0 0.05859,-0.01952 z m -1.546872,0.01933 a 2.5003372,2.4996632 44.999787 0 1 -0.05859,-0.01954 2.5003372,2.4996632 44.999787 0 0 0.05859,0.01954 z m -0.693401,-0.341899 a 2.5003372,2.4996632 44.999787 0 1 -0.04689,-0.03123 2.5003372,2.4996632 44.999787 0 0 0.04689,0.03123 z m -0.570386,-0.554768 a 2.5003372,2.4996632 44.999787 0 1 -0.03122,-0.04689 2.5003372,2.4996632 44.999787 0 0 0.03122,0.04689 z m -0.353609,-0.681689 a 2.5003372,2.4996632 44.999787 0 1 -0.01953,-0.05859 2.5003372,2.4996632 44.999787 0 0 0.01953,0.05859 z m -5.134818,-14.87568 a 2.5003372,2.4996632 44.999787 0 0 -0.05859,0.01952 2.5003372,2.4996632 44.999787 0 1 0.05859,-0.01952 z m -0.693309,0.341706 a 2.5003372,2.4996632 44.999787 0 0 -0.04688,0.03123 2.5003372,2.4996632 44.999787 0 1 0.04688,-0.03123 z m -0.440915,3.650332 a 2.5003372,2.4996632 44.999787 0 1 -0.0352,-0.04099 2.5003372,2.4996632 44.999787 0 0 0.0352,0.04099 z M 64.74041,26.82486 a 2.5003372,2.4996632 44.999787 0 0 -0.03122,0.04689 2.5003372,2.4996632 44.999787 0 1 0.03122,-0.04689 z m -0.321948,2.35152 a 2.5003372,2.4996632 44.999787 0 1 -0.01372,-0.04295 2.5003372,2.4996632 44.999787 0 0 0.01372,0.04295 z m -0.03148,-1.669928 a 2.5003372,2.4996632 44.999787 0 0 -0.01953,0.05859 2.5003372,2.4996632 44.999787 0 1 0.01953,-0.05859 z" />
  </g>
  <metadata
     id="metadata7">
    <rdf:RDF>
      <cc:Work
         rdf:about="">
        <dc:creator>
          <cc:Agent>
            <dc:title>Matthias Seidel</dc:title>
          </cc:Agent>
        </dc:creator>
      </cc:Work>
    </rdf:RDF>
  </metadata>
</svg>
