<?xml version="1.0" encoding="UTF-8" standalone="no"?>
<svg
   width="16"
   height="16"
   viewBox="52 -51 16 16"
   version="1.1"
   style="fill:none;stroke-linecap:round;stroke-linejoin:round"
   id="svg8"
   sodipodi:docname="spinner-16-12.svg"
   inkscape:version="1.3.2 (091e20ef0f, 2023-11-25)"
   inkscape:export-filename="spinner-16-12.png"
   inkscape:export-xdpi="96"
   inkscape:export-ydpi="96"
   xmlns:inkscape="http://www.inkscape.org/namespaces/inkscape"
   xmlns:sodipodi="http://sodipodi.sourceforge.net/DTD/sodipodi-0.dtd"
   xmlns="http://www.w3.org/2000/svg"
   xmlns:svg="http://www.w3.org/2000/svg"
   xmlns:rdf="http://www.w3.org/1999/02/22-rdf-syntax-ns#"
   xmlns:cc="http://creativecommons.org/ns#"
   xmlns:dc="http://purl.org/dc/elements/1.1/">
  <defs
     id="defs8" />
  <sodipodi:namedview
     id="namedview8"
     pagecolor="#ffffff"
     bordercolor="#cccccc"
     borderopacity="1"
     inkscape:showpageshadow="0"
     inkscape:pageopacity="1"
     inkscape:pagecheckerboard="0"
     inkscape:deskcolor="#d1d1d1"
     inkscape:document-units="px"
     inkscape:zoom="54.215385"
     inkscape:cx="8.0051078"
     inkscape:cy="7.9958853"
     inkscape:window-width="1920"
     inkscape:window-height="1056"
     inkscape:window-x="0"
     inkscape:window-y="24"
     inkscape:window-maximized="1"
     inkscape:current-layer="g8" />
  <g
     transform="scale(1,-1)"
     id="g8">
    <path
       id="path10"
       style="fill:#505050;fill-opacity:1;stroke:none;stroke-width:0.249514;stroke-dasharray:none"
       d="m 55.994626,49.933309 a 1.5001129,1.5006737 58.65104 0 1 -0.162345,-0.109488 8.000603,8.0035933 58.655619 0 1 -0.0034,-0.0019 8.000603,8.0035933 58.655619 0 1 -2.761616,-10.818224 8.000603,8.0035933 58.655619 0 1 10.932492,-2.930537 8.000603,8.0035933 58.655619 0 1 2.927409,10.929645 8.000603,8.0035933 58.655619 0 1 -2.834597,2.86905 1.5001129,1.5006737 58.65104 0 0 0.03139,-0.02702 1.5001129,1.5006737 58.65104 0 1 -0.127591,0.0843 1.5001129,1.5006737 58.65104 0 1 -9.72e-4,0.0017 1.5001129,1.5006737 58.65104 0 1 -1.498648,0.0014 1.5001129,1.5006737 58.65104 0 1 -0.548889,-2.04931 1.5001129,1.5006737 58.65104 0 1 0.559131,-0.534542 l -0.01034,-0.01729 a 5.0003768,5.0022459 58.656556 0 0 1.831819,-1.828101 5.0003768,5.0022459 58.656556 0 0 -1.829633,-6.831031 5.0003768,5.0022459 58.656556 0 0 -6.832806,1.831585 5.0003768,5.0022459 58.656556 0 0 1.82963,6.831032 1.5001129,1.5006737 58.65104 0 1 0.548887,2.049314 1.5001129,1.5006737 58.65104 0 1 -2.049848,0.549482 z m -0.356357,-0.289144 a 1.5001129,1.5006737 58.65104 0 1 -0.01397,-0.01479 1.5001129,1.5006737 58.65104 0 0 0.01397,0.01479 z M 55.276937,48.3325 a 1.5001129,1.5006737 58.65104 0 1 0.0047,-0.0199 1.5001129,1.5006737 58.65104 0 0 -0.0047,0.0199 z m 0.458121,-0.804893 a 1.5001129,1.5006737 58.65104 0 1 0.01489,-0.01403 1.5001129,1.5006737 58.65104 0 0 -0.01489,0.01403 z m 1.312015,-0.361701 a 1.5001129,1.5006737 58.65104 0 1 0.01992,0.0047 1.5001129,1.5006737 58.65104 0 0 -0.01992,-0.0047 z m 7.273441,2.510392 a 1.5001129,1.5006737 58.65104 0 0 0.05824,-0.06566 1.5001129,1.5006737 58.65104 0 1 -0.05824,0.06566 z m 0.390104,-0.722326 a 1.5001129,1.5006737 58.65104 0 0 0.0047,-0.01989 1.5001129,1.5006737 58.65104 0 1 -0.0047,0.01989 z M 62.980531,47.17267 a 1.5001129,1.5006737 58.65104 0 1 0.0213,-0.0057 1.5001129,1.5006737 58.65104 0 0 -0.0213,0.0057 z m 0.5109,-0.0097 a 1.5001129,1.5006737 58.65104 0 1 0.03728,0.0057 1.5001129,1.5006737 58.65104 0 0 -0.03728,-0.0057 z m 0.876539,0.474305 a 1.5001129,1.5006737 58.65104 0 0 -0.01397,-0.01479 1.5001129,1.5006737 58.65104 0 1 0.01397,0.01479 z" />
  </g>
  <metadata
     id="metadata8">
    <rdf:RDF>
      <cc:Work
         rdf:about="">
        <dc:creator>
          <cc:Agent>
            <dc:title>Matthias Seidel</dc:title>
          </cc:Agent>
        </dc:creator>
      </cc:Work>
    </rdf:RDF>
  </metadata>
</svg>
