<?xml version="1.0" encoding="UTF-8" standalone="no"?>
<svg
   width="16"
   height="16"
   viewBox="52 -51 16 16"
   version="1.1"
   style="fill:none;stroke-linecap:round;stroke-linejoin:round"
   id="svg8"
   sodipodi:docname="spinner-16-04.svg"
   inkscape:version="1.3.2 (091e20ef0f, 2023-11-25)"
   inkscape:export-filename="spinner-16-04.png"
   inkscape:export-xdpi="96"
   inkscape:export-ydpi="96"
   xmlns:inkscape="http://www.inkscape.org/namespaces/inkscape"
   xmlns:sodipodi="http://sodipodi.sourceforge.net/DTD/sodipodi-0.dtd"
   xmlns="http://www.w3.org/2000/svg"
   xmlns:svg="http://www.w3.org/2000/svg"
   xmlns:rdf="http://www.w3.org/1999/02/22-rdf-syntax-ns#"
   xmlns:cc="http://creativecommons.org/ns#"
   xmlns:dc="http://purl.org/dc/elements/1.1/">
  <defs
     id="defs8" />
  <sodipodi:namedview
     id="namedview8"
     pagecolor="#ffffff"
     bordercolor="#cccccc"
     borderopacity="1"
     inkscape:showpageshadow="0"
     inkscape:pageopacity="1"
     inkscape:pagecheckerboard="0"
     inkscape:deskcolor="#d1d1d1"
     inkscape:document-units="px"
     inkscape:zoom="54.215385"
     inkscape:cx="8.0051078"
     inkscape:cy="7.9958853"
     inkscape:window-width="1920"
     inkscape:window-height="1056"
     inkscape:window-x="0"
     inkscape:window-y="24"
     inkscape:window-maximized="1"
     inkscape:current-layer="g8" />
  <g
     transform="scale(1,-1)"
     id="g8">
    <path
       id="path10"
       style="fill:#505050;fill-opacity:1;stroke:none;stroke-width:0.249448;stroke-dasharray:none"
       d="m 67.999984,43.001122 a 1.5002023,1.4997981 44.970143 0 1 -0.01364,0.195312 8.0010791,7.9989237 44.975173 0 1 5.5e-5,0.0039 A 8.0010791,7.9989237 44.975173 0 1 60.001079,51 8.0010791,7.9989237 44.975173 0 1 52,42.998923 8.0010791,7.9989237 44.975173 0 1 59.998924,35 a 8.0010791,7.9989237 44.975173 0 1 3.90053,1.020055 1.5002023,1.4997981 44.970143 0 0 -0.03907,-0.01368 1.5002023,1.4997981 44.970143 0 1 0.136743,0.06835 1.5002023,1.4997981 44.970143 0 1 0.002,2e-6 1.5002023,1.4997981 44.970143 0 1 0.750183,1.296971 1.5002023,1.4997981 44.970143 0 1 -1.499798,1.4998 1.5002023,1.4997981 44.970143 0 1 -0.742219,-0.216899 l -0.0098,0.01758 a 5.0006745,4.9993273 44.975599 0 0 -2.49817,-0.672187 5.0006745,4.9993273 44.975599 0 0 -4.999328,4.999328 5.0006745,4.9993273 44.975599 0 0 5.000674,5.000674 A 5.0006745,4.9993273 44.975599 0 0 65,43.000666 1.5002023,1.4997981 44.970143 0 1 66.499797,41.500868 1.5002023,1.4997981 44.970143 0 1 68,43.001071 Z m -0.07221,0.453115 a 1.5002023,1.4997981 44.970143 0 1 -0.0058,0.01953 1.5002023,1.4997981 44.970143 0 0 0.0058,-0.01953 z m -0.954944,0.968622 a 1.5002023,1.4997981 44.970143 0 1 -0.01953,0.0059 1.5002023,1.4997981 44.970143 0 0 0.01953,-0.0059 z m -0.925782,0.0057 a 1.5002023,1.4997981 44.970143 0 1 -0.01952,-0.0059 1.5002023,1.4997981 44.970143 0 0 0.01952,0.0059 z m -0.968878,-0.95521 a 1.5002023,1.4997981 44.970143 0 1 -0.0059,-0.01954 1.5002023,1.4997981 44.970143 0 0 0.0059,0.01954 z m -1.461954,-7.552931 a 1.5002023,1.4997981 44.970143 0 0 -0.08593,-0.01759 1.5002023,1.4997981 44.970143 0 1 0.08593,0.01759 z m -0.820311,0.02333 a 1.5002023,1.4997981 44.970143 0 0 -0.01953,0.0059 1.5002023,1.4997981 44.970143 0 1 0.01953,-0.0059 z m -0.677413,2.38858 a 1.5002023,1.4997981 44.970143 0 1 -0.0156,-0.01563 1.5002023,1.4997981 44.970143 0 0 0.0156,0.01563 z M 61.854765,37.89479 a 1.5002023,1.4997981 44.970143 0 1 -0.0137,-0.03514 1.5002023,1.4997981 44.970143 0 0 0.0137,0.03514 z m -0.02748,-0.996096 a 1.5002023,1.4997981 44.970143 0 0 -0.0058,0.01953 1.5002023,1.4997981 44.970143 0 1 0.0058,-0.01953 z" />
  </g>
  <metadata
     id="metadata8">
    <rdf:RDF>
      <cc:Work
         rdf:about="">
        <dc:creator>
          <cc:Agent>
            <dc:title>Matthias Seidel</dc:title>
          </cc:Agent>
        </dc:creator>
      </cc:Work>
    </rdf:RDF>
  </metadata>
</svg>
