<?xml version="1.0" encoding="UTF-8" standalone="no"?>
<svg
   width="64"
   height="64"
   viewBox="28 -62 64 64"
   version="1.1"
   style="fill:none;stroke-linecap:round;stroke-linejoin:round"
   id="svg7"
   sodipodi:docname="spinner-64-12.svg"
   inkscape:version="1.3.2 (091e20ef0f, 2023-11-25)"
   inkscape:export-filename="spinner-64-12.png"
   inkscape:export-xdpi="96"
   inkscape:export-ydpi="96"
   xmlns:inkscape="http://www.inkscape.org/namespaces/inkscape"
   xmlns:sodipodi="http://sodipodi.sourceforge.net/DTD/sodipodi-0.dtd"
   xmlns="http://www.w3.org/2000/svg"
   xmlns:svg="http://www.w3.org/2000/svg"
   xmlns:rdf="http://www.w3.org/1999/02/22-rdf-syntax-ns#"
   xmlns:cc="http://creativecommons.org/ns#"
   xmlns:dc="http://purl.org/dc/elements/1.1/">
  <defs
     id="defs7" />
  <sodipodi:namedview
     id="namedview7"
     pagecolor="#ffffff"
     bordercolor="#cccccc"
     borderopacity="1"
     inkscape:showpageshadow="0"
     inkscape:pageopacity="1"
     inkscape:pagecheckerboard="0"
     inkscape:deskcolor="#d1d1d1"
     inkscape:document-units="px"
     inkscape:zoom="13.712062"
     inkscape:cx="32.015608"
     inkscape:cy="31.979144"
     inkscape:window-width="1920"
     inkscape:window-height="1056"
     inkscape:window-x="0"
     inkscape:window-y="24"
     inkscape:window-maximized="1"
     inkscape:current-layer="g7" />
  <g
     transform="scale(1,-1)"
     id="g7">
    <path
       id="path12"
       style="fill:#505050;fill-opacity:1;stroke:none;stroke-width:0.24951;stroke-dasharray:none"
       d="M 43.980207,57.732824 A 5.0004142,5.0021014 57.826619 0 1 43.414178,57.349736 32.002653,32.013449 57.824735 0 1 32.270238,14.013989 32.002653,32.013449 57.824735 0 1 75.999023,2.2924367 32.002653,32.013449 57.824735 0 1 87.708989,46.011271 a 32.002653,32.013449 57.824735 0 1 -11.4799,11.565583 32.002653,32.013449 57.824735 0 1 -0.243207,0.143907 32.002653,32.013449 57.824735 0 1 -0.04083,0.02382 5.0004142,5.0021014 57.826619 0 1 -4.955944,-0.01574 5.0004142,5.0021014 57.826619 0 1 -1.829684,-6.831069 5.0004142,5.0021014 57.826619 0 1 1.857967,-1.783584 l -0.03173,-0.05443 a 22.001823,22.009247 57.825497 0 0 8.06105,-8.048048 22.001823,22.009247 57.825497 0 0 -8.050603,-30.056698 22.001823,22.009247 57.825497 0 0 -30.06354,8.058568 22.001823,22.009247 57.825497 0 0 8.050602,30.056698 5.0004142,5.0021014 57.826619 0 1 1.829686,6.831069 5.0004142,5.0021014 57.826619 0 1 -6.832624,1.831494 z M 42.811651,56.78767 a 5.0004142,5.0021014 57.826619 0 1 -0.08678,-0.09972 5.0004142,5.0021014 57.826619 0 0 0.08678,0.09972 z m -0.86546,-1.298094 a 5.0004142,5.0021014 57.826619 0 1 -0.04438,-0.09108 5.0004142,5.0021014 57.826619 0 0 0.04438,0.09108 z m -0.428935,-1.526645 a 5.0004142,5.0021014 57.826619 0 1 -0.0071,-0.101059 5.0004142,5.0021014 57.826619 0 0 0.0071,0.101059 z m 0.06835,-1.528385 a 5.0004142,5.0021014 57.826619 0 1 0.02533,-0.129766 5.0004142,5.0021014 57.826619 0 0 -0.02533,0.129766 z m 1.510582,-2.701456 a 5.0004142,5.0021014 57.826619 0 1 0.09974,-0.08682 5.0004142,5.0021014 57.826619 0 0 -0.09974,0.08682 z m 1.298544,-0.865727 a 5.0004142,5.0021014 57.826619 0 1 0.0911,-0.04441 5.0004142,5.0021014 57.826619 0 0 -0.0911,0.04441 z m 1.526995,-0.429337 a 5.0004142,5.0021014 57.826619 0 1 0.101098,-0.0071 5.0004142,5.0021014 57.826619 0 0 -0.101098,0.0071 z m 1.528585,0.06788 a 5.0004142,5.0021014 57.826619 0 1 0.129769,0.02529 5.0004142,5.0021014 57.826619 0 0 -0.129769,-0.02529 z m 30.911002,5.988361 a 5.0004142,5.0021014 57.826619 0 0 0.02533,-0.129767 5.0004142,5.0021014 57.826619 0 1 -0.02533,0.129767 z m 0.10071,-1.557081 a 5.0004142,5.0021014 57.826619 0 0 -0.007,-0.101069 5.0004142,5.0021014 57.826619 0 1 0.007,0.101069 z M 72.5807,48.532063 a 5.0004142,5.0021014 57.826619 0 1 0.100179,-0.02113 5.0004142,5.0021014 57.826619 0 0 -0.100179,0.02113 z m 5.489758,2.868464 a 5.0004142,5.0021014 57.826619 0 0 -0.04437,-0.09107 5.0004142,5.0021014 57.826619 0 1 0.04437,0.09107 z M 74.31866,48.495195 a 5.0004142,5.0021014 57.826619 0 1 0.09516,0.01883 5.0004142,5.0021014 57.826619 0 0 -0.09516,-0.01883 z m 2.928704,1.615899 a 5.0004142,5.0021014 57.826619 0 0 -0.08677,-0.09973 5.0004142,5.0021014 57.826619 0 1 0.08677,0.09973 z" />
  </g>
  <metadata
     id="metadata7">
    <rdf:RDF>
      <cc:Work
         rdf:about="">
        <dc:creator>
          <cc:Agent>
            <dc:title>Matthias Seidel</dc:title>
          </cc:Agent>
        </dc:creator>
      </cc:Work>
    </rdf:RDF>
  </metadata>
</svg>
