<?xml version="1.0" encoding="UTF-8" standalone="no"?>
<!-- 2024-07-26 20:55:02 Generated by QCAD 3.29.4 SVG Exporter -->

<svg
   width="16"
   height="16"
   viewBox="52 -51 16 16"
   version="1.1"
   style="fill:none;stroke-linecap:round;stroke-linejoin:round"
   id="svg8"
   sodipodi:docname="spinner-16-05.svg"
   inkscape:version="1.3.2 (091e20ef0f, 2023-11-25)"
   inkscape:export-filename="spinner-16-05.png"
   inkscape:export-xdpi="96"
   inkscape:export-ydpi="96"
   xmlns:inkscape="http://www.inkscape.org/namespaces/inkscape"
   xmlns:sodipodi="http://sodipodi.sourceforge.net/DTD/sodipodi-0.dtd"
   xmlns="http://www.w3.org/2000/svg"
   xmlns:svg="http://www.w3.org/2000/svg"
   xmlns:rdf="http://www.w3.org/1999/02/22-rdf-syntax-ns#"
   xmlns:cc="http://creativecommons.org/ns#"
   xmlns:dc="http://purl.org/dc/elements/1.1/">
  <defs
     id="defs8" />
  <sodipodi:namedview
     id="namedview8"
     pagecolor="#ffffff"
     bordercolor="#cccccc"
     borderopacity="1"
     inkscape:showpageshadow="0"
     inkscape:pageopacity="1"
     inkscape:pagecheckerboard="0"
     inkscape:deskcolor="#d1d1d1"
     inkscape:document-units="px"
     inkscape:zoom="54.215385"
     inkscape:cx="8.0051078"
     inkscape:cy="7.9958853"
     inkscape:window-width="1920"
     inkscape:window-height="1056"
     inkscape:window-x="0"
     inkscape:window-y="24"
     inkscape:window-maximized="1"
     inkscape:current-layer="g8" />
  <g
     transform="scale(1,-1)"
     id="g8">
    <!-- Linie -->
    <!-- Linie -->
    <!-- Linie -->
    <!-- Linie -->
    <!-- Kreis -->
    <path
       id="path10"
       style="fill:#505050;fill-opacity:1;stroke:none;stroke-width:0.249539;stroke-dasharray:none"
       d="m 66.936951,38.99904 a 1.5009195,1.5001766 7.8817461 0 1 0.08588,0.176007 8.0049042,8.0009428 7.8839796 0 1 0.002,0.0033 8.0049042,8.0009428 7.8839796 0 1 -3.017125,10.749989 8.0049042,8.0009428 7.8839796 0 1 -10.934996,-2.929311 8.0049042,8.0009428 7.8839796 0 1 2.929235,-10.929395 8.0049042,8.0009428 7.8839796 0 1 3.889878,-1.067132 1.5009195,1.5001766 7.8817461 0 0 -0.0407,0.0077 1.5009195,1.5001766 7.8817461 0 1 0.152672,-0.0092 1.5009195,1.5001766 7.8817461 0 1 0.0017,-9.98e-4 1.5009195,1.5001766 7.8817461 0 1 1.298795,0.7483 1.5009195,1.5001766 7.8817461 0 1 -0.549231,2.049264 1.5009195,1.5001766 7.8817461 0 1 -0.751595,0.183314 l 3.03e-4,0.02014 a 5.0030651,5.0005892 7.884445 0 0 -2.500789,0.667117 5.0030651,5.0005892 7.884445 0 0 -1.830771,6.830874 5.0030651,5.0005892 7.884445 0 0 6.834372,1.830819 5.0030651,5.0005892 7.884445 0 0 1.830774,-6.830875 1.5009195,1.5001766 7.8817461 0 1 0.54923,-2.049261 1.5009195,1.5001766 7.8817461 0 1 2.050314,0.549246 z m 0.164102,0.428618 a 1.5009195,1.5001766 7.8817461 0 1 0.0047,0.01982 1.5009195,1.5001766 7.8817461 0 0 -0.0047,-0.01982 z m -0.342862,1.316644 a 1.5009195,1.5001766 7.8817461 0 1 -0.01397,0.01487 1.5009195,1.5001766 7.8817461 0 0 0.01397,-0.01487 z m -0.799289,0.467941 a 1.5009195,1.5001766 7.8817461 0 1 -0.01987,0.0047 1.5009195,1.5001766 7.8817461 0 0 0.01987,-0.0047 z m -1.317319,-0.342881 a 1.5009195,1.5001766 7.8817461 0 1 -0.01489,-0.01397 1.5009195,1.5001766 7.8817461 0 0 0.01489,0.01397 z m -5.045009,-5.811469 a 1.5009195,1.5001766 7.8817461 0 0 -0.08325,0.02774 1.5009195,1.5001766 7.8817461 0 1 0.08325,-0.02774 z m -0.699085,0.430465 a 1.5009195,1.5001766 7.8817461 0 0 -0.01397,0.01487 1.5009195,1.5001766 7.8817461 0 1 0.01397,-0.01487 z m 0.607928,2.407864 a 1.5009195,1.5001766 7.8817461 0 1 -0.02134,-0.0057 1.5009195,1.5001766 7.8817461 0 0 0.02134,0.0057 z m -0.44738,-0.247115 a 1.5009195,1.5001766 7.8817461 0 1 -0.02944,-0.02359 1.5009195,1.5001766 7.8817461 0 0 0.02944,0.02359 z m -0.522101,-0.849112 a 1.5009195,1.5001766 7.8817461 0 0 0.0047,0.01981 1.5009195,1.5001766 7.8817461 0 1 -0.0047,-0.01981 z" />
    <!-- Linie -->
    <!-- Linie -->
    <!-- Kreis -->
    <!-- Kreis -->
    <!-- Kreis -->
  </g>
  <metadata
     id="metadata8">
    <rdf:RDF>
      <cc:Work
         rdf:about="">
        <dc:creator>
          <cc:Agent>
            <dc:title>Matthias Seidel</dc:title>
          </cc:Agent>
        </dc:creator>
      </cc:Work>
    </rdf:RDF>
  </metadata>
</svg>
