<?xml version="1.0" encoding="UTF-8" standalone="no"?>
<svg
   width="64"
   height="64"
   viewBox="28 -62 64 64"
   version="1.1"
   style="fill:none;stroke-linecap:round;stroke-linejoin:round"
   id="svg7"
   sodipodi:docname="spinner-64-01.svg"
   inkscape:version="1.3.2 (091e20ef0f, 2023-11-25)"
   inkscape:export-filename="spinner-64-01.png"
   inkscape:export-xdpi="96"
   inkscape:export-ydpi="96"
   xmlns:inkscape="http://www.inkscape.org/namespaces/inkscape"
   xmlns:sodipodi="http://sodipodi.sourceforge.net/DTD/sodipodi-0.dtd"
   xmlns="http://www.w3.org/2000/svg"
   xmlns:svg="http://www.w3.org/2000/svg"
   xmlns:rdf="http://www.w3.org/1999/02/22-rdf-syntax-ns#"
   xmlns:cc="http://creativecommons.org/ns#"
   xmlns:dc="http://purl.org/dc/elements/1.1/">
  <defs
     id="defs7" />
  <sodipodi:namedview
     id="namedview7"
     pagecolor="#ffffff"
     bordercolor="#cccccc"
     borderopacity="1"
     inkscape:showpageshadow="0"
     inkscape:pageopacity="1"
     inkscape:pagecheckerboard="0"
     inkscape:deskcolor="#d1d1d1"
     inkscape:document-units="px"
     inkscape:zoom="13.712062"
     inkscape:cx="32.015608"
     inkscape:cy="31.979144"
     inkscape:window-width="1920"
     inkscape:window-height="1056"
     inkscape:window-x="0"
     inkscape:window-y="24"
     inkscape:window-maximized="1"
     inkscape:current-layer="g7" />
  <g
     transform="scale(1,-1)"
     id="g7">
    <path
       id="path12"
       style="stroke:none;stroke-width:0.24944882;fill:#505050;fill-opacity:1;stroke-dasharray:none"
       d="M 60 62 A 5 5 0 0 1 59.318359 61.951172 A 32 32 0 0 1 28 30 A 32 32 0 0 1 60 -2 A 32 32 0 0 1 92 30 A 32 32 0 0 1 87.84375 45.75 A 32 32 0 0 1 87.705078 45.996094 A 32 32 0 0 1 87.681641 46.037109 A 5 5 0 0 1 83.382812 48.5 A 5 5 0 0 1 78.382812 43.5 A 5 5 0 0 1 79.099609 41.027344 L 79.044922 40.996094 A 22 22 0 0 0 82 30 A 22 22 0 0 0 60 8 A 22 22 0 0 0 38 30 A 22 22 0 0 0 60 52 A 5 5 0 0 1 65 57 A 5 5 0 0 1 60 62 z M 58.515625 61.765625 A 5 5 0 0 1 58.390625 61.722656 A 5 5 0 0 0 58.515625 61.765625 z M 57.117188 61.074219 A 5 5 0 0 1 57.033203 61.017578 A 5 5 0 0 0 57.117188 61.074219 z M 55.982422 59.966797 A 5 5 0 0 1 55.925781 59.882812 A 5 5 0 0 0 55.982422 59.966797 z M 55.277344 58.609375 A 5 5 0 0 1 55.234375 58.484375 A 5 5 0 0 0 55.277344 58.609375 z M 55.234375 55.515625 A 5 5 0 0 1 55.277344 55.390625 A 5 5 0 0 0 55.234375 55.515625 z M 55.925781 54.117188 A 5 5 0 0 1 55.982422 54.033203 A 5 5 0 0 0 55.925781 54.117188 z M 57.033203 52.982422 A 5 5 0 0 1 57.117188 52.925781 A 5 5 0 0 0 57.033203 52.982422 z M 58.390625 52.277344 A 5 5 0 0 1 58.515625 52.234375 A 5 5 0 0 0 58.390625 52.277344 z M 88.148438 42.015625 A 5 5 0 0 0 88.105469 41.890625 A 5 5 0 0 1 88.148438 42.015625 z M 87.457031 40.617188 A 5 5 0 0 0 87.400391 40.533203 A 5 5 0 0 1 87.457031 40.617188 z M 80.162109 39.742188 A 5 5 0 0 1 80.238281 39.673828 A 5 5 0 0 0 80.162109 39.742188 z M 86.349609 39.482422 A 5 5 0 0 0 86.265625 39.425781 A 5 5 0 0 1 86.349609 39.482422 z M 81.648438 38.841797 A 5 5 0 0 1 81.740234 38.810547 A 5 5 0 0 0 81.648438 38.841797 z M 84.992188 38.777344 A 5 5 0 0 0 84.867188 38.734375 A 5 5 0 0 1 84.992188 38.777344 z " />
  </g>
  <metadata
     id="metadata7">
    <rdf:RDF>
      <cc:Work
         rdf:about="">
        <dc:creator>
          <cc:Agent>
            <dc:title>Matthias Seidel</dc:title>
          </cc:Agent>
        </dc:creator>
      </cc:Work>
    </rdf:RDF>
  </metadata>
</svg>
