<?xml version="1.0" encoding="UTF-8" standalone="no"?>
<svg
   width="32"
   height="32"
   viewBox="44 -56 32 31.999999"
   version="1.1"
   style="fill:none;stroke-linecap:round;stroke-linejoin:round"
   id="svg7"
   sodipodi:docname="spinner-32-03.svg"
   inkscape:version="1.3.2 (091e20ef0f, 2023-11-25)"
   inkscape:export-filename="spinner-32-03.png"
   inkscape:export-xdpi="96"
   inkscape:export-ydpi="96"
   xmlns:inkscape="http://www.inkscape.org/namespaces/inkscape"
   xmlns:sodipodi="http://sodipodi.sourceforge.net/DTD/sodipodi-0.dtd"
   xmlns="http://www.w3.org/2000/svg"
   xmlns:svg="http://www.w3.org/2000/svg"
   xmlns:rdf="http://www.w3.org/1999/02/22-rdf-syntax-ns#"
   xmlns:cc="http://creativecommons.org/ns#"
   xmlns:dc="http://purl.org/dc/elements/1.1/">
  <defs
     id="defs7" />
  <sodipodi:namedview
     id="namedview7"
     pagecolor="#ffffff"
     bordercolor="#cccccc"
     borderopacity="1"
     inkscape:showpageshadow="0"
     inkscape:pageopacity="1"
     inkscape:pagecheckerboard="0"
     inkscape:deskcolor="#d1d1d1"
     inkscape:document-units="px"
     inkscape:zoom="27.317829"
     inkscape:cx="15.996879"
     inkscape:cy="16.015182"
     inkscape:window-width="1920"
     inkscape:window-height="1056"
     inkscape:window-x="0"
     inkscape:window-y="24"
     inkscape:window-maximized="1"
     inkscape:current-layer="g7" />
  <g
     transform="scale(1,-1)"
     id="g7">
    <path
       id="path12"
       style="fill:#505050;fill-opacity:1;stroke:none;stroke-width:0.249514;stroke-dasharray:none"
       d="m 73.864278,48.010016 a 2.5011358,2.5001728 52.219359 0 1 -0.190208,0.282647 16.007269,16.001106 52.219159 0 1 -21.669776,5.571497 16.007269,16.001106 52.219159 0 1 -5.861735,-21.864267 16.007269,16.001106 52.219159 0 1 21.859983,-5.854144 16.007269,16.001106 52.219159 0 1 5.796923,5.759271 16.007269,16.001106 52.219159 0 1 0.05869,0.101567 l -9.84e-4,0.0017 a 2.5011358,2.5001728 52.219359 0 1 0.0046,2.497501 2.5011358,2.5001728 52.219359 0 1 -3.415623,0.91471 2.5011358,2.5001728 52.219359 0 1 -0.892343,-0.928155 l -0.02623,0.01418 a 11.004997,11.00076 52.218706 0 0 -4.024772,-4.029765 11.004997,11.00076 52.218706 0 0 -15.028739,4.024725 11.004997,11.00076 52.218706 0 0 4.029942,15.031682 11.004997,11.00076 52.218706 0 0 15.028739,-4.024723 2.5011358,2.5001728 52.219359 0 1 3.415624,-0.914709 2.5011358,2.5001728 52.219359 0 1 0.915895,3.416291 z m -0.475243,0.584967 a 2.5011358,2.5001728 52.219359 0 1 -0.04622,0.04099 2.5011358,2.5001728 52.219359 0 0 0.04622,-0.04099 z m -0.642742,0.42958 a 2.5011358,2.5001728 52.219359 0 1 -0.0505,0.025 2.5011358,2.5001728 52.219359 0 0 0.0505,-0.025 z m -0.765652,0.216485 a 2.5011358,2.5001728 52.219359 0 1 -0.05623,0.0036 2.5011358,2.5001728 52.219359 0 0 0.05623,-0.0036 z m -0.767248,-0.03483 a 2.5011358,2.5001728 52.219359 0 1 -0.06052,-0.0124 2.5011358,2.5001728 52.219359 0 0 0.06052,0.0124 z M 69.863565,48.44921 a 2.5011358,2.5001728 52.219359 0 1 -0.04099,-0.04623 2.5011358,2.5001728 52.219359 0 0 0.04099,0.04623 z m -0.429771,-0.642969 a 2.5011358,2.5001728 52.219359 0 1 -0.02501,-0.0505 2.5011358,2.5001728 52.219359 0 0 0.02501,0.0505 z m -0.21675,-0.765806 a 2.5011358,2.5001728 52.219359 0 1 -0.0036,-0.05623 2.5011358,2.5001728 52.219359 0 0 0.0036,0.05623 z m 0.03453,-0.767308 a 2.5011358,2.5001728 52.219359 0 1 0.01238,-0.06052 2.5011358,2.5001728 52.219359 0 0 -0.01238,0.06052 z m 2.990105,-15.45275 a 2.5011358,2.5001728 52.219359 0 0 -0.06052,-0.0124 2.5011358,2.5001728 52.219359 0 1 0.06052,0.0124 z m -0.771538,-0.05083 a 2.5011358,2.5001728 52.219359 0 0 -0.05623,0.0036 2.5011358,2.5001728 52.219359 0 1 0.05623,-0.0036 z m -2.207388,2.941127 a 2.5011358,2.5001728 52.219359 0 1 -0.01,-0.05311 2.5011358,2.5001728 52.219359 0 0 0.01,0.05311 z m 1.43601,-2.745992 a 2.5011358,2.5001728 52.219359 0 0 -0.0505,0.025 2.5011358,2.5001728 52.219359 0 1 0.0505,-0.025 z m -1.454832,1.875689 a 2.5011358,2.5001728 52.219359 0 1 0.0096,-0.04406 2.5011358,2.5001728 52.219359 0 0 -0.0096,0.04406 z m 0.807797,-1.462123 a 2.5011358,2.5001728 52.219359 0 0 -0.04622,0.04098 2.5011358,2.5001728 52.219359 0 1 0.04622,-0.04098 z" />
  </g>
  <metadata
     id="metadata7">
    <rdf:RDF>
      <cc:Work
         rdf:about="">
        <dc:creator>
          <cc:Agent>
            <dc:title>Matthias Seidel</dc:title>
          </cc:Agent>
        </dc:creator>
      </cc:Work>
    </rdf:RDF>
  </metadata>
</svg>
