<?xml version="1.0" encoding="UTF-8" standalone="no"?>
<svg
   width="32"
   height="32"
   viewBox="44 -56 32 31.999999"
   version="1.1"
   style="fill:none;stroke-linecap:round;stroke-linejoin:round"
   id="svg7"
   sodipodi:docname="spinner-32-05.svg"
   inkscape:version="1.3.2 (091e20ef0f, 2023-11-25)"
   inkscape:export-filename="spinner-32-05.png"
   inkscape:export-xdpi="96"
   inkscape:export-ydpi="96"
   xmlns:inkscape="http://www.inkscape.org/namespaces/inkscape"
   xmlns:sodipodi="http://sodipodi.sourceforge.net/DTD/sodipodi-0.dtd"
   xmlns="http://www.w3.org/2000/svg"
   xmlns:svg="http://www.w3.org/2000/svg"
   xmlns:rdf="http://www.w3.org/1999/02/22-rdf-syntax-ns#"
   xmlns:cc="http://creativecommons.org/ns#"
   xmlns:dc="http://purl.org/dc/elements/1.1/">
  <defs
     id="defs7" />
  <sodipodi:namedview
     id="namedview7"
     pagecolor="#ffffff"
     bordercolor="#cccccc"
     borderopacity="1"
     inkscape:showpageshadow="0"
     inkscape:pageopacity="1"
     inkscape:pagecheckerboard="0"
     inkscape:deskcolor="#d1d1d1"
     inkscape:document-units="px"
     inkscape:zoom="27.317829"
     inkscape:cx="15.996879"
     inkscape:cy="16.015182"
     inkscape:window-width="1920"
     inkscape:window-height="1056"
     inkscape:window-x="0"
     inkscape:window-y="24"
     inkscape:window-maximized="1"
     inkscape:current-layer="g7" />
  <g
     transform="scale(1,-1)"
     id="g7">
    <path
       id="path12"
       style="fill:#505050;fill-opacity:1;stroke:none;stroke-width:0.249529;stroke-dasharray:none"
       d="m 73.871891,31.998396 a 2.5013677,2.5002388 8.686816 0 1 0.149726,0.306074 16.008754,16.001529 8.6863045 0 1 -6.007801,21.552248 16.008754,16.001529 8.6863045 0 1 -21.868534,-5.858498 16.008754,16.001529 8.6863045 0 1 5.858076,-21.858323 16.008754,16.001529 8.6863045 0 1 7.886588,-2.139771 16.008754,16.001529 8.6863045 0 1 0.117312,-3.6e-5 l 9.99e-4,0.0017 a 2.5013677,2.5002388 8.686816 0 1 2.165541,1.245062 2.5013677,2.5002388 8.686816 0 1 -0.915325,3.415364 2.5013677,2.5002388 8.686816 0 1 -1.250052,0.308574 l -8.29e-4,0.02982 a 11.006019,11.001051 8.6875546 0 0 -5.502597,1.47003 11.006019,11.001051 8.6875546 0 0 -4.027427,15.027597 11.006019,11.001051 8.6875546 0 0 15.034616,4.027719 11.006019,11.001051 8.6875546 0 0 4.027427,-15.027597 2.5013677,2.5002388 8.686816 0 1 0.915327,-3.415364 2.5013677,2.5002388 8.686816 0 1 3.416956,0.91539 z m 0.269082,0.704109 a 2.5013677,2.5002388 8.686816 0 1 0.01239,0.06052 2.5013677,2.5002388 8.686816 0 0 -0.01239,-0.06052 z m 0.05075,0.77145 a 2.5013677,2.5002388 8.686816 0 1 -0.0036,0.05623 2.5013677,2.5002388 8.686816 0 0 0.0036,-0.05623 z m -0.195271,0.771316 a 2.5013677,2.5002388 8.686816 0 1 -0.02499,0.0505 2.5013677,2.5002388 8.686816 0 0 0.02499,-0.0505 z m -0.413747,0.647012 a 2.5013677,2.5002388 8.686816 0 1 -0.041,0.04621 2.5013677,2.5002388 8.686816 0 0 0.041,-0.04621 z m -1.330524,0.790352 a 2.5013677,2.5002388 8.686816 0 1 -0.06054,0.01237 2.5013677,2.5002388 8.686816 0 0 0.06054,-0.01237 z m -0.771776,0.05062 a 2.5013677,2.5002388 8.686816 0 1 -0.05624,-0.0036 2.5013677,2.5002388 8.686816 0 0 0.05624,0.0036 z m -0.771677,-0.195293 a 2.5013677,2.5002388 8.686816 0 1 -0.0505,-0.02501 2.5013677,2.5002388 8.686816 0 0 0.0505,0.02501 z m -0.64735,-0.413647 a 2.5013677,2.5002388 8.686816 0 1 -0.04623,-0.04099 2.5013677,2.5002388 8.686816 0 0 0.04623,0.04099 z M 58.171667,24.806709 a 2.5013677,2.5002388 8.686816 0 0 -0.041,0.04621 2.5013677,2.5002388 8.686816 0 1 0.041,-0.04621 z m -0.429751,0.642723 a 2.5013677,2.5002388 8.686816 0 0 -0.02499,0.0505 2.5013677,2.5002388 8.686816 0 1 0.02499,-0.0505 z m 1.443928,3.382491 a 2.5013677,2.5002388 8.686816 0 1 -0.051,-0.0179 2.5013677,2.5002388 8.686816 0 0 0.051,0.0179 z M 57.52529,26.215031 a 2.5013677,2.5002388 8.686816 0 0 -0.0036,0.05623 2.5013677,2.5002388 8.686816 0 1 0.0036,-0.05623 z m 0.897321,2.197939 a 2.5013677,2.5002388 8.686816 0 1 -0.03337,-0.03035 2.5013677,2.5002388 8.686816 0 0 0.03337,0.03035 z m -0.862588,-1.430779 a 2.5013677,2.5002388 8.686816 0 0 0.01239,0.06052 2.5013677,2.5002388 8.686816 0 1 -0.01239,-0.06052 z" />
  </g>
  <metadata
     id="metadata7">
    <rdf:RDF>
      <cc:Work
         rdf:about="">
        <dc:creator>
          <cc:Agent>
            <dc:title>Matthias Seidel</dc:title>
          </cc:Agent>
        </dc:creator>
      </cc:Work>
    </rdf:RDF>
  </metadata>
</svg>
