<?xml version="1.0" encoding="UTF-8" standalone="no"?>
<svg
   width="64"
   height="64"
   viewBox="28 -62 64 64"
   version="1.1"
   style="fill:none;stroke-linecap:round;stroke-linejoin:round"
   id="svg7"
   sodipodi:docname="spinner-64-04.svg"
   inkscape:version="1.3.2 (091e20ef0f, 2023-11-25)"
   inkscape:export-filename="spinner-64-04.png"
   inkscape:export-xdpi="96"
   inkscape:export-ydpi="96"
   xmlns:inkscape="http://www.inkscape.org/namespaces/inkscape"
   xmlns:sodipodi="http://sodipodi.sourceforge.net/DTD/sodipodi-0.dtd"
   xmlns="http://www.w3.org/2000/svg"
   xmlns:svg="http://www.w3.org/2000/svg"
   xmlns:rdf="http://www.w3.org/1999/02/22-rdf-syntax-ns#"
   xmlns:cc="http://creativecommons.org/ns#"
   xmlns:dc="http://purl.org/dc/elements/1.1/">
  <defs
     id="defs7" />
  <sodipodi:namedview
     id="namedview7"
     pagecolor="#ffffff"
     bordercolor="#cccccc"
     borderopacity="1"
     inkscape:showpageshadow="0"
     inkscape:pageopacity="1"
     inkscape:pagecheckerboard="0"
     inkscape:deskcolor="#d1d1d1"
     inkscape:document-units="px"
     inkscape:zoom="13.712062"
     inkscape:cx="32.015608"
     inkscape:cy="31.979144"
     inkscape:window-width="1920"
     inkscape:window-height="1056"
     inkscape:window-x="0"
     inkscape:window-y="24"
     inkscape:window-maximized="1"
     inkscape:current-layer="g7" />
  <g
     transform="scale(1,-1)"
     id="g7">
    <path
       id="path12"
       style="fill:#505050;fill-opacity:1;stroke:none;stroke-width:0.249448;stroke-dasharray:none"
       d="M 91.999997,30.004173 A 5.0006519,4.9993479 45.002398 0 1 91.951257,30.685806 32.004172,31.995827 45.003171 0 1 60.004172,62 32.004172,31.995827 45.003171 0 1 28,29.995826 32.004172,31.995827 45.003171 0 1 59.995826,-1.9999997 a 32.004172,31.995827 45.003171 0 1 15.750541,4.1583033 32.004172,31.995827 45.003171 0 1 0.246135,0.1386641 32.004172,31.995827 45.003171 0 1 0.04102,0.023447 5.0006519,4.9993479 45.002398 0 1 2.463448,4.2991511 5.0006519,4.9993479 45.002398 0 1 -4.999347,4.9993482 5.0006519,4.9993479 45.002398 0 1 -2.472749,-0.717121 l -0.03125,0.05469 A 22.002869,21.997131 45.001512 0 0 59.997132,8.0000061 22.002869,21.997131 45.001512 0 0 38.000002,29.997137 22.002869,21.997131 45.001512 0 0 60.00287,52.000005 22.002869,21.997131 45.001512 0 0 82,30.002876 5.0006519,4.9993479 45.002398 0 1 86.999348,25.003528 5.0006519,4.9993479 45.002398 0 1 92,30.004178 Z m -0.23418,1.484345 a 5.0006519,4.9993479 45.002398 0 1 -0.04295,0.124996 5.0006519,4.9993479 45.002398 0 0 0.04295,-0.124996 z m -0.691226,1.398346 a 5.0006519,4.9993479 45.002398 0 1 -0.05667,0.08396 5.0006519,4.9993479 45.002398 0 0 0.05667,-0.08396 z m -1.107273,1.134622 a 5.0006519,4.9993479 45.002398 0 1 -0.08394,0.05668 5.0006519,4.9993479 45.002398 0 0 0.08394,-0.05668 z M 88.60999,34.72639 a 5.0006519,4.9993479 45.002398 0 1 -0.124996,0.04294 5.0006519,4.9993479 45.002398 0 0 0.124996,-0.04294 z m -3.093746,0.04256 a 5.0006519,4.9993479 45.002398 0 1 -0.125011,-0.04299 5.0006519,4.9993479 45.002398 0 0 0.125011,0.04299 z m -1.398526,-0.69159 a 5.0006519,4.9993479 45.002398 0 1 -0.08398,-0.05669 5.0006519,4.9993479 45.002398 0 0 0.08398,0.05669 z m -1.134911,-1.107569 a 5.0006519,4.9993479 45.002398 0 1 -0.05668,-0.08399 5.0006519,4.9993479 45.002398 0 0 0.05668,0.08399 z m -0.705252,-1.357515 a 5.0006519,4.9993479 45.002398 0 1 -0.04298,-0.125007 5.0006519,4.9993479 45.002398 0 0 0.04298,0.125007 z M 72.011956,1.8531294 a 5.0006519,4.9993479 45.002398 0 0 -0.124996,0.042943 5.0006519,4.9993479 45.002398 0 1 0.124996,-0.042943 z m -1.398347,0.6912248 a 5.0006519,4.9993479 45.002398 0 0 -0.084,0.056587 5.0006519,4.9993479 45.002398 0 1 0.084,-0.056587 z M 69.73956,9.8391603 a 5.0006519,4.9993479 45.002398 0 1 -0.06837,-0.076178 5.0006519,4.9993479 45.002398 0 0 0.06837,0.076178 z M 69.478988,3.6516275 a 5.0006519,4.9993479 45.002398 0 0 -0.05667,0.083953 5.0006519,4.9993479 45.002398 0 1 0.05667,-0.083953 z m -0.640012,4.701087 a 5.0006519,4.9993479 45.002398 0 1 -0.03127,-0.091799 5.0006519,4.9993479 45.002398 0 0 0.03127,0.091799 z m -0.06489,-3.3437577 a 5.0006519,4.9993479 45.002398 0 0 -0.04295,0.124996 5.0006519,4.9993479 45.002398 0 1 0.04295,-0.124996 z" />
  </g>
  <metadata
     id="metadata7">
    <rdf:RDF>
      <cc:Work
         rdf:about="">
        <dc:creator>
          <cc:Agent>
            <dc:title>Matthias Seidel</dc:title>
          </cc:Agent>
        </dc:creator>
      </cc:Work>
    </rdf:RDF>
  </metadata>
</svg>
