<?xml version="1.0" encoding="UTF-8" standalone="no"?>
<svg
   width="64"
   height="64"
   viewBox="9.8778 -21.8722 22.827793 22.827793"
   version="1.1"
   style="fill:none;stroke-linecap:round;stroke-linejoin:round"
   id="svg4"
   sodipodi:docname="spinner-64-12.svg"
   inkscape:version="1.3.2 (091e20ef0f, 2023-11-25)"
   inkscape:export-filename="spinner-64-12.png"
   inkscape:export-xdpi="96"
   inkscape:export-ydpi="96"
   xmlns:inkscape="http://www.inkscape.org/namespaces/inkscape"
   xmlns:sodipodi="http://sodipodi.sourceforge.net/DTD/sodipodi-0.dtd"
   xmlns="http://www.w3.org/2000/svg"
   xmlns:svg="http://www.w3.org/2000/svg"
   xmlns:rdf="http://www.w3.org/1999/02/22-rdf-syntax-ns#"
   xmlns:cc="http://creativecommons.org/ns#"
   xmlns:dc="http://purl.org/dc/elements/1.1/">
  <defs
     id="defs4" />
  <sodipodi:namedview
     id="namedview4"
     pagecolor="#ffffff"
     bordercolor="#cccccc"
     borderopacity="1"
     inkscape:showpageshadow="0"
     inkscape:pageopacity="1"
     inkscape:pagecheckerboard="0"
     inkscape:deskcolor="#d1d1d1"
     inkscape:document-units="px"
     inkscape:zoom="11.911385"
     inkscape:cx="31.650392"
     inkscape:cy="31.692368"
     inkscape:window-width="1920"
     inkscape:window-height="1056"
     inkscape:window-x="0"
     inkscape:window-y="24"
     inkscape:window-maximized="1"
     inkscape:current-layer="svg4" />
  <path
     id="path9"
     style="fill:#505050;fill-opacity:1;stroke:none;stroke-width:0.36071;stroke-dasharray:none"
     d="m 15.578892,-20.346274 a 1.7839501,1.7836152 8.3463956 0 0 -0.200477,0.136056 11.417291,11.415148 8.336691 0 0 -3.978213,15.4576851 11.417291,11.415148 8.336691 0 0 15.596773,4.17878323 11.417291,11.415148 8.336691 0 0 4.178694,-15.59374233 11.417291,11.415148 8.336691 0 0 -9.645675,-5.687713 1.7839501,1.7836152 8.3463956 0 0 -0.125883,-0.0095 11.417291,11.415148 8.336691 0 0 -0.101149,-0.0075 1.7839501,1.7836152 8.3463956 0 1 0.0084,0.0017 1.7839501,1.7836152 8.3463956 0 0 -0.02378,-0.0017 11.417291,11.415148 8.336691 0 0 -0.09716,7.84e-4 1.7839501,1.7836152 8.3463956 0 0 -0.794915,0.235152 1.7839501,1.7836152 8.3463956 0 0 -0.652914,2.436493 1.7839501,1.7836152 8.3463956 0 0 1.545155,0.872432 l -1.15e-4,0.01959 a 7.84938,7.8479061 8.3535581 0 1 6.798235,3.92387 7.84938,7.8479061 8.3535581 0 1 -2.872866,10.7207564 7.84938,7.8479061 8.3535581 0 1 -10.722842,-2.8729293 7.84938,7.8479061 8.3535581 0 1 2.872868,-10.7207591 1.7839501,1.7836152 8.3463956 0 0 0.652913,-2.43649 1.7839501,1.7836152 8.3463956 0 0 -2.436966,-0.652927 z m -0.416917,0.337463 a 1.7839501,1.7836152 8.3463956 0 0 -0.03128,0.03599 1.7839501,1.7836152 8.3463956 0 1 0.03128,-0.03599 z m -0.310949,0.467436 a 1.7839501,1.7836152 8.3463956 0 0 -0.01239,0.02504 1.7839501,1.7836152 8.3463956 0 1 0.01239,-0.02504 z m -0.150949,0.540218 a 1.7839501,1.7836152 8.3463956 0 0 -0.0023,0.0355 1.7839501,1.7836152 8.3463956 0 1 0.0023,-0.0355 z m 0.0249,0.546077 a 1.7839501,1.7836152 8.3463956 0 0 0.0083,0.044 1.7839501,1.7836152 8.3463956 0 1 -0.0083,-0.044 z m 7.160131,-3.31065 a 1.7839501,1.7836152 8.3463956 0 1 0.03507,0.01148 1.7839501,1.7836152 8.3463956 0 0 -0.03507,-0.01148 z m -6.621238,4.273426 a 1.7839501,1.7836152 8.3463956 0 0 0.03396,0.02919 1.7839501,1.7836152 8.3463956 0 1 -0.03396,-0.02919 z m 7.160069,-3.968681 a 1.7839501,1.7836152 8.3463956 0 1 0.02598,0.02239 1.7839501,1.7836152 8.3463956 0 0 -0.02598,-0.02239 z m -6.697436,4.276733 a 1.7839501,1.7836152 8.3463956 0 0 0.03188,0.01574 1.7839501,1.7836152 8.3463956 0 1 -0.03188,-0.01574 z m 0.54741,0.153369 a 1.7839501,1.7836152 8.3463956 0 0 0.02786,0.0018 1.7839501,1.7836152 8.3463956 0 1 -0.02786,-0.0018 z m 6.649542,-3.770777 a 1.7839501,1.7836152 8.3463956 0 1 0.0085,0.02031 1.7839501,1.7836152 8.3463956 0 0 -0.0085,-0.02031 z m -6.108083,3.746192 a 1.7839501,1.7836152 8.3463956 0 0 0.04683,-0.0091 1.7839501,1.7836152 8.3463956 0 1 -0.04683,0.0091 z m 6.250642,-2.901988 a 1.7839501,1.7836152 8.3463956 0 1 -0.0023,0.01999 1.7839501,1.7836152 8.3463956 0 0 0.0023,-0.01999 z m -0.163171,0.620484 a 1.7839501,1.7836152 8.3463956 0 1 -0.008,0.01848 1.7839501,1.7836152 8.3463956 0 0 0.008,-0.01848 z m -0.536143,0.664945 a 1.7839501,1.7836152 8.3463956 0 1 -0.01752,0.01335 1.7839501,1.7836152 8.3463956 0 0 0.01752,-0.01335 z" />
  <metadata
     id="metadata4">
    <rdf:RDF>
      <cc:Work
         rdf:about="">
        <dc:creator>
          <cc:Agent>
            <dc:title>Matthias Seidel</dc:title>
          </cc:Agent>
        </dc:creator>
      </cc:Work>
    </rdf:RDF>
  </metadata>
</svg>
