<?xml version="1.0" encoding="UTF-8" standalone="no"?>
<!-- 2024-07-26 20:55:02 Generated by QCAD 3.29.4 SVG Exporter -->

<svg
   width="16"
   height="16"
   viewBox="52 -51 16 16"
   version="1.1"
   style="fill:none;stroke-linecap:round;stroke-linejoin:round"
   id="svg8"
   sodipodi:docname="spinner-16-07.svg"
   inkscape:version="1.3.2 (091e20ef0f, 2023-11-25)"
   inkscape:export-filename="spinner-16-07.png"
   inkscape:export-xdpi="96"
   inkscape:export-ydpi="96"
   xmlns:inkscape="http://www.inkscape.org/namespaces/inkscape"
   xmlns:sodipodi="http://sodipodi.sourceforge.net/DTD/sodipodi-0.dtd"
   xmlns="http://www.w3.org/2000/svg"
   xmlns:svg="http://www.w3.org/2000/svg"
   xmlns:rdf="http://www.w3.org/1999/02/22-rdf-syntax-ns#"
   xmlns:cc="http://creativecommons.org/ns#"
   xmlns:dc="http://purl.org/dc/elements/1.1/">
  <defs
     id="defs8" />
  <sodipodi:namedview
     id="namedview8"
     pagecolor="#ffffff"
     bordercolor="#cccccc"
     borderopacity="1"
     inkscape:showpageshadow="0"
     inkscape:pageopacity="1"
     inkscape:pagecheckerboard="0"
     inkscape:deskcolor="#d1d1d1"
     inkscape:document-units="px"
     inkscape:zoom="54.215385"
     inkscape:cx="8.0051078"
     inkscape:cy="7.9958853"
     inkscape:window-width="1920"
     inkscape:window-height="1056"
     inkscape:window-x="0"
     inkscape:window-y="24"
     inkscape:window-maximized="1"
     inkscape:current-layer="g8" />
  <g
     transform="scale(1,-1)"
     id="g8">
    <!-- Linie -->
    <!-- Linie -->
    <!-- Linie -->
    <!-- Linie -->
    <!-- Kreis -->
    <path
       id="path10"
       style="fill:#505050;fill-opacity:1;stroke:none;stroke-width:0.249448;stroke-dasharray:none"
       d="m 60.001294,35.000055 a 1.4997643,1.5002316 45.250771 0 1 0.195308,0.01364 7.9987436,8.0012353 45.256893 0 1 0.0039,-5.5e-5 A 7.9987436,8.0012353 45.256893 0 1 68,42.998778 7.9987436,8.0012353 45.256893 0 1 59.998754,51 7.9987436,8.0012353 45.256893 0 1 52,43.001269 a 7.9987436,8.0012353 45.256893 0 1 1.020136,-3.900541 1.4997643,1.5002316 45.250771 0 0 -0.01367,0.03908 1.4997643,1.5002316 45.250771 0 1 0.06834,-0.13675 1.4997643,1.5002316 45.250771 0 1 -7e-6,-0.002 1.4997643,1.5002316 45.250771 0 1 1.296961,-0.750251 1.4997643,1.5002316 45.250771 0 1 1.499768,1.499763 1.4997643,1.5002316 45.250771 0 1 -0.216914,0.74222 l 0.01759,0.0098 a 4.9992147,5.0007721 45.257297 0 0 -0.672239,2.498176 4.9992147,5.0007721 45.257297 0 0 4.999224,4.999208 A 4.9992147,5.0007721 45.257297 0 0 64.999968,42.99921 4.9992147,5.0007721 45.257297 0 0 60.000744,38 1.4997643,1.5002316 45.250771 0 1 58.500978,36.500231 1.4997643,1.5002316 45.250771 0 1 60.001213,35 Z m 0.453113,0.0722 a 1.4997643,1.5002316 45.250771 0 1 0.01951,0.0058 1.4997643,1.5002316 45.250771 0 0 -0.01951,-0.0058 z m 0.968601,0.954921 a 1.4997643,1.5002316 45.250771 0 1 0.0059,0.01954 1.4997643,1.5002316 45.250771 0 0 -0.0059,-0.01954 z m 0.0057,0.925779 a 1.4997643,1.5002316 45.250771 0 1 -0.0059,0.01955 1.4997643,1.5002316 45.250771 0 0 0.0059,-0.01955 z m -0.95523,0.968894 a 1.4997643,1.5002316 45.250771 0 1 -0.01957,0.0059 1.4997643,1.5002316 45.250771 0 0 0.01957,-0.0059 z m -7.552962,1.462109 a 1.4997643,1.5002316 45.250771 0 0 -0.0176,0.08594 1.4997643,1.5002316 45.250771 0 1 0.0176,-0.08594 z m 0.02332,0.820307 a 1.4997643,1.5002316 45.250771 0 0 0.0059,0.01954 1.4997643,1.5002316 45.250771 0 1 -0.0059,-0.01954 z m 2.388565,0.677363 a 1.4997643,1.5002316 45.250771 0 1 -0.01562,0.01559 1.4997643,1.5002316 45.250771 0 0 0.01562,-0.01559 z m -0.437533,0.263751 a 1.4997643,1.5002316 45.250771 0 1 -0.03514,0.01369 1.4997643,1.5002316 45.250771 0 0 0.03514,-0.01369 z m -0.996096,0.0275 a 1.4997643,1.5002316 45.250771 0 0 0.01951,0.0058 1.4997643,1.5002316 45.250771 0 1 -0.01951,-0.0058 z" />
    <!-- Linie -->
    <!-- Linie -->
    <!-- Kreis -->
    <!-- Kreis -->
    <!-- Kreis -->
  </g>
  <metadata
     id="metadata8">
    <rdf:RDF>
      <cc:Work
         rdf:about="">
        <dc:creator>
          <cc:Agent>
            <dc:title>Matthias Seidel</dc:title>
          </cc:Agent>
        </dc:creator>
      </cc:Work>
    </rdf:RDF>
  </metadata>
</svg>
