<?xml version="1.0" encoding="UTF-8" standalone="no"?>
<svg
   width="32"
   height="32"
   viewBox="44 -56 32 32"
   version="1.1"
   style="fill:none;stroke-linecap:round;stroke-linejoin:round"
   id="svg7"
   sodipodi:docname="spinner-32-10.svg"
   inkscape:version="1.3.2 (091e20ef0f, 2023-11-25)"
   inkscape:export-filename="spinner-32-10.png"
   inkscape:export-xdpi="96"
   inkscape:export-ydpi="96"
   xmlns:inkscape="http://www.inkscape.org/namespaces/inkscape"
   xmlns:sodipodi="http://sodipodi.sourceforge.net/DTD/sodipodi-0.dtd"
   xmlns="http://www.w3.org/2000/svg"
   xmlns:svg="http://www.w3.org/2000/svg"
   xmlns:rdf="http://www.w3.org/1999/02/22-rdf-syntax-ns#"
   xmlns:cc="http://creativecommons.org/ns#"
   xmlns:dc="http://purl.org/dc/elements/1.1/">
  <defs
     id="defs7" />
  <sodipodi:namedview
     id="namedview7"
     pagecolor="#ffffff"
     bordercolor="#cccccc"
     borderopacity="1"
     inkscape:showpageshadow="0"
     inkscape:pageopacity="1"
     inkscape:pagecheckerboard="0"
     inkscape:deskcolor="#d1d1d1"
     inkscape:document-units="px"
     inkscape:zoom="23.379845"
     inkscape:cx="16.125"
     inkscape:cy="16.146386"
     inkscape:window-width="1920"
     inkscape:window-height="1056"
     inkscape:window-x="0"
     inkscape:window-y="24"
     inkscape:window-maximized="1"
     inkscape:current-layer="g7" />
  <g
     transform="matrix(1,0,0,-1,0.125,0.125)"
     id="g7">
    <path
       id="path5"
       style="fill:#505050;fill-opacity:1;stroke:none;stroke-width:0.25"
       d="M 43.875,40.123518 A 2.5002319,2.4997686 45.005282 0 1 43.898406,39.783674 16.001484,15.998519 44.997723 0 1 59.873519,24.125 16.001484,15.998519 44.997723 0 1 75.875,40.12648 16.001484,15.998519 44.997723 0 1 59.876482,56.125 16.001484,15.998519 44.997723 0 1 46.211706,48.399124 a 16.001484,15.998519 44.997723 0 1 -0.0059,-0.006 2.5002319,2.4997686 45.005282 0 1 -0.07036,-0.10546 16.001484,15.998519 44.997723 0 1 -0.113295,-0.166025 16.001484,15.998519 44.997723 0 1 -0.0586,-0.101566 2.5002319,2.4997686 45.005282 0 1 -0.279402,-1.146508 2.5002319,2.4997686 45.005282 0 1 2.499766,-2.499768 2.5002319,2.4997686 45.005282 0 1 2.142699,1.263865 l 0.02541,-0.01563 A 11.00102,10.998981 45.01091 0 0 59.87605,51.125019 11.00102,10.998981 45.01091 0 0 70.87503,40.126036 11.00102,10.998981 45.01091 0 0 59.874014,29.125017 11.00102,10.998981 45.01091 0 0 48.875031,40.124 2.5002319,2.4997686 45.005282 0 1 46.37526,42.623768 2.5002319,2.4997686 45.005282 0 1 43.875029,40.123535 Z m 0.119073,-0.74413 a 2.5002319,2.4997686 45.005282 0 1 0.01952,-0.05858 2.5002319,2.4997686 45.005282 0 0 -0.01952,0.05858 z m 0.34174,-0.693325 a 2.5002319,2.4997686 45.005282 0 1 0.03121,-0.04687 2.5002319,2.4997686 45.005282 0 0 -0.03121,0.04687 z m 0.554636,-0.57026 a 2.5002319,2.4997686 45.005282 0 1 0.04688,-0.03122 2.5002319,2.4997686 45.005282 0 0 -0.04688,0.03122 z m 0.681606,-0.353457 a 2.5002319,2.4997686 45.005282 0 1 0.05857,-0.01951 2.5002319,2.4997686 45.005282 0 0 -0.05857,0.01951 z m 0.991251,11.002046 a 2.5002319,2.4997686 45.005282 0 0 0.03515,0.0332 2.5002319,2.4997686 45.005282 0 1 -0.03515,-0.0332 z m 0.555618,-11.021435 a 2.5002319,2.4997686 45.005282 0 1 0.0586,0.01953 2.5002319,2.4997686 45.005282 0 0 -0.0586,-0.01953 z m 0.194421,11.468768 a 2.5002319,2.4997686 45.005282 0 0 0.04492,0.01366 2.5002319,2.4997686 45.005282 0 1 -0.04492,-0.01366 z m 0.498972,-11.126906 a 2.5002319,2.4997686 45.005282 0 1 0.04688,0.03123 2.5002319,2.4997686 45.005282 0 0 -0.04688,-0.03123 z m 0.570364,0.554741 a 2.5002319,2.4997686 45.005282 0 1 0.03123,0.0469 2.5002319,2.4997686 45.005282 0 0 -0.03123,-0.0469 z m 0.353574,0.681678 a 2.5002319,2.4997686 45.005282 0 1 0.01954,0.05859 2.5002319,2.4997686 45.005282 0 0 -0.01954,-0.05859 z m 0.192324,9.933612 a 2.5002319,2.4997686 45.005282 0 0 0.05858,-0.01951 2.5002319,2.4997686 45.005282 0 1 -0.05858,0.01951 z m 0.69333,-0.341731 a 2.5002319,2.4997686 45.005282 0 0 0.04688,-0.03122 2.5002319,2.4997686 45.005282 0 1 -0.04688,0.03122 z m 0.57026,-0.554635 a 2.5002319,2.4997686 45.005282 0 0 0.03122,-0.04688 2.5002319,2.4997686 45.005282 0 1 -0.03122,0.04688 z m 0.353448,-0.681614 a 2.5002319,2.4997686 45.005282 0 0 0.01951,-0.05857 2.5002319,2.4997686 45.005282 0 1 -0.01951,0.05857 z" />
  </g>
  <metadata
     id="metadata7">
    <rdf:RDF>
      <cc:Work
         rdf:about="">
        <dc:creator>
          <cc:Agent>
            <dc:title>Matthias Seidel</dc:title>
          </cc:Agent>
        </dc:creator>
      </cc:Work>
    </rdf:RDF>
  </metadata>
</svg>
