<?xml version="1.0" encoding="UTF-8" standalone="no"?>
<svg
   width="16.000311"
   height="16.000315"
   viewBox="52 -51 16.000311 16.000315"
   version="1.1"
   style="fill:none;stroke-linecap:round;stroke-linejoin:round"
   id="svg7"
   sodipodi:docname="spinner-16-06.svg"
   inkscape:version="1.3.2 (091e20ef0f, 2023-11-25)"
   inkscape:export-filename="spinner-16-06.png"
   inkscape:export-xdpi="96"
   inkscape:export-ydpi="96"
   xmlns:inkscape="http://www.inkscape.org/namespaces/inkscape"
   xmlns:sodipodi="http://sodipodi.sourceforge.net/DTD/sodipodi-0.dtd"
   xmlns="http://www.w3.org/2000/svg"
   xmlns:svg="http://www.w3.org/2000/svg"
   xmlns:rdf="http://www.w3.org/1999/02/22-rdf-syntax-ns#"
   xmlns:cc="http://creativecommons.org/ns#"
   xmlns:dc="http://purl.org/dc/elements/1.1/">
  <defs
     id="defs7" />
  <sodipodi:namedview
     id="namedview7"
     pagecolor="#ffffff"
     bordercolor="#cccccc"
     borderopacity="1"
     inkscape:showpageshadow="0"
     inkscape:pageopacity="1"
     inkscape:pagecheckerboard="0"
     inkscape:deskcolor="#d1d1d1"
     inkscape:document-units="px"
     inkscape:zoom="47.125736"
     inkscape:cx="7.8725561"
     inkscape:cy="7.8619462"
     inkscape:window-width="1920"
     inkscape:window-height="1056"
     inkscape:window-x="0"
     inkscape:window-y="24"
     inkscape:window-maximized="1"
     inkscape:current-layer="g7" />
  <g
     transform="matrix(1,0,0,-1,2.9001502e-5,3e-5)"
     id="g7"
     style="fill:none;fill-opacity:1;stroke:#df0000;stroke-opacity:1">
    <path
       id="path12"
       style="fill:#505050;fill-opacity:1;stroke:none;stroke-width:0.250074"
       d="m 64.007414,36.068144 a 2.000025,2.0011885 60.246386 0 1 0.223775,0.152044 8.0000999,8.004754 60.247161 0 1 2.703061,10.777349 8.0000999,8.004754 60.247161 0 1 -10.934077,2.931453 8.0000999,8.004754 60.247161 0 1 -2.926841,-10.929383 8.0000999,8.004754 60.247161 0 1 2.847058,-2.877821 8.0000999,8.004754 60.247161 0 1 0.08393,-0.05009 l 0.0017,9.72e-4 a 8.0000999,8.004754 60.247161 0 1 0.04614,-0.02838 2.000025,2.0011885 60.246386 0 1 1.953633,0.02519 2.000025,2.0011885 60.246386 0 1 0.730536,2.733389 2.000025,2.0011885 60.246386 0 1 -0.732316,0.732226 4.0000498,4.0023769 60.248073 0 0 -1.464634,1.464453 4.0000498,4.0023769 60.248073 0 0 1.463059,5.463338 4.0000498,4.0023769 60.248073 0 0 5.467401,-1.464374 4.0000498,4.0023769 60.248073 0 0 -1.463784,-5.466046 2.000025,2.0011885 60.246386 0 1 -0.731528,-2.731669 2.000025,2.0011885 60.246386 0 1 2.732841,-0.732683 z" />
  </g>
  <metadata
     id="metadata7">
    <rdf:RDF>
      <cc:Work
         rdf:about="">
        <dc:creator>
          <cc:Agent>
            <dc:title>Matthias Seidel</dc:title>
          </cc:Agent>
        </dc:creator>
      </cc:Work>
    </rdf:RDF>
  </metadata>
</svg>
