<?xml version="1.0" encoding="UTF-8" standalone="no"?>
<svg
   width="32"
   height="32"
   viewBox="44 -56 32 31.999999"
   version="1.1"
   style="fill:none;stroke-linecap:round;stroke-linejoin:round"
   id="svg7"
   sodipodi:docname="spinner-32-11.svg"
   inkscape:version="1.3.2 (091e20ef0f, 2023-11-25)"
   inkscape:export-filename="spinner-32-11.png"
   inkscape:export-xdpi="96"
   inkscape:export-ydpi="96"
   xmlns:inkscape="http://www.inkscape.org/namespaces/inkscape"
   xmlns:sodipodi="http://sodipodi.sourceforge.net/DTD/sodipodi-0.dtd"
   xmlns="http://www.w3.org/2000/svg"
   xmlns:svg="http://www.w3.org/2000/svg"
   xmlns:rdf="http://www.w3.org/1999/02/22-rdf-syntax-ns#"
   xmlns:cc="http://creativecommons.org/ns#"
   xmlns:dc="http://purl.org/dc/elements/1.1/">
  <defs
     id="defs7" />
  <sodipodi:namedview
     id="namedview7"
     pagecolor="#ffffff"
     bordercolor="#cccccc"
     borderopacity="1"
     inkscape:showpageshadow="0"
     inkscape:pageopacity="1"
     inkscape:pagecheckerboard="0"
     inkscape:deskcolor="#d1d1d1"
     inkscape:document-units="px"
     inkscape:zoom="27.317829"
     inkscape:cx="15.996879"
     inkscape:cy="16.015182"
     inkscape:window-width="1920"
     inkscape:window-height="1056"
     inkscape:window-x="0"
     inkscape:window-y="24"
     inkscape:window-maximized="1"
     inkscape:current-layer="g7" />
  <g
     transform="scale(1,-1)"
     id="g7">
    <path
       id="path12"
       style="fill:#505050;fill-opacity:1;stroke:none;stroke-width:0.24953;stroke-dasharray:none"
       d="m 46.12814,48.001545 a 2.5013709,2.5002354 9.2051474 0 1 -0.149725,-0.306078 16.008775,16.001507 9.2061972 0 1 6.007711,-21.55222 16.008775,16.001507 9.2061972 0 1 21.868557,5.858591 16.008775,16.001507 9.2061972 0 1 -5.857982,21.858296 16.008775,16.001507 9.2061972 0 1 -7.886578,2.139739 16.008775,16.001507 9.2061972 0 1 -0.117314,3.8e-5 l -10e-4,-0.0017 a 2.5013709,2.5002354 9.2051474 0 1 -2.165542,-1.24508 2.5013709,2.5002354 9.2051474 0 1 0.915313,-3.415357 2.5013709,2.5002354 9.2051474 0 1 1.250049,-0.30857 l 8.27e-4,-0.02984 A 11.006034,11.001037 9.2013918 0 0 65.495065,49.529405 11.006034,11.001037 9.2013918 0 0 69.522426,34.501824 11.006034,11.001037 9.2013918 0 0 54.487794,30.474042 11.006034,11.001037 9.2013918 0 0 50.460432,45.50162 2.5013709,2.5002354 9.2051474 0 1 49.54512,48.916979 2.5013709,2.5002354 9.2051474 0 1 46.128161,48.001575 Z m -0.269084,-0.70411 a 2.5013709,2.5002354 9.2051474 0 1 -0.0124,-0.0605 2.5013709,2.5002354 9.2051474 0 0 0.0124,0.0605 z m -0.05075,-0.771452 a 2.5013709,2.5002354 9.2051474 0 1 0.0036,-0.05623 2.5013709,2.5002354 9.2051474 0 0 -0.0036,0.05623 z m 0.19527,-0.771313 a 2.5013709,2.5002354 9.2051474 0 1 0.025,-0.0505 2.5013709,2.5002354 9.2051474 0 0 -0.025,0.0505 z m 0.413734,-0.647017 a 2.5013709,2.5002354 9.2051474 0 1 0.041,-0.04621 2.5013709,2.5002354 9.2051474 0 0 -0.041,0.04621 z m 1.33052,-0.79035 a 2.5013709,2.5002354 9.2051474 0 1 0.06053,-0.01235 2.5013709,2.5002354 9.2051474 0 0 -0.06053,0.01235 z m 0.771774,-0.05062 a 2.5013709,2.5002354 9.2051474 0 1 0.05623,0.0036 2.5013709,2.5002354 9.2051474 0 0 -0.05623,-0.0036 z m 0.771678,0.195297 a 2.5013709,2.5002354 9.2051474 0 1 0.0505,0.02501 2.5013709,2.5002354 9.2051474 0 0 -0.0505,-0.02501 z m 0.647352,0.413645 a 2.5013709,2.5002354 9.2051474 0 1 0.04623,0.04099 2.5013709,2.5002354 9.2051474 0 0 -0.04623,-0.04099 z m 11.889754,10.317668 a 2.5013709,2.5002354 9.2051474 0 0 0.041,-0.04621 2.5013709,2.5002354 9.2051474 0 1 -0.041,0.04621 z m 0.429747,-0.64272 a 2.5013709,2.5002354 9.2051474 0 0 0.025,-0.0505 2.5013709,2.5002354 9.2051474 0 1 -0.025,0.0505 z m -1.443941,-3.382499 a 2.5013709,2.5002354 9.2051474 0 1 0.051,0.01788 2.5013709,2.5002354 9.2051474 0 0 -0.051,-0.01788 z m 1.660565,2.6169 a 2.5013709,2.5002354 9.2051474 0 0 0.0036,-0.05622 2.5013709,2.5002354 9.2051474 0 1 -0.0036,0.05622 z M 61.57743,51.587027 a 2.5013709,2.5002354 9.2051474 0 1 0.03335,0.03034 2.5013709,2.5002354 9.2051474 0 0 -0.03335,-0.03034 z m 0.862591,1.430786 a 2.5013709,2.5002354 9.2051474 0 0 -0.01238,-0.0605 2.5013709,2.5002354 9.2051474 0 1 0.01238,0.0605 z" />
  </g>
  <metadata
     id="metadata7">
    <rdf:RDF>
      <cc:Work
         rdf:about="">
        <dc:creator>
          <cc:Agent>
            <dc:title>Matthias Seidel</dc:title>
          </cc:Agent>
        </dc:creator>
      </cc:Work>
    </rdf:RDF>
  </metadata>
</svg>
