<?xml version="1.0" encoding="UTF-8" standalone="no"?>
<svg
   width="16.000311"
   height="16.000315"
   viewBox="52 -51 16.000311 16.000315"
   version="1.1"
   style="fill:none;stroke-linecap:round;stroke-linejoin:round"
   id="svg7"
   sodipodi:docname="spinner-16-07.svg"
   inkscape:version="1.3.2 (091e20ef0f, 2023-11-25)"
   inkscape:export-filename="spinner-16-07.png"
   inkscape:export-xdpi="96"
   inkscape:export-ydpi="96"
   xmlns:inkscape="http://www.inkscape.org/namespaces/inkscape"
   xmlns:sodipodi="http://sodipodi.sourceforge.net/DTD/sodipodi-0.dtd"
   xmlns="http://www.w3.org/2000/svg"
   xmlns:svg="http://www.w3.org/2000/svg"
   xmlns:rdf="http://www.w3.org/1999/02/22-rdf-syntax-ns#"
   xmlns:cc="http://creativecommons.org/ns#"
   xmlns:dc="http://purl.org/dc/elements/1.1/">
  <defs
     id="defs7" />
  <sodipodi:namedview
     id="namedview7"
     pagecolor="#ffffff"
     bordercolor="#cccccc"
     borderopacity="1"
     inkscape:showpageshadow="0"
     inkscape:pageopacity="1"
     inkscape:pagecheckerboard="0"
     inkscape:deskcolor="#d1d1d1"
     inkscape:document-units="px"
     inkscape:zoom="47.125736"
     inkscape:cx="7.8725561"
     inkscape:cy="7.8619462"
     inkscape:window-width="1920"
     inkscape:window-height="1056"
     inkscape:window-x="0"
     inkscape:window-y="24"
     inkscape:window-maximized="1"
     inkscape:current-layer="g7" />
  <g
     transform="matrix(1,0,0,-1,2.9001502e-5,3e-5)"
     id="g7"
     style="fill:none;fill-opacity:1;stroke:#df0000;stroke-opacity:1">
    <path
       id="path12"
       style="fill:#505050;fill-opacity:1;stroke:none;stroke-width:0.249994"
       d="m 60.001995,35.000038 a 1.9994537,2.000466 45.072294 0 1 0.269769,0.01978 7.997815,8.0018642 45.072569 0 1 7.728207,7.978199 7.997815,8.0018642 45.072569 0 1 -8.002026,8.002012 7.997815,8.0018642 45.072569 0 1 -7.997974,-7.997965 7.997815,8.0018642 45.072569 0 1 1.02653,-3.913966 7.997815,8.0018642 45.072569 0 1 0.04763,-0.08531 l 0.002,-8e-6 a 7.997815,8.0018642 45.072569 0 1 0.02576,-0.04763 1.9994537,2.000466 45.072294 0 1 1.704185,-0.954555 1.9994537,2.000466 45.072294 0 1 1.998998,2.000981 1.9994537,2.000466 45.072294 0 1 -0.268042,0.999818 3.9989074,4.0009321 45.072955 0 0 -0.536088,1.999635 3.9989074,4.0009321 45.072955 0 0 3.997997,3.997992 3.9989074,4.0009321 45.072955 0 0 4.002003,-4.000016 3.9989074,4.0009321 45.072955 0 0 -3.999979,-3.999974 1.9994537,2.000466 45.072294 0 1 -1.998997,-1.998996 1.9994537,2.000466 45.072294 0 1 2.000008,-2.000008 z" />
  </g>
  <metadata
     id="metadata7">
    <rdf:RDF>
      <cc:Work
         rdf:about="">
        <dc:creator>
          <cc:Agent>
            <dc:title>Matthias Seidel</dc:title>
          </cc:Agent>
        </dc:creator>
      </cc:Work>
    </rdf:RDF>
  </metadata>
</svg>
