<?xml version="1.0" encoding="UTF-8" standalone="no"?>
<!-- 2024-07-26 20:55:02 Generated by QCAD 3.29.4 SVG Exporter -->

<svg
   width="16"
   height="16"
   viewBox="52 -51 16 16"
   version="1.1"
   style="fill:none;stroke-linecap:round;stroke-linejoin:round"
   id="svg8"
   sodipodi:docname="spinner-16-11.svg"
   inkscape:version="1.3.2 (091e20ef0f, 2023-11-25)"
   inkscape:export-filename="spinner-16-11.png"
   inkscape:export-xdpi="96"
   inkscape:export-ydpi="96"
   xmlns:inkscape="http://www.inkscape.org/namespaces/inkscape"
   xmlns:sodipodi="http://sodipodi.sourceforge.net/DTD/sodipodi-0.dtd"
   xmlns="http://www.w3.org/2000/svg"
   xmlns:svg="http://www.w3.org/2000/svg"
   xmlns:rdf="http://www.w3.org/1999/02/22-rdf-syntax-ns#"
   xmlns:cc="http://creativecommons.org/ns#"
   xmlns:dc="http://purl.org/dc/elements/1.1/">
  <defs
     id="defs8" />
  <sodipodi:namedview
     id="namedview8"
     pagecolor="#ffffff"
     bordercolor="#cccccc"
     borderopacity="1"
     inkscape:showpageshadow="0"
     inkscape:pageopacity="1"
     inkscape:pagecheckerboard="0"
     inkscape:deskcolor="#d1d1d1"
     inkscape:document-units="px"
     inkscape:zoom="54.215385"
     inkscape:cx="8.0051078"
     inkscape:cy="7.9958853"
     inkscape:window-width="1920"
     inkscape:window-height="1056"
     inkscape:window-x="0"
     inkscape:window-y="24"
     inkscape:window-maximized="1"
     inkscape:current-layer="g8" />
  <g
     transform="scale(1,-1)"
     id="g8">
    <!-- Linie -->
    <!-- Linie -->
    <!-- Linie -->
    <!-- Linie -->
    <!-- Kreis -->
    <path
       id="path10"
       style="fill:#505050;fill-opacity:1;stroke:none;stroke-width:0.24954;stroke-dasharray:none"
       d="m 53.063096,47.000871 a 1.5009244,1.5001706 9.3072706 0 1 -0.08588,-0.176008 8.0049304,8.0009104 9.311669 0 1 -0.002,-0.0033 8.0049304,8.0009104 9.311669 0 1 3.01699,-10.749949 8.0049304,8.0009104 9.311669 0 1 10.935031,2.92945 8.0049304,8.0009104 9.311669 0 1 -2.929092,10.929355 8.0049304,8.0009104 9.311669 0 1 -3.889862,1.067081 1.5009244,1.5001706 9.3072706 0 0 0.0407,-0.0077 1.5009244,1.5001706 9.3072706 0 1 -0.152671,0.0092 1.5009244,1.5001706 9.3072706 0 1 -0.0017,10e-4 1.5009244,1.5001706 9.3072706 0 1 -1.298833,-0.748266 1.5009244,1.5001706 9.3072706 0 1 0.549205,-2.049256 1.5009244,1.5001706 9.3072706 0 1 0.751592,-0.183304 l -3.13e-4,-0.02014 a 5.0030816,5.0005689 9.3115276 0 0 2.500778,-0.667084 5.0030816,5.0005689 9.3115276 0 0 1.830681,-6.830851 5.0030816,5.0005689 9.3115276 0 0 -6.834392,-1.830906 5.0030816,5.0005689 9.3115276 0 0 -1.830684,6.830851 1.5009244,1.5001706 9.3072706 0 1 -0.549209,2.049258 1.5009244,1.5001706 9.3072706 0 1 -2.050326,-0.549269 z M 52.89899,46.57225 a 1.5009244,1.5001706 9.3072706 0 1 -0.0047,-0.01979 1.5009244,1.5001706 9.3072706 0 0 0.0047,0.01979 z m 0.342845,-1.316639 a 1.5009244,1.5001706 9.3072706 0 1 0.014,-0.01489 1.5009244,1.5001706 9.3072706 0 0 -0.014,0.01489 z m 0.799273,-0.46795 a 1.5009244,1.5001706 9.3072706 0 1 0.01991,-0.0047 1.5009244,1.5001706 9.3072706 0 0 -0.01991,0.0047 z m 1.317322,0.3429 a 1.5009244,1.5001706 9.3072706 0 1 0.01491,0.01401 1.5009244,1.5001706 9.3072706 0 0 -0.01491,-0.01401 z m 5.045083,5.811532 a 1.5009244,1.5001706 9.3072706 0 0 0.08328,-0.02774 1.5009244,1.5001706 9.3072706 0 1 -0.08328,0.02774 z m 0.699072,-0.430461 a 1.5009244,1.5001706 9.3072706 0 0 0.014,-0.01489 1.5009244,1.5001706 9.3072706 0 1 -0.014,0.01489 z m -0.607956,-2.407874 a 1.5009244,1.5001706 9.3072706 0 1 0.02131,0.0057 1.5009244,1.5001706 9.3072706 0 0 -0.02131,-0.0057 z m 0.447393,0.247102 a 1.5009244,1.5001706 9.3072706 0 1 0.02944,0.02358 1.5009244,1.5001706 9.3072706 0 0 -0.02944,-0.02358 z m 0.522109,0.84912 a 1.5009244,1.5001706 9.3072706 0 0 -0.0047,-0.01979 1.5009244,1.5001706 9.3072706 0 1 0.0047,0.01979 z" />
    <!-- Linie -->
    <!-- Linie -->
    <!-- Kreis -->
    <!-- Kreis -->
    <!-- Kreis -->
  </g>
  <metadata
     id="metadata8">
    <rdf:RDF>
      <cc:Work
         rdf:about="">
        <dc:creator>
          <cc:Agent>
            <dc:title>Matthias Seidel</dc:title>
          </cc:Agent>
        </dc:creator>
      </cc:Work>
    </rdf:RDF>
  </metadata>
</svg>
