<?xml version="1.0" encoding="UTF-8" standalone="no"?>
<svg
   width="153"
   height="63"
   viewBox="0 -63 153 63"
   version="1.1"
   style="fill:none;stroke-linecap:round;stroke-linejoin:round"
   id="svg333"
   sodipodi:docname="cropmarkers.svg"
   inkscape:version="1.3.2 (091e20ef0f, 2023-11-25)"
   inkscape:export-filename="cropmarkers.png"
   inkscape:export-xdpi="96"
   inkscape:export-ydpi="96"
   xmlns:inkscape="http://www.inkscape.org/namespaces/inkscape"
   xmlns:sodipodi="http://sodipodi.sourceforge.net/DTD/sodipodi-0.dtd"
   xmlns="http://www.w3.org/2000/svg"
   xmlns:svg="http://www.w3.org/2000/svg"
   xmlns:rdf="http://www.w3.org/1999/02/22-rdf-syntax-ns#"
   xmlns:cc="http://creativecommons.org/ns#"
   xmlns:dc="http://purl.org/dc/elements/1.1/">
  <defs
     id="defs333" />
  <sodipodi:namedview
     id="namedview333"
     pagecolor="#ffffff"
     bordercolor="#cccccc"
     borderopacity="1"
     inkscape:showpageshadow="0"
     inkscape:pageopacity="1"
     inkscape:pagecheckerboard="0"
     inkscape:deskcolor="#d1d1d1"
     inkscape:document-units="px"
     inkscape:zoom="6.3006552"
     inkscape:cx="76.49998"
     inkscape:cy="31.50466"
     inkscape:window-width="1920"
     inkscape:window-height="1056"
     inkscape:window-x="0"
     inkscape:window-y="24"
     inkscape:window-maximized="1"
     inkscape:current-layer="svg333" />
  <path
     d="M 4.5857666,-37.000037 H 7.0000895 V -49.99976 H 4.5857666 L 0,-45.413993 v 3.82819 z m 0.414445,-11.999784 h 0.999939 v 10.999845 h -0.999939 l -4.00027264,-4.000272 v -2.999817 z"
     style="fill:#0a0a0a;fill-opacity:1"
     id="path405" />
  <path
     d="m 13.00024,-28.585563 v -2.414323 H 7.0000895 v -6.000151 H 4.5857666 L 0,-32.41427 v 8.414473 h 8.4139567 z m -8.0000284,-7.414535 h 0.999939 v 6.000151 h 5.9996334 v 0.999939 l -3.9997555,3.999756 H 0.99993896 v -6.999573 z"
     style="fill:#0a0a0a;fill-opacity:1"
     id="path404" />
  <path
     d="m 25.999963,-28.585563 v -2.414323 H 13.00024 v 2.414323 l 4.585767,4.585766 h 3.82819 z m -11.999784,-1.414384 h 10.999845 v 0.999939 l -4.000272,3.999756 h -2.999817 l -3.999756,-3.999756 z"
     style="fill:#0a0a0a;fill-opacity:1"
     id="path403" />
  <path
     d="m 34.414437,-37.000037 h -2.414323 v 6.000151 h -6.000151 v 2.414323 l 4.585767,4.585766 h 8.414473 v -5.000211 -3.414262 z m -1.414384,0.999939 h 0.999939 l 3.999756,4.000273 v 6.999573 h -6.999573 l -4.000273,-3.999756 v -0.999939 h 6.000151 z"
     style="fill:#0a0a0a;fill-opacity:1"
     id="path402" />
  <path
     d="m 34.414437,-49.99976 h -2.414323 v 12.999723 h 2.414323 l 4.585766,-4.585766 v -3.82819 z m -1.414384,0.999939 h 0.999939 l 3.999756,3.999756 v 2.999817 l -3.999756,4.000272 h -0.999939 z"
     style="fill:#0a0a0a;fill-opacity:1"
     id="path401" />
  <path
     d="m 98.585714,-42.000248 -8.585523,8.586039 v 3.82819 l 8.585523,8.586039 h 2.414326 v -21.000268 z m 0.414445,1.000456 h 0.999941 v 18.999873 h -0.999941 l -8.000029,-8.000028 v -2.999817 z"
     style="fill:#0a0a0a;fill-opacity:1"
     id="path400" />
  <path
     d="m 81.000224,-46.000004 v 16.999996 h 2.413806 l 6.586161,-6.585645 v -3.828707 l -6.586161,-6.585644 z m 0.999939,0.999939 h 0.999939 l 6.00015,6.00015 v 2.999817 l -6.00015,6.000151 h -0.999939 z"
     style="fill:#0a0a0a;fill-opacity:1"
     id="path399" />
  <path
     d="m 45.585848,-29.000008 h 2.414323 v -16.999996 h -2.414323 l -6.585645,6.585644 v 3.828707 z m 0.413928,-16.000057 h 1.000456 v 15.000118 h -1.000456 l -5.999634,-6.000151 v -2.999817 z"
     style="fill:#0a0a0a;fill-opacity:1"
     id="path398" />
  <path
     d="m 56.000199,-18.585657 v -2.414323 h -8.000028 v -8.000028 h -2.414323 l -6.585645,6.585644 v 10.414352 h 10.413835 z m -10.000423,-9.414412 h 1.000456 v 8.000028 h 7.999512 v 0.999939 l -5.999634,6.000151 h -8.999968 v -8.999968 z"
     style="fill:#0a0a0a;fill-opacity:1"
     id="path397" />
  <path
     d="M 73.000195,-18.585657 V -20.99998 H 56.000199 v 2.414323 l 6.585645,6.585645 h 3.82819 z m -16.000057,-1.414384 h 15.000118 v 0.999939 l -6.00015,6.000151 h -3.000334 l -5.999634,-6.000151 z"
     style="fill:#0a0a0a;fill-opacity:1"
     id="path396" />
  <path
     d="m 90.000191,-12.000012 v -0.414445 -9.999907 l -6.586161,-6.585644 h -2.413806 v 8.000028 h -8.000029 v 2.414323 l 6.585645,6.585645 z m -8.000028,-16.000057 h 0.999939 l 6.00015,6.00015 v 8.999968 h -9.000484 l -5.999634,-6.000151 v -0.999939 h 8.000029 z"
     style="fill:#0a0a0a;fill-opacity:1"
     id="path395" />
  <path
     d="m 110.99994,-8.5857503 v -2.4143227 h -9.9999 v -9.999907 h -2.414326 l -8.585523,8.585523 V -2.2786458e-4 H 102.41442 Z M 99.000159,-20.000041 h 0.999941 v 9.999907 H 110 v 0.9999387 l -8.00002,8.0000285 H 91.00013 V -12.000012 Z"
     style="fill:#0a0a0a;fill-opacity:1"
     id="path394" />
  <path
     d="m 132.00021,-8.5857503 v -2.4143227 h -21.00027 v 2.4143227 l 8.58604,8.58552243542 h 3.82819 z m -20.00033,-1.4143837 h 18.99988 v 0.9999387 l -7.99952,8.0000285 h -3.00033 l -8.00003,-8.0000285 z"
     style="fill:#0a0a0a;fill-opacity:1"
     id="path393" />
  <path
     d="m 144.41444,-20.99998 h -2.41432 v 9.999907 h -9.99991 v 2.4143227 l 8.58552,8.58552243542 h 12.41423 V -12.414457 Z m -1.41438,0.999939 H 144 l 8.00002,8.000029 v 10.9998452 h -10.99984 l -8.00003,-8.0000285 v -0.9999387 h 9.99991 z"
     style="fill:#0a0a0a;fill-opacity:1"
     id="path392" />
  <path
     d="m 144.41444,-42.000248 h -2.41432 v 21.000268 h 2.41432 l 8.58552,-8.586039 v -3.82819 z m -1.41438,1.000456 H 144 l 8.00002,8.000028 v 2.999817 L 144,-21.999919 h -0.99994 z"
     style="fill:#0a0a0a;fill-opacity:1"
     id="path391" />
  <path
     d="m 132.00021,-54.413961 v 2.413806 h 9.99991 v 9.999907 h 2.41432 l 8.58552,-8.585523 V -63 h -12.41423 z m 8.99997,-7.5861 h 10.99984 v 10.999845 L 144,-43.000187 h -0.99994 v -9.999907 h -9.99991 v -0.999939 z"
     style="fill:#0a0a0a;fill-opacity:1"
     id="path390" />
  <path
     d="m 110.99994,-54.413961 v 2.413806 h 21.00027 v -2.413806 L 123.41417,-63 h -3.82819 z m 8.99997,-7.5861 h 3.00033 l 7.99952,8.000028 v 0.999939 h -18.99988 v -0.999939 z"
     style="fill:#0a0a0a;fill-opacity:1"
     id="path389" />
  <path
     d="m 90.000191,-63 v 10.414351 1.999878 l 8.585523,8.585523 h 2.414326 v -9.999907 h 9.9999 v -2.413806 L 102.41442,-63 Z m 0.999939,0.999939 h 10.99985 L 110,-54.000033 v 0.999939 h -9.9999 v 9.999907 h -0.999941 l -8.000029,-8.000029 z"
     style="fill:#0a0a0a;fill-opacity:1"
     id="path388" />
  <path
     d="m 73.000195,-56.414355 v 2.414322 h 8.000029 v 8.000029 h 2.413806 l 6.586161,-6.585645 V -63 H 79.58584 Z m 6.999573,-5.585706 h 9.000484 v 8.999967 l -6.00015,6.000151 h -0.999939 v -8.000029 h -8.000029 v -0.999938 z"
     style="fill:#0a0a0a;fill-opacity:1"
     id="path387" />
  <path
     d="m 56.000199,-56.414355 v 2.414322 h 16.999996 v -2.414322 L 66.414034,-63 h -3.82819 z m 6.999573,-5.585706 h 3.000334 l 6.00015,6.000151 v 0.999938 H 57.000138 v -0.999938 z"
     style="fill:#0a0a0a;fill-opacity:1"
     id="path386" />
  <path
     d="m 39.000203,-63 v 8.413957 2.000394 l 6.585645,6.585645 h 2.414323 v -8.000029 h 8.000028 v -2.414322 L 49.414038,-63 Z m 0.999939,0.999939 h 8.999968 l 5.999634,6.000151 v 0.999938 h -7.999512 v 8.000029 h -1.000456 l -5.999634,-6.000151 z"
     style="fill:#0a0a0a;fill-opacity:1"
     id="path385" />
  <path
     d="m 25.999963,-58.414233 v 2.414323 h 6.000151 v 6.00015 h 2.414323 l 4.585766,-4.586283 V -63 H 30.58573 Z m 5.000212,-3.585828 h 6.999573 v 7.000089 l -3.999756,3.999756 h -0.999939 v -5.999633 h -6.000151 v -0.999939 z"
     style="fill:#0a0a0a;fill-opacity:1"
     id="path384" />
  <path
     d="m 13.00024,-58.414233 v 2.414323 h 12.999723 v -2.414323 L 21.414197,-63 h -3.82819 z m 4.999695,-3.585828 h 2.999817 l 4.000272,4.000273 v 0.999939 H 14.000179 v -0.999939 z"
     style="fill:#0a0a0a;fill-opacity:1;stroke:none;stroke-width:0.1;stroke-dasharray:none;stroke-opacity:1"
     id="path383" />
  <path
     d="m 0,-63 v 8.413957 l 4.5857666,4.586283 h 2.4143229 v -6.00015 H 13.00024 v -2.414323 L 8.4139567,-63 Z m 0.99993896,0.999939 H 8.0000285 l 3.9997555,4.000273 v 0.999939 H 6.0001506 v 5.999633 h -0.999939 l -4.00027264,-3.999756 z"
     style="fill:#0a0a0a;fill-opacity:1"
     id="path382" />
  <path
     style="opacity:0.66;fill:#a0a0a0;fill-opacity:1;stroke:none;stroke-width:0.132292;stroke-linecap:round;stroke-linejoin:round;stroke-dasharray:none;stroke-opacity:1;paint-order:stroke fill markers"
     d="m 40.000142,-62.000061 h 8.999968 l 5.999634,6.000151 v 0.999938 h -7.999513 v 8.000029 h -1.000456 l -5.999633,-6.000151 v -8.999967"
     id="path1" />
  <path
     style="opacity:0.66;fill:#a0a0a0;fill-opacity:1;stroke:none;stroke-width:0.2;stroke-linecap:round;stroke-linejoin:round;stroke-dasharray:none;stroke-opacity:1;paint-order:stroke fill markers"
     d="m 26.999901,-56.999849 v -0.999939 l 4.000275,-4.000273 h 6.99957 v 7.000089 l -3.999754,3.999756 h -0.999939 v -5.999633 z"
     id="path2" />
  <path
     style="opacity:0.66;fill:#a0a0a0;fill-opacity:1;stroke:none;stroke-width:0.132292;stroke-linecap:round;stroke-linejoin:round;stroke-dasharray:none;stroke-opacity:1;paint-order:stroke fill markers"
     d="m 40.000142,-21.999918 5.999633,-6.000152 h 1.000456 v 8.000028 h 7.999513 v 0.99994 l -5.999634,6.00015 h -8.999968 z"
     id="path3" />
  <path
     style="opacity:0.66;fill:#a0a0a0;stroke:none;stroke-width:0.132292;stroke-linecap:round;stroke-linejoin:round;stroke-dasharray:none;stroke-opacity:1;paint-order:stroke fill markers"
     d="m 17.999935,-62.000061 h 2.999817 l 4.000272,4.000273 v 0.999939 H 14.000179 v -0.999939 z"
     id="path4" />
  <path
     style="opacity:0.66;fill:#a0a0a0;fill-opacity:1;stroke:none;stroke-width:0.132292;stroke-linecap:round;stroke-linejoin:round;stroke-dasharray:none;stroke-opacity:1;paint-order:stroke fill markers"
     d="m 62.99977,-62.000061 h 3.000335 l 6.00015,6.000151 v 0.999938 H 57.000137 v -0.999938 z"
     id="path5" />
  <path
     style="opacity:0.66;fill:#a0a0a0;stroke:none;stroke-width:0.132292;stroke-linecap:round;stroke-linejoin:round;paint-order:stroke fill markers"
     d="m 0.99993896,-45.000065 4.00027274,-3.999756 h 0.9999389 v 10.999845 H 5.0002117 l -4.00027274,-4.000272 z"
     id="path6" />
  <path
     style="opacity:0.66;fill:#a0a0a0;stroke:none;stroke-width:0.132292;stroke-linecap:round;stroke-linejoin:round;paint-order:stroke fill markers"
     d="M 0.99993896,-62.000061 H 8.0000283 l 3.9997557,4.000273 v 0.999939 H 6.0001506 v 5.999633 H 5.0002117 l -4.00027274,-3.999756 z"
     id="path7" />
  <path
     style="opacity:0.66;fill:#a0a0a0;stroke:none;stroke-width:0.132292;stroke-linecap:round;stroke-linejoin:round;paint-order:stroke fill markers"
     d="m 5.0002117,-36.000099 h 0.9999389 v 6.000152 h 5.9996334 v 0.999939 l -3.9997557,3.999754 H 0.99993896 v -6.99957 z"
     id="path8" />
  <path
     style="opacity:0.66;fill:#a0a0a0;stroke:none;stroke-width:0.132292;stroke-linecap:round;stroke-linejoin:round;paint-order:stroke fill markers"
     d="m 14.000179,-29.999947 v 0.999939 l 3.999756,3.999754 h 2.999817 l 4.000272,-3.999754 v -0.999939 z"
     id="path9" />
  <path
     style="opacity:0.66;fill:#a0a0a0;stroke:none;stroke-width:0.132292;stroke-linecap:round;stroke-linejoin:round;paint-order:stroke fill markers"
     d="m 26.999901,-29.999947 v 0.999939 l 4.000275,3.999754 h 6.99957 v -6.99957 l -3.999754,-4.000275 h -0.999939 v 6.000152 z"
     id="path10" />
  <path
     style="opacity:0.66;fill:#a0a0a0;stroke:none;stroke-width:0.132292;stroke-linecap:round;stroke-linejoin:round;paint-order:stroke fill markers"
     d="m 33.000053,-48.999821 h 0.999939 l 3.999754,3.999756 v 2.999817 l -3.999754,4.000272 h -0.999939 v -10.999845"
     id="path11" />
  <path
     style="opacity:0.66;fill:#a0a0a0;stroke:none;stroke-width:0.132292;stroke-linecap:round;stroke-linejoin:round;paint-order:stroke fill markers"
     d="m 40.000142,-38.999915 5.999633,-6.00015 h 1.000456 v 15.000118 h -1.000456 l -5.999633,-6.000152 z"
     id="path12" />
  <path
     style="opacity:0.66;fill:#a0a0a0;stroke:none;stroke-width:0.132292;stroke-linecap:round;stroke-linejoin:round;paint-order:stroke fill markers"
     d="m 57.000137,-20.000042 h 15.000118 v 0.99994 l -6.00015,6.00015 H 62.99977 l -5.999633,-6.00015 z"
     id="path13" />
  <path
     style="opacity:0.66;fill:#a0a0a0;stroke-width:0.132292;stroke-linecap:round;stroke-linejoin:round;paint-order:stroke fill markers"
     d="M 82.000163,-45.000065 H 83.0001 l 6.000152,6.00015 v 2.999816 l -6.000152,6.000152 h -0.999937 z"
     id="path14" />
  <path
     style="opacity:0.66;fill:#a0a0a0;stroke-width:0.132292;stroke-linecap:round;stroke-linejoin:round;paint-order:stroke fill markers"
     d="m 74.000134,-55.99991 v 0.999938 h 8.000029 v 8.000029 H 83.0001 l 6.000152,-6.000151 v -8.999967 h -9.000484 z"
     id="path15" />
  <path
     style="opacity:0.66;fill:#a0a0a0;stroke-width:0.132292;stroke-linecap:round;stroke-linejoin:round;paint-order:stroke fill markers"
     d="m 82.000163,-28.00007 v 8.000028 h -8.000029 v 0.99994 l 5.999634,6.00015 h 9.000484 v -8.999966 L 83.0001,-28.00007 Z"
     id="path16" />
  <path
     style="opacity:0.66;fill:#a0a0a0;stroke-width:0.132292;stroke-linecap:round;stroke-linejoin:round;paint-order:stroke fill markers"
     d="M 91.000129,-62.000061 H 101.99998 L 110,-54.000033 v 0.999939 h -9.9999 v 9.999907 h -0.999942 l -8.000029,-8.000029 z"
     id="path17" />
  <path
     style="opacity:0.66;fill:#a0a0a0;stroke-width:0.132292;stroke-linecap:round;stroke-linejoin:round;paint-order:stroke fill markers"
     d="m 99.000158,-40.999792 h 0.999942 v 18.999874 h -0.999942 l -8.000029,-8.000029 v -2.999817 z"
     id="path18" />
  <path
     style="opacity:0.66;fill:#a0a0a0;stroke-width:0.132292;stroke-linecap:round;stroke-linejoin:round;paint-order:stroke fill markers"
     d="m 110,-10.000136 v 0.99994 l -8.00002,8.0000289 H 91.000129 V -12.000013 l 8.000029,-8.000029 h 0.999942 v 9.999906 z"
     id="path19" />
  <path
     style="opacity:0.66;fill:#a0a0a0;stroke-width:0.132292;stroke-linecap:round;stroke-linejoin:round;paint-order:stroke fill markers"
     d="m 111.99988,-10.000136 v 0.99994 l 8.00003,8.0000289 h 3.00033 l 7.99952,-8.0000289 v -0.99994 z"
     id="path20" />
  <path
     style="opacity:0.66;fill:#a0a0a0;stroke-width:0.132292;stroke-linecap:round;stroke-linejoin:round;paint-order:stroke fill markers"
     d="m 133.00015,-10.000136 h 9.99991 v -9.999906 H 144 l 8.00002,8.000029 v 10.9998459 h -10.99984 l -8.00003,-8.0000289 z"
     id="path21" />
  <path
     style="opacity:0.66;fill:#a0a0a0;stroke-width:0.132292;stroke-linecap:round;stroke-linejoin:round;paint-order:stroke fill markers"
     d="M 143.00006,-40.999792 H 144 l 8.00002,8.000028 v 2.999817 L 144,-21.999918 h -0.99994 z"
     id="path22" />
  <path
     style="opacity:0.66;fill:#a0a0a0;stroke-width:0.132292;stroke-linecap:round;stroke-linejoin:round;paint-order:stroke fill markers"
     d="m 111.99988,-54.000033 8.00003,-8.000028 h 3.00033 l 7.99952,8.000028 v 0.999939 h -18.99988 z"
     id="path23" />
  <path
     style="opacity:0.66;fill:#a0a0a0;stroke-width:0.132292;stroke-linecap:round;stroke-linejoin:round;paint-order:stroke fill markers"
     d="m 133.00015,-53.000094 h 9.99991 v 9.999907 H 144 l 8.00002,-8.000029 v -10.999845 h -10.99984 l -8.00003,8.000028 z"
     id="path24" />
  <metadata
     id="metadata1">
    <rdf:RDF>
      <cc:Work
         rdf:about="">
        <dc:creator>
          <cc:Agent>
            <dc:title>Matthias Seidel</dc:title>
          </cc:Agent>
        </dc:creator>
      </cc:Work>
    </rdf:RDF>
  </metadata>
</svg>
