<?xml version="1.0" encoding="UTF-8" standalone="no"?>
<svg
   width="16"
   height="16"
   viewBox="52 -51 16 16"
   version="1.1"
   style="fill:none;stroke-linecap:round;stroke-linejoin:round"
   id="svg9"
   sodipodi:docname="spinner-16-11.svg"
   inkscape:export-filename="spinner-16-11.png"
   inkscape:export-xdpi="96"
   inkscape:export-ydpi="96"
   inkscape:version="1.3.2 (091e20ef0f, 2023-11-25)"
   xmlns:inkscape="http://www.inkscape.org/namespaces/inkscape"
   xmlns:sodipodi="http://sodipodi.sourceforge.net/DTD/sodipodi-0.dtd"
   xmlns="http://www.w3.org/2000/svg"
   xmlns:svg="http://www.w3.org/2000/svg"
   xmlns:rdf="http://www.w3.org/1999/02/22-rdf-syntax-ns#"
   xmlns:cc="http://creativecommons.org/ns#"
   xmlns:dc="http://purl.org/dc/elements/1.1/">
  <defs
     id="defs9" />
  <sodipodi:namedview
     id="namedview9"
     pagecolor="#ffffff"
     bordercolor="#cccccc"
     borderopacity="1"
     inkscape:showpageshadow="0"
     inkscape:pageopacity="1"
     inkscape:pagecheckerboard="0"
     inkscape:deskcolor="#d1d1d1"
     inkscape:document-units="px"
     inkscape:zoom="55.062304"
     inkscape:cx="7.9909479"
     inkscape:cy="8.0000285"
     inkscape:window-width="1920"
     inkscape:window-height="1056"
     inkscape:window-x="0"
     inkscape:window-y="24"
     inkscape:window-maximized="1"
     inkscape:current-layer="svg9" />
  <path
     d="m 65.196094,-42.000033 a 2,2 0 0 0 -1.999878,1.999878 2,2 0 0 0 1.999878,2.000395 2,2 0 0 0 1.999878,-2.000395 2,2 0 0 0 -1.999878,-1.999878 z"
     style="fill:#0a0a0a;fill-opacity:1;stroke:none;stroke-width:0.25;opacity:0.64"
     id="path14" />
  <path
     d="m 54.803963,-42.000033 a 2,2 0 0 0 -1.999878,1.999878 2,2 0 0 0 1.999878,2.000395 2,2 0 0 0 1.999878,-2.000395 2,2 0 0 0 -1.999878,-1.999878 z"
     style="fill:#0a0a0a;fill-opacity:1;stroke:none;stroke-width:0.25;opacity:1"
     id="path13" />
  <path
     d="m 65.196094,-48.000183 a 2,2 0 0 0 -1.999878,2.000395 2,2 0 0 0 1.999878,1.999878 2,2 0 0 0 1.999878,-1.999878 2,2 0 0 0 -1.999878,-2.000395 z"
     style="fill:#0a0a0a;fill-opacity:1;stroke:none;stroke-width:0.25;opacity:0.46"
     id="path12" />
  <path
     d="m 54.803963,-48.000183 a 2,2 0 0 0 -1.999878,2.000395 2,2 0 0 0 1.999878,1.999878 2,2 0 0 0 1.999878,-1.999878 2,2 0 0 0 -1.999878,-2.000395 z"
     style="fill:#0a0a0a;fill-opacity:1;stroke:none;stroke-width:0.25;opacity:0.1"
     id="path11" />
  <path
     d="m 60.000028,-34.999943 a 2,2 0 0 0 1.999878,-1.999878 2,2 0 0 0 -1.999878,-2.000395 2,2 0 0 0 -1.999877,2.000395 2,2 0 0 0 1.999877,1.999878 z"
     style="fill:#0a0a0a;fill-opacity:1;stroke:none;stroke-width:0.25;opacity:0.82"
     id="path10" />
  <path
     d="m 60.000028,-51 a 2,2 0 0 0 -1.999877,1.999878 2,2 0 0 0 1.999877,1.999878 2,2 0 0 0 1.999878,-1.999878 A 2,2 0 0 0 60.000028,-51 Z"
     style="fill:#0a0a0a;fill-opacity:1;stroke:none;stroke-width:0.25;opacity:0.28"
     id="path9" />
  <metadata
     id="metadata14">
    <rdf:RDF>
      <cc:Work
         rdf:about="">
        <dc:creator>
          <cc:Agent>
            <dc:title>Matthias Seidel</dc:title>
          </cc:Agent>
        </dc:creator>
      </cc:Work>
    </rdf:RDF>
  </metadata>
</svg>
