<?xml version="1.0" encoding="UTF-8" standalone="no"?>
<svg
   width="32"
   height="32"
   viewBox="44 -56 31.999999 32"
   version="1.1"
   style="fill:none;stroke-linecap:round;stroke-linejoin:round"
   id="svg65"
   sodipodi:docname="spinner-32-12.svg"
   inkscape:export-filename="spinner-32-12.png"
   inkscape:export-xdpi="96"
   inkscape:export-ydpi="96"
   inkscape:version="1.3.2 (091e20ef0f, 2023-11-25)"
   xmlns:inkscape="http://www.inkscape.org/namespaces/inkscape"
   xmlns:sodipodi="http://sodipodi.sourceforge.net/DTD/sodipodi-0.dtd"
   xmlns="http://www.w3.org/2000/svg"
   xmlns:svg="http://www.w3.org/2000/svg"
   xmlns:rdf="http://www.w3.org/1999/02/22-rdf-syntax-ns#"
   xmlns:cc="http://creativecommons.org/ns#"
   xmlns:dc="http://purl.org/dc/elements/1.1/">
  <defs
     id="defs65" />
  <sodipodi:namedview
     id="namedview65"
     pagecolor="#ffffff"
     bordercolor="#cccccc"
     borderopacity="1"
     inkscape:showpageshadow="0"
     inkscape:pageopacity="1"
     inkscape:pagecheckerboard="0"
     inkscape:deskcolor="#d1d1d1"
     inkscape:document-units="px"
     inkscape:zoom="29.1157"
     inkscape:cx="15.987938"
     inkscape:cy="16.880927"
     inkscape:window-width="1920"
     inkscape:window-height="1056"
     inkscape:window-x="0"
     inkscape:window-y="24"
     inkscape:window-maximized="1"
     inkscape:current-layer="svg65" />
  <path
     d="m 46.143538,-47.999972 a 3,3 0 1 0 5.196066,2.999817 10,10 0 0 1 1.292427,-1.761132 l 4.769735,8.261511 a 3.0002695,3.0002695 0 0 0 5.196582,-3.000334 L 56.09797,-52.758337 a 3,3 0 0 0 -4.097942,-1.098125 16,16 0 0 0 -5.85649,5.85649 z"
     style="fill:#0a0a0a;fill-opacity:1;stroke:none"
     id="path84" />
  <path
     d="m 44.545186,-44.141292 a 3,3 0 1 0 5.795512,1.552876 10,10 0 0 1 0.998906,-2.411739 3,3 0 1 1 -5.196066,-2.999817 16,16 0 0 0 -1.598352,3.85868 z"
     style="fill:#0a0a0a;fill-opacity:1;stroke:none;stroke-width:0.25;opacity:0.95"
     id="path83" />
  <path
     d="m 44,-39.999943 a 3.0000755,3.0000755 0 1 0 6.000151,0 10,10 0 0 1 0.340547,-2.588473 3,3 0 1 1 -5.795512,-1.552876 A 16,16 0 0 0 44,-39.999943 Z"
     style="fill:#0a0a0a;fill-opacity:1;stroke:none;stroke-width:0.25;opacity:0.9"
     id="path82" />
  <path
     d="m 44.545186,-35.859111 a 3,3 0 1 0 5.795512,-1.552876 10,10 0 0 1 -0.340547,-2.587956 3.0000755,3.0000755 0 1 1 -6.000151,0 16,16 0 0 0 0.545186,4.140832 z"
     style="fill:#0a0a0a;fill-opacity:1;stroke:none;stroke-width:0.25;opacity:0.85"
     id="path81" />
  <path
     d="m 46.143538,-31.999915 a 3.0000458,3.0000458 0 0 0 5.196066,-3.000333 10,10 0 0 1 -0.998906,-2.411739 3,3 0 1 1 -5.795512,1.552876 16,16 0 0 0 1.598352,3.859196 z"
     style="fill:#0a0a0a;fill-opacity:1;stroke:none;stroke-width:0.25;opacity:0.8"
     id="path80" />
  <path
     d="m 48.686536,-28.686422 a 3,3 0 1 0 4.242118,-4.242635 10,10 0 0 1 -1.58905,-2.071191 3.0000458,3.0000458 0 0 1 -5.196066,3.000333 16,16 0 0 0 2.542998,3.313493 z"
     style="fill:#0a0a0a;fill-opacity:1;stroke:none;stroke-width:0.25;opacity:0.75"
     id="path79" />
  <path
     d="m 52.000028,-26.143424 a 3,3 0 1 0 2.999817,-5.196066 10,10 0 0 1 -2.071191,-1.589567 3,3 0 1 1 -4.242118,4.242635 16,16 0 0 0 3.313492,2.542998 z"
     style="fill:#0a0a0a;fill-opacity:1;stroke:none;stroke-width:0.25;opacity:0.7"
     id="path78" />
  <path
     d="m 55.858708,-24.545072 a 3,3 0 1 0 1.552876,-5.795512 10,10 0 0 1 -2.411739,-0.998906 3,3 0 1 1 -2.999817,5.196066 16,16 0 0 0 3.85868,1.598352 z"
     style="fill:#0a0a0a;fill-opacity:1;stroke:none;stroke-width:0.25;opacity:0.65"
     id="path77" />
  <path
     d="m 60.000057,-23.999886 a 3.0000755,3.0000755 0 0 0 0,-6.000151 10,10 0 0 1 -2.588473,-0.340547 3,3 0 1 1 -1.552876,5.795512 16,16 0 0 0 4.141349,0.545186 z"
     style="fill:#0a0a0a;fill-opacity:1;stroke:none;stroke-width:0.25;opacity:0.6"
     id="path76" />
  <path
     d="m 64.140889,-24.545072 a 3,3 0 1 0 -1.552876,-5.795512 10,10 0 0 1 -2.587956,0.340547 3.0000755,3.0000755 0 0 1 0,6.000151 16,16 0 0 0 4.140832,-0.545186 z"
     style="fill:#0a0a0a;fill-opacity:1;stroke:none;stroke-width:0.25;opacity:0.55"
     id="path75" />
  <path
     d="m 68.000085,-26.143424 a 3.0000458,3.0000458 0 1 0 -3.000333,-5.196066 10,10 0 0 1 -2.411739,0.998906 3,3 0 1 1 1.552876,5.795512 16,16 0 0 0 3.859196,-1.598352 z"
     style="fill:#0a0a0a;fill-opacity:1;stroke:none;stroke-width:0.25;opacity:0.5"
     id="path74" />
  <path
     d="m 71.313578,-28.686422 a 3,3 0 1 0 -4.242635,-4.242635 10,10 0 0 1 -2.071191,1.589567 3.0000458,3.0000458 0 1 1 3.000333,5.196066 16,16 0 0 0 3.313493,-2.542998 z"
     style="fill:#0a0a0a;fill-opacity:1;stroke:none;stroke-width:0.25;opacity:0.45"
     id="path73" />
  <path
     d="m 73.856576,-31.999915 a 3.0000458,3.0000458 0 0 0 -5.196066,-3.000333 10,10 0 0 1 -1.589567,2.071191 3,3 0 1 1 4.242635,4.242635 16,16 0 0 0 2.542998,-3.313493 z"
     style="fill:#0a0a0a;fill-opacity:1;stroke:none;stroke-width:0.25;opacity:0.4"
     id="path72" />
  <path
     d="m 75.454928,-35.859111 a 3,3 0 1 0 -5.795512,-1.552876 10,10 0 0 1 -0.998906,2.411739 3.0000458,3.0000458 0 0 1 5.196066,3.000333 16,16 0 0 0 1.598352,-3.859196 z"
     style="fill:#0a0a0a;fill-opacity:1;stroke:none;stroke-width:0.25;opacity:0.35"
     id="path71" />
  <path
     d="m 67.070943,-47.071346 a 3,3 0 0 1 4.242635,-4.242118 16,16 0 0 0 -3.313493,-2.542998 3.0000458,3.0000458 0 0 0 -3.000333,5.196066 10,10 0 0 1 2.071191,1.58905 z"
     style="fill:#0a0a0a;fill-opacity:1;stroke:none;stroke-width:0.25;opacity:0.1"
     id="path70" />
  <path
     d="m 68.66051,-45.000155 a 3,3 0 1 1 5.196066,-2.999817 16,16 0 0 0 -2.542998,-3.313492 3,3 0 0 0 -4.242635,4.242118 10,10 0 0 1 1.589567,2.071191 z"
     style="fill:#0a0a0a;fill-opacity:1;stroke:none;stroke-width:0.25;opacity:0.15"
     id="path69" />
  <path
     d="m 69.659416,-42.588416 a 3,3 0 0 1 5.795512,-1.552876 16,16 0 0 0 -1.598352,-3.85868 3,3 0 1 0 -5.196066,2.999817 10,10 0 0 1 0.998906,2.411739 z"
     style="fill:#0a0a0a;fill-opacity:1;stroke:none;stroke-width:0.25;opacity:0.2"
     id="path68" />
  <path
     d="m 76.000114,-39.999943 a 16,16 0 0 0 -0.545186,-4.141349 3,3 0 0 0 -5.795512,1.552876 10,10 0 0 1 0.340547,2.588473 3.0000755,3.0000755 0 0 1 6.000151,0 z"
     style="fill:#0a0a0a;fill-opacity:1;stroke:none;stroke-width:0.25;opacity:0.25"
     id="path67" />
  <path
     d="m 76.000114,-39.999943 a 3.0000755,3.0000755 0 0 0 -6.000151,0 10,10 0 0 1 -0.340547,2.587956 3,3 0 1 1 5.795512,1.552876 16,16 0 0 0 0.545186,-4.140832 z"
     style="fill:#0a0a0a;fill-opacity:1;stroke:none;stroke-width:0.25;opacity:0.3"
     id="path66" />
  <metadata
     id="metadata84">
    <rdf:RDF>
      <cc:Work
         rdf:about="">
        <dc:creator>
          <cc:Agent>
            <dc:title>Matthias Seidel</dc:title>
          </cc:Agent>
        </dc:creator>
      </cc:Work>
    </rdf:RDF>
  </metadata>
</svg>
