<?xml version="1.0" encoding="UTF-8" standalone="no"?>
<svg
   width="16"
   height="16"
   viewBox="52 -51 16 16"
   version="1.1"
   style="fill:none;stroke-linecap:round;stroke-linejoin:round"
   id="svg65"
   sodipodi:docname="spinner-16-05.svg"
   inkscape:export-filename="spinner-16-05.png"
   inkscape:export-xdpi="96"
   inkscape:export-ydpi="96"
   inkscape:version="1.3.2 (091e20ef0f, 2023-11-25)"
   xmlns:inkscape="http://www.inkscape.org/namespaces/inkscape"
   xmlns:sodipodi="http://sodipodi.sourceforge.net/DTD/sodipodi-0.dtd"
   xmlns="http://www.w3.org/2000/svg"
   xmlns:svg="http://www.w3.org/2000/svg"
   xmlns:rdf="http://www.w3.org/1999/02/22-rdf-syntax-ns#"
   xmlns:cc="http://creativecommons.org/ns#"
   xmlns:dc="http://purl.org/dc/elements/1.1/">
  <defs
     id="defs65" />
  <sodipodi:namedview
     id="namedview65"
     pagecolor="#ffffff"
     bordercolor="#cccccc"
     borderopacity="1"
     inkscape:showpageshadow="0"
     inkscape:pageopacity="1"
     inkscape:pagecheckerboard="0"
     inkscape:deskcolor="#d1d1d1"
     inkscape:document-units="px"
     inkscape:zoom="55.062304"
     inkscape:cx="8.0000285"
     inkscape:cy="8.0000285"
     inkscape:window-width="1920"
     inkscape:window-height="1056"
     inkscape:window-x="0"
     inkscape:window-y="24"
     inkscape:window-maximized="1"
     inkscape:current-layer="svg65" />
  <path
     d="m 55.999756,-49.928231 a 1.5001348,1.5001348 0 0 0 1.500167,2.598291 5,5 0 0 1 1.206128,-0.499711 1.5000164,1.5000164 0 0 1 -0.776697,-2.897497 8,8 0 0 0 -1.929598,0.798917 z"
     style="fill:#0a0a0a;stroke:none;stroke-width:0.25;opacity:0.6"
     id="path84" />
  <path
     d="m 54.343009,-48.656991 a 1.5000563,1.5000563 0 0 0 2.121318,2.121318 5,5 0 0 1 1.035596,-0.794267 1.5001348,1.5001348 0 0 1 -1.500167,-2.598291 8,8 0 0 0 -1.656747,1.27124 z"
     style="fill:#0a0a0a;stroke:none;stroke-width:0.25;opacity:0.55"
     id="path83" />
  <path
     d="m 53.071769,-47.000244 a 1.5001348,1.5001348 0 0 0 2.598291,1.500167 5,5 0 0 1 0.794267,-1.035596 1.5000563,1.5000563 0 0 1 -2.121318,-2.121318 8,8 0 0 0 -1.27124,1.656747 z"
     style="fill:#0a0a0a;stroke:none;stroke-width:0.25;opacity:0.5"
     id="path82" />
  <path
     d="m 52.272852,-45.070646 a 1.5000164,1.5000164 0 1 0 2.897497,0.776697 5,5 0 0 1 0.499711,-1.206128 1.5001348,1.5001348 0 0 1 -2.598291,-1.500167 8,8 0 0 0 -0.798917,1.929598 z"
     style="fill:#0a0a0a;stroke:none;stroke-width:0.25;opacity:0.45"
     id="path81" />
  <path
     d="m 52,-42.999972 a 1.5,1.5 0 0 0 2.999817,0 5,5 0 0 1 0.170532,-1.293977 1.5000164,1.5000164 0 1 1 -2.897497,-0.776697 A 8,8 0 0 0 52,-42.999972 Z"
     style="fill:#0a0a0a;stroke:none;stroke-width:0.25;opacity:0.4"
     id="path80" />
  <path
     d="m 52.272852,-40.929297 a 1.5000164,1.5000164 0 1 0 2.897497,-0.776697 5,5 0 0 1 -0.170532,-1.293978 1.5,1.5 0 0 1 -2.999817,0 8,8 0 0 0 0.272852,2.070675 z"
     style="fill:#0a0a0a;stroke:none;stroke-width:0.25;opacity:0.35"
     id="path79" />
  <path
     d="m 53.071769,-39.000216 a 1.5000103,1.5000103 0 0 0 2.598291,-1.49965 5,5 0 0 1 -0.499711,-1.206128 1.5000164,1.5000164 0 1 1 -2.897497,0.776697 8,8 0 0 0 0.798917,1.929081 z"
     style="fill:#0a0a0a;stroke:none;stroke-width:0.25;opacity:0.3"
     id="path78" />
  <path
     d="m 54.343009,-37.342952 a 1.5000563,1.5000563 0 0 0 2.121318,-2.121318 5,5 0 0 1 -0.794267,-1.035596 1.5000103,1.5000103 0 0 1 -2.598291,1.49965 8,8 0 0 0 1.27124,1.657264 z"
     style="fill:#0a0a0a;stroke:none;stroke-width:0.25;opacity:0.25"
     id="path77" />
  <path
     d="m 55.999756,-36.071712 a 1.5001348,1.5001348 0 0 0 1.500167,-2.598291 5,5 0 0 1 -1.035596,-0.794267 1.5000563,1.5000563 0 0 1 -2.121318,2.121318 8,8 0 0 0 1.656747,1.27124 z"
     style="fill:#0a0a0a;stroke:none;stroke-width:0.25;opacity:0.2"
     id="path76" />
  <path
     d="m 57.929354,-35.272795 a 1.5000164,1.5000164 0 0 0 0.776697,-2.897497 5,5 0 0 1 -1.206128,-0.499711 1.5001348,1.5001348 0 0 1 -1.500167,2.598291 8,8 0 0 0 1.929598,0.798917 z"
     style="fill:#0a0a0a;stroke:none;stroke-width:0.25;opacity:0.15"
     id="path75" />
  <path
     d="m 60.000028,-34.999943 a 1.5,1.5 0 0 0 0,-2.999817 5,5 0 0 1 -1.293977,-0.170532 1.5000164,1.5000164 0 0 1 -0.776697,2.897497 8,8 0 0 0 2.070674,0.272852 z"
     style="fill:#0a0a0a;stroke:none;stroke-width:0.25;opacity:0.1"
     id="path74" />
  <path
     d="m 68.000057,-42.999972 a 1.5,1.5 0 0 0 -2.999817,0 5,5 0 0 1 -0.119372,1.085722 l -4.131014,-2.384867 a 1.5000058,1.5000058 0 0 0 -1.499651,2.598291 l 5.629114,3.249931 a 1.5,1.5 0 0 0 2.048971,-0.549321 8,8 0 0 0 1.071769,-3.999756 z"
     style="fill:#0a0a0a;stroke:none"
     id="path73" />
  <path
     d="m 67.727205,-45.070646 a 1.5000164,1.5000164 0 0 0 -2.897497,0.776697 5,5 0 0 1 0.170532,1.293977 1.5,1.5 0 0 1 2.999817,0 8,8 0 0 0 -0.272852,-2.070674 z"
     style="fill:#0a0a0a;stroke:none;stroke-width:0.25;opacity:0.95"
     id="path72" />
  <path
     d="m 66.928288,-47.000244 a 1.5001348,1.5001348 0 0 0 -2.598291,1.500167 5,5 0 0 1 0.499711,1.206128 1.5000164,1.5000164 0 0 1 2.897497,-0.776697 8,8 0 0 0 -0.798917,-1.929598 z"
     style="fill:#0a0a0a;stroke:none;stroke-width:0.25;opacity:0.9"
     id="path71" />
  <path
     d="m 65.657048,-48.656991 a 1.5000563,1.5000563 0 0 0 -2.121318,2.121318 5,5 0 0 1 0.794267,1.035596 1.5001348,1.5001348 0 0 1 2.598291,-1.500167 8,8 0 0 0 -1.27124,-1.656747 z"
     style="fill:#0a0a0a;stroke:none;stroke-width:0.25;opacity:0.85"
     id="path70" />
  <path
     d="m 63.999784,-49.928231 a 1.5000103,1.5000103 0 0 0 -1.49965,2.598291 5,5 0 0 1 1.035596,0.794267 1.5000563,1.5000563 0 0 1 2.121318,-2.121318 8,8 0 0 0 -1.657264,-1.27124 z"
     style="fill:#0a0a0a;stroke:none;stroke-width:0.25;opacity:0.8"
     id="path69" />
  <path
     d="m 61.294006,-47.829651 a 5,5 0 0 1 1.206128,0.499711 1.5000103,1.5000103 0 0 1 1.49965,-2.598291 8,8 0 0 0 -1.929081,-0.798917 1.5000164,1.5000164 0 0 0 -0.776697,2.897497 z"
     style="fill:#0a0a0a;stroke:none;stroke-width:0.25;opacity:0.75"
     id="path68" />
  <path
     d="m 60.000028,-51 a 8,8 0 0 0 -2.070674,0.272852 1.5000164,1.5000164 0 0 0 0.776697,2.897497 5,5 0 0 1 1.293977,-0.170532 1.5,1.5 0 0 1 0,-2.999817 z"
     style="fill:#0a0a0a;stroke:none;stroke-width:0.25;opacity:0.65"
     id="path67" />
  <path
     d="m 60.000028,-51 a 1.5,1.5 0 0 0 0,2.999817 5,5 0 0 1 1.293978,0.170532 1.5000164,1.5000164 0 0 1 0.776697,-2.897497 A 8,8 0 0 0 60.000028,-51 Z"
     style="fill:#0a0a0a;stroke:none;stroke-width:0.25;opacity:0.7"
     id="path66" />
  <metadata
     id="metadata84">
    <rdf:RDF>
      <cc:Work
         rdf:about="">
        <dc:creator>
          <cc:Agent>
            <dc:title>Matthias Seidel</dc:title>
          </cc:Agent>
        </dc:creator>
      </cc:Work>
    </rdf:RDF>
  </metadata>
</svg>
