<?xml version="1.0" encoding="UTF-8" standalone="no"?>
<svg
   width="64"
   height="64"
   viewBox="28 -62 64 64"
   version="1.1"
   style="fill:none;stroke-linecap:round;stroke-linejoin:round"
   id="svg38"
   sodipodi:docname="spinner-64-07.svg"
   inkscape:export-filename="spinner-64-07.png"
   inkscape:export-xdpi="96"
   inkscape:export-ydpi="96"
   inkscape:version="1.3.2 (091e20ef0f, 2023-11-25)"
   xmlns:inkscape="http://www.inkscape.org/namespaces/inkscape"
   xmlns:sodipodi="http://sodipodi.sourceforge.net/DTD/sodipodi-0.dtd"
   xmlns="http://www.w3.org/2000/svg"
   xmlns:svg="http://www.w3.org/2000/svg"
   xmlns:rdf="http://www.w3.org/1999/02/22-rdf-syntax-ns#"
   xmlns:cc="http://creativecommons.org/ns#"
   xmlns:dc="http://purl.org/dc/elements/1.1/">
  <defs
     id="defs38" />
  <sodipodi:namedview
     id="namedview38"
     pagecolor="#ffffff"
     bordercolor="#cccccc"
     borderopacity="1"
     inkscape:showpageshadow="0"
     inkscape:pageopacity="1"
     inkscape:pagecheckerboard="0"
     inkscape:deskcolor="#d1d1d1"
     inkscape:document-units="px"
     inkscape:zoom="13.765553"
     inkscape:cx="31.963845"
     inkscape:cy="32.000168"
     inkscape:window-width="1920"
     inkscape:window-height="1056"
     inkscape:window-x="0"
     inkscape:window-y="24"
     inkscape:window-maximized="1"
     inkscape:current-layer="svg38" />
  <path
     d="m 32.287077,-45.999943 a 6.0001859,6.0001859 0 0 0 10.392647,6.000151 20,20 0 0 1 7.320484,-7.320484 6.0001859,6.0001859 0 1 1 -6.000151,-10.392647 32,32 0 0 0 -11.71298,11.71298 z"
     style="fill:#0a0a0a;opacity:0.3"
     id="path48" />
  <path
     d="m 28,-29.999886 a 32,32 0 0 0 4.287077,16.000057 6.0001859,6.0001859 0 0 0 10.392647,-6.000151 20,20 0 0 1 -2.67994,-9.999906 6,6 0 0 1 -11.999784,0 z"
     style="fill:#0a0a0a;stroke-width:0.25;opacity:0.1"
     id="path47" />
  <path
     d="m 28,-29.999886 a 6,6 0 0 0 11.999784,0 20,20 0 0 1 2.67994,-9.999906 A 6.0001859,6.0001859 0 0 1 32.287077,-45.999943 32,32 0 0 0 28,-29.999886 Z"
     style="fill:#0a0a0a;opacity:0.2"
     id="path46" />
  <path
     d="m 76.000171,-2.2873657 a 6,6 0 0 0 -6.000151,-10.3921303 20,20 0 0 1 -4.000272,1.758549 v -19.078939 a 6,6 0 0 0 -11.999785,0 v 25.9999633 a 6,6 0 0 0 6.000151,6.0001506 32,32 0 0 0 16.000057,-4.2875936 z"
     style="fill:#0a0a0a"
     id="path45" />
  <path
     d="m 87.712634,-13.999829 a 6,6 0 1 0 -10.39213,-6.000151 20,20 0 0 1 -7.320484,7.320484 6,6 0 0 1 6.000151,10.3921303 32,32 0 0 0 11.712463,-11.7124633 z"
     style="fill:#0a0a0a;opacity:0.9"
     id="path44" />
  <path
     d="m 92.000228,-29.999886 a 6.0001506,6.0001506 0 0 0 -12.000301,0 20,20 0 0 1 -2.679423,9.999906 6,6 0 1 1 10.39213,6.000151 32,32 0 0 0 4.287594,-16.000057 z"
     style="fill:#0a0a0a;opacity:0.8"
     id="path43" />
  <path
     d="m 87.712634,-45.999943 a 6,6 0 1 0 -10.39213,6.000151 20,20 0 0 1 2.679423,9.999906 6.0001506,6.0001506 0 0 1 12.000301,0 32,32 0 0 0 -4.287594,-16.000057 z"
     style="fill:#0a0a0a;opacity:0.7"
     id="path42" />
  <path
     d="m 70.00002,-47.320276 a 20,20 0 0 1 7.320484,7.320484 6,6 0 1 1 10.39213,-6.000151 32,32 0 0 0 -11.712463,-11.71298 6.0001859,6.0001859 0 0 0 -6.000151,10.392647 z"
     style="fill:#0a0a0a;opacity:0.6"
     id="path41" />
  <path
     d="m 60.000114,-62 a 32,32 0 0 0 -16.000057,4.287077 6.0001859,6.0001859 0 1 0 6.000151,10.392647 20,20 0 0 1 9.999906,-2.67994 6,6 0 1 1 0,-11.999784 z"
     style="fill:#0a0a0a;opacity:0.4"
     id="path40" />
  <path
     d="m 60.000114,-62 a 6,6 0 1 0 0,11.999784 20,20 0 0 1 9.999906,2.67994 6.0001859,6.0001859 0 0 1 6.000151,-10.392647 A 32,32 0 0 0 60.000114,-62 Z"
     style="fill:#0a0a0a;opacity:0.5"
     id="path39" />
  <metadata
     id="metadata48">
    <rdf:RDF>
      <cc:Work
         rdf:about="">
        <dc:creator>
          <cc:Agent>
            <dc:title>Matthias Seidel</dc:title>
          </cc:Agent>
        </dc:creator>
      </cc:Work>
    </rdf:RDF>
  </metadata>
</svg>
