<?xml version="1.0" encoding="UTF-8" standalone="no"?>
<svg
   width="64"
   height="64"
   viewBox="28 -62 64 64"
   version="1.1"
   style="fill:none;stroke-linecap:round;stroke-linejoin:round"
   id="svg64"
   sodipodi:docname="spinner-64-01.svg"
   inkscape:version="1.3.2 (091e20ef0f, 2023-11-25)"
   inkscape:export-filename="spinner-64-01.png"
   inkscape:export-xdpi="96"
   inkscape:export-ydpi="96"
   xmlns:inkscape="http://www.inkscape.org/namespaces/inkscape"
   xmlns:sodipodi="http://sodipodi.sourceforge.net/DTD/sodipodi-0.dtd"
   xmlns="http://www.w3.org/2000/svg"
   xmlns:svg="http://www.w3.org/2000/svg"
   xmlns:rdf="http://www.w3.org/1999/02/22-rdf-syntax-ns#"
   xmlns:cc="http://creativecommons.org/ns#"
   xmlns:dc="http://purl.org/dc/elements/1.1/">
  <defs
     id="defs64" />
  <sodipodi:namedview
     id="namedview64"
     pagecolor="#ffffff"
     bordercolor="#cccccc"
     borderopacity="1"
     inkscape:showpageshadow="0"
     inkscape:pageopacity="1"
     inkscape:pagecheckerboard="0"
     inkscape:deskcolor="#d1d1d1"
     inkscape:document-units="px"
     inkscape:zoom="13.765576"
     inkscape:cx="32.072759"
     inkscape:cy="32.000114"
     inkscape:window-width="1920"
     inkscape:window-height="1056"
     inkscape:window-x="0"
     inkscape:window-y="24"
     inkscape:window-maximized="1"
     inkscape:current-layer="svg64" />
  <path
     d="m 79.318315,-35.176314 a 6.0001983,6.0001983 0 0 1 11.59154,-3.105754 32,32 0 0 0 -3.197221,-7.717875 6,6 0 1 0 -10.39213,6.000151 20,20 0 0 1 1.997811,4.823478 z"
     style="opacity:0.1;fill:#0a0a0a;stroke:none;stroke-width:0.25"
     id="path83" />
  <path
     d="m 79.999927,-29.999886 a 6.0001506,6.0001506 0 0 1 12.000301,0 32,32 0 0 0 -1.090373,-8.282182 6.0001983,6.0001983 0 0 0 -11.59154,3.105754 20,20 0 0 1 0.681612,5.176428 z"
     style="opacity:0.15;fill:#0a0a0a;stroke:none;stroke-width:0.25"
     id="path82" />
  <path
     d="m 79.318315,-24.823458 a 6.0001983,6.0001983 0 1 1 11.59154,3.105754 32,32 0 0 0 1.090373,-8.282182 6.0001506,6.0001506 0 0 0 -12.000301,0 20,20 0 0 1 -0.681612,5.176428 z"
     style="opacity:0.2;fill:#0a0a0a;stroke:none;stroke-width:0.25"
     id="path81" />
  <path
     d="m 77.320504,-19.99998 a 6,6 0 1 1 10.39213,6.000151 32,32 0 0 0 3.197221,-7.717875 6.0001983,6.0001983 0 1 0 -11.59154,-3.105754 20,20 0 0 1 -1.997811,4.823478 z"
     style="opacity:0.25;fill:#0a0a0a;stroke:none;stroke-width:0.25"
     id="path80" />
  <path
     d="m 74.141886,-15.858114 a 6.0000132,6.0000132 0 0 1 8.485271,8.4852706 32,32 0 0 0 5.085477,-6.6269856 6,6 0 1 0 -10.39213,-6.000151 20,20 0 0 1 -3.178618,4.141866 z"
     style="opacity:0.3;fill:#0a0a0a;stroke:none;stroke-width:0.25"
     id="path79" />
  <path
     d="m 70.00002,-12.679496 a 6,6 0 1 1 6.000151,10.3921303 32,32 0 0 0 6.626986,-5.0854777 6.0000132,6.0000132 0 0 0 -8.485271,-8.4852706 20,20 0 0 1 -4.141866,3.178618 z"
     style="opacity:0.35;fill:#0a0a0a;stroke:none;stroke-width:0.25"
     id="path78" />
  <path
     d="M 65.176542,-10.681685 A 6.0001983,6.0001983 0 1 1 68.282296,0.90985514 32,32 0 0 0 76.000171,-2.2873657 6,6 0 1 0 70.00002,-12.679496 20,20 0 0 1 65.176542,-10.681685 Z"
     style="opacity:0.4;fill:#0a0a0a;stroke:none;stroke-width:0.25"
     id="path77" />
  <path
     d="m 60.000114,-10.000073 a 6.0001506,6.0001506 0 0 1 0,12.0003009 32,32 0 0 0 8.282182,-1.09037276 6.0001983,6.0001983 0 1 0 -3.105754,-11.59154014 20,20 0 0 1 -5.176428,0.681612 z"
     style="opacity:0.45;fill:#0a0a0a;stroke:none;stroke-width:0.25"
     id="path76" />
  <path
     d="m 54.823686,-10.681685 a 6.0001983,6.0001983 0 1 1 -3.105754,11.59154014 32,32 0 0 0 8.282182,1.09037276 6.0001506,6.0001506 0 0 0 0,-12.0003009 20,20 0 0 1 -5.176428,-0.681612 z"
     style="opacity:0.5;fill:#0a0a0a;stroke:none;stroke-width:0.25"
     id="path75" />
  <path
     d="m 50.000208,-12.679496 a 6,6 0 0 1 -6.000151,10.3921303 32,32 0 0 0 7.717875,3.19722084 6.0001983,6.0001983 0 1 0 3.105754,-11.59154014 20,20 0 0 1 -4.823478,-1.997811 z"
     style="opacity:0.55;fill:#0a0a0a;stroke:none;stroke-width:0.25"
     id="path74" />
  <path
     d="m 45.857825,-15.858114 a 6.0000132,6.0000132 0 0 1 -8.48527,8.4852706 32,32 0 0 0 6.627502,5.0854777 6,6 0 0 0 6.000151,-10.3921303 20,20 0 0 1 -4.142383,-3.178618 z"
     style="opacity:0.6;fill:#0a0a0a;stroke:none;stroke-width:0.25"
     id="path73" />
  <path
     d="m 42.679724,-19.99998 a 6.0001859,6.0001859 0 1 1 -10.392647,6.000151 32,32 0 0 0 5.085478,6.6269856 6.0000132,6.0000132 0 0 0 8.48527,-8.4852706 20,20 0 0 1 -3.178101,-4.141866 z"
     style="opacity:0.65;fill:#0a0a0a;stroke:none;stroke-width:0.25"
     id="path72" />
  <path
     d="m 40.681396,-24.823458 a 6,6 0 1 1 -11.591023,3.105754 32,32 0 0 0 3.196704,7.717875 6.0001859,6.0001859 0 1 0 10.392647,-6.000151 20,20 0 0 1 -1.998328,-4.823478 z"
     style="opacity:0.7;fill:#0a0a0a;stroke:none;stroke-width:0.25"
     id="path71" />
  <path
     d="m 39.999784,-29.999886 a 6,6 0 0 1 -11.999784,0 32,32 0 0 0 1.090373,8.282182 6,6 0 1 0 11.591023,-3.105754 20,20 0 0 1 -0.681612,-5.176428 z"
     style="opacity:0.75;fill:#0a0a0a;stroke:none;stroke-width:0.25"
     id="path70" />
  <path
     d="M 40.681396,-35.176314 A 6,6 0 0 1 29.090373,-38.282068 32,32 0 0 0 28,-29.999886 a 6,6 0 0 0 11.999784,0 20,20 0 0 1 0.681612,-5.176428 z"
     style="opacity:0.8;fill:#0a0a0a;stroke:none;stroke-width:0.25"
     id="path69" />
  <path
     d="m 42.679724,-39.999792 a 6.0001859,6.0001859 0 0 1 -10.392647,-6.000151 32,32 0 0 0 -3.196704,7.717875 6,6 0 0 0 11.591023,3.105754 20,20 0 0 1 1.998328,-4.823478 z"
     style="opacity:0.85;fill:#0a0a0a;stroke:none;stroke-width:0.25"
     id="path68" />
  <path
     d="m 45.857825,-44.142175 a 6.0000132,6.0000132 0 0 1 -8.48527,-8.48527 32,32 0 0 0 -5.085478,6.627502 6.0001859,6.0001859 0 0 0 10.392647,6.000151 20,20 0 0 1 3.178101,-4.142383 z"
     style="opacity:0.9;fill:#0a0a0a;stroke:none;stroke-width:0.25"
     id="path67" />
  <path
     d="m 50.000208,-47.320276 a 6.0001859,6.0001859 0 1 1 -6.000151,-10.392647 32,32 0 0 0 -6.627502,5.085478 6.0000132,6.0000132 0 0 0 8.48527,8.48527 20,20 0 0 1 4.142383,-3.178101 z"
     style="opacity:0.95;fill:#0a0a0a;stroke:none;stroke-width:0.25"
     id="path66" />
  <path
     d="m 60.000114,-62 a 32,32 0 0 0 -16.000057,4.287077 6.0001859,6.0001859 0 1 0 6.000151,10.392647 20,20 0 0 1 3.999755,-1.758549 v 19.078939 a 6,6 0 0 0 11.999785,0 V -55.999849 A 6,6 0 0 0 60.000114,-62 Z"
     style="fill:#0a0a0a;stroke:none"
     id="path65" />
  <metadata
     id="metadata83">
    <rdf:RDF>
      <cc:Work
         rdf:about="">
        <dc:creator>
          <cc:Agent>
            <dc:title>Matthias Seidel</dc:title>
          </cc:Agent>
        </dc:creator>
      </cc:Work>
    </rdf:RDF>
  </metadata>
</svg>
