<?xml version="1.0" encoding="UTF-8" standalone="no"?>
<svg
   width="16"
   height="16"
   viewBox="52 -51 16 16"
   version="1.1"
   style="fill:none;stroke-linecap:round;stroke-linejoin:round"
   id="svg65"
   sodipodi:docname="spinner-16-02.svg"
   inkscape:export-filename="spinner-16-02.png"
   inkscape:export-xdpi="96"
   inkscape:export-ydpi="96"
   inkscape:version="1.3.2 (091e20ef0f, 2023-11-25)"
   xmlns:inkscape="http://www.inkscape.org/namespaces/inkscape"
   xmlns:sodipodi="http://sodipodi.sourceforge.net/DTD/sodipodi-0.dtd"
   xmlns="http://www.w3.org/2000/svg"
   xmlns:svg="http://www.w3.org/2000/svg"
   xmlns:rdf="http://www.w3.org/1999/02/22-rdf-syntax-ns#"
   xmlns:cc="http://creativecommons.org/ns#"
   xmlns:dc="http://purl.org/dc/elements/1.1/">
  <defs
     id="defs65" />
  <sodipodi:namedview
     id="namedview65"
     pagecolor="#ffffff"
     bordercolor="#cccccc"
     borderopacity="1"
     inkscape:showpageshadow="0"
     inkscape:pageopacity="1"
     inkscape:pagecheckerboard="0"
     inkscape:deskcolor="#d1d1d1"
     inkscape:document-units="px"
     inkscape:zoom="55.062304"
     inkscape:cx="8.0000285"
     inkscape:cy="8.0000285"
     inkscape:window-width="1920"
     inkscape:window-height="1056"
     inkscape:window-x="0"
     inkscape:window-y="24"
     inkscape:window-maximized="1"
     inkscape:current-layer="svg65" />
  <path
     d="m 64.829708,-41.705994 a 1.5000164,1.5000164 0 0 1 2.897497,0.776697 8,8 0 0 0 0.272852,-2.070675 1.5,1.5 0 0 0 -2.999817,0 5,5 0 0 1 -0.170532,1.293978 z"
     style="fill:#0a0a0a;stroke-width:0.25;opacity:0.1"
     id="path84" />
  <path
     d="m 64.329997,-40.499866 a 1.5000103,1.5000103 0 0 1 2.598291,1.49965 8,8 0 0 0 0.798917,-1.929081 1.5000164,1.5000164 0 0 0 -2.897497,-0.776697 5,5 0 0 1 -0.499711,1.206128 z"
     style="fill:#0a0a0a;stroke-width:0.25;opacity:0.15"
     id="path83" />
  <path
     d="m 63.53573,-39.46427 a 1.5000563,1.5000563 0 0 1 2.121318,2.121318 8,8 0 0 0 1.27124,-1.657264 1.5000103,1.5000103 0 0 0 -2.598291,-1.49965 5,5 0 0 1 -0.794267,1.035596 z"
     style="fill:#0a0a0a;stroke-width:0.25;opacity:0.2"
     id="path82" />
  <path
     d="m 62.500134,-38.670003 a 1.5000103,1.5000103 0 0 1 1.49965,2.598291 8,8 0 0 0 1.657264,-1.27124 1.5000563,1.5000563 0 0 0 -2.121318,-2.121318 5,5 0 0 1 -1.035596,0.794267 z"
     style="fill:#0a0a0a;stroke-width:0.25;opacity:0.25"
     id="path81" />
  <path
     d="m 61.294006,-38.170292 a 1.5000164,1.5000164 0 1 1 0.776697,2.897497 8,8 0 0 0 1.929081,-0.798917 1.5000103,1.5000103 0 0 0 -1.49965,-2.598291 5,5 0 0 1 -1.206128,0.499711 z"
     style="fill:#0a0a0a;stroke-width:0.25;opacity:0.3"
     id="path80" />
  <path
     d="m 60.000028,-37.99976 a 1.5,1.5 0 0 1 0,2.999817 8,8 0 0 0 2.070675,-0.272852 1.5000164,1.5000164 0 1 0 -0.776697,-2.897497 5,5 0 0 1 -1.293978,0.170532 z"
     style="fill:#0a0a0a;stroke-width:0.25;opacity:0.35"
     id="path79" />
  <path
     d="m 58.706051,-38.170292 a 1.5000164,1.5000164 0 1 1 -0.776697,2.897497 8,8 0 0 0 2.070674,0.272852 1.5,1.5 0 0 0 0,-2.999817 5,5 0 0 1 -1.293977,-0.170532 z"
     style="fill:#0a0a0a;stroke-width:0.25;opacity:0.4"
     id="path78" />
  <path
     d="m 57.499923,-38.670003 a 1.5001348,1.5001348 0 0 1 -1.500167,2.598291 8,8 0 0 0 1.929598,0.798917 1.5000164,1.5000164 0 1 0 0.776697,-2.897497 5,5 0 0 1 -1.206128,-0.499711 z"
     style="fill:#0a0a0a;stroke-width:0.25;opacity:0.45"
     id="path77" />
  <path
     d="m 56.464327,-39.46427 a 1.5000563,1.5000563 0 0 1 -2.121318,2.121318 8,8 0 0 0 1.656747,1.27124 1.5001348,1.5001348 0 0 0 1.500167,-2.598291 5,5 0 0 1 -1.035596,-0.794267 z"
     style="opacity:0.5;fill:#0a0a0a;stroke-width:0.25"
     id="path76" />
  <path
     d="m 55.67006,-40.499866 a 1.5000103,1.5000103 0 0 1 -2.598291,1.49965 8,8 0 0 0 1.27124,1.657264 1.5000563,1.5000563 0 0 0 2.121318,-2.121318 5,5 0 0 1 -0.794267,-1.035596 z"
     style="opacity:0.55;fill:#0a0a0a;stroke-width:0.25"
     id="path75" />
  <path
     d="m 55.170349,-41.705994 a 1.5000164,1.5000164 0 0 1 -2.897497,0.776697 8,8 0 0 0 0.798917,1.929081 1.5000103,1.5000103 0 0 0 2.598291,-1.49965 5,5 0 0 1 -0.499711,-1.206128 z"
     style="opacity:0.6;fill:#0a0a0a;stroke-width:0.25"
     id="path74" />
  <path
     d="m 54.999817,-42.999972 a 1.5,1.5 0 0 1 -2.999817,0 8,8 0 0 0 0.272852,2.070675 1.5000164,1.5000164 0 0 0 2.897497,-0.776697 5,5 0 0 1 -0.170532,-1.293978 z"
     style="opacity:0.65;fill:#0a0a0a;stroke-width:0.25"
     id="path73" />
  <path
     d="M 55.170349,-44.293949 A 1.5000164,1.5000164 0 0 1 52.272852,-45.070646 8,8 0 0 0 52,-42.999972 a 1.5,1.5 0 0 0 2.999817,0 5,5 0 0 1 0.170532,-1.293977 z"
     style="opacity:0.7;fill:#0a0a0a;stroke-width:0.25"
     id="path72" />
  <path
     d="m 55.67006,-45.500077 a 1.5001348,1.5001348 0 0 1 -2.598291,-1.500167 8,8 0 0 0 -0.798917,1.929598 1.5000164,1.5000164 0 0 0 2.897497,0.776697 5,5 0 0 1 0.499711,-1.206128 z"
     style="opacity:0.75;fill:#0a0a0a;stroke-width:0.25"
     id="path71" />
  <path
     d="m 56.464327,-46.535673 a 1.5000563,1.5000563 0 0 1 -2.121318,-2.121318 8,8 0 0 0 -1.27124,1.656747 1.5001348,1.5001348 0 0 0 2.598291,1.500167 5,5 0 0 1 0.794267,-1.035596 z"
     style="opacity:0.8;fill:#0a0a0a;stroke-width:0.25"
     id="path70" />
  <path
     d="m 57.499923,-47.32994 a 1.5001348,1.5001348 0 0 1 -1.500167,-2.598291 8,8 0 0 0 -1.656747,1.27124 1.5000563,1.5000563 0 0 0 2.121318,2.121318 5,5 0 0 1 1.035596,-0.794267 z"
     style="opacity:0.85;fill:#0a0a0a;stroke-width:0.25"
     id="path69" />
  <path
     d="m 58.706051,-47.829651 a 1.5000164,1.5000164 0 0 1 -0.776697,-2.897497 8,8 0 0 0 -1.929598,0.798917 1.5001348,1.5001348 0 0 0 1.500167,2.598291 5,5 0 0 1 1.206128,-0.499711 z"
     style="opacity:0.9;fill:#0a0a0a;stroke-width:0.25"
     id="path68" />
  <path
     d="m 60.000028,-51 a 8,8 0 0 0 -2.070674,0.272852 1.5000164,1.5000164 0 0 0 0.776697,2.897497 5,5 0 0 1 1.293977,-0.170532 1.5,1.5 0 0 1 0,-2.999817 z"
     style="opacity:0.95;fill:#0a0a0a;stroke-width:0.25"
     id="path67" />
  <path
     d="m 60.000028,-51 a 1.5,1.5 0 0 0 0,2.999817 5,5 0 0 1 1.085722,0.119372 l -2.384867,4.131014 a 1.5000058,1.5000058 0 0 0 2.598291,1.499651 l 3.249931,-5.629114 A 1.5,1.5 0 0 0 63.999784,-49.928231 8,8 0 0 0 60.000028,-51 Z"
     style="fill:#0a0a0a"
     id="path66" />
  <metadata
     id="metadata1">
    <rdf:RDF>
      <cc:Work
         rdf:about="">
        <dc:creator>
          <cc:Agent>
            <dc:title>Matthias Seidel</dc:title>
          </cc:Agent>
        </dc:creator>
      </cc:Work>
    </rdf:RDF>
  </metadata>
</svg>
