<?xml version="1.0" encoding="UTF-8" standalone="no"?>
<svg
   width="32"
   height="32"
   viewBox="44 -56 31.999999 32"
   version="1.1"
   style="fill:none;stroke-linecap:round;stroke-linejoin:round"
   id="svg38"
   sodipodi:docname="spinner-32-01.svg"
   inkscape:export-filename="spinner-32-01.png"
   inkscape:export-xdpi="96"
   inkscape:export-ydpi="96"
   inkscape:version="1.3.2 (091e20ef0f, 2023-11-25)"
   xmlns:inkscape="http://www.inkscape.org/namespaces/inkscape"
   xmlns:sodipodi="http://sodipodi.sourceforge.net/DTD/sodipodi-0.dtd"
   xmlns="http://www.w3.org/2000/svg"
   xmlns:svg="http://www.w3.org/2000/svg"
   xmlns:rdf="http://www.w3.org/1999/02/22-rdf-syntax-ns#"
   xmlns:cc="http://creativecommons.org/ns#"
   xmlns:dc="http://purl.org/dc/elements/1.1/">
  <defs
     id="defs38" />
  <sodipodi:namedview
     id="namedview38"
     pagecolor="#ffffff"
     bordercolor="#cccccc"
     borderopacity="1"
     inkscape:showpageshadow="0"
     inkscape:pageopacity="1"
     inkscape:pagecheckerboard="0"
     inkscape:deskcolor="#d1d1d1"
     inkscape:document-units="px"
     inkscape:zoom="27.531152"
     inkscape:cx="15.981896"
     inkscape:cy="16.000057"
     inkscape:window-width="1920"
     inkscape:window-height="1056"
     inkscape:window-x="0"
     inkscape:window-y="24"
     inkscape:window-maximized="1"
     inkscape:current-layer="svg38" />
  <path
     d="m 69.999963,-39.999943 a 3.0000755,3.0000755 0 0 1 6.000151,0 16,16 0 0 0 -2.143538,-8.000029 3,3 0 0 0 -5.196066,2.999817 10,10 0 0 1 1.339453,5.000212 z"
     style="fill:#0a0a0a;stroke:none;opacity:0.1"
     id="path48" />
  <path
     d="m 68.66051,-35.000248 a 3.0000458,3.0000458 0 1 1 5.196066,3.000333 16,16 0 0 0 2.143538,-8.000028 3.0000755,3.0000755 0 0 0 -6.000151,0 10,10 0 0 1 -1.339453,4.999695 z"
     style="fill:#0a0a0a;stroke:none;opacity:0.2"
     id="path47" />
  <path
     d="m 64.999752,-31.33949 a 3.0000458,3.0000458 0 1 1 3.000333,5.196066 16,16 0 0 0 5.856491,-5.856491 3.0000458,3.0000458 0 1 0 -5.196066,-3.000333 10,10 0 0 1 -3.660758,3.660758 z"
     style="fill:#0a0a0a;stroke:none;stroke-width:0.25;opacity:0.3"
     id="path46" />
  <path
     d="m 60.000057,-30.000037 a 3.0000755,3.0000755 0 0 1 0,6.000151 16,16 0 0 0 8.000028,-2.143538 3.0000458,3.0000458 0 1 0 -3.000333,-5.196066 10,10 0 0 1 -4.999695,1.339453 z"
     style="fill:#0a0a0a;stroke:none;opacity:0.4"
     id="path45" />
  <path
     d="m 54.999845,-31.33949 a 3,3 0 0 1 -2.999817,5.196066 16,16 0 0 0 8.000029,2.143538 3.0000755,3.0000755 0 0 0 0,-6.000151 10,10 0 0 1 -5.000212,-1.339453 z"
     style="opacity:0.5;fill:#0a0a0a;stroke:none"
     id="path44" />
  <path
     d="m 51.339604,-35.000248 a 3.0000458,3.0000458 0 0 1 -5.196066,3.000333 16,16 0 0 0 5.85649,5.856491 3,3 0 0 0 2.999817,-5.196066 10,10 0 0 1 -3.660241,-3.660758 z"
     style="opacity:0.6;fill:#0a0a0a;stroke:none"
     id="path43" />
  <path
     d="m 50.000151,-39.999943 a 3.0000755,3.0000755 0 0 1 -6.000151,0 16,16 0 0 0 2.143538,8.000028 3.0000458,3.0000458 0 0 0 5.196066,-3.000333 10,10 0 0 1 -1.339453,-4.999695 z"
     style="opacity:0.7;fill:#0a0a0a;stroke:none"
     id="path42" />
  <path
     d="M 51.339604,-45.000155 A 3,3 0 1 1 46.143538,-47.999972 16,16 0 0 0 44,-39.999943 a 3.0000755,3.0000755 0 0 0 6.000151,0 10,10 0 0 1 1.339453,-5.000212 z"
     style="opacity:0.8;fill:#0a0a0a;stroke:none"
     id="path41" />
  <path
     d="m 54.999845,-48.660396 a 3,3 0 0 1 -2.999817,-5.196066 16,16 0 0 0 -5.85649,5.85649 3,3 0 1 0 5.196066,2.999817 10,10 0 0 1 3.660241,-3.660241 z"
     style="opacity:0.9;fill:#0a0a0a;stroke:none"
     id="path40" />
  <path
     d="m 60.000057,-56 a 16,16 0 0 0 -8.000029,2.143538 3,3 0 0 0 2.999817,5.196066 10,10 0 0 1 2.000395,-0.879016 v 9.539469 a 3,3 0 0 0 5.999634,0 v -13.00024 A 3,3 0 0 0 60.000057,-56 Z"
     style="fill:#0a0a0a;stroke:none"
     id="path39" />
  <metadata
     id="metadata48">
    <rdf:RDF>
      <cc:Work
         rdf:about="">
        <dc:creator>
          <cc:Agent>
            <dc:title>Matthias Seidel</dc:title>
          </cc:Agent>
        </dc:creator>
      </cc:Work>
    </rdf:RDF>
  </metadata>
</svg>
