<?xml version="1.0" encoding="UTF-8" standalone="no"?>
<svg
   width="64"
   height="64"
   viewBox="28 -62 64 64"
   version="1.1"
   style="fill:none;stroke-linecap:round;stroke-linejoin:round"
   id="svg64"
   sodipodi:docname="spinner-64-08.svg"
   inkscape:export-filename="spinner-64-08.png"
   inkscape:export-xdpi="96"
   inkscape:export-ydpi="96"
   inkscape:version="1.3.2 (091e20ef0f, 2023-11-25)"
   xmlns:inkscape="http://www.inkscape.org/namespaces/inkscape"
   xmlns:sodipodi="http://sodipodi.sourceforge.net/DTD/sodipodi-0.dtd"
   xmlns="http://www.w3.org/2000/svg"
   xmlns:svg="http://www.w3.org/2000/svg"
   xmlns:rdf="http://www.w3.org/1999/02/22-rdf-syntax-ns#"
   xmlns:cc="http://creativecommons.org/ns#"
   xmlns:dc="http://purl.org/dc/elements/1.1/">
  <defs
     id="defs64" />
  <sodipodi:namedview
     id="namedview64"
     pagecolor="#ffffff"
     bordercolor="#cccccc"
     borderopacity="1"
     inkscape:showpageshadow="0"
     inkscape:pageopacity="1"
     inkscape:pagecheckerboard="0"
     inkscape:deskcolor="#d1d1d1"
     inkscape:document-units="px"
     inkscape:zoom="13.765553"
     inkscape:cx="32.000167"
     inkscape:cy="32.000167"
     inkscape:window-width="1920"
     inkscape:window-height="1056"
     inkscape:window-x="0"
     inkscape:window-y="24"
     inkscape:window-maximized="1"
     inkscape:current-layer="svg64" />
  <path
     d="m 44.000057,-57.712923 a 6.0001859,6.0001859 0 1 0 6.000151,10.392647 20,20 0 0 1 4.823478,-1.998328 6,6 0 1 1 -3.105754,-11.591023 32,32 0 0 0 -7.717875,3.196704 z"
     style="fill:#0a0a0a;stroke:none;stroke-width:0.25;opacity:0.3"
     id="path83" />
  <path
     d="m 37.372555,-52.627445 a 6.0000132,6.0000132 0 1 0 8.48527,8.48527 20,20 0 0 1 4.142383,-3.178101 6.0001859,6.0001859 0 1 1 -6.000151,-10.392647 32,32 0 0 0 -6.627502,5.085478 z"
     style="fill:#0a0a0a;stroke:none;stroke-width:0.25;opacity:0.25"
     id="path82" />
  <path
     d="m 32.287077,-45.999943 a 6.0001859,6.0001859 0 0 0 10.392647,6.000151 20,20 0 0 1 3.178101,-4.142383 6.0000132,6.0000132 0 1 1 -8.48527,-8.48527 32,32 0 0 0 -5.085478,6.627502 z"
     style="fill:#0a0a0a;stroke:none;stroke-width:0.25;opacity:0.2"
     id="path81" />
  <path
     d="m 29.090373,-38.282068 a 6,6 0 0 0 11.591023,3.105754 20,20 0 0 1 1.998328,-4.823478 6.0001859,6.0001859 0 0 1 -10.392647,-6.000151 32,32 0 0 0 -3.196704,7.717875 z"
     style="fill:#0a0a0a;stroke:none;stroke-width:0.25;opacity:0.15"
     id="path80" />
  <path
     d="m 28,-29.999886 a 6,6 0 0 0 11.999784,0 20,20 0 0 1 0.681612,-5.176428 A 6,6 0 0 1 29.090373,-38.282068 32,32 0 0 0 28,-29.999886 Z"
     style="fill:#0a0a0a;stroke:none;stroke-width:0.25;opacity:0.1"
     id="path79" />
  <path
     d="m 60.000114,2.0002279 a 6.0001506,6.0001506 0 0 0 0,-12.0003009 20,20 0 0 1 -4.343404,-0.476974 l 9.539469,-16.523022 a 6.0000412,6.0000412 0 1 0 -10.39213,-6.000151 l -13.00024,22.516972 a 6,6 0 0 0 2.196248,8.1958823 32,32 0 0 0 16.000057,4.2875936 z"
     style="fill:#0a0a0a;stroke:none"
     id="path78" />
  <path
     d="m 68.282296,0.90985514 a 6.0001983,6.0001983 0 0 0 -3.105754,-11.59154014 20,20 0 0 1 -5.176428,0.681612 6.0001506,6.0001506 0 0 1 0,12.0003009 32,32 0 0 0 8.282182,-1.09037276 z"
     style="fill:#0a0a0a;stroke:none;stroke-width:0.25;opacity:0.95"
     id="path77" />
  <path
     d="M 76.000171,-2.2873657 A 6,6 0 0 0 70.00002,-12.679496 20,20 0 0 1 65.176542,-10.681685 6.0001983,6.0001983 0 0 1 68.282296,0.90985514 32,32 0 0 0 76.000171,-2.2873657 Z"
     style="fill:#0a0a0a;stroke:none;stroke-width:0.25;opacity:0.9"
     id="path76" />
  <path
     d="m 82.627157,-7.3728434 a 6.0000132,6.0000132 0 0 0 -8.485271,-8.4852706 20,20 0 0 1 -4.141866,3.178618 6,6 0 0 1 6.000151,10.3921303 32,32 0 0 0 6.626986,-5.0854777 z"
     style="fill:#0a0a0a;stroke:none;stroke-width:0.25;opacity:0.85"
     id="path75" />
  <path
     d="m 87.712634,-13.999829 a 6,6 0 1 0 -10.39213,-6.000151 20,20 0 0 1 -3.178618,4.141866 6.0000132,6.0000132 0 0 1 8.485271,8.4852706 32,32 0 0 0 5.085477,-6.6269856 z"
     style="fill:#0a0a0a;stroke:none;stroke-width:0.25;opacity:0.8"
     id="path74" />
  <path
     d="m 90.909855,-21.717704 a 6.0001983,6.0001983 0 1 0 -11.59154,-3.105754 20,20 0 0 1 -1.997811,4.823478 6,6 0 1 1 10.39213,6.000151 32,32 0 0 0 3.197221,-7.717875 z"
     style="fill:#0a0a0a;stroke:none;stroke-width:0.25;opacity:0.75"
     id="path73" />
  <path
     d="m 92.000228,-29.999886 a 6.0001506,6.0001506 0 1 0 -12.000301,0 20,20 0 0 1 -0.681612,5.176428 6.0001983,6.0001983 0 1 1 11.59154,3.105754 32,32 0 0 0 1.090373,-8.282182 z"
     style="fill:#0a0a0a;stroke:none;stroke-width:0.25;opacity:0.7"
     id="path72" />
  <path
     d="m 90.909855,-38.282068 a 6.0001983,6.0001983 0 1 0 -11.59154,3.105754 20,20 0 0 1 0.681612,5.176428 6.0001506,6.0001506 0 1 1 12.000301,0 32,32 0 0 0 -1.090373,-8.282182 z"
     style="fill:#0a0a0a;stroke:none;opacity:0.65"
     id="path71" />
  <path
     d="m 87.712634,-45.999943 a 6,6 0 0 0 -10.39213,6.000151 20,20 0 0 1 1.997811,4.823478 6.0001983,6.0001983 0 1 1 11.59154,-3.105754 32,32 0 0 0 -3.197221,-7.717875 z"
     style="fill:#0a0a0a;stroke:none;stroke-width:0.25;opacity:0.6"
     id="path70" />
  <path
     d="m 82.627157,-52.627445 a 6.0000132,6.0000132 0 0 0 -8.485271,8.48527 20,20 0 0 1 3.178618,4.142383 6,6 0 0 1 10.39213,-6.000151 32,32 0 0 0 -5.085477,-6.627502 z"
     style="fill:#0a0a0a;stroke:none;stroke-width:0.25;opacity:0.55"
     id="path69" />
  <path
     d="m 76.000171,-57.712923 a 6.0001859,6.0001859 0 1 0 -6.000151,10.392647 20,20 0 0 1 4.141866,3.178101 6.0000132,6.0000132 0 0 1 8.485271,-8.48527 32,32 0 0 0 -6.626986,-5.085478 z"
     style="fill:#0a0a0a;stroke:none;stroke-width:0.25;opacity:0.5"
     id="path68" />
  <path
     d="m 65.176542,-49.318604 a 20,20 0 0 1 4.823478,1.998328 6.0001859,6.0001859 0 1 1 6.000151,-10.392647 32,32 0 0 0 -7.717875,-3.196704 6,6 0 1 0 -3.105754,11.591023 z"
     style="fill:#0a0a0a;stroke:none;stroke-width:0.25;opacity:0.45"
     id="path67" />
  <path
     d="m 60.000114,-62 a 32,32 0 0 0 -8.282182,1.090373 6,6 0 1 0 3.105754,11.591023 20,20 0 0 1 5.176428,-0.681612 6,6 0 1 1 0,-11.999784 z"
     style="fill:#0a0a0a;stroke:none;stroke-width:0.25;opacity:0.35"
     id="path66" />
  <path
     d="m 60.000114,-62 a 6,6 0 1 0 0,11.999784 20,20 0 0 1 5.176428,0.681612 6,6 0 1 1 3.105754,-11.591023 A 32,32 0 0 0 60.000114,-62 Z"
     style="fill:#0a0a0a;stroke:none;stroke-width:0.25;opacity:0.4"
     id="path65" />
  <metadata
     id="metadata83">
    <rdf:RDF>
      <cc:Work
         rdf:about="">
        <dc:creator>
          <cc:Agent>
            <dc:title>Matthias Seidel</dc:title>
          </cc:Agent>
        </dc:creator>
      </cc:Work>
    </rdf:RDF>
  </metadata>
</svg>
