<?xml version="1.0" encoding="UTF-8" standalone="no"?>
<svg
   width="16"
   height="16"
   viewBox="52 -51 16 16"
   version="1.1"
   style="fill:none;stroke-linecap:round;stroke-linejoin:round"
   id="svg27"
   sodipodi:docname="spinner-16-01.svg"
   inkscape:export-filename="spinner-16-01.png"
   inkscape:export-xdpi="96"
   inkscape:export-ydpi="96"
   inkscape:version="1.3.2 (091e20ef0f, 2023-11-25)"
   xmlns:inkscape="http://www.inkscape.org/namespaces/inkscape"
   xmlns:sodipodi="http://sodipodi.sourceforge.net/DTD/sodipodi-0.dtd"
   xmlns="http://www.w3.org/2000/svg"
   xmlns:svg="http://www.w3.org/2000/svg"
   xmlns:rdf="http://www.w3.org/1999/02/22-rdf-syntax-ns#"
   xmlns:cc="http://creativecommons.org/ns#"
   xmlns:dc="http://purl.org/dc/elements/1.1/">
  <defs
     id="defs27" />
  <sodipodi:namedview
     id="namedview27"
     pagecolor="#ffffff"
     bordercolor="#cccccc"
     borderopacity="1"
     inkscape:showpageshadow="0"
     inkscape:pageopacity="1"
     inkscape:pagecheckerboard="0"
     inkscape:deskcolor="#d1d1d1"
     inkscape:document-units="px"
     inkscape:zoom="55.115707"
     inkscape:cx="7.992277"
     inkscape:cy="7.992277"
     inkscape:window-width="1920"
     inkscape:window-height="1056"
     inkscape:window-x="0"
     inkscape:window-y="24"
     inkscape:window-maximized="1"
     inkscape:current-layer="svg27" />
  <path
     d="m 64.058179,-40.079736 a 5,5 0 0 1 -3.557923,2.054655 v 3.009635 a 8,8 0 0 0 6.164482,-3.559473 z"
     style="fill:#a0a0a0;fill-opacity:1;stroke:none"
     id="path33" />
  <path
     d="m 55.941361,-40.079736 -2.606042,1.504817 a 8,8 0 0 0 6.164482,3.559473 v -3.009635 a 5,5 0 0 1 -3.55844,-2.054655 z"
     style="fill:#a0a0a0;fill-opacity:1;stroke:none"
     id="path32" />
  <path
     d="m 52.835091,-46.559444 a 8,8 0 0 0 0,7.118428 l 2.606559,-1.504301 a 5,5 0 0 1 0,-4.109309 z"
     style="fill:#a0a0a0;fill-opacity:1;stroke:none"
     id="path31" />
  <path
     d="m 59.499801,-50.984497 a 8,8 0 0 0 -6.164482,3.559473 l 2.606042,1.504301 a 5,5 0 0 1 3.55844,-2.054139 z"
     style="fill:#a0a0a0;fill-opacity:1;stroke:none"
     id="path30" />
  <path
     d="m 68.000057,-42.999972 a 8,8 0 0 0 -0.835608,-3.559472 l -2.606042,1.504818 a 5,5 0 0 1 0,4.109309 l 2.606042,1.504301 a 8,8 0 0 0 0.835608,-3.558956 z"
     style="fill:#a0a0a0;fill-opacity:1;stroke:none"
     id="path29" />
  <path
     d="m 60.000028,-51 v 8.000028 l 6.92826,-4.000272 A 8,8 0 0 0 60.000028,-51 Z"
     style="fill:#0a0a0a;fill-opacity:1;stroke:none"
     id="path28" />
  <metadata
     id="metadata33">
    <rdf:RDF>
      <cc:Work
         rdf:about="">
        <dc:creator>
          <cc:Agent>
            <dc:title>Matthias Seidel</dc:title>
          </cc:Agent>
        </dc:creator>
      </cc:Work>
    </rdf:RDF>
  </metadata>
</svg>
