<?xml version="1.0" encoding="UTF-8" standalone="no"?>
<svg
   width="32"
   height="32"
   viewBox="44 -56 31.999999 32"
   version="1.1"
   style="fill:none;stroke-linecap:round;stroke-linejoin:round"
   id="svg27"
   sodipodi:docname="spinner-32-12.svg"
   inkscape:export-filename="spinner-32-12.png"
   inkscape:export-xdpi="96"
   inkscape:export-ydpi="96"
   inkscape:version="1.3.2 (091e20ef0f, 2023-11-25)"
   xmlns:inkscape="http://www.inkscape.org/namespaces/inkscape"
   xmlns:sodipodi="http://sodipodi.sourceforge.net/DTD/sodipodi-0.dtd"
   xmlns="http://www.w3.org/2000/svg"
   xmlns:svg="http://www.w3.org/2000/svg"
   xmlns:rdf="http://www.w3.org/1999/02/22-rdf-syntax-ns#"
   xmlns:cc="http://creativecommons.org/ns#"
   xmlns:dc="http://purl.org/dc/elements/1.1/">
  <defs
     id="defs27" />
  <sodipodi:namedview
     id="namedview27"
     pagecolor="#ffffff"
     bordercolor="#cccccc"
     borderopacity="1"
     inkscape:showpageshadow="0"
     inkscape:pageopacity="1"
     inkscape:pagecheckerboard="0"
     inkscape:deskcolor="#d1d1d1"
     inkscape:document-units="px"
     inkscape:zoom="27.558299"
     inkscape:cx="15.984296"
     inkscape:cy="15.984296"
     inkscape:window-width="1920"
     inkscape:window-height="1056"
     inkscape:window-x="0"
     inkscape:window-y="24"
     inkscape:window-maximized="1"
     inkscape:current-layer="svg27" />
  <path
     d="m 68.116874,-34.158956 a 10,10 0 0 1 -7.116878,4.108793 v 6.018754 a 16,16 0 0 0 12.32948,-7.118428 z"
     style="fill:#a0a0a0;fill-opacity:1;stroke:none"
     id="path33" />
  <path
     d="m 51.88324,-34.158956 -5.212602,3.009119 a 16,16 0 0 0 12.32948,7.118428 v -6.018754 a 10,10 0 0 1 -7.116878,-4.108793 z"
     style="fill:#a0a0a0;fill-opacity:1;stroke:none"
     id="path32" />
  <path
     d="m 45.670699,-47.118372 a 16,16 0 0 0 0,14.236858 l 5.212602,-3.009636 a 10,10 0 0 1 0,-8.217586 z"
     style="fill:#a0a0a0;fill-opacity:1;stroke:none"
     id="path31" />
  <path
     d="m 60.999996,-55.968477 v 6.018754 a 10,10 0 0 1 7.116878,4.108793 l 5.212602,-3.009636 a 16,16 0 0 0 -12.32948,-7.117911 z"
     style="fill:#a0a0a0;fill-opacity:1;stroke:none"
     id="path30" />
  <path
     d="m 76.000114,-39.999943 a 16,16 0 0 0 -1.670699,-7.118429 l -5.212602,3.009636 a 10,10 0 0 1 0,8.217586 l 5.212602,3.009636 a 16,16 0 0 0 1.670699,-7.118429 z"
     style="fill:#a0a0a0;fill-opacity:1;stroke:none"
     id="path29" />
  <path
     d="m 60.000057,-56 a 16,16 0 0 0 -13.856519,8.000028 l 13.856519,8.000029 z"
     style="fill:#0a0a0a;fill-opacity:1;stroke:none"
     id="path28" />
  <metadata
     id="metadata33">
    <rdf:RDF>
      <cc:Work
         rdf:about="">
        <dc:creator>
          <cc:Agent>
            <dc:title>Matthias Seidel</dc:title>
          </cc:Agent>
        </dc:creator>
      </cc:Work>
    </rdf:RDF>
  </metadata>
</svg>
