<?xml version="1.0" encoding="UTF-8" standalone="no"?>
<svg
   width="32"
   height="32"
   viewBox="44 -56 31.999999 32"
   version="1.1"
   style="fill:none;stroke-linecap:round;stroke-linejoin:round"
   id="svg52"
   sodipodi:docname="spinner-32-04.svg"
   inkscape:export-filename="spinner-32-04.png"
   inkscape:export-xdpi="96"
   inkscape:export-ydpi="96"
   inkscape:version="1.3.2 (091e20ef0f, 2023-11-25)"
   xmlns:inkscape="http://www.inkscape.org/namespaces/inkscape"
   xmlns:sodipodi="http://sodipodi.sourceforge.net/DTD/sodipodi-0.dtd"
   xmlns="http://www.w3.org/2000/svg"
   xmlns:svg="http://www.w3.org/2000/svg"
   xmlns:rdf="http://www.w3.org/1999/02/22-rdf-syntax-ns#"
   xmlns:cc="http://creativecommons.org/ns#"
   xmlns:dc="http://purl.org/dc/elements/1.1/">
  <defs
     id="defs52" />
  <sodipodi:namedview
     id="namedview52"
     pagecolor="#ffffff"
     bordercolor="#cccccc"
     borderopacity="1"
     inkscape:showpageshadow="0"
     inkscape:pageopacity="1"
     inkscape:pagecheckerboard="0"
     inkscape:deskcolor="#d1d1d1"
     inkscape:document-units="px"
     inkscape:zoom="27.531285"
     inkscape:cx="16.018141"
     inkscape:cy="15.999979"
     inkscape:window-width="1920"
     inkscape:window-height="1056"
     inkscape:window-x="0"
     inkscape:window-y="24"
     inkscape:window-maximized="1"
     inkscape:current-layer="svg52" />
  <path
     d="m 54.382829,-32.968331 v 7.949902 a 16,16 0 0 0 19.988961,-7.949902 h -8.754505 a 9,9 0 0 1 -11.234456,0 z"
     style="fill:#a0a0a0;fill-opacity:1;stroke:none"
     id="path56" />
  <path
     d="m 45.018542,-45.617171 a 16,16 0 0 0 7.949903,19.988961 v -8.754505 a 9,9 0 0 1 0,-11.234456 z"
     style="fill:#0a0a0a;fill-opacity:1;stroke:none"
     id="path55" />
  <path
     d="m 67.031669,-54.372192 v 8.755021 a 9,9 0 0 1 0,11.234456 h 7.949902 a 16,16 0 0 0 -7.949902,-19.989477 z"
     style="fill:#0a0a0a;fill-opacity:1;stroke:none"
     id="path54" />
  <path
     d="m 61.020667,-55.967444 a 16,16 0 0 0 -15.392859,8.935889 h 8.755021 a 9,9 0 0 1 11.234456,0 v -7.949903 a 16,16 0 0 0 -4.596618,-0.985986 z"
     style="fill:#a0a0a0;fill-opacity:1;stroke:none"
     id="path53" />
  <metadata
     id="metadata56">
    <rdf:RDF>
      <cc:Work
         rdf:about="">
        <dc:creator>
          <cc:Agent>
            <dc:title>Matthias Seidel</dc:title>
          </cc:Agent>
        </dc:creator>
      </cc:Work>
    </rdf:RDF>
  </metadata>
</svg>
