<?xml version="1.0" encoding="UTF-8" standalone="no"?>
<svg
   width="32"
   height="32"
   viewBox="44 -56 31.999999 31.999999"
   version="1.1"
   style="fill:none;stroke-linecap:round;stroke-linejoin:round"
   id="svg52"
   sodipodi:docname="spinner-32-02.svg"
   inkscape:export-filename="spinner-32-02.png"
   inkscape:export-xdpi="96"
   inkscape:export-ydpi="96"
   inkscape:version="1.3.2 (091e20ef0f, 2023-11-25)"
   xmlns:inkscape="http://www.inkscape.org/namespaces/inkscape"
   xmlns:sodipodi="http://sodipodi.sourceforge.net/DTD/sodipodi-0.dtd"
   xmlns="http://www.w3.org/2000/svg"
   xmlns:svg="http://www.w3.org/2000/svg"
   xmlns:rdf="http://www.w3.org/1999/02/22-rdf-syntax-ns#"
   xmlns:cc="http://creativecommons.org/ns#"
   xmlns:dc="http://purl.org/dc/elements/1.1/">
  <defs
     id="defs52" />
  <sodipodi:namedview
     id="namedview52"
     pagecolor="#ffffff"
     bordercolor="#cccccc"
     borderopacity="1"
     inkscape:showpageshadow="0"
     inkscape:pageopacity="1"
     inkscape:pagecheckerboard="0"
     inkscape:deskcolor="#d1d1d1"
     inkscape:document-units="px"
     inkscape:zoom="27.53133"
     inkscape:cx="16.018114"
     inkscape:cy="15.999953"
     inkscape:window-width="1920"
     inkscape:window-height="1056"
     inkscape:window-x="0"
     inkscape:window-y="24"
     inkscape:window-maximized="1"
     inkscape:current-layer="svg52" />
  <path
     d="m 75.96239,-41.096517 -7.581449,4.377511 a 9,9 0 0 1 -9.730156,5.617228 l 3.974951,6.884851 a 16,16 0 0 0 13.336654,-16.87959 z"
     style="fill:#a0a0a0;fill-opacity:1;stroke:none"
     id="path56" />
  <path
     d="m 51.101892,-41.349215 -6.884851,3.974951 a 16,16 0 0 0 16.87959,13.336654 l -4.377511,-7.581449 a 9,9 0 0 1 -5.617228,-9.730156 z"
     style="fill:#0a0a0a;fill-opacity:1;stroke:none;stroke-width:0.25"
     id="path55" />
  <path
     d="m 57.373861,-55.782959 a 16,16 0 0 0 -13.336137,16.87959 l 7.581449,-4.377511 a 9,9 0 0 1 9.729639,-5.617228 z"
     style="fill:#a0a0a0;fill-opacity:1;stroke:none"
     id="path54" />
  <path
     d="m 58.903483,-55.962276 4.377511,7.581449 a 9,9 0 0 1 5.617228,9.729639 l 6.884851,-3.974951 a 16,16 0 0 0 -16.87959,-13.336137 z"
     style="fill:#0a0a0a;fill-opacity:1;stroke:none"
     id="path53" />
  <metadata
     id="metadata56">
    <rdf:RDF>
      <cc:Work
         rdf:about="">
        <dc:creator>
          <cc:Agent>
            <dc:title>Matthias Seidel</dc:title>
          </cc:Agent>
        </dc:creator>
      </cc:Work>
    </rdf:RDF>
  </metadata>
</svg>
