<?xml version="1.0" encoding="UTF-8" standalone="no"?>
<svg
   width="64"
   height="64"
   viewBox="28 -62 64 64"
   version="1.1"
   style="fill:none;stroke-linecap:round;stroke-linejoin:round"
   id="svg20"
   sodipodi:docname="spinner-64-12.svg"
   inkscape:export-filename="spinner-64-12.png"
   inkscape:export-xdpi="96"
   inkscape:export-ydpi="96"
   inkscape:version="1.3.2 (091e20ef0f, 2023-11-25)"
   xmlns:inkscape="http://www.inkscape.org/namespaces/inkscape"
   xmlns:sodipodi="http://sodipodi.sourceforge.net/DTD/sodipodi-0.dtd"
   xmlns="http://www.w3.org/2000/svg"
   xmlns:svg="http://www.w3.org/2000/svg"
   xmlns:rdf="http://www.w3.org/1999/02/22-rdf-syntax-ns#"
   xmlns:cc="http://creativecommons.org/ns#"
   xmlns:dc="http://purl.org/dc/elements/1.1/">
  <defs
     id="defs20" />
  <sodipodi:namedview
     id="namedview20"
     pagecolor="#ffffff"
     bordercolor="#cccccc"
     borderopacity="1"
     inkscape:showpageshadow="0"
     inkscape:pageopacity="1"
     inkscape:pagecheckerboard="0"
     inkscape:deskcolor="#d1d1d1"
     inkscape:document-units="px"
     inkscape:zoom="13.765652"
     inkscape:cx="31.963615"
     inkscape:cy="31.999937"
     inkscape:window-width="1920"
     inkscape:window-height="1056"
     inkscape:window-x="0"
     inkscape:window-y="24"
     inkscape:window-maximized="1"
     inkscape:current-layer="svg20" />
  <path
     d="m 43.238346,-23.438529 -7.949385,13.7697017 a 32,32 0 0 0 42.572595,6.2197754 L 62.69814,-12.203556 A 18,18 0 0 1 43.238346,-23.438529 Z"
     style="fill:#0a0a0a;fill-opacity:1;stroke:none"
     id="path24" />
  <path
     d="m 86.550948,-47.861328 -8.754504,15.163415 a 18,18 0 0 1 -11.234973,19.459278 l 13.769702,7.9499021 a 32,32 0 0 0 6.219775,-42.5725951 z"
     style="fill:#a0a0a0;fill-opacity:1;stroke:none"
     id="path23" />
  <path
     d="m 28,-29.923922 a 32,32 0 0 0 5.448763,17.785478 L 42.203267,-27.30186 A 18,18 0 0 1 53.438241,-46.761654 L 39.669055,-54.711039 A 32,32 0 0 0 28,-29.923922 Z"
     style="fill:#a0a0a0;fill-opacity:1;stroke:none"
     id="path22" />
  <path
     d="m 59.92415,-62 a 32,32 0 0 0 -17.785478,5.448763 l 15.163415,8.754504 a 18,18 0 0 1 19.459278,11.234974 l 7.949902,-13.769186 A 32,32 0 0 0 59.92415,-62 Z"
     style="fill:#0a0a0a;fill-opacity:1;stroke:none;stroke-width:0.25"
     id="path21" />
  <metadata
     id="metadata24">
    <rdf:RDF>
      <cc:Work
         rdf:about="">
        <dc:creator>
          <cc:Agent>
            <dc:title>Matthias Seidel</dc:title>
          </cc:Agent>
        </dc:creator>
      </cc:Work>
    </rdf:RDF>
  </metadata>
</svg>
