<?xml version="1.0" encoding="UTF-8" standalone="no"?>
<svg
   width="64"
   height="64"
   viewBox="28 -62 64 64"
   version="1.1"
   style="fill:none;stroke-linecap:round;stroke-linejoin:round"
   id="svg20"
   sodipodi:docname="spinner-64-08.svg"
   inkscape:export-filename="spinner-64-08.png"
   inkscape:export-xdpi="96"
   inkscape:export-ydpi="96"
   inkscape:version="1.3.2 (091e20ef0f, 2023-11-25)"
   xmlns:inkscape="http://www.inkscape.org/namespaces/inkscape"
   xmlns:sodipodi="http://sodipodi.sourceforge.net/DTD/sodipodi-0.dtd"
   xmlns="http://www.w3.org/2000/svg"
   xmlns:svg="http://www.w3.org/2000/svg"
   xmlns:rdf="http://www.w3.org/1999/02/22-rdf-syntax-ns#"
   xmlns:cc="http://creativecommons.org/ns#"
   xmlns:dc="http://purl.org/dc/elements/1.1/">
  <defs
     id="defs20" />
  <sodipodi:namedview
     id="namedview20"
     pagecolor="#ffffff"
     bordercolor="#cccccc"
     borderopacity="1"
     inkscape:showpageshadow="0"
     inkscape:pageopacity="1"
     inkscape:pagecheckerboard="0"
     inkscape:deskcolor="#d1d1d1"
     inkscape:document-units="px"
     inkscape:zoom="13.765673"
     inkscape:cx="32.036211"
     inkscape:cy="31.999888"
     inkscape:window-width="1920"
     inkscape:window-height="1056"
     inkscape:window-x="0"
     inkscape:window-y="24"
     inkscape:window-maximized="1"
     inkscape:current-layer="svg20" />
  <path
     d="m 91.92478,-32.193034 -15.163415,8.754505 A 18,18 0 0 1 57.302087,-12.203556 L 65.25199,1.5661458 A 32,32 0 0 0 91.92478,-32.193034 Z"
     style="fill:#0a0a0a;fill-opacity:1;stroke:none"
     id="path24" />
  <path
     d="M 42.203267,-32.697913 28.434082,-24.74801 A 32,32 0 0 0 62.192745,1.9247803 L 53.438241,-13.238635 A 18,18 0 0 1 42.203267,-32.697913 Z"
     style="fill:#a0a0a0;fill-opacity:1;stroke:none;stroke-width:0.25"
     id="path23" />
  <path
     d="m 54.748238,-61.565918 a 32,32 0 0 0 -26.67279,33.758663 l 15.162898,-8.754504 A 18,18 0 0 1 62.69814,-47.796733 Z"
     style="fill:#0a0a0a;fill-opacity:1;stroke:none;stroke-width:0.25"
     id="path22" />
  <path
     d="m 57.806966,-61.924552 8.754505,15.162898 a 18,18 0 0 1 11.234973,19.459794 l 13.769702,-7.949902 a 32,32 0 0 0 -33.75918,-26.67279 z"
     style="fill:#a0a0a0;fill-opacity:1;stroke:none;stroke-width:0.25"
     id="path21" />
  <metadata
     id="metadata24">
    <rdf:RDF>
      <cc:Work
         rdf:about="">
        <dc:creator>
          <cc:Agent>
            <dc:title>Matthias Seidel</dc:title>
          </cc:Agent>
        </dc:creator>
      </cc:Work>
    </rdf:RDF>
  </metadata>
</svg>
