<?xml version="1.0" encoding="UTF-8" standalone="no"?>
<svg
   width="16"
   height="16"
   viewBox="52 -51 16 16"
   version="1.1"
   style="fill:none;stroke-linecap:round;stroke-linejoin:round"
   id="svg20"
   sodipodi:docname="spinner-16-10.svg"
   inkscape:export-filename="spinner-16-10.png"
   inkscape:export-xdpi="96"
   inkscape:export-ydpi="96"
   inkscape:version="1.3.2 (091e20ef0f, 2023-11-25)"
   xmlns:inkscape="http://www.inkscape.org/namespaces/inkscape"
   xmlns:sodipodi="http://sodipodi.sourceforge.net/DTD/sodipodi-0.dtd"
   xmlns="http://www.w3.org/2000/svg"
   xmlns:svg="http://www.w3.org/2000/svg"
   xmlns:rdf="http://www.w3.org/1999/02/22-rdf-syntax-ns#"
   xmlns:cc="http://creativecommons.org/ns#"
   xmlns:dc="http://purl.org/dc/elements/1.1/">
  <defs
     id="defs20" />
  <sodipodi:namedview
     id="namedview20"
     pagecolor="#ffffff"
     bordercolor="#cccccc"
     borderopacity="1"
     inkscape:showpageshadow="0"
     inkscape:pageopacity="1"
     inkscape:pagecheckerboard="0"
     inkscape:deskcolor="#d1d1d1"
     inkscape:document-units="px"
     inkscape:zoom="55.063096"
     inkscape:cx="8.0089939"
     inkscape:cy="7.9999134"
     inkscape:window-width="1920"
     inkscape:window-height="1056"
     inkscape:window-x="0"
     inkscape:window-y="24"
     inkscape:window-maximized="1"
     inkscape:current-layer="svg20" />
  <path
     d="m 57.547465,-39.839958 v 4.454509 a 8,8 0 0 0 9.801986,-4.454509 h -4.896859 a 4,4 0 0 1 -4.905127,0 z"
     style="fill:#0a0a0a;fill-opacity:1;stroke:none"
     id="path24" />
  <path
     d="m 52.385506,-45.452535 a 8,8 0 0 0 4.454509,9.801986 v -4.896859 a 4,4 0 0 1 0,-4.905127 z"
     style="fill:#a0a0a0;fill-opacity:1;stroke:none"
     id="path23" />
  <path
     d="m 63.160042,-50.349394 v 4.896859 a 4,4 0 0 1 0,4.905127 h 4.454509 a 8,8 0 0 0 -4.454509,-9.801986 z"
     style="fill:#a0a0a0;fill-opacity:1;stroke:none;stroke-width:0.25"
     id="path22" />
  <path
     d="m 60.13077,-50.998966 a 8,8 0 0 0 -7.480164,4.838981 h 4.896859 a 4,4 0 0 1 4.905127,0 v -4.454509 a 8,8 0 0 0 -2.321822,-0.384472 z"
     style="fill:#0a0a0a;fill-opacity:1;stroke:none"
     id="path21" />
  <metadata
     id="metadata24">
    <rdf:RDF>
      <cc:Work
         rdf:about="">
        <dc:creator>
          <cc:Agent>
            <dc:title>Matthias Seidel</dc:title>
          </cc:Agent>
        </dc:creator>
      </cc:Work>
    </rdf:RDF>
  </metadata>
</svg>
