<?xml version="1.0" encoding="UTF-8" standalone="no"?>
<svg
   width="16"
   height="16"
   viewBox="52 -51 16 16"
   version="1.1"
   style="fill:none;stroke-linecap:round;stroke-linejoin:round"
   id="svg20"
   sodipodi:docname="spinner-16-07.svg"
   inkscape:export-filename="spinner-16-07.png"
   inkscape:export-xdpi="96"
   inkscape:export-ydpi="96"
   inkscape:version="1.3.2 (091e20ef0f, 2023-11-25)"
   xmlns:inkscape="http://www.inkscape.org/namespaces/inkscape"
   xmlns:sodipodi="http://sodipodi.sourceforge.net/DTD/sodipodi-0.dtd"
   xmlns="http://www.w3.org/2000/svg"
   xmlns:svg="http://www.w3.org/2000/svg"
   xmlns:rdf="http://www.w3.org/1999/02/22-rdf-syntax-ns#"
   xmlns:cc="http://creativecommons.org/ns#"
   xmlns:dc="http://purl.org/dc/elements/1.1/">
  <defs
     id="defs20" />
  <sodipodi:namedview
     id="namedview20"
     pagecolor="#ffffff"
     bordercolor="#cccccc"
     borderopacity="1"
     inkscape:showpageshadow="0"
     inkscape:pageopacity="1"
     inkscape:pagecheckerboard="0"
     inkscape:deskcolor="#d1d1d1"
     inkscape:document-units="px"
     inkscape:zoom="55.06243"
     inkscape:cx="8.0090908"
     inkscape:cy="8.0000102"
     inkscape:window-width="1920"
     inkscape:window-height="1056"
     inkscape:window-x="0"
     inkscape:window-y="24"
     inkscape:window-maximized="1"
     inkscape:current-layer="svg20" />
  <path
     d="m 56.031278,-42.499744 -3.150195,3.149679 a 8,8 0 0 0 10.081555,3.781164 l -3.462837,-3.462321 a 4,4 0 0 1 -3.468523,-3.468522 z"
     style="fill:#a0a0a0;fill-opacity:1;stroke:none;stroke-width:0.25"
     id="path24" />
  <path
     d="m 67.431099,-45.962581 -3.462321,3.462837 a 4,4 0 0 1 -3.468522,3.468522 l 3.149679,3.150196 a 8,8 0 0 0 3.781164,-10.081555 z"
     style="fill:#0a0a0a;fill-opacity:1;stroke:none"
     id="path23" />
  <path
     d="m 56.350122,-50.118917 a 8,8 0 0 0 -3.781164,10.081555 l 3.46232,-3.462837 a 4,4 0 0 1 3.468523,-3.468523 z"
     style="fill:#0a0a0a;fill-opacity:1;stroke:none"
     id="path22" />
  <path
     d="m 60.508008,-50.98398 a 8,8 0 0 0 -3.470589,0.552938 l 3.462837,3.46232 a 4,4 0 0 1 3.468522,3.468523 l 3.150196,-3.149679 a 8,8 0 0 0 -6.610966,-4.334102 z"
     style="fill:#a0a0a0;fill-opacity:1;stroke:none"
     id="path21" />
  <metadata
     id="metadata24">
    <rdf:RDF>
      <cc:Work
         rdf:about="">
        <dc:creator>
          <cc:Agent>
            <dc:title>Matthias Seidel</dc:title>
          </cc:Agent>
        </dc:creator>
      </cc:Work>
    </rdf:RDF>
  </metadata>
</svg>
