<?xml version="1.0" encoding="UTF-8" standalone="no"?>
<svg
   width="16"
   height="16"
   viewBox="52 -51 16 16"
   version="1.1"
   style="fill:none;stroke-linecap:round;stroke-linejoin:round"
   id="svg20"
   sodipodi:docname="spinner-16-06.svg"
   inkscape:export-filename="spinner-16-06.png"
   inkscape:export-xdpi="96"
   inkscape:export-ydpi="96"
   inkscape:version="1.3.2 (091e20ef0f, 2023-11-25)"
   xmlns:inkscape="http://www.inkscape.org/namespaces/inkscape"
   xmlns:sodipodi="http://sodipodi.sourceforge.net/DTD/sodipodi-0.dtd"
   xmlns="http://www.w3.org/2000/svg"
   xmlns:svg="http://www.w3.org/2000/svg"
   xmlns:rdf="http://www.w3.org/1999/02/22-rdf-syntax-ns#"
   xmlns:cc="http://creativecommons.org/ns#"
   xmlns:dc="http://purl.org/dc/elements/1.1/">
  <defs
     id="defs20" />
  <sodipodi:namedview
     id="namedview20"
     pagecolor="#ffffff"
     bordercolor="#cccccc"
     borderopacity="1"
     inkscape:showpageshadow="0"
     inkscape:pageopacity="1"
     inkscape:pagecheckerboard="0"
     inkscape:deskcolor="#d1d1d1"
     inkscape:document-units="px"
     inkscape:zoom="55.063829"
     inkscape:cx="8.0088872"
     inkscape:cy="7.9998069"
     inkscape:window-width="1920"
     inkscape:window-height="1056"
     inkscape:window-x="0"
     inkscape:window-y="24"
     inkscape:window-maximized="1"
     inkscape:current-layer="svg20" />
  <path
     d="m 56.295862,-41.489986 -2.227254,3.858162 a 8,8 0 0 0 10.716141,1.042831 l -4.240568,-2.44843 a 4,4 0 0 1 -4.248319,-2.452563 z"
     style="fill:#a0a0a0;fill-opacity:1;stroke:none"
     id="path24" />
  <path
     d="m 54.631881,-48.931392 a 8,8 0 0 0 -1.042831,10.716141 l 2.447913,-4.240568 a 4,4 0 0 1 2.45308,-4.248319 z"
     style="fill:#0a0a0a;fill-opacity:1;stroke:none"
     id="path23" />
  <path
     d="m 59.595402,-50.989665 a 8,8 0 0 0 -4.380611,1.578715 l 4.241085,2.447913 a 4,4 0 0 1 4.248319,2.45308 l 2.227254,-3.858162 a 8,8 0 0 0 -6.336047,-2.621546 z"
     style="fill:#a0a0a0;fill-opacity:1;stroke:none;stroke-width:0.25"
     id="path22" />
  <path
     d="m 68.000057,-42.962248 a 8,8 0 0 0 -1.58905,-4.822961 l -2.44843,4.241085 a 4,4 0 0 1 -2.452563,4.248319 l 3.858162,2.227254 a 8,8 0 0 0 2.631881,-5.893697 z"
     style="fill:#0a0a0a;fill-opacity:1;stroke:none"
     id="path21" />
  <metadata
     id="metadata24">
    <rdf:RDF>
      <cc:Work
         rdf:about="">
        <dc:creator>
          <cc:Agent>
            <dc:title>Matthias Seidel</dc:title>
          </cc:Agent>
        </dc:creator>
      </cc:Work>
    </rdf:RDF>
  </metadata>
</svg>
