<?xml version="1.0" encoding="UTF-8" standalone="no"?>
<svg
   width="64"
   height="64"
   viewBox="28 -62 64 64"
   version="1.1"
   style="fill:none;stroke-linecap:round;stroke-linejoin:round"
   id="svg20"
   sodipodi:docname="spinner-64-02.svg"
   inkscape:export-filename="spinner-64-02.png"
   inkscape:export-xdpi="96"
   inkscape:export-ydpi="96"
   inkscape:version="1.3.2 (091e20ef0f, 2023-11-25)"
   xmlns:inkscape="http://www.inkscape.org/namespaces/inkscape"
   xmlns:sodipodi="http://sodipodi.sourceforge.net/DTD/sodipodi-0.dtd"
   xmlns="http://www.w3.org/2000/svg"
   xmlns:svg="http://www.w3.org/2000/svg"
   xmlns:rdf="http://www.w3.org/1999/02/22-rdf-syntax-ns#"
   xmlns:cc="http://creativecommons.org/ns#"
   xmlns:dc="http://purl.org/dc/elements/1.1/">
  <defs
     id="defs20" />
  <sodipodi:namedview
     id="namedview20"
     pagecolor="#ffffff"
     bordercolor="#cccccc"
     borderopacity="1"
     inkscape:showpageshadow="0"
     inkscape:pageopacity="1"
     inkscape:pagecheckerboard="0"
     inkscape:deskcolor="#d1d1d1"
     inkscape:document-units="px"
     inkscape:zoom="13.765626"
     inkscape:cx="31.963676"
     inkscape:cy="31.999998"
     inkscape:window-width="1920"
     inkscape:window-height="1056"
     inkscape:window-x="0"
     inkscape:window-y="24"
     inkscape:window-maximized="1"
     inkscape:current-layer="svg20" />
  <path
     d="m 44.148885,-32.177014 -15.43265,8.91005 A 32,32 0 0 0 63.753373,1.7790527 L 53.959656,-15.184253 a 16,16 0 0 1 -9.810771,-16.992761 z"
     style="fill:#0a0a0a;fill-opacity:1;stroke:none"
     id="path24" />
  <path
     d="m 91.779053,-33.753145 -16.963306,9.793717 a 16,16 0 0 1 -16.992761,9.810771 l 8.91005,15.4321327 A 32,32 0 0 0 91.779053,-33.753145 Z"
     style="fill:#a0a0a0;fill-opacity:1;stroke:none;stroke-width:0.25"
     id="path23" />
  <path
     d="m 53.266675,-61.283765 a 32,32 0 0 0 -25.046017,35.037138 l 16.963306,-9.793717 a 16,16 0 0 1 16.992761,-9.810771 z"
     style="fill:#a0a0a0;fill-opacity:1;stroke:none"
     id="path22" />
  <path
     d="m 60.962329,-61.985531 a 32,32 0 0 0 -4.715474,0.206189 l 9.793717,16.963306 a 16,16 0 0 1 9.810771,16.992761 l 15.432133,-8.91005 A 32,32 0 0 0 60.962329,-61.985531 Z"
     style="fill:#0a0a0a;fill-opacity:1;stroke:none"
     id="path21" />
  <metadata
     id="metadata24">
    <rdf:RDF>
      <cc:Work
         rdf:about="">
        <dc:creator>
          <cc:Agent>
            <dc:title>Matthias Seidel</dc:title>
          </cc:Agent>
        </dc:creator>
      </cc:Work>
    </rdf:RDF>
  </metadata>
</svg>
