<?xml version="1.0" encoding="UTF-8" standalone="no"?>
<svg
   width="32"
   height="32"
   viewBox="44 -56 31.999999 32"
   version="1.1"
   style="fill:none;stroke-linecap:round;stroke-linejoin:round"
   id="svg52"
   sodipodi:docname="spinner-32-07.svg"
   inkscape:export-filename="spinner-32-07.png"
   inkscape:export-xdpi="96"
   inkscape:export-ydpi="96"
   inkscape:version="1.3.2 (091e20ef0f, 2023-11-25)"
   xmlns:inkscape="http://www.inkscape.org/namespaces/inkscape"
   xmlns:sodipodi="http://sodipodi.sourceforge.net/DTD/sodipodi-0.dtd"
   xmlns="http://www.w3.org/2000/svg"
   xmlns:svg="http://www.w3.org/2000/svg"
   xmlns:rdf="http://www.w3.org/1999/02/22-rdf-syntax-ns#"
   xmlns:cc="http://creativecommons.org/ns#"
   xmlns:dc="http://purl.org/dc/elements/1.1/">
  <defs
     id="defs52" />
  <sodipodi:namedview
     id="namedview52"
     pagecolor="#ffffff"
     bordercolor="#cccccc"
     borderopacity="1"
     inkscape:showpageshadow="0"
     inkscape:pageopacity="1"
     inkscape:pagecheckerboard="0"
     inkscape:deskcolor="#d1d1d1"
     inkscape:document-units="px"
     inkscape:zoom="27.531656"
     inkscape:cx="16.017925"
     inkscape:cy="15.999764"
     inkscape:window-width="1920"
     inkscape:window-height="1056"
     inkscape:window-x="0"
     inkscape:window-y="24"
     inkscape:window-maximized="1"
     inkscape:current-layer="svg52" />
  <path
     d="m 51.0559,-39.000004 -5.621362,5.621362 a 16,16 0 0 0 19.7559,8.513176 l -6.19032,-6.19032 A 9,9 0 0 1 51.0559,-39.000004 Z"
     style="fill:#a0a0a0;fill-opacity:1;stroke:none"
     id="path56" />
  <path
     d="m 75.134534,-45.190324 -6.19032,6.19032 a 9,9 0 0 1 -7.944218,7.944218 l 5.621362,5.621362 a 16,16 0 0 0 8.513176,-19.7559 z"
     style="fill:#0a0a0a;stroke-width:0.25;fill-opacity:1;stroke:none"
     id="path55" />
  <path
     d="m 53.378756,-54.565462 a 16,16 0 0 0 -8.513693,19.7559 l 6.190837,-6.19032 a 9,9 0 0 1 7.944218,-7.944218 z"
     style="fill:#0a0a0a;fill-opacity:1;stroke:none"
     id="path54" />
  <path
     d="m 59.43265,-55.989665 a 16,16 0 0 0 -4.622974,0.854728 l 6.19032,6.190837 a 9,9 0 0 1 7.944218,7.944218 l 5.621362,-5.621362 A 16,16 0 0 0 59.43265,-55.989665 Z"
     style="fill:#a0a0a0;fill-opacity:1;stroke:none;stroke-width:0.25"
     id="path53" />
  <metadata
     id="metadata56">
    <rdf:RDF>
      <cc:Work
         rdf:about="">
        <dc:creator>
          <cc:Agent>
            <dc:title>Matthias Seidel</dc:title>
          </cc:Agent>
        </dc:creator>
      </cc:Work>
    </rdf:RDF>
  </metadata>
</svg>
