<?xml version="1.0" encoding="UTF-8" standalone="no"?>
<svg
   width="64"
   height="64"
   viewBox="28 -62 64 64"
   version="1.1"
   style="fill:none;stroke-linecap:round;stroke-linejoin:round"
   id="svg20"
   sodipodi:docname="spinner-64-07.svg"
   inkscape:export-filename="spinner-64-07.png"
   inkscape:export-xdpi="96"
   inkscape:export-ydpi="96"
   inkscape:version="1.3.2 (091e20ef0f, 2023-11-25)"
   xmlns:inkscape="http://www.inkscape.org/namespaces/inkscape"
   xmlns:sodipodi="http://sodipodi.sourceforge.net/DTD/sodipodi-0.dtd"
   xmlns="http://www.w3.org/2000/svg"
   xmlns:svg="http://www.w3.org/2000/svg"
   xmlns:rdf="http://www.w3.org/1999/02/22-rdf-syntax-ns#"
   xmlns:cc="http://creativecommons.org/ns#"
   xmlns:dc="http://purl.org/dc/elements/1.1/">
  <defs
     id="defs20" />
  <sodipodi:namedview
     id="namedview20"
     pagecolor="#ffffff"
     bordercolor="#cccccc"
     borderopacity="1"
     inkscape:showpageshadow="0"
     inkscape:pageopacity="1"
     inkscape:pagecheckerboard="0"
     inkscape:deskcolor="#d1d1d1"
     inkscape:document-units="px"
     inkscape:zoom="13.765613"
     inkscape:cx="31.963706"
     inkscape:cy="32.000028"
     inkscape:window-width="1920"
     inkscape:window-height="1056"
     inkscape:window-x="0"
     inkscape:window-y="24"
     inkscape:window-maximized="1"
     inkscape:current-layer="svg20" />
  <path
     d="M 44.125631,-28.000008 31.524849,-15.399744 A 32,32 0 0 0 71.850553,-0.27508545 L 58.000236,-14.125403 A 16,16 0 0 1 44.125631,-28.000008 Z"
     style="fill:#a0a0a0;fill-opacity:1;stroke:none"
     id="path24" />
  <path
     d="M 89.724915,-41.850326 75.874597,-28.000008 A 16,16 0 0 1 61.999992,-14.125403 L 74.600256,-1.5251383 A 32,32 0 0 0 89.724915,-41.850326 Z"
     style="fill:#0a0a0a;fill-opacity:1;stroke:none;stroke-width:0.25"
     id="path23" />
  <path
     d="M 45.399455,-58.475151 A 32,32 0 0 0 30.275313,-18.149447 L 44.125631,-31.999764 A 16,16 0 0 1 58.000236,-45.874369 Z"
     style="fill:#0a0a0a;fill-opacity:1;stroke:none"
     id="path22" />
  <path
     d="m 62.032031,-61.935404 a 32,32 0 0 0 -13.882357,2.210717 l 13.850318,13.850318 a 16,16 0 0 1 13.874605,13.874605 L 88.474862,-44.600545 A 32,32 0 0 0 62.032031,-61.935404 Z"
     style="fill:#a0a0a0;fill-opacity:1;stroke:none"
     id="path21" />
  <metadata
     id="metadata24">
    <rdf:RDF>
      <cc:Work
         rdf:about="">
        <dc:creator>
          <cc:Agent>
            <dc:title>Matthias Seidel</dc:title>
          </cc:Agent>
        </dc:creator>
      </cc:Work>
    </rdf:RDF>
  </metadata>
</svg>
