<?xml version="1.0" encoding="UTF-8" standalone="no"?>
<svg
   width="32"
   height="32"
   viewBox="44 -56 31.999999 32"
   version="1.1"
   style="fill:none;stroke-linecap:round;stroke-linejoin:round"
   id="svg20"
   sodipodi:docname="spinner-32-07.svg"
   inkscape:export-filename="spinner-32-07.png"
   inkscape:export-xdpi="96"
   inkscape:export-ydpi="96"
   inkscape:version="1.3.2 (091e20ef0f, 2023-11-25)"
   xmlns:inkscape="http://www.inkscape.org/namespaces/inkscape"
   xmlns:sodipodi="http://sodipodi.sourceforge.net/DTD/sodipodi-0.dtd"
   xmlns="http://www.w3.org/2000/svg"
   xmlns:svg="http://www.w3.org/2000/svg"
   xmlns:rdf="http://www.w3.org/1999/02/22-rdf-syntax-ns#"
   xmlns:cc="http://creativecommons.org/ns#"
   xmlns:dc="http://purl.org/dc/elements/1.1/">
  <defs
     id="defs20" />
  <sodipodi:namedview
     id="namedview20"
     pagecolor="#ffffff"
     bordercolor="#cccccc"
     borderopacity="1"
     inkscape:showpageshadow="0"
     inkscape:pageopacity="1"
     inkscape:pagecheckerboard="0"
     inkscape:deskcolor="#d1d1d1"
     inkscape:document-units="px"
     inkscape:zoom="27.531607"
     inkscape:cx="16.017953"
     inkscape:cy="15.999793"
     inkscape:window-width="1920"
     inkscape:window-height="1056"
     inkscape:window-x="0"
     inkscape:window-y="24"
     inkscape:window-maximized="1"
     inkscape:current-layer="svg20" />
  <path
     d="m 52.062557,-39.000004 -6.299874,6.300391 a 16,16 0 0 0 20.162594,7.561812 l -6.925159,-6.924642 a 8,8 0 0 1 -6.937561,-6.937561 z"
     style="fill:#a0a0a0;fill-opacity:1;stroke:none"
     id="path24" />
  <path
     d="m 74.862199,-45.925163 -6.924642,6.925159 a 8,8 0 0 1 -6.937561,6.937561 l 6.300391,6.299874 a 16,16 0 0 0 7.561812,-20.162594 z"
     style="fill:#0a0a0a;fill-opacity:1;stroke:none"
     id="path23" />
  <path
     d="m 52.699727,-54.237317 a 16,16 0 0 0 -7.562329,20.162594 l 6.925159,-6.925159 a 8,8 0 0 1 6.937561,-6.937561 z"
     style="fill:#0a0a0a;fill-opacity:1;stroke:none"
     id="path22" />
  <path
     d="m 61.016016,-55.967444 a 16,16 0 0 0 -6.941179,1.104842 l 6.925159,6.925159 a 8,8 0 0 1 6.937561,6.937561 l 6.299874,-6.300391 a 16,16 0 0 0 -13.221415,-8.667171 z"
     style="fill:#a0a0a0;fill-opacity:1;stroke:none;stroke-width:0.25"
     id="path21" />
  <metadata
     id="metadata24">
    <rdf:RDF>
      <cc:Work
         rdf:about="">
        <dc:creator>
          <cc:Agent>
            <dc:title>Matthias Seidel</dc:title>
          </cc:Agent>
        </dc:creator>
      </cc:Work>
    </rdf:RDF>
  </metadata>
</svg>
