<?xml version="1.0" encoding="UTF-8" standalone="no"?>
<svg
   width="64"
   height="64"
   viewBox="28 -62 64 64"
   version="1.1"
   style="fill:none;stroke-linecap:round;stroke-linejoin:round"
   id="svg20"
   sodipodi:docname="spinner-64-06.svg"
   inkscape:export-filename="spinner-64-06.png"
   inkscape:export-xdpi="96"
   inkscape:export-ydpi="96"
   inkscape:version="1.3.2 (091e20ef0f, 2023-11-25)"
   xmlns:inkscape="http://www.inkscape.org/namespaces/inkscape"
   xmlns:sodipodi="http://sodipodi.sourceforge.net/DTD/sodipodi-0.dtd"
   xmlns="http://www.w3.org/2000/svg"
   xmlns:svg="http://www.w3.org/2000/svg"
   xmlns:rdf="http://www.w3.org/1999/02/22-rdf-syntax-ns#"
   xmlns:cc="http://creativecommons.org/ns#"
   xmlns:dc="http://purl.org/dc/elements/1.1/">
  <defs
     id="defs20" />
  <sodipodi:namedview
     id="namedview20"
     pagecolor="#ffffff"
     bordercolor="#cccccc"
     borderopacity="1"
     inkscape:showpageshadow="0"
     inkscape:pageopacity="1"
     inkscape:pagecheckerboard="0"
     inkscape:deskcolor="#d1d1d1"
     inkscape:document-units="px"
     inkscape:zoom="13.76556"
     inkscape:cx="31.96383"
     inkscape:cy="32.000152"
     inkscape:window-width="1920"
     inkscape:window-height="1056"
     inkscape:window-x="0"
     inkscape:window-y="24"
     inkscape:window-maximized="1"
     inkscape:current-layer="svg20" />
  <path
     d="m 45.183964,-23.959428 -8.91005,15.4321331 a 32,32 0 0 0 42.866117,4.1723551 L 62.176725,-14.148657 a 16,16 0 0 1 -16.992761,-9.810771 z"
     style="fill:#a0a0a0;fill-opacity:1;stroke:none"
     id="path24" />
  <path
     d="m 85.64506,-49.139803 -9.793717,16.962789 a 16,16 0 0 1 -9.810771,16.992761 l 15.432133,8.9100505 A 32,32 0 0 0 85.64506,-49.139803 Z"
     style="fill:#0a0a0a;fill-opacity:1;stroke:none"
     id="path23" />
  <path
     d="m 38.527006,-53.726086 a 32,32 0 0 0 -4.171838,42.866117 l 9.793717,-16.963306 a 16,16 0 0 1 9.810771,-16.992761 z"
     style="fill:#0a0a0a;fill-opacity:1;stroke:none;stroke-width:0.25"
     id="path22" />
  <path
     d="m 58.381091,-61.959176 a 32,32 0 0 0 -17.520894,6.314344 l 16.962789,9.793717 a 16,16 0 0 1 16.992761,9.810771 l 8.910051,-15.43265 A 32,32 0 0 0 58.381091,-61.959176 Z"
     style="fill:#a0a0a0;fill-opacity:1;stroke:none;stroke-width:0.25"
     id="path21" />
  <metadata
     id="metadata24">
    <rdf:RDF>
      <cc:Work
         rdf:about="">
        <dc:creator>
          <cc:Agent>
            <dc:title>Matthias Seidel</dc:title>
          </cc:Agent>
        </dc:creator>
      </cc:Work>
    </rdf:RDF>
  </metadata>
</svg>
