<?xml version="1.0" encoding="UTF-8" standalone="no"?>
<svg
   width="64"
   height="64"
   viewBox="28 -62 64 64"
   version="1.1"
   style="fill:none;stroke-linecap:round;stroke-linejoin:round"
   id="svg20"
   sodipodi:docname="spinner-64-04.svg"
   inkscape:export-filename="spinner-64-04.png"
   inkscape:export-xdpi="96"
   inkscape:export-ydpi="96"
   inkscape:version="1.3.2 (091e20ef0f, 2023-11-25)"
   xmlns:inkscape="http://www.inkscape.org/namespaces/inkscape"
   xmlns:sodipodi="http://sodipodi.sourceforge.net/DTD/sodipodi-0.dtd"
   xmlns="http://www.w3.org/2000/svg"
   xmlns:svg="http://www.w3.org/2000/svg"
   xmlns:rdf="http://www.w3.org/1999/02/22-rdf-syntax-ns#"
   xmlns:cc="http://creativecommons.org/ns#"
   xmlns:dc="http://purl.org/dc/elements/1.1/">
  <defs
     id="defs20" />
  <sodipodi:namedview
     id="namedview20"
     pagecolor="#ffffff"
     bordercolor="#cccccc"
     borderopacity="1"
     inkscape:showpageshadow="0"
     inkscape:pageopacity="1"
     inkscape:pagecheckerboard="0"
     inkscape:deskcolor="#d1d1d1"
     inkscape:document-units="px"
     inkscape:zoom="13.765543"
     inkscape:cx="31.963867"
     inkscape:cy="32.000189"
     inkscape:window-width="1920"
     inkscape:window-height="1056"
     inkscape:window-x="0"
     inkscape:window-y="24"
     inkscape:window-maximized="1"
     inkscape:current-layer="svg20" />
  <path
     d="M 50.189343,-17.360864 V 0.45923665 A 32,32 0 0 0 89.398319,-17.360864 H 69.810885 a 16,16 0 0 1 -19.621542,0 z"
     style="fill:#a0a0a0;fill-opacity:1;stroke:none;stroke-width:0.25"
     id="path24" />
  <path
     d="M 29.540991,-39.810657 A 32,32 0 0 0 47.360575,-0.6016805 V -20.189115 a 16,16 0 0 1 0,-19.621542 z"
     style="fill:#0a0a0a;fill-opacity:1;stroke:none"
     id="path23" />
  <path
     d="m 72.639136,-59.398092 v 19.587435 a 16,16 0 0 1 0,19.621542 H 90.459237 A 32,32 0 0 0 72.639136,-59.398092 Z"
     style="fill:#0a0a0a;fill-opacity:1;stroke:none"
     id="path22" />
  <path
     d="m 60.522563,-61.995866 a 32,32 0 0 0 -29.920655,19.356441 h 19.587435 a 16,16 0 0 1 19.621542,0 v -17.819584 a 32,32 0 0 0 -9.288322,-1.536857 z"
     style="fill:#a0a0a0;fill-opacity:1;stroke:none"
     id="path21" />
  <metadata
     id="metadata24">
    <rdf:RDF>
      <cc:Work
         rdf:about="">
        <dc:creator>
          <cc:Agent>
            <dc:title>Matthias Seidel</dc:title>
          </cc:Agent>
        </dc:creator>
      </cc:Work>
    </rdf:RDF>
  </metadata>
</svg>
