<?xml version="1.0" encoding="UTF-8" standalone="no"?>
<svg
   width="16"
   height="16"
   viewBox="52 -51 16 16"
   version="1.1"
   style="fill:none;stroke-linecap:round;stroke-linejoin:round"
   id="svg20"
   sodipodi:docname="spinner-16-03.svg"
   inkscape:export-filename="spinner-16-03.png"
   inkscape:export-xdpi="96"
   inkscape:export-ydpi="96"
   inkscape:version="1.3.2 (091e20ef0f, 2023-11-25)"
   xmlns:inkscape="http://www.inkscape.org/namespaces/inkscape"
   xmlns:sodipodi="http://sodipodi.sourceforge.net/DTD/sodipodi-0.dtd"
   xmlns="http://www.w3.org/2000/svg"
   xmlns:svg="http://www.w3.org/2000/svg"
   xmlns:rdf="http://www.w3.org/1999/02/22-rdf-syntax-ns#"
   xmlns:cc="http://creativecommons.org/ns#"
   xmlns:dc="http://purl.org/dc/elements/1.1/">
  <defs
     id="defs20" />
  <sodipodi:namedview
     id="namedview20"
     pagecolor="#ffffff"
     bordercolor="#cccccc"
     borderopacity="1"
     inkscape:showpageshadow="0"
     inkscape:pageopacity="1"
     inkscape:pagecheckerboard="0"
     inkscape:deskcolor="#d1d1d1"
     inkscape:document-units="px"
     inkscape:zoom="55.061601"
     inkscape:cx="7.9910498"
     inkscape:cy="8.0001306"
     inkscape:window-width="1920"
     inkscape:window-height="1056"
     inkscape:window-x="0"
     inkscape:window-y="24"
     inkscape:window-maximized="1"
     inkscape:current-layer="svg20" />
  <path
     d="m 67.916858,-41.850171 -4.729944,1.267623 a 4,4 0 0 1 -4.738212,1.26969 l 1.152901,4.303096 a 8,8 0 0 0 8.315255,-6.840409 z"
     style="fill:#a0a0a0;fill-opacity:1;stroke:none"
     id="path24" />
  <path
     d="m 56.312915,-44.551298 -4.303096,1.152901 a 8,8 0 0 0 6.840409,8.315255 l -1.267623,-4.729944 a 4,4 0 0 1 -1.26969,-4.738212 z"
     style="fill:#0a0a0a;fill-opacity:1;stroke:none"
     id="path23" />
  <path
     d="m 60.398454,-50.990181 a 8,8 0 0 0 -8.315255,6.840409 l 4.729944,-1.267623 a 4,4 0 0 1 4.738212,-1.26969 z"
     style="fill:#a0a0a0;fill-opacity:1;stroke:none"
     id="path22" />
  <path
     d="m 68.000057,-42.970516 a 8,8 0 0 0 -6.850228,-7.946285 l 1.267623,4.729944 a 4,4 0 0 1 1.26969,4.738212 l 4.303096,-1.152901 a 8,8 0 0 0 0.0098,-0.36897 z"
     style="fill:#0a0a0a;fill-opacity:1;stroke:none"
     id="path21" />
  <metadata
     id="metadata24">
    <rdf:RDF>
      <cc:Work
         rdf:about="">
        <dc:creator>
          <cc:Agent>
            <dc:title>Matthias Seidel</dc:title>
          </cc:Agent>
        </dc:creator>
      </cc:Work>
    </rdf:RDF>
  </metadata>
</svg>
