<?xml version="1.0" encoding="UTF-8" standalone="no"?>
<svg
   width="32"
   height="32"
   viewBox="44 -56 31.999999 32"
   version="1.1"
   style="fill:none;stroke-linecap:round;stroke-linejoin:round"
   id="svg52"
   sodipodi:docname="spinner-32-11.svg"
   inkscape:export-filename="spinner-32-11.png"
   inkscape:export-xdpi="96"
   inkscape:export-ydpi="96"
   inkscape:version="1.3.2 (091e20ef0f, 2023-11-25)"
   xmlns:inkscape="http://www.inkscape.org/namespaces/inkscape"
   xmlns:sodipodi="http://sodipodi.sourceforge.net/DTD/sodipodi-0.dtd"
   xmlns="http://www.w3.org/2000/svg"
   xmlns:svg="http://www.w3.org/2000/svg"
   xmlns:rdf="http://www.w3.org/1999/02/22-rdf-syntax-ns#"
   xmlns:cc="http://creativecommons.org/ns#"
   xmlns:dc="http://purl.org/dc/elements/1.1/">
  <defs
     id="defs52" />
  <sodipodi:namedview
     id="namedview52"
     pagecolor="#ffffff"
     bordercolor="#cccccc"
     borderopacity="1"
     inkscape:showpageshadow="0"
     inkscape:pageopacity="1"
     inkscape:pagecheckerboard="0"
     inkscape:deskcolor="#d1d1d1"
     inkscape:document-units="px"
     inkscape:zoom="27.53148"
     inkscape:cx="16.018027"
     inkscape:cy="15.999866"
     inkscape:window-width="1920"
     inkscape:window-height="1056"
     inkscape:window-x="0"
     inkscape:window-y="24"
     inkscape:window-maximized="1"
     inkscape:current-layer="svg52" />
  <path
     d="m 52.753988,-34.661768 -2.057239,7.679118 a 16,16 0 0 0 21.365621,-2.50579 l -8.456332,-2.265495 a 9,9 0 0 1 -10.85205,-2.907833 z"
     style="fill:#0a0a0a;fill-opacity:1;stroke:none;stroke-width:0.25"
     id="path56" />
  <path
     d="m 46.982764,-49.303251 a 16,16 0 0 0 2.505273,21.365621 l 2.266012,-8.456332 a 9,9 0 0 1 2.907833,-10.85205 z"
     style="fill:#a0a0a0;fill-opacity:1;stroke:none"
     id="path55" />
  <path
     d="m 70.51156,-52.062256 -2.265495,8.456332 a 9,9 0 0 1 -2.907833,10.85205 l 7.679118,2.057239 a 16,16 0 0 0 -2.50579,-21.365621 z"
     style="fill:#a0a0a0;fill-opacity:1;stroke:none;stroke-width:0.25"
     id="path54" />
  <path
     d="m 60.4915,-55.992249 a 16,16 0 0 0 -12.553756,5.480286 l 8.456332,2.266012 a 9,9 0 0 1 10.85205,2.907833 l 2.057239,-7.679118 A 16,16 0 0 0 60.4915,-55.992249 Z"
     style="fill:#0a0a0a;fill-opacity:1;stroke:none;stroke-width:0.25"
     id="path53" />
  <metadata
     id="metadata56">
    <rdf:RDF>
      <cc:Work
         rdf:about="">
        <dc:creator>
          <cc:Agent>
            <dc:title>Matthias Seidel</dc:title>
          </cc:Agent>
        </dc:creator>
      </cc:Work>
    </rdf:RDF>
  </metadata>
</svg>
