<?xml version="1.0" encoding="UTF-8" standalone="no"?>
<svg
   width="64"
   height="64"
   viewBox="28 -62 64 64"
   version="1.1"
   style="fill:none;stroke-linecap:round;stroke-linejoin:round"
   id="svg20"
   sodipodi:docname="spinner-64-10.svg"
   inkscape:export-filename="spinner-64-10.png"
   inkscape:export-xdpi="96"
   inkscape:export-ydpi="96"
   inkscape:version="1.3.2 (091e20ef0f, 2023-11-25)"
   xmlns:inkscape="http://www.inkscape.org/namespaces/inkscape"
   xmlns:sodipodi="http://sodipodi.sourceforge.net/DTD/sodipodi-0.dtd"
   xmlns="http://www.w3.org/2000/svg"
   xmlns:svg="http://www.w3.org/2000/svg"
   xmlns:rdf="http://www.w3.org/1999/02/22-rdf-syntax-ns#"
   xmlns:cc="http://creativecommons.org/ns#"
   xmlns:dc="http://purl.org/dc/elements/1.1/">
  <defs
     id="defs20" />
  <sodipodi:namedview
     id="namedview20"
     pagecolor="#ffffff"
     bordercolor="#cccccc"
     borderopacity="1"
     inkscape:showpageshadow="0"
     inkscape:pageopacity="1"
     inkscape:pagecheckerboard="0"
     inkscape:deskcolor="#d1d1d1"
     inkscape:document-units="px"
     inkscape:zoom="13.765579"
     inkscape:cx="32.036429"
     inkscape:cy="32.000107"
     inkscape:window-width="1920"
     inkscape:window-height="1056"
     inkscape:window-x="0"
     inkscape:window-y="24"
     inkscape:window-maximized="1"
     inkscape:current-layer="svg20" />
  <path
     d="M 48.765141,-15.936662 V -0.0368571 A 32,32 0 0 0 88.744096,-15.936662 H 71.235087 a 18,18 0 0 1 -22.469946,0 z"
     style="fill:#0a0a0a;fill-opacity:1;stroke:none"
     id="path24" />
  <path
     d="M 30.037085,-41.234859 A 32,32 0 0 0 45.93689,-1.2559041 V -18.764913 a 18,18 0 0 1 0,-22.469946 z"
     style="fill:#a0a0a0;fill-opacity:1;stroke:none;stroke-width:0.25"
     id="path23" />
  <path
     d="m 74.063338,-58.743868 v 17.509009 a 18,18 0 0 1 0,22.469946 H 89.963143 A 32,32 0 0 0 74.063338,-58.743868 Z"
     style="fill:#a0a0a0;fill-opacity:1;stroke:none;stroke-width:0.25"
     id="path22" />
  <path
     d="M 62.041333,-61.934888 A 32,32 0 0 0 31.256132,-44.06311 h 17.509009 a 18,18 0 0 1 22.469946,0 v -15.899805 a 32,32 0 0 0 -9.193754,-1.971973 z"
     style="fill:#0a0a0a;fill-opacity:1;stroke:none;stroke-width:0.25"
     id="path21" />
  <metadata
     id="metadata24">
    <rdf:RDF>
      <cc:Work
         rdf:about="">
        <dc:creator>
          <cc:Agent>
            <dc:title>Matthias Seidel</dc:title>
          </cc:Agent>
        </dc:creator>
      </cc:Work>
    </rdf:RDF>
  </metadata>
</svg>
