<?xml version="1.0" encoding="UTF-8" standalone="no"?>
<svg
   width="32"
   height="32"
   viewBox="44 -56 31.999999 32"
   version="1.1"
   style="fill:none;stroke-linecap:round;stroke-linejoin:round"
   id="svg20"
   sodipodi:docname="spinner-32-02.svg"
   inkscape:export-filename="spinner-32-02.png"
   inkscape:export-xdpi="96"
   inkscape:export-ydpi="96"
   inkscape:version="1.3.2 (091e20ef0f, 2023-11-25)"
   xmlns:inkscape="http://www.inkscape.org/namespaces/inkscape"
   xmlns:sodipodi="http://sodipodi.sourceforge.net/DTD/sodipodi-0.dtd"
   xmlns="http://www.w3.org/2000/svg"
   xmlns:svg="http://www.w3.org/2000/svg"
   xmlns:rdf="http://www.w3.org/1999/02/22-rdf-syntax-ns#"
   xmlns:cc="http://creativecommons.org/ns#"
   xmlns:dc="http://purl.org/dc/elements/1.1/">
  <defs
     id="defs20" />
  <sodipodi:namedview
     id="namedview20"
     pagecolor="#ffffff"
     bordercolor="#cccccc"
     borderopacity="1"
     inkscape:showpageshadow="0"
     inkscape:pageopacity="1"
     inkscape:pagecheckerboard="0"
     inkscape:deskcolor="#d1d1d1"
     inkscape:document-units="px"
     inkscape:zoom="27.531312"
     inkscape:cx="16.018125"
     inkscape:cy="15.999964"
     inkscape:window-width="1920"
     inkscape:window-height="1056"
     inkscape:window-x="0"
     inkscape:window-y="24"
     inkscape:window-maximized="1"
     inkscape:current-layer="svg20" />
  <path
     d="m 52.074443,-41.088249 -7.716325,4.455026 a 16,16 0 0 0 17.51831,12.522749 l -4.896859,-8.481652 a 8,8 0 0 1 -4.905126,-8.496123 z"
     style="fill:#0a0a0a;fill-opacity:1;stroke:none;stroke-width:0.25"
     id="path24" />
  <path
     d="m 75.889526,-41.876831 -8.481652,4.896859 a 8,8 0 0 1 -8.496123,4.905643 l 4.455026,7.716325 a 16,16 0 0 0 12.522749,-17.518827 z"
     style="fill:#a0a0a0;fill-opacity:1;stroke:none"
     id="path23" />
  <path
     d="m 56.633337,-55.641882 a 16,16 0 0 0 -12.522749,17.51831 l 8.481652,-4.896859 a 8,8 0 0 1 8.496123,-4.905126 z"
     style="fill:#a0a0a0;fill-opacity:1;stroke:none"
     id="path22" />
  <path
     d="m 60.481165,-55.992765 a 16,16 0 0 0 -2.357996,0.103353 l 4.896859,8.481652 a 8,8 0 0 1 4.905643,8.496123 l 7.716325,-4.455026 A 16,16 0 0 0 60.481165,-55.992765 Z"
     style="fill:#0a0a0a;fill-opacity:1;stroke:none"
     id="path21" />
  <metadata
     id="metadata24">
    <rdf:RDF>
      <cc:Work
         rdf:about="">
        <dc:creator>
          <cc:Agent>
            <dc:title>Matthias Seidel</dc:title>
          </cc:Agent>
        </dc:creator>
      </cc:Work>
    </rdf:RDF>
  </metadata>
</svg>
