<?xml version="1.0" encoding="UTF-8" standalone="no"?>
<svg
   width="64"
   height="64"
   viewBox="28 -62 64 64"
   version="1.1"
   style="fill:none;stroke-linecap:round;stroke-linejoin:round"
   id="svg20"
   sodipodi:docname="spinner-64-09.svg"
   inkscape:export-filename="spinner-64-09.png"
   inkscape:export-xdpi="96"
   inkscape:export-ydpi="96"
   inkscape:version="1.3.2 (091e20ef0f, 2023-11-25)"
   xmlns:inkscape="http://www.inkscape.org/namespaces/inkscape"
   xmlns:sodipodi="http://sodipodi.sourceforge.net/DTD/sodipodi-0.dtd"
   xmlns="http://www.w3.org/2000/svg"
   xmlns:svg="http://www.w3.org/2000/svg"
   xmlns:rdf="http://www.w3.org/1999/02/22-rdf-syntax-ns#"
   xmlns:cc="http://creativecommons.org/ns#"
   xmlns:dc="http://purl.org/dc/elements/1.1/">
  <defs
     id="defs20" />
  <sodipodi:namedview
     id="namedview20"
     pagecolor="#ffffff"
     bordercolor="#cccccc"
     borderopacity="1"
     inkscape:showpageshadow="0"
     inkscape:pageopacity="1"
     inkscape:pagecheckerboard="0"
     inkscape:deskcolor="#d1d1d1"
     inkscape:document-units="px"
     inkscape:zoom="13.765628"
     inkscape:cx="32.036315"
     inkscape:cy="31.999993"
     inkscape:window-width="1920"
     inkscape:window-height="1056"
     inkscape:window-x="0"
     inkscape:window-y="24"
     inkscape:window-maximized="1"
     inkscape:current-layer="svg20" />
  <path
     d="m 91.404399,-23.855558 -16.912663,4.532023 a 18,18 0 0 1 -21.704102,5.815666 L 56.903145,1.8498494 A 32,32 0 0 0 91.404399,-23.855558 Z"
     style="fill:#0a0a0a;fill-opacity:1;stroke:none"
     id="path24" />
  <path
     d="m 43.508097,-37.212366 -15.357719,4.115511 A 32,32 0 0 0 53.855269,1.4043986 L 49.323763,-15.508264 a 18,18 0 0 1 -5.815666,-21.704102 z"
     style="fill:#a0a0a0;fill-opacity:1;stroke:none;stroke-width:0.25"
     id="path23" />
  <path
     d="m 66.144442,-61.404688 4.532023,16.912663 a 18,18 0 0 1 5.815666,21.704102 l 15.357718,-4.114994 A 32,32 0 0 0 66.144442,-61.404688 Z"
     style="fill:#a0a0a0;fill-opacity:1;stroke:none;stroke-width:0.25"
     id="path22" />
  <path
     d="m 58.384192,-61.959176 a 32,32 0 0 0 -29.78888,25.814445 l 16.912663,-4.531506 a 18,18 0 0 1 21.704102,-5.815666 l -4.114994,-15.357719 a 32,32 0 0 0 -4.712891,-0.109554 z"
     style="fill:#0a0a0a;fill-opacity:1;stroke:none"
     id="path21" />
  <metadata
     id="metadata24">
    <rdf:RDF>
      <cc:Work
         rdf:about="">
        <dc:creator>
          <cc:Agent>
            <dc:title>Matthias Seidel</dc:title>
          </cc:Agent>
        </dc:creator>
      </cc:Work>
    </rdf:RDF>
  </metadata>
</svg>
