<?xml version="1.0" encoding="UTF-8" standalone="no"?>
<svg
   width="32"
   height="32"
   viewBox="44 -56 31.999999 32"
   version="1.1"
   style="fill:none;stroke-linecap:round;stroke-linejoin:round"
   id="svg20"
   sodipodi:docname="spinner-32-09.svg"
   inkscape:export-filename="spinner-32-09.png"
   inkscape:export-xdpi="96"
   inkscape:export-ydpi="96"
   inkscape:version="1.3.2 (091e20ef0f, 2023-11-25)"
   xmlns:inkscape="http://www.inkscape.org/namespaces/inkscape"
   xmlns:sodipodi="http://sodipodi.sourceforge.net/DTD/sodipodi-0.dtd"
   xmlns="http://www.w3.org/2000/svg"
   xmlns:svg="http://www.w3.org/2000/svg"
   xmlns:rdf="http://www.w3.org/1999/02/22-rdf-syntax-ns#"
   xmlns:cc="http://creativecommons.org/ns#"
   xmlns:dc="http://purl.org/dc/elements/1.1/">
  <defs
     id="defs20" />
  <sodipodi:namedview
     id="namedview20"
     pagecolor="#ffffff"
     bordercolor="#cccccc"
     borderopacity="1"
     inkscape:showpageshadow="0"
     inkscape:pageopacity="1"
     inkscape:pagecheckerboard="0"
     inkscape:deskcolor="#d1d1d1"
     inkscape:document-units="px"
     inkscape:zoom="27.531259"
     inkscape:cx="16.018156"
     inkscape:cy="15.999995"
     inkscape:window-width="1920"
     inkscape:window-height="1056"
     inkscape:window-x="0"
     inkscape:window-y="24"
     inkscape:window-maximized="1"
     inkscape:current-layer="svg20" />
  <path
     d="m 75.833716,-37.700342 -9.459888,2.535246 a 8,8 0 0 1 -9.476424,2.538863 l 2.305802,8.606193 a 16,16 0 0 0 16.63051,-13.680302 z"
     style="fill:#0a0a0a;fill-opacity:1;stroke:none"
     id="path24" />
  <path
     d="m 52.626347,-43.102596 -8.60671,2.305802 a 16,16 0 0 0 13.680302,16.63051 l -2.534729,-9.459888 a 8,8 0 0 1 -2.538863,-9.476424 z"
     style="fill:#a0a0a0;fill-opacity:1;stroke:none"
     id="path23" />
  <path
     d="m 60.796391,-55.980363 a 16,16 0 0 0 -16.629993,13.680302 l 9.459888,-2.534729 a 8,8 0 0 1 9.476424,-2.538863 z"
     style="fill:#0a0a0a;fill-opacity:1;stroke:none"
     id="path22" />
  <path
     d="m 76.000114,-39.941032 a 16,16 0 0 0 -13.700456,-15.89257 l 2.535246,9.459888 a 8,8 0 0 1 2.538863,9.476424 l 8.606193,-2.306319 a 16,16 0 0 0 0.02015,-0.737423 z"
     style="fill:#a0a0a0;fill-opacity:1;stroke:none"
     id="path21" />
  <metadata
     id="metadata24">
    <rdf:RDF>
      <cc:Work
         rdf:about="">
        <dc:creator>
          <cc:Agent>
            <dc:title>Matthias Seidel</dc:title>
          </cc:Agent>
        </dc:creator>
      </cc:Work>
    </rdf:RDF>
  </metadata>
</svg>
