<?xml version="1.0" encoding="UTF-8" standalone="no"?>
<svg
   width="32"
   height="32"
   viewBox="44 -56 32.000001 32"
   version="1.1"
   style="fill:none;stroke-linecap:round;stroke-linejoin:round"
   id="svg9"
   sodipodi:docname="spinner-32-03.svg"
   inkscape:export-filename="spinner-32-03.png"
   inkscape:export-xdpi="96"
   inkscape:export-ydpi="96"
   inkscape:version="1.3.2 (091e20ef0f, 2023-11-25)"
   xmlns:inkscape="http://www.inkscape.org/namespaces/inkscape"
   xmlns:sodipodi="http://sodipodi.sourceforge.net/DTD/sodipodi-0.dtd"
   xmlns="http://www.w3.org/2000/svg"
   xmlns:svg="http://www.w3.org/2000/svg"
   xmlns:rdf="http://www.w3.org/1999/02/22-rdf-syntax-ns#"
   xmlns:cc="http://creativecommons.org/ns#"
   xmlns:dc="http://purl.org/dc/elements/1.1/">
  <defs
     id="defs9" />
  <sodipodi:namedview
     id="namedview9"
     pagecolor="#ffffff"
     bordercolor="#cccccc"
     borderopacity="1"
     inkscape:showpageshadow="0"
     inkscape:pageopacity="1"
     inkscape:pagecheckerboard="0"
     inkscape:deskcolor="#d1d1d1"
     inkscape:document-units="px"
     inkscape:zoom="27.531152"
     inkscape:cx="15.981896"
     inkscape:cy="16.000057"
     inkscape:window-width="1920"
     inkscape:window-height="1056"
     inkscape:window-x="0"
     inkscape:window-y="24"
     inkscape:window-maximized="1"
     inkscape:current-layer="svg9" />
  <path
     d="m 71.258285,-36.499898 a 3,3 0 0 0 -2.999817,2.999817 3,3 0 0 0 2.999817,3.000333 3,3 0 0 0 2.999816,-3.000333 3,3 0 0 0 -2.999816,-2.999817 z"
     style="fill:#a0a0a0;stroke-width:0.25"
     id="path15" />
  <path
     d="m 48.741829,-36.499898 a 3,3 0 0 0 -3.000333,2.999817 3,3 0 0 0 3.000333,3.000333 3,3 0 0 0 2.999817,-3.000333 3,3 0 0 0 -2.999817,-2.999817 z"
     style="fill:#a0a0a0;stroke-width:0.25"
     id="path14" />
  <path
     d="m 71.258285,-49.500138 a 3,3 0 0 0 -2.999817,3.000333 3,3 0 0 0 2.999817,2.999817 3,3 0 0 0 2.999816,-2.999817 3,3 0 0 0 -2.999816,-3.000333 z"
     style="fill:#0a0a0a;stroke-width:0.25;fill-opacity:1"
     id="path13" />
  <path
     d="m 48.741829,-49.500138 a 3,3 0 0 0 -3.000333,3.000333 3,3 0 0 0 3.000333,2.999817 3,3 0 0 0 2.999817,-2.999817 3,3 0 0 0 -2.999817,-3.000333 z"
     style="fill:#a0a0a0;stroke-width:0.25"
     id="path12" />
  <path
     d="m 60.000057,-23.999886 a 3,3 0 0 0 2.999817,-3.000334 3,3 0 0 0 -2.999817,-2.999817 3,3 0 0 0 -2.999817,2.999817 3,3 0 0 0 2.999817,3.000334 z"
     style="fill:#a0a0a0;stroke-width:0.25"
     id="path11" />
  <path
     d="m 60.000057,-56 a 3,3 0 0 0 -2.999817,2.999817 3,3 0 0 0 2.999817,3.000334 3,3 0 0 0 2.999817,-3.000334 A 3,3 0 0 0 60.000057,-56 Z"
     style="fill:#a0a0a0;fill-opacity:1;stroke-width:0.25"
     id="path10" />
  <metadata
     id="metadata15">
    <rdf:RDF>
      <cc:Work
         rdf:about="">
        <dc:creator>
          <cc:Agent>
            <dc:title>Matthias Seidel</dc:title>
          </cc:Agent>
        </dc:creator>
      </cc:Work>
    </rdf:RDF>
  </metadata>
</svg>
