<?xml version="1.0" encoding="UTF-8" standalone="no"?>
<svg
   width="153"
   height="63"
   viewBox="0 -63 43.180001 17.78"
   version="1.1"
   style="fill:none;stroke-linecap:round;stroke-linejoin:round"
   id="svg2"
   inkscape:version="1.3 (0e150ed6c4, 2023-07-21)"
   sodipodi:docname="cropmarkers.svg"
   inkscape:export-filename="../../../../Schreibtisch/cropmarkers.png"
   inkscape:export-xdpi="96"
   inkscape:export-ydpi="96"
   xmlns:inkscape="http://www.inkscape.org/namespaces/inkscape"
   xmlns:sodipodi="http://sodipodi.sourceforge.net/DTD/sodipodi-0.dtd"
   xmlns="http://www.w3.org/2000/svg"
   xmlns:svg="http://www.w3.org/2000/svg"
   xmlns:rdf="http://www.w3.org/1999/02/22-rdf-syntax-ns#"
   xmlns:cc="http://creativecommons.org/ns#"
   xmlns:dc="http://purl.org/dc/elements/1.1/">
  <metadata
     id="metadata682">
    <rdf:RDF>
      <cc:Work
         rdf:about="">
        <dc:format>image/svg+xml</dc:format>
        <dc:type
           rdf:resource="http://purl.org/dc/dcmitype/StillImage" />
        <dc:creator>
          <cc:Agent>
            <dc:title>Matthias Seidel</dc:title>
          </cc:Agent>
        </dc:creator>
      </cc:Work>
    </rdf:RDF>
  </metadata>
  <defs
     id="defs680" />
  <sodipodi:namedview
     pagecolor="#ffffff"
     bordercolor="#666666"
     borderopacity="1"
     objecttolerance="10"
     gridtolerance="10"
     guidetolerance="10"
     inkscape:pageopacity="0"
     inkscape:pageshadow="2"
     inkscape:window-width="1920"
     inkscape:window-height="1056"
     id="namedview678"
     showgrid="false"
     inkscape:showpageshadow="false"
     inkscape:zoom="11.542484"
     inkscape:cx="76.586634"
     inkscape:cy="31.492355"
     inkscape:window-x="0"
     inkscape:window-y="24"
     inkscape:window-maximized="1"
     inkscape:current-layer="svg2"
     units="px"
     inkscape:pagecheckerboard="0"
     inkscape:deskcolor="#d1d1d1" />
  <path
     inkscape:connector-curvature="0"
     style="opacity:0.9;fill:#000000;fill-opacity:1;fill-rule:nonzero;stroke:none;stroke-width:1.08099997;stroke-miterlimit:4;stroke-dasharray:none;stroke-opacity:1"
     d="m 0,-63.000001 0,1.975556 0,1.693333 1.9755555,0 0,-1.693333 1.6933334,0 0,-1.975556 -1.6933334,0 -1.9755555,0 z m 0.28222222,0.282222 1.41111108,0 1.6933333,0 0,1.411111 -1.6933333,0 0,1.693334 -1.41111108,0 0,-1.693334 0,-1.411111 z"
     id="rect3380" />
  <path
     inkscape:connector-curvature="0"
     style="opacity:0.66000001;fill:#0e85cd;fill-opacity:1;fill-rule:nonzero;stroke:none;stroke-width:1.08099997;stroke-linecap:round;stroke-linejoin:round;stroke-miterlimit:4;stroke-dasharray:none;stroke-opacity:1"
     d="m 0.28222222,-62.717779 0,1.411112 0,1.693333 1.41111108,0 0,-1.693333 1.6933334,0 0,-1.411112 -1.6933334,0 -1.41111108,0 z"
     id="rect3387" />
  <path
     inkscape:connector-curvature="0"
     style="opacity:0.9;fill:#000000;fill-opacity:1;fill-rule:nonzero;stroke:none;stroke-width:1.08099997;stroke-miterlimit:4;stroke-dasharray:none;stroke-opacity:1"
     d="m 3.6688889,-63.000001 0,1.975556 3.6688888,0 0,-1.975556 -3.6688888,0 z m 0.2822222,0.282222 3.1044444,0 0,1.411111 -3.1044444,0 0,-1.411111 z"
     id="rect4208" />
  <path
     style="opacity:0.66000001;fill:#0e85cd;fill-opacity:1;fill-rule:nonzero;stroke:none;stroke-width:1.08099997;stroke-linecap:round;stroke-linejoin:round;stroke-miterlimit:4;stroke-dasharray:none;stroke-opacity:1"
     d="m 3.9511111,-62.717777 3.1044445,0 0,1.411111 -3.1044445,0 z"
     id="rect4213" />
  <path
     inkscape:connector-curvature="0"
     id="path4238"
     d="m 4.1000008e-7,-55.662222 1.97555558999992,0 0,-3.668889 -1.97555558999992,0 0,3.668889 z M 0.28222263,-55.944445 l 0,-3.104444 1.41111107,0 0,3.104444 -1.41111107,0 z"
     style="opacity:0.9;fill:#000000;fill-opacity:1;fill-rule:nonzero;stroke:none;stroke-width:1.08099997;stroke-miterlimit:4;stroke-dasharray:none;stroke-opacity:1" />
  <path
     transform="matrix(0,-1,1,0,0,0)"
     style="opacity:0.66000001;fill:#0e85cd;fill-opacity:1;fill-rule:nonzero;stroke:none;stroke-width:1.08099997;stroke-linecap:round;stroke-linejoin:round;stroke-miterlimit:4;stroke-dasharray:none;stroke-opacity:1"
     d="m 55.944443,0.28222415 3.104444,0 0,1.41111115 -3.104444,0 z"
     id="rect4240" />
  <path
     inkscape:connector-curvature="0"
     style="opacity:0.9;fill:#000000;fill-opacity:1;fill-rule:nonzero;stroke:none;stroke-width:1.08099997;stroke-miterlimit:4;stroke-dasharray:none;stroke-opacity:1"
     d="m 9.0311114,-55.662222 1.9755556,0 0,-3.668889 -1.9755556,0 0,3.668889 z m 0.2822222,-0.282223 0,-3.104444 1.4111114,0 0,3.104444 -1.4111114,0 z"
     id="path4244" />
  <path
     transform="matrix(0,-1,1,0,0,0)"
     style="opacity:0.66000001;fill:#0e85cd;fill-opacity:1;fill-rule:nonzero;stroke:none;stroke-width:1.08099997;stroke-linecap:round;stroke-linejoin:round;stroke-miterlimit:4;stroke-dasharray:none;stroke-opacity:1"
     d="m 55.944443,9.3133354 3.104444,0 0,1.4111116 -3.104444,0 z"
     id="rect4246" />
  <path
     inkscape:connector-curvature="0"
     id="path4250"
     d="m 3.6688889,-53.968889 0,1.975556 3.6688889,0 0,-1.975556 -3.6688889,0 z m 0.2822222,0.282222 3.1044445,0 0,1.411111 -3.1044445,0 0,-1.411111 z"
     style="opacity:0.9;fill:#000000;fill-opacity:1;fill-rule:nonzero;stroke:none;stroke-width:1.08099997;stroke-miterlimit:4;stroke-dasharray:none;stroke-opacity:1" />
  <path
     style="opacity:0.66000001;fill:#0e85cd;fill-opacity:1;fill-rule:nonzero;stroke:none;stroke-width:1.08099997;stroke-linecap:round;stroke-linejoin:round;stroke-miterlimit:4;stroke-dasharray:none;stroke-opacity:1"
     d="m 3.9511111,-53.686665 3.1044445,0 0,1.411112 -3.1044445,0 z"
     id="rect4252" />
  <path
     inkscape:connector-curvature="0"
     id="path4266"
     d="m 4.1000008e-7,-51.993333 1.97555558999992,0 1.6933333,0 0,-1.975556 -1.6933333,0 0,-1.693333 -1.97555558999992,0 0,1.693333 0,1.975556 z M 0.28222263,-52.275555 l 0,-1.411111 0,-1.693334 1.41111107,0 0,1.693334 1.6933334,0 0,1.411111 -1.6933334,0 -1.41111107,0 z"
     style="opacity:0.9;fill:#000000;fill-opacity:1;fill-rule:nonzero;stroke:none;stroke-width:1.08099997;stroke-miterlimit:4;stroke-dasharray:none;stroke-opacity:1" />
  <path
     id="path4268"
     d="m 0.28222239,-52.275555 1.41111191,0 1.6933329,0 0,-1.411111 -1.6933329,0 0,-1.693334 -1.41111191,0 0,1.693334 0,1.411111 z"
     style="opacity:0.66000001;fill:#0e85cd;fill-opacity:1;fill-rule:nonzero;stroke:none;stroke-width:1.08099997;stroke-linecap:round;stroke-linejoin:round;stroke-miterlimit:4;stroke-dasharray:none;stroke-opacity:1"
     inkscape:connector-curvature="0" />
  <path
     inkscape:connector-curvature="0"
     style="opacity:0.9;fill:#000000;fill-opacity:1;fill-rule:nonzero;stroke:none;stroke-width:1.08099997;stroke-miterlimit:4;stroke-dasharray:none;stroke-opacity:1"
     d="m 11.006667,-51.993329 0,-1.975556 0,-1.693333 -1.9755555,0 0,1.693333 -1.6933334,0 0,1.975556 1.6933334,0 1.9755555,0 z m -0.282222,-0.282222 -1.4111113,0 -1.6933333,0 0,-1.411111 1.6933333,0 0,-1.693334 1.4111113,0 0,1.693334 0,1.411111 z"
     id="path4272" />
  <path
     inkscape:connector-curvature="0"
     style="opacity:0.66000001;fill:#0e85cd;fill-opacity:1;fill-rule:nonzero;stroke:none;stroke-width:1.08099997;stroke-linecap:round;stroke-linejoin:round;stroke-miterlimit:4;stroke-dasharray:none;stroke-opacity:1"
     d="m 10.724445,-52.275551 0,-1.411112 0,-1.693333 -1.4111113,0 0,1.693333 -1.6933334,0 0,1.411112 1.6933334,0 1.4111113,0 z"
     id="path4274" />
  <path
     inkscape:connector-curvature="0"
     id="path4278"
     d="m 11.006667,-63.000001 -1.9755555,0 -1.6933334,0 0,1.975556 1.6933334,0 0,1.693333 1.9755555,0 0,-1.693333 0,-1.975556 z m -0.282222,0.282222 0,1.411112 0,1.693333 -1.4111113,0 0,-1.693333 -1.6933333,0 0,-1.411112 1.6933333,0 1.4111113,0 z"
     style="opacity:0.9;fill:#000000;fill-opacity:1;fill-rule:nonzero;stroke:none;stroke-width:1.08099997;stroke-miterlimit:4;stroke-dasharray:none;stroke-opacity:1" />
  <path
     id="path4280"
     d="m 10.724445,-62.717779 -1.4111123,0 -1.6933329,0 0,1.411111 1.6933329,0 0,1.693334 1.4111123,0 0,-1.693334 0,-1.411111 z"
     style="opacity:0.66000001;fill:#0e85cd;fill-opacity:1;fill-rule:nonzero;stroke:none;stroke-width:1.08099997;stroke-linecap:round;stroke-linejoin:round;stroke-miterlimit:4;stroke-dasharray:none;stroke-opacity:1"
     inkscape:connector-curvature="0" />
  <path
     inkscape:connector-curvature="0"
     style="opacity:0.9;fill:#000000;fill-opacity:1;fill-rule:nonzero;stroke:none;stroke-width:1.08099997;stroke-miterlimit:4;stroke-dasharray:none;stroke-opacity:1"
     d="m 11.006667,-58.202223 0,4.797778 2.54,0 0,-4.797778 -2.54,0 z m 0.282222,0.282222 1.975555,0 0,4.233334 -1.975555,0 0,-4.233334 z"
     id="rect4292" />
  <path
     transform="matrix(0,1,-1,0,0,0)"
     style="opacity:0.66000001;fill:#0e85cd;fill-opacity:1;fill-rule:nonzero;stroke:none;stroke-width:1.08099997;stroke-linecap:round;stroke-linejoin:round;stroke-miterlimit:4;stroke-dasharray:none;stroke-opacity:1"
     d="m -57.920002,-13.264444 4.233334,0 0,1.975555 -4.233334,0 z"
     id="rect4301" />
  <path
     inkscape:connector-curvature="0"
     id="path4327"
     d="m 22.860001,-58.202222 0,4.797778 2.54,0 0,-4.797778 -2.54,0 z m 0.282222,0.282222 1.975555,0 0,4.233334 -1.975555,0 0,-4.233334 z"
     style="opacity:0.9;fill:#000000;fill-opacity:1;fill-rule:nonzero;stroke:none;stroke-width:1.08099997;stroke-miterlimit:4;stroke-dasharray:none;stroke-opacity:1" />
  <path
     transform="matrix(0,1,-1,0,0,0)"
     style="opacity:0.66000001;fill:#0e85cd;fill-opacity:1;fill-rule:nonzero;stroke:none;stroke-width:1.08099997;stroke-linecap:round;stroke-linejoin:round;stroke-miterlimit:4;stroke-dasharray:none;stroke-opacity:1"
     d="m -57.920002,-25.117779 4.233334,0 0,1.975556 -4.233334,0 z"
     id="rect4329" />
  <path
     style="opacity:0.9;fill:#000000;fill-opacity:1;fill-rule:nonzero;stroke:none;stroke-width:1.08099997;stroke-miterlimit:4;stroke-dasharray:none;stroke-opacity:1"
     d="m 15.804444,-60.460001 4.797777,0 0,-2.54 -4.797777,0 0,2.54 z m 0.282222,-0.282222 0,-1.975556 4.233333,0 0,1.975556 -4.233333,0 z"
     id="path4333"
     inkscape:connector-curvature="0" />
  <path
     style="opacity:0.66000001;fill:#0e85cd;fill-opacity:1;fill-rule:nonzero;stroke:none;stroke-width:1.08099997;stroke-linecap:round;stroke-linejoin:round;stroke-miterlimit:4;stroke-dasharray:none;stroke-opacity:1"
     d="m 16.08666,-62.717777 4.233334,0 0,1.975555 -4.233334,0 z"
     id="rect4335" />
  <path
     inkscape:connector-curvature="0"
     id="path4339"
     d="m 15.804444,-48.606666 4.797777,0 0,-2.54 -4.797777,0 0,2.54 z m 0.282222,-0.282222 0,-1.975556 4.233333,0 0,1.975556 -4.233333,0 z"
     style="opacity:0.9;fill:#000000;fill-opacity:1;fill-rule:nonzero;stroke:none;stroke-width:1.08099997;stroke-miterlimit:4;stroke-dasharray:none;stroke-opacity:1" />
  <path
     style="opacity:0.66000001;fill:#0e85cd;fill-opacity:1;fill-rule:nonzero;stroke:none;stroke-width:1.08099997;stroke-linecap:round;stroke-linejoin:round;stroke-miterlimit:4;stroke-dasharray:none;stroke-opacity:1"
     d="m 16.08666,-50.864441 4.233334,0 0,1.975556 -4.233334,0 z"
     id="rect4341" />
  <path
     inkscape:connector-curvature="0"
     style="opacity:0.9;fill:#000000;fill-opacity:1;fill-rule:nonzero;stroke:none;stroke-width:1.08099997;stroke-miterlimit:4;stroke-dasharray:none;stroke-opacity:1"
     d="m 11.006667,-63.000001 0,2.54 0,2.257778 2.54,0 0,-2.257778 2.257777,0 0,-2.54 -2.257777,0 -2.54,0 z m 0.282222,0.282222 1.975555,0 2.257778,0 0,1.975556 -2.257778,0 0,2.257778 -1.975555,0 0,-2.257778 0,-1.975556 z"
     id="rect4294" />
  <path
     inkscape:connector-curvature="0"
     style="opacity:0.66000001;fill:#0e85cd;fill-opacity:1;fill-rule:nonzero;stroke:none;stroke-width:1.08099997;stroke-linecap:round;stroke-linejoin:round;stroke-miterlimit:4;stroke-dasharray:none;stroke-opacity:1"
     d="m 11.288889,-62.717779 0,1.975556 0,2.257778 1.975556,0 0,-2.257778 2.257778,0 0,-1.975556 -2.257778,0 -1.975556,0 z"
     id="rect4299" />
  <path
     inkscape:connector-curvature="0"
     id="path4370"
     d="m 25.4,-63 -2.54,0 -2.257778,0 0,2.54 2.257778,0 0,2.257778 2.54,0 0,-2.257778 0,-2.54 z m -0.282222,0.282222 0,1.975556 0,2.257778 -1.975556,0 0,-2.257778 -2.257778,0 0,-1.975556 2.257778,0 1.975556,0 z"
     style="opacity:0.9;fill:#000000;fill-opacity:1;fill-rule:nonzero;stroke:none;stroke-width:1.08099997;stroke-miterlimit:4;stroke-dasharray:none;stroke-opacity:1" />
  <path
     id="path4372"
     d="m 25.117778,-62.717778 -1.975556,0 -2.257778,0 0,1.975556 2.257778,0 0,2.257779 1.975556,0 0,-2.257779 0,-1.975556 z"
     style="opacity:0.66000001;fill:#0e85cd;fill-opacity:1;fill-rule:nonzero;stroke:none;stroke-width:1.08099997;stroke-linecap:round;stroke-linejoin:round;stroke-miterlimit:4;stroke-dasharray:none;stroke-opacity:1"
     inkscape:connector-curvature="0" />
  <path
     inkscape:connector-curvature="0"
     id="path4376"
     d="m 11.006667,-48.606666 2.54,0 2.257778,0 0,-2.54 -2.257778,0 0,-2.257778 -2.54,0 0,2.257778 0,2.54 z m 0.282222,-0.282222 0,-1.975556 0,-2.257778 1.975556,0 0,2.257778 2.257778,0 0,1.975556 -2.257778,0 -1.975556,0 z"
     style="opacity:0.9;fill:#000000;fill-opacity:1;fill-rule:nonzero;stroke:none;stroke-width:1.08099997;stroke-miterlimit:4;stroke-dasharray:none;stroke-opacity:1" />
  <path
     id="path4378"
     d="m 11.288889,-48.888888 1.975556,0 2.257778,0 0,-1.975556 -2.257778,0 0,-2.257779 -1.975556,0 0,2.257779 0,1.975556 z"
     style="opacity:0.66000001;fill:#0e85cd;fill-opacity:1;fill-rule:nonzero;stroke:none;stroke-width:1.08099997;stroke-linecap:round;stroke-linejoin:round;stroke-miterlimit:4;stroke-dasharray:none;stroke-opacity:1"
     inkscape:connector-curvature="0" />
  <path
     style="opacity:0.9;fill:#000000;fill-opacity:1;fill-rule:nonzero;stroke:none;stroke-width:1.08099997;stroke-miterlimit:4;stroke-dasharray:none;stroke-opacity:1"
     d="m 25.4,-48.606669 0,-2.54 0,-2.257778 -2.54,0 0,2.257778 -2.257777,0 0,2.54 2.257777,0 2.54,0 z m -0.282222,-0.282222 -1.975555,0 -2.257778,0 0,-1.975556 2.257778,0 0,-2.257778 1.975555,0 0,2.257778 0,1.975556 z"
     id="path4382"
     inkscape:connector-curvature="0" />
  <path
     inkscape:connector-curvature="0"
     style="opacity:0.66000001;fill:#0e85cd;fill-opacity:1;fill-rule:nonzero;stroke:none;stroke-width:1.08099997;stroke-linecap:round;stroke-linejoin:round;stroke-miterlimit:4;stroke-dasharray:none;stroke-opacity:1"
     d="m 25.117778,-48.888891 0,-1.975556 0,-2.257778 -1.975556,0 0,2.257778 -2.257778,0 0,1.975556 2.257778,0 1.975556,0 z"
     id="path4384" />
  <path
     inkscape:connector-curvature="0"
     style="opacity:0.9;fill:#000000;fill-opacity:1;fill-rule:nonzero;stroke:none;stroke-width:1.08099997;stroke-miterlimit:4;stroke-dasharray:none;stroke-opacity:1"
     d="m 25.4,-63.000001 0,3.104445 0,2.822222 3.104444,0 0,-2.822222 2.822222,0 0,-3.104445 -2.822222,0 -3.104444,0 z m 0.282222,0.282222 2.54,0 2.822222,0 0,2.54 -2.822222,0 0,2.822223 -2.54,0 0,-2.822223 0,-2.54 z"
     id="rect4398" />
  <path
     inkscape:connector-curvature="0"
     style="opacity:0.66000001;fill:#0e85cd;fill-opacity:1;fill-rule:nonzero;stroke:none;stroke-width:1.08099997;stroke-linecap:round;stroke-linejoin:round;stroke-miterlimit:4;stroke-dasharray:none;stroke-opacity:1"
     d="m 25.682222,-62.717779 0,2.540001 0,2.822222 2.54,0 0,-2.822222 2.822222,0 0,-2.540001 -2.822222,0 -2.54,0 z"
     id="rect4405" />
  <path
     inkscape:connector-curvature="0"
     id="path4434"
     d="m 43.18,-45.219999 0,-3.104445 0,-2.822222 -3.104444,0 0,2.822222 -2.822222,0 0,3.104445 2.822222,0 3.104444,0 z m -0.282222,-0.282222 -2.54,0 -2.822222,0 0,-2.54 2.822222,0 0,-2.822223 2.54,0 0,2.822223 0,2.54 z"
     style="opacity:0.9;fill:#000000;fill-opacity:1;fill-rule:nonzero;stroke:none;stroke-width:1.08099997;stroke-miterlimit:4;stroke-dasharray:none;stroke-opacity:1" />
  <path
     id="path4436"
     d="m 42.897778,-45.502221 0,-2.540001 0,-2.822222 -2.54,0 0,2.822222 -2.822222,0 0,2.540001 2.822222,0 2.54,0 z"
     style="opacity:0.66000001;fill:#0e85cd;fill-opacity:1;fill-rule:nonzero;stroke:none;stroke-width:1.08099997;stroke-linecap:round;stroke-linejoin:round;stroke-miterlimit:4;stroke-dasharray:none;stroke-opacity:1"
     inkscape:connector-curvature="0" />
  <path
     inkscape:connector-curvature="0"
     style="opacity:0.9;fill:#000000;fill-opacity:1;fill-rule:nonzero;stroke:none;stroke-width:1.08099997;stroke-miterlimit:4;stroke-dasharray:none;stroke-opacity:1"
     d="m 43.180001,-63 -3.104444,0 -2.822223,0 0,3.104444 2.822223,0 0,2.822223 3.104444,0 0,-2.822223 0,-3.104444 z m -0.282222,0.282222 0,2.54 0,2.822223 -2.54,0 0,-2.822223 -2.822222,0 0,-2.54 2.822222,0 2.54,0 z"
     id="path4440" />
  <path
     inkscape:connector-curvature="0"
     style="opacity:0.66000001;fill:#0e85cd;fill-opacity:1;fill-rule:nonzero;stroke:none;stroke-width:1.08099997;stroke-linecap:round;stroke-linejoin:round;stroke-miterlimit:4;stroke-dasharray:none;stroke-opacity:1"
     d="m 42.897779,-62.717778 -2.540001,0 -2.822222,0 0,2.54 2.822222,0 0,2.822222 2.540001,0 0,-2.822222 0,-2.54 z"
     id="path4442" />
  <path
     style="opacity:0.9;fill:#000000;fill-opacity:1;fill-rule:nonzero;stroke:none;stroke-width:1.08099997;stroke-miterlimit:4;stroke-dasharray:none;stroke-opacity:1"
     d="m 25.4,-45.219999 3.104444,0 2.822223,0 0,-3.104445 -2.822223,0 0,-2.822223 -3.104444,0 0,2.822223 0,3.104445 z m 0.282222,-0.282223 0,-2.54 0,-2.822223 2.54,0 0,2.822223 2.822222,0 0,2.54 -2.822222,0 -2.54,0 z"
     id="path4446"
     inkscape:connector-curvature="0" />
  <path
     inkscape:connector-curvature="0"
     style="opacity:0.66000001;fill:#0e85cd;fill-opacity:1;fill-rule:nonzero;stroke:none;stroke-width:1.08099997;stroke-linecap:round;stroke-linejoin:round;stroke-miterlimit:4;stroke-dasharray:none;stroke-opacity:1"
     d="m 25.682222,-45.502222 2.540001,0 2.822222,0 0,-2.54 -2.822222,0 0,-2.822222 -2.540001,0 0,2.822222 0,2.54 z"
     id="path4448" />
  <path
     inkscape:connector-curvature="0"
     style="opacity:0.9;fill:#000000;fill-opacity:1;fill-rule:nonzero;stroke:none;stroke-width:1.08099997;stroke-miterlimit:4;stroke-dasharray:none;stroke-opacity:1"
     d="m 25.4,-57.073334 0,5.926667 3.104444,0 0,-5.926667 -3.104444,0 z m 0.282222,0.282222 2.54,0 0,5.362223 -2.54,0 0,-5.362223 z"
     id="rect4402" />
  <path
     transform="matrix(0,-1,1,0,0,0)"
     style="opacity:0.66000001;fill:#0e85cd;fill-opacity:1;fill-rule:nonzero;stroke:none;stroke-width:1.08099997;stroke-linecap:round;stroke-linejoin:round;stroke-miterlimit:4;stroke-dasharray:none;stroke-opacity:1"
     d="m 51.42889,25.682222 5.362223,0 0,2.54 -5.362223,0 z"
     id="rect4407" />
  <path
     inkscape:connector-curvature="0"
     id="path4496"
     d="m 31.326667,-59.895556 5.926666,0 0,-3.104445 -5.926666,0 0,3.104445 z m 0.282222,-0.282223 0,-2.54 5.362222,0 0,2.54 -5.362222,0 z"
     style="opacity:0.9;fill:#000000;fill-opacity:1;fill-rule:nonzero;stroke:none;stroke-width:1.08099997;stroke-miterlimit:4;stroke-dasharray:none;stroke-opacity:1" />
  <path
     transform="scale(-1,-1)"
     style="opacity:0.66000001;fill:#0e85cd;fill-opacity:1;fill-rule:nonzero;stroke:none;stroke-width:1.08099997;stroke-linecap:round;stroke-linejoin:round;stroke-miterlimit:4;stroke-dasharray:none;stroke-opacity:1"
     d="m -36.971111,60.17778 5.362222,0 0,2.54 -5.362222,0 z"
     id="rect4498" />
  <path
     style="opacity:0.9;fill:#000000;fill-opacity:1;fill-rule:nonzero;stroke:none;stroke-width:1.08099997;stroke-miterlimit:4;stroke-dasharray:none;stroke-opacity:1"
     d="m 40.075556,-57.073334 0,5.926667 3.104444,0 0,-5.926667 -3.104444,0 z m 0.282222,0.282222 2.54,0 0,5.362223 -2.54,0 0,-5.362223 z"
     id="path4502"
     inkscape:connector-curvature="0" />
  <path
     transform="matrix(0,-1,1,0,0,0)"
     style="opacity:0.66000001;fill:#0e85cd;fill-opacity:1;fill-rule:nonzero;stroke:none;stroke-width:1.08099997;stroke-linecap:round;stroke-linejoin:round;stroke-miterlimit:4;stroke-dasharray:none;stroke-opacity:1"
     d="m 51.42889,40.357777 5.362223,0 0,2.54 -5.362223,0 z"
     id="rect4504" />
  <path
     style="opacity:0.9;fill:#000000;fill-opacity:1;fill-rule:nonzero;stroke:none;stroke-width:1.08099997;stroke-miterlimit:4;stroke-dasharray:none;stroke-opacity:1"
     d="m 31.326667,-45.219999 5.926666,0 0,-3.104445 -5.926666,0 0,3.104445 z m 0.282222,-0.282223 0,-2.54 5.362222,0 0,2.54 -5.362222,0 z"
     id="path4508"
     inkscape:connector-curvature="0" />
  <path
     transform="scale(-1,-1)"
     style="opacity:0.66000001;fill:#0e85cd;fill-opacity:1;fill-rule:nonzero;stroke:none;stroke-width:1.08099997;stroke-linecap:round;stroke-linejoin:round;stroke-miterlimit:4;stroke-dasharray:none;stroke-opacity:1"
     d="m -36.971111,45.50222 5.362222,0 0,2.54 -5.362222,0 z"
     id="rect4510" />
</svg>
