<?xml version="1.0" encoding="UTF-8" standalone="no"?>
<svg
   width="64"
   height="64"
   viewBox="28 -62 64 64"
   version="1.1"
   style="fill:none;stroke-linecap:round;stroke-linejoin:round"
   id="svg9"
   sodipodi:docname="spinner-64-01.svg"
   inkscape:export-filename="spinner-64-01.png"
   inkscape:export-xdpi="96"
   inkscape:export-ydpi="96"
   inkscape:version="1.3.2 (091e20ef0f, 2023-11-25)"
   xmlns:inkscape="http://www.inkscape.org/namespaces/inkscape"
   xmlns:sodipodi="http://sodipodi.sourceforge.net/DTD/sodipodi-0.dtd"
   xmlns="http://www.w3.org/2000/svg"
   xmlns:svg="http://www.w3.org/2000/svg"
   xmlns:rdf="http://www.w3.org/1999/02/22-rdf-syntax-ns#"
   xmlns:cc="http://creativecommons.org/ns#"
   xmlns:dc="http://purl.org/dc/elements/1.1/">
  <defs
     id="defs9" />
  <sodipodi:namedview
     id="namedview9"
     pagecolor="#ffffff"
     bordercolor="#cccccc"
     borderopacity="1"
     inkscape:showpageshadow="0"
     inkscape:pageopacity="1"
     inkscape:pagecheckerboard="0"
     inkscape:deskcolor="#d1d1d1"
     inkscape:document-units="px"
     inkscape:zoom="13.765576"
     inkscape:cx="32.036436"
     inkscape:cy="32.000114"
     inkscape:window-width="1920"
     inkscape:window-height="1056"
     inkscape:window-x="0"
     inkscape:window-y="24"
     inkscape:window-maximized="1"
     inkscape:current-layer="svg9" />
  <path
     d="m 82.516569,-22.999797 a 6,6 0 0 0 -6.000151,5.999634 6,6 0 0 0 6.000151,6.000151 6,6 0 0 0 6.000151,-6.000151 6,6 0 0 0 -6.000151,-5.999634 z"
     style="fill:#a0a0a0;stroke:none;stroke-width:0.25"
     id="path15" />
  <path
     d="m 37.483142,-22.999797 a 6,6 0 0 0 -5.999634,5.999634 6,6 0 0 0 5.999634,6.000151 6,6 0 0 0 6.000151,-6.000151 6,6 0 0 0 -6.000151,-5.999634 z"
     style="fill:#a0a0a0;stroke:none;stroke-width:0.25"
     id="path14" />
  <path
     d="m 82.516569,-48.99976 a 6,6 0 0 0 -6.000151,5.999634 6,6 0 0 0 6.000151,6.00015 6,6 0 0 0 6.000151,-6.00015 6,6 0 0 0 -6.000151,-5.999634 z"
     style="fill:#a0a0a0;stroke:none;stroke-width:0.25"
     id="path13" />
  <path
     d="m 37.483142,-48.99976 a 6,6 0 0 0 -5.999634,5.999634 6,6 0 0 0 5.999634,6.00015 6,6 0 0 0 6.000151,-6.00015 6,6 0 0 0 -6.000151,-5.999634 z"
     style="fill:#a0a0a0;stroke:none;stroke-width:0.25"
     id="path12" />
  <path
     d="m 60.000114,2.0002279 a 6,6 0 0 0 5.999634,-6.0001506 6,6 0 0 0 -5.999634,-6.0001503 6,6 0 0 0 -6.000151,6.0001503 6,6 0 0 0 6.000151,6.0001506 z"
     style="fill:#a0a0a0;stroke:none;stroke-width:0.25"
     id="path11" />
  <path
     d="m 60.000114,-62 a 6,6 0 0 0 -6.000151,6.000151 6,6 0 0 0 6.000151,5.999633 6,6 0 0 0 5.999634,-5.999633 A 6,6 0 0 0 60.000114,-62 Z"
     style="fill:#0a0a0a;fill-opacity:1;stroke:none;stroke-width:0.25"
     id="path10" />
  <metadata
     id="metadata15">
    <rdf:RDF>
      <cc:Work
         rdf:about="">
        <dc:creator>
          <cc:Agent>
            <dc:title>Matthias Seidel</dc:title>
          </cc:Agent>
        </dc:creator>
      </cc:Work>
    </rdf:RDF>
  </metadata>
</svg>
