<?xml version="1.0" encoding="UTF-8" standalone="no"?>
<svg
   width="64"
   height="64"
   viewBox="28 -62 64 64"
   version="1.1"
   style="fill:none;stroke-linecap:round;stroke-linejoin:round"
   id="svg15"
   sodipodi:docname="spinner-64-11.svg"
   inkscape:export-filename="spinner-64-11.png"
   inkscape:export-xdpi="96"
   inkscape:export-ydpi="96"
   inkscape:version="1.3.2 (091e20ef0f, 2023-11-25)"
   xmlns:inkscape="http://www.inkscape.org/namespaces/inkscape"
   xmlns:sodipodi="http://sodipodi.sourceforge.net/DTD/sodipodi-0.dtd"
   xmlns="http://www.w3.org/2000/svg"
   xmlns:svg="http://www.w3.org/2000/svg"
   xmlns:rdf="http://www.w3.org/1999/02/22-rdf-syntax-ns#"
   xmlns:cc="http://creativecommons.org/ns#"
   xmlns:dc="http://purl.org/dc/elements/1.1/">
  <defs
     id="defs15" />
  <sodipodi:namedview
     id="namedview15"
     pagecolor="#ffffff"
     bordercolor="#cccccc"
     borderopacity="1"
     inkscape:showpageshadow="0"
     inkscape:pageopacity="1"
     inkscape:pagecheckerboard="0"
     inkscape:deskcolor="#d1d1d1"
     inkscape:document-units="px"
     inkscape:zoom="13.765576"
     inkscape:cx="32.036436"
     inkscape:cy="32.000114"
     inkscape:window-width="1920"
     inkscape:window-height="1056"
     inkscape:window-x="0"
     inkscape:window-y="24"
     inkscape:window-maximized="1"
     inkscape:current-layer="svg15" />
  <path
     d="m 73.500065,-11.617546 a 5,5 0 0 0 -5.000211,5.000212 5,5 0 0 0 5.000211,5.0002116 5,5 0 0 0 4.999695,-5.0002116 5,5 0 0 0 -4.999695,-5.000212 z"
     style="fill:#0a0a0a;stroke:none;stroke-width:0.25;opacity:0.6"
     id="path41" />
  <path
     d="m 46.500163,-11.617546 a 5,5 0 0 0 -5.000212,5.000212 5,5 0 0 0 5.000212,5.0002116 5,5 0 0 0 4.999695,-5.0002116 5,5 0 0 0 -4.999695,-5.000212 z"
     style="fill:#0a0a0a;stroke:none;stroke-width:0.25;opacity:0.76"
     id="path40" />
  <path
     d="m 83.382666,-21.500146 a 5,5 0 0 0 -5.000212,5.000211 5,5 0 0 0 5.000212,4.999695 5,5 0 0 0 5.000212,-4.999695 5,5 0 0 0 -5.000212,-5.000211 z"
     style="fill:#0a0a0a;stroke:none;stroke-width:0.25;opacity:0.52"
     id="path39" />
  <path
     d="m 36.617562,-21.500146 a 5,5 0 0 0 -5.000212,5.000211 5,5 0 0 0 5.000212,4.999695 5,5 0 0 0 4.999695,-4.999695 5,5 0 0 0 -4.999695,-5.000211 z"
     style="fill:#0a0a0a;stroke:none;stroke-width:0.25;opacity:0.84"
     id="path38" />
  <path
     d="m 83.382666,-48.500049 a 5,5 0 0 0 -5.000212,5.000212 5,5 0 0 0 5.000212,4.999695 5,5 0 0 0 5.000212,-4.999695 5,5 0 0 0 -5.000212,-5.000212 z"
     style="fill:#0a0a0a;stroke:none;stroke-width:0.25;opacity:0.36"
     id="path35" />
  <path
     d="m 36.617562,-48.500049 a 5,5 0 0 0 -5.000212,5.000212 5,5 0 0 0 5.000212,4.999695 5,5 0 0 0 4.999695,-4.999695 5,5 0 0 0 -4.999695,-5.000212 z"
     style="fill:#0a0a0a;stroke:none;stroke-width:0.25;opacity:1"
     id="path34" />
  <path
     d="m 73.500065,-58.38265 a 5,5 0 0 0 -5.000211,5.000212 5,5 0 0 0 5.000211,4.999695 5,5 0 0 0 4.999695,-4.999695 5,5 0 0 0 -4.999695,-5.000212 z"
     style="fill:#0a0a0a;stroke:none;stroke-width:0.25;opacity:0.28"
     id="path33" />
  <path
     d="m 46.500163,-58.38265 a 5,5 0 0 0 -5.000212,5.000212 5,5 0 0 0 5.000212,4.999695 5,5 0 0 0 4.999695,-4.999695 5,5 0 0 0 -4.999695,-5.000212 z"
     style="fill:#0a0a0a;stroke:none;stroke-width:0.25;opacity:0.12"
     id="path32" />
  <path
     d="M 33.000212,-35.000098 A 5,5 0 0 0 28,-29.999886 a 5,5 0 0 0 5.000212,4.999695 5,5 0 0 0 4.999694,-4.999695 5,5 0 0 0 -4.999694,-5.000212 z"
     style="fill:#0a0a0a;stroke:none;stroke-width:0.25;opacity:0.92"
     id="path36" />
  <path
     d="m 60.000114,-8.0001953 a 5,5 0 0 0 -5.000212,5.0002116 5,5 0 0 0 5.000212,5.0002116 5,5 0 0 0 4.999695,-5.0002116 5,5 0 0 0 -4.999695,-5.0002116 z"
     style="fill:#0a0a0a;stroke:none;stroke-width:0.25;opacity:0.68"
     id="path42" />
  <path
     d="m 87.000016,-35.000098 a 5,5 0 0 0 -5.000211,5.000212 5,5 0 0 0 5.000211,4.999695 5,5 0 0 0 5.000212,-4.999695 5,5 0 0 0 -5.000212,-5.000212 z"
     style="fill:#0a0a0a;stroke:none;stroke-width:0.25;opacity:0.44"
     id="path37" />
  <path
     d="m 60.000114,-62 a 5,5 0 0 0 -5.000212,5.000212 5,5 0 0 0 5.000212,4.999694 5,5 0 0 0 4.999695,-4.999694 A 5,5 0 0 0 60.000114,-62 Z"
     style="fill:#0a0a0a;stroke:none;stroke-width:0.25;opacity:0.2"
     id="path31" />
  <metadata
     id="metadata42">
    <rdf:RDF>
      <cc:Work
         rdf:about="">
        <dc:creator>
          <cc:Agent>
            <dc:title>Matthias Seidel</dc:title>
          </cc:Agent>
        </dc:creator>
      </cc:Work>
    </rdf:RDF>
  </metadata>
</svg>
