<?xml version="1.0" encoding="UTF-8" standalone="no"?>
<svg
   xmlns:dc="http://purl.org/dc/elements/1.1/"
   xmlns:cc="http://creativecommons.org/ns#"
   xmlns:rdf="http://www.w3.org/1999/02/22-rdf-syntax-ns#"
   xmlns:svg="http://www.w3.org/2000/svg"
   xmlns="http://www.w3.org/2000/svg"
   xmlns:sodipodi="http://sodipodi.sourceforge.net/DTD/sodipodi-0.dtd"
   xmlns:inkscape="http://www.inkscape.org/namespaces/inkscape"
   width="153"
   height="63"
   viewBox="0 -63 43.180001 17.78"
   version="1.1"
   style="fill:none;stroke-linecap:round;stroke-linejoin:round"
   id="svg2"
   inkscape:version="0.91 r13725"
   sodipodi:docname="cropmarkers.svg"
   inkscape:export-filename="/home/seidel/Schreibtisch/cropmarkers2.png"
   inkscape:export-xdpi="90"
   inkscape:export-ydpi="90">
  <metadata
     id="metadata682">
    <rdf:RDF>
      <cc:Work
         rdf:about="">
        <dc:format>image/svg+xml</dc:format>
        <dc:type
           rdf:resource="http://purl.org/dc/dcmitype/StillImage" />
        <dc:title />
        <dc:creator>
          <cc:Agent>
            <dc:title>Matthias Seidel</dc:title>
          </cc:Agent>
        </dc:creator>
      </cc:Work>
    </rdf:RDF>
  </metadata>
  <defs
     id="defs680" />
  <sodipodi:namedview
     pagecolor="#ffffff"
     bordercolor="#666666"
     borderopacity="1"
     objecttolerance="10"
     gridtolerance="10"
     guidetolerance="10"
     inkscape:pageopacity="0"
     inkscape:pageshadow="2"
     inkscape:window-width="1366"
     inkscape:window-height="744"
     id="namedview678"
     showgrid="false"
     inkscape:showpageshadow="false"
     inkscape:zoom="7.8431338"
     inkscape:cx="76.500033"
     inkscape:cy="31.5"
     inkscape:window-x="0"
     inkscape:window-y="24"
     inkscape:window-maximized="1"
     inkscape:current-layer="svg2"
     units="px" />
  <path
     inkscape:connector-curvature="0"
     style="opacity:0.9;fill:#000000;fill-opacity:1;fill-rule:nonzero;stroke:none;stroke-width:1.08099997;stroke-miterlimit:4;stroke-dasharray:none;stroke-opacity:1"
     d="m 4.6566666,-63.000001 a 0.98777777,0.98777781 0 0 0 -0.9877777,0.987778 0.98777777,0.98777781 0 0 0 0.9877777,0.987778 l 1.6933334,0 A 0.98777777,0.98777781 0 0 0 7.3377777,-62.012223 0.98777777,0.98777781 0 0 0 6.35,-63.000001 l -1.6933334,0 z m 0,0.282222 1.6933334,0 A 0.70555555,0.7055556 0 0 1 7.0555555,-62.012223 0.70555555,0.7055556 0 0 1 6.35,-61.306668 l -1.6933334,0 a 0.70555555,0.7055556 0 0 1 -0.7055555,-0.705555 0.70555555,0.7055556 0 0 1 0.7055555,-0.705556 z"
     id="rect4560" />
  <path
     inkscape:connector-curvature="0"
     style="opacity:0.66000001;fill:#969696;fill-opacity:1;fill-rule:nonzero;stroke:none;stroke-width:1.08099997;stroke-linecap:round;stroke-linejoin:round;stroke-miterlimit:4;stroke-dasharray:none;stroke-opacity:1"
     d="m 4.6566667,-62.717779 a 0.70555556,0.70555561 0 0 0 -0.7055556,0.705556 0.70555556,0.70555561 0 0 0 0.7055556,0.705556 l 1.6933333,0 A 0.70555556,0.70555561 0 0 0 7.0555556,-62.012223 0.70555556,0.70555561 0 0 0 6.35,-62.717779 l -1.6933333,0 z"
     id="rect4568" />
  <path
     inkscape:connector-curvature="0"
     id="path4603"
     d="m 4.6566667,-53.968889 a 0.98777777,0.98777781 0 0 0 -0.9877778,0.987778 0.98777777,0.98777781 0 0 0 0.9877778,0.987778 l 1.6933333,0 A 0.98777777,0.98777781 0 0 0 7.3377778,-52.981111 0.98777777,0.98777781 0 0 0 6.35,-53.968889 l -1.6933333,0 z m 0,0.282222 1.6933333,0 A 0.70555555,0.7055556 0 0 1 7.0555556,-52.981111 0.70555555,0.7055556 0 0 1 6.35,-52.275556 l -1.6933333,0 a 0.70555555,0.7055556 0 0 1 -0.7055556,-0.705555 0.70555555,0.7055556 0 0 1 0.7055556,-0.705556 z"
     style="opacity:0.9;fill:#000000;fill-opacity:1;fill-rule:nonzero;stroke:none;stroke-width:1.08099997;stroke-miterlimit:4;stroke-dasharray:none;stroke-opacity:1" />
  <path
     id="path4605"
     d="m 4.6566668,-53.686667 a 0.70555556,0.70555561 0 0 0 -0.7055556,0.705556 0.70555556,0.70555561 0 0 0 0.7055556,0.705556 l 1.6933333,0 a 0.70555556,0.70555561 0 0 0 0.7055556,-0.705556 0.70555556,0.70555561 0 0 0 -0.7055556,-0.705556 l -1.6933333,0 z"
     style="opacity:0.66000001;fill:#969696;fill-opacity:1;fill-rule:nonzero;stroke:none;stroke-width:1.08099997;stroke-linecap:round;stroke-linejoin:round;stroke-miterlimit:4;stroke-dasharray:none;stroke-opacity:1"
     inkscape:connector-curvature="0" />
  <path
     inkscape:connector-curvature="0"
     id="path4609"
     d="m 11.006667,-58.343334 a 0.98777774,0.98777788 0 0 0 -0.987778,-0.987778 0.98777774,0.98777788 0 0 0 -0.9877775,0.987778 l 0,1.693334 a 0.98777774,0.98777788 0 0 0 0.9877775,0.987778 0.98777774,0.98777788 0 0 0 0.987778,-0.987778 l 0,-1.693334 z m -0.282222,0 0,1.693334 A 0.70555555,0.70555563 0 0 1 10.018889,-55.944445 0.70555555,0.70555563 0 0 1 9.3133337,-56.65 l 0,-1.693334 a 0.70555555,0.70555563 0 0 1 0.7055553,-0.705555 0.70555555,0.70555563 0 0 1 0.705556,0.705555 z"
     style="opacity:0.9;fill:#000000;fill-opacity:1;fill-rule:nonzero;stroke:none;stroke-width:1.08099997;stroke-miterlimit:4;stroke-dasharray:none;stroke-opacity:1" />
  <path
     id="path4611"
     d="m 10.724445,-58.343334 a 0.70555556,0.70555563 0 0 0 -0.705556,-0.705556 0.70555556,0.70555563 0 0 0 -0.7055563,0.705556 l 0,1.693334 a 0.70555556,0.70555563 0 0 0 0.7055563,0.705555 0.70555556,0.70555563 0 0 0 0.705556,-0.705555 l 0,-1.693334 z"
     style="opacity:0.66000001;fill:#969696;fill-opacity:1;fill-rule:nonzero;stroke:none;stroke-width:1.08099997;stroke-linecap:round;stroke-linejoin:round;stroke-miterlimit:4;stroke-dasharray:none;stroke-opacity:1"
     inkscape:connector-curvature="0" />
  <path
     inkscape:connector-curvature="0"
     style="opacity:0.9;fill:#000000;fill-opacity:1;fill-rule:nonzero;stroke:none;stroke-width:1.08099997;stroke-miterlimit:4;stroke-dasharray:none;stroke-opacity:1"
     d="M 4.1000008e-7,-56.65 A 0.98777774,0.98777788 0 0 0 0.98777818,-55.662222 0.98777774,0.98777788 0 0 0 1.975556,-56.65 l 0,-1.693334 A 0.98777774,0.98777788 0 0 0 0.98777818,-59.331111 0.98777774,0.98777788 0 0 0 4.1000008e-7,-58.343334 l 0,1.693334 z m 0.28222221999992,0 0,-1.693334 a 0.70555555,0.70555563 0 0 1 0.70555555,-0.705555 0.70555555,0.70555563 0 0 1 0.70555552,0.705555 l 0,1.693334 A 0.70555555,0.70555563 0 0 1 0.98777818,-55.944445 0.70555555,0.70555563 0 0 1 0.28222263,-56.65 Z"
     id="path4615" />
  <path
     inkscape:connector-curvature="0"
     style="opacity:0.66000001;fill:#969696;fill-opacity:1;fill-rule:nonzero;stroke:none;stroke-width:1.08099997;stroke-linecap:round;stroke-linejoin:round;stroke-miterlimit:4;stroke-dasharray:none;stroke-opacity:1"
     d="M 0.28222239,-56.65 A 0.70555556,0.70555563 0 0 0 0.98777834,-55.944444 0.70555556,0.70555563 0 0 0 1.6933343,-56.65 l 0,-1.693334 a 0.70555556,0.70555563 0 0 0 -0.70555596,-0.705555 0.70555556,0.70555563 0 0 0 -0.70555595,0.705555 l 0,1.693334 z"
     id="path4617" />
  <path
     inkscape:connector-curvature="0"
     style="opacity:0.9;fill:#000000;fill-opacity:1;fill-rule:nonzero;stroke:none;stroke-width:1.08099997;stroke-miterlimit:4;stroke-dasharray:none;stroke-opacity:1"
     d="M 0.98777777,-63.000001 A 0.98777777,0.98777781 0 0 0 0,-62.012223 l 0,1.693333 a 0.98777777,0.98777781 0 0 0 0.98777777,0.987778 0.98777777,0.98777781 0 0 0 0.98777773,-0.987778 l 0,-0.705555 0.7055556,0 a 0.98777777,0.98777781 0 0 0 0.9877778,-0.987778 0.98777777,0.98777781 0 0 0 -0.9877778,-0.987778 l -1.69333333,0 z m 0,0.282222 1.69333333,0 a 0.70555555,0.7055556 0 0 1 0.7055555,0.705556 0.70555555,0.7055556 0 0 1 -0.7055555,0.705555 l -0.9877778,0 0,0.987778 a 0.70555555,0.7055556 0 0 1 -0.70555553,0.705556 0.70555555,0.7055556 0 0 1 -0.70555555,-0.705556 l 0,-1.693333 a 0.70555555,0.7055556 0 0 1 0.70555555,-0.705556 z"
     id="path4627" />
  <path
     inkscape:connector-curvature="0"
     style="opacity:0.66000001;fill:#969696;fill-opacity:1;fill-rule:nonzero;stroke:none;stroke-width:1.08099997;stroke-linecap:round;stroke-linejoin:round;stroke-miterlimit:4;stroke-dasharray:none;stroke-opacity:1"
     d="m 0.98777778,-62.717779 a 0.70555556,0.70555561 0 0 0 -0.70555556,0.705556 l 0,1.693334 a 0.70555556,0.70555561 0 0 0 0.70555556,0.705555 0.70555556,0.70555561 0 0 0 0.70555552,-0.705555 l 0,-0.987778 0.9877778,0 a 0.70555556,0.70555561 0 0 0 0.7055556,-0.705556 0.70555556,0.70555561 0 0 0 -0.7055556,-0.705556 l -1.69333332,0 z"
     id="path4645" />
  <path
     inkscape:connector-curvature="0"
     id="path4678"
     d="M 4.1000008e-7,-52.981111 A 0.98777774,0.98777788 0 0 0 0.98777818,-51.993333 l 1.69333332,0 a 0.98777774,0.98777788 0 0 0 0.9877778,-0.987778 0.98777774,0.98777788 0 0 0 -0.9877778,-0.987778 l -0.7055555,0 0,-0.705555 A 0.98777774,0.98777788 0 0 0 0.98777818,-55.662222 0.98777774,0.98777788 0 0 0 4.1000008e-7,-54.674444 l 0,1.693333 z m 0.28222221999992,0 0,-1.693333 A 0.70555555,0.70555563 0 0 1 0.98777818,-55.38 0.70555555,0.70555563 0 0 1 1.6933337,-54.674444 l 0,0.987778 0.9877778,0 a 0.70555555,0.70555563 0 0 1 0.7055556,0.705555 0.70555555,0.70555563 0 0 1 -0.7055556,0.705556 l -1.69333332,0 a 0.70555555,0.70555563 0 0 1 -0.70555555,-0.705556 z"
     style="opacity:0.9;fill:#000000;fill-opacity:1;fill-rule:nonzero;stroke:none;stroke-width:1.08099997;stroke-miterlimit:4;stroke-dasharray:none;stroke-opacity:1" />
  <path
     id="path4680"
     d="m 0.28222239,-52.981111 a 0.70555556,0.70555563 0 0 0 0.70555595,0.705556 l 1.69333386,0 a 0.70555556,0.70555563 0 0 0 0.705555,-0.705556 0.70555556,0.70555563 0 0 0 -0.705555,-0.705555 l -0.9877779,0 0,-0.987778 A 0.70555556,0.70555563 0 0 0 0.98777834,-55.38 0.70555556,0.70555563 0 0 0 0.28222239,-54.674444 l 0,1.693333 z"
     style="opacity:0.66000001;fill:#969696;fill-opacity:1;fill-rule:nonzero;stroke:none;stroke-width:1.08099997;stroke-linecap:round;stroke-linejoin:round;stroke-miterlimit:4;stroke-dasharray:none;stroke-opacity:1"
     inkscape:connector-curvature="0" />
  <path
     style="opacity:0.9;fill:#000000;fill-opacity:1;fill-rule:nonzero;stroke:none;stroke-width:1.08099997;stroke-miterlimit:4;stroke-dasharray:none;stroke-opacity:1"
     d="m 11.006667,-62.012223 a 0.98777774,0.98777788 0 0 0 -0.987778,-0.987778 l -1.6933331,0 a 0.98777774,0.98777788 0 0 0 -0.9877778,0.987778 0.98777774,0.98777788 0 0 0 0.9877778,0.987778 l 0.7055556,0 0,0.705555 a 0.98777774,0.98777788 0 0 0 0.9877775,0.987778 0.98777774,0.98777788 0 0 0 0.987778,-0.987778 l 0,-1.693333 z m -0.282222,0 0,1.693333 a 0.70555555,0.70555563 0 0 1 -0.705556,0.705556 0.70555555,0.70555563 0 0 1 -0.7055553,-0.705556 l 0,-0.987777 -0.9877778,0 a 0.70555555,0.70555563 0 0 1 -0.7055555,-0.705556 0.70555555,0.70555563 0 0 1 0.7055555,-0.705556 l 1.6933331,0 a 0.70555555,0.70555563 0 0 1 0.705556,0.705556 z"
     id="path4684"
     inkscape:connector-curvature="0" />
  <path
     inkscape:connector-curvature="0"
     style="opacity:0.66000001;fill:#969696;fill-opacity:1;fill-rule:nonzero;stroke:none;stroke-width:1.08099997;stroke-linecap:round;stroke-linejoin:round;stroke-miterlimit:4;stroke-dasharray:none;stroke-opacity:1"
     d="m 10.724445,-62.012223 a 0.70555556,0.70555563 0 0 0 -0.705556,-0.705556 l -1.6933342,0 a 0.70555556,0.70555563 0 0 0 -0.705555,0.705556 0.70555556,0.70555563 0 0 0 0.705555,0.705555 l 0.9877779,0 0,0.987778 a 0.70555556,0.70555563 0 0 0 0.7055563,0.705556 0.70555556,0.70555563 0 0 0 0.705556,-0.705556 l 0,-1.693333 z"
     id="path4686" />
  <path
     style="opacity:0.9;fill:#000000;fill-opacity:1;fill-rule:nonzero;stroke:none;stroke-width:1.08099997;stroke-miterlimit:4;stroke-dasharray:none;stroke-opacity:1"
     d="m 10.018889,-51.993329 a 0.98777777,0.98777781 0 0 0 0.987778,-0.987778 l 0,-1.693333 a 0.98777777,0.98777781 0 0 0 -0.987778,-0.987778 0.98777777,0.98777781 0 0 0 -0.9877775,0.987778 l 0,0.705555 -0.7055556,0 a 0.98777777,0.98777781 0 0 0 -0.9877778,0.987778 0.98777777,0.98777781 0 0 0 0.9877778,0.987778 l 1.6933331,0 z m 0,-0.282222 -1.6933331,0 a 0.70555555,0.7055556 0 0 1 -0.7055555,-0.705556 0.70555555,0.7055556 0 0 1 0.7055555,-0.705555 l 0.9877778,0 0,-0.987778 a 0.70555555,0.7055556 0 0 1 0.7055553,-0.705556 0.70555555,0.7055556 0 0 1 0.705556,0.705556 l 0,1.693333 a 0.70555555,0.7055556 0 0 1 -0.705556,0.705556 z"
     id="path4692"
     inkscape:connector-curvature="0" />
  <path
     inkscape:connector-curvature="0"
     style="opacity:0.66000001;fill:#969696;fill-opacity:1;fill-rule:nonzero;stroke:none;stroke-width:1.08099997;stroke-linecap:round;stroke-linejoin:round;stroke-miterlimit:4;stroke-dasharray:none;stroke-opacity:1"
     d="m 10.018889,-52.275551 a 0.70555556,0.70555561 0 0 0 0.705556,-0.705556 l 0,-1.693334 a 0.70555556,0.70555561 0 0 0 -0.705556,-0.705555 0.70555556,0.70555561 0 0 0 -0.7055553,0.705555 l 0,0.987778 -0.9877778,0 a 0.70555556,0.70555561 0 0 0 -0.7055556,0.705556 0.70555556,0.70555561 0 0 0 0.7055556,0.705556 l 1.6933331,0 z"
     id="path4694" />
  <path
     inkscape:connector-curvature="0"
     style="opacity:0.9;fill:#000000;fill-opacity:1;fill-rule:nonzero;stroke:none;stroke-width:1.08099997;stroke-miterlimit:4;stroke-dasharray:none;stroke-opacity:1"
     d="m 12.276667,-63.000001 a 1.2699999,1.2700001 0 0 0 -1.27,1.27 l 0,2.257778 a 1.2699999,1.2700001 0 0 0 1.27,1.27 1.2699999,1.2700001 0 0 0 1.27,-1.27 l 0,-0.987778 0.987777,0 a 1.2699999,1.2700001 0 0 0 1.27,-1.27 1.2699999,1.2700001 0 0 0 -1.27,-1.27 l -2.257777,0 z m 0,0.282222 2.257777,0 a 0.98777777,0.98777781 0 0 1 0.987778,0.987778 0.98777777,0.98777781 0 0 1 -0.987778,0.987778 l -1.27,0 0,1.27 a 0.98777777,0.98777781 0 0 1 -0.987777,0.987778 0.98777777,0.98777781 0 0 1 -0.987778,-0.987778 l 0,-2.257778 a 0.98777777,0.98777781 0 0 1 0.987778,-0.987778 z"
     id="path3348" />
  <path
     inkscape:connector-curvature="0"
     style="opacity:0.66000001;fill:#969696;fill-opacity:1;fill-rule:nonzero;stroke:none;stroke-width:1.08099997;stroke-linecap:round;stroke-linejoin:round;stroke-miterlimit:4;stroke-dasharray:none;stroke-opacity:1"
     d="m 12.276666,-62.717779 a 0.98777778,0.98777782 0 0 0 -0.987777,0.987778 l 0,2.257778 a 0.98777778,0.98777782 0 0 0 0.987777,0.987778 0.98777778,0.98777782 0 0 0 0.987778,-0.987778 l 0,-1.27 1.27,0 a 0.98777778,0.98777782 0 0 0 0.987778,-0.987778 0.98777778,0.98777782 0 0 0 -0.987778,-0.987778 l -2.257778,0 z"
     id="path3361" />
  <path
     inkscape:connector-curvature="0"
     id="path4194"
     d="m 24.13,-48.606666 a 1.2699999,1.2700001 0 0 0 1.27,-1.27 l 0,-2.257778 a 1.2699999,1.2700001 0 0 0 -1.27,-1.27 1.2699999,1.2700001 0 0 0 -1.27,1.27 l 0,0.987778 -0.987777,0 a 1.2699999,1.2700001 0 0 0 -1.27,1.27 1.2699999,1.2700001 0 0 0 1.27,1.27 l 2.257777,0 z m 0,-0.282222 -2.257777,0 a 0.98777777,0.98777781 0 0 1 -0.987778,-0.987778 0.98777777,0.98777781 0 0 1 0.987778,-0.987778 l 1.27,0 0,-1.27 a 0.98777777,0.98777781 0 0 1 0.987777,-0.987778 0.98777777,0.98777781 0 0 1 0.987778,0.987778 l 0,2.257778 A 0.98777777,0.98777781 0 0 1 24.13,-48.888888 Z"
     style="opacity:0.9;fill:#000000;fill-opacity:1;fill-rule:nonzero;stroke:none;stroke-width:1.08099997;stroke-miterlimit:4;stroke-dasharray:none;stroke-opacity:1" />
  <path
     id="path4196"
     d="m 24.130001,-48.888888 a 0.98777778,0.98777782 0 0 0 0.987777,-0.987778 l 0,-2.257778 a 0.98777778,0.98777782 0 0 0 -0.987777,-0.987778 0.98777778,0.98777782 0 0 0 -0.987778,0.987778 l 0,1.27 -1.27,0 a 0.98777778,0.98777782 0 0 0 -0.987778,0.987778 0.98777778,0.98777782 0 0 0 0.987778,0.987778 l 2.257778,0 z"
     style="opacity:0.66000001;fill:#969696;fill-opacity:1;fill-rule:nonzero;stroke:none;stroke-width:1.08099997;stroke-linecap:round;stroke-linejoin:round;stroke-miterlimit:4;stroke-dasharray:none;stroke-opacity:1"
     inkscape:connector-curvature="0" />
  <path
     inkscape:connector-curvature="0"
     style="opacity:0.9;fill:#000000;fill-opacity:1;fill-rule:nonzero;stroke:none;stroke-width:1.08099997;stroke-miterlimit:4;stroke-dasharray:none;stroke-opacity:1"
     d="M 25.4,-61.73 A 1.27,1.2700001 0 0 0 24.13,-63 l -2.257778,0 a 1.27,1.2700001 0 0 0 -1.27,1.27 1.27,1.2700001 0 0 0 1.27,1.27 l 0.987778,0 0,0.987778 a 1.27,1.2700001 0 0 0 1.27,1.27 1.27,1.2700001 0 0 0 1.27,-1.27 l 0,-2.257778 z m -0.282222,0 0,2.257778 A 0.98777774,0.98777788 0 0 1 24.13,-58.484444 0.98777774,0.98777788 0 0 1 23.142222,-59.472222 l 0,-1.27 -1.27,0 A 0.98777774,0.98777788 0 0 1 20.884444,-61.73 a 0.98777774,0.98777788 0 0 1 0.987778,-0.987778 l 2.257778,0 A 0.98777774,0.98777788 0 0 1 25.117778,-61.73 Z"
     id="path4200" />
  <path
     inkscape:connector-curvature="0"
     style="opacity:0.66000001;fill:#969696;fill-opacity:1;fill-rule:nonzero;stroke:none;stroke-width:1.08099997;stroke-linecap:round;stroke-linejoin:round;stroke-miterlimit:4;stroke-dasharray:none;stroke-opacity:1"
     d="M 25.117778,-61.730001 A 0.98777775,0.98777788 0 0 0 24.13,-62.717778 l -2.257778,0 a 0.98777775,0.98777788 0 0 0 -0.987778,0.987777 0.98777775,0.98777788 0 0 0 0.987778,0.987778 l 1.27,0 0,1.27 a 0.98777775,0.98777788 0 0 0 0.987778,0.987779 0.98777775,0.98777788 0 0 0 0.987778,-0.987779 l 0,-2.257778 z"
     id="path4202" />
  <path
     inkscape:connector-curvature="0"
     id="path4206"
     d="m 11.006666,-49.876666 a 1.27,1.2700001 0 0 0 1.27,1.27 l 2.257778,0 a 1.27,1.2700001 0 0 0 1.27,-1.27 1.27,1.2700001 0 0 0 -1.27,-1.27 l -0.987778,0 0,-0.987778 a 1.27,1.2700001 0 0 0 -1.27,-1.27 1.27,1.2700001 0 0 0 -1.27,1.27 l 0,2.257778 z m 0.282222,0 0,-2.257778 a 0.98777774,0.98777788 0 0 1 0.987778,-0.987778 0.98777774,0.98777788 0 0 1 0.987778,0.987778 l 0,1.27 1.27,0 a 0.98777774,0.98777788 0 0 1 0.987778,0.987778 0.98777774,0.98777788 0 0 1 -0.987778,0.987778 l -2.257778,0 a 0.98777774,0.98777788 0 0 1 -0.987778,-0.987778 z"
     style="opacity:0.9;fill:#000000;fill-opacity:1;fill-rule:nonzero;stroke:none;stroke-width:1.08099997;stroke-miterlimit:4;stroke-dasharray:none;stroke-opacity:1" />
  <path
     id="path4208"
     d="m 11.288888,-49.876665 a 0.98777775,0.98777788 0 0 0 0.987778,0.987777 l 2.257778,0 a 0.98777775,0.98777788 0 0 0 0.987778,-0.987777 0.98777775,0.98777788 0 0 0 -0.987778,-0.987778 l -1.27,0 0,-1.27 a 0.98777775,0.98777788 0 0 0 -0.987778,-0.987779 0.98777775,0.98777788 0 0 0 -0.987778,0.987779 l 0,2.257778 z"
     style="opacity:0.66000001;fill:#969696;fill-opacity:1;fill-rule:nonzero;stroke:none;stroke-width:1.08099997;stroke-linecap:round;stroke-linejoin:round;stroke-miterlimit:4;stroke-dasharray:none;stroke-opacity:1"
     inkscape:connector-curvature="0" />
  <path
     inkscape:connector-curvature="0"
     style="opacity:0.9;fill:#000000;fill-opacity:1;fill-rule:nonzero;stroke:none;stroke-width:1.08099997;stroke-miterlimit:4;stroke-dasharray:none;stroke-opacity:1"
     d="m 12.276667,-58.202223 a 1.2699999,1.2700001 0 0 0 -1.27,1.27 l 0,2.257778 a 1.2699999,1.2700001 0 0 0 1.27,1.27 1.2699999,1.2700001 0 0 0 1.27,-1.27 l 0,-2.257778 a 1.2699999,1.2700001 0 0 0 -1.27,-1.27 z m 0,0.282222 a 0.98777777,0.98777781 0 0 1 0.987777,0.987778 l 0,2.257778 a 0.98777777,0.98777781 0 0 1 -0.987777,0.987778 0.98777777,0.98777781 0 0 1 -0.987778,-0.987778 l 0,-2.257778 a 0.98777777,0.98777781 0 0 1 0.987778,-0.987778 z"
     id="path3356" />
  <path
     inkscape:connector-curvature="0"
     style="opacity:0.66000001;fill:#969696;fill-opacity:1;fill-rule:nonzero;stroke:none;stroke-width:1.08099997;stroke-linecap:round;stroke-linejoin:round;stroke-miterlimit:4;stroke-dasharray:none;stroke-opacity:1"
     d="m 12.276758,-57.920001 a 0.98777778,0.98777782 0 0 0 -0.987777,0.987778 l 0,2.257778 a 0.98777778,0.98777782 0 0 0 0.987777,0.987778 0.98777778,0.98777782 0 0 0 0.987778,-0.987778 l 0,-2.257778 a 0.98777778,0.98777782 0 0 0 -0.987778,-0.987778 z"
     id="path4171" />
  <path
     inkscape:connector-curvature="0"
     id="path4201"
     d="m 24.130001,-58.202222 a 1.2699999,1.2700001 0 0 0 -1.27,1.27 l 0,2.257778 a 1.2699999,1.2700001 0 0 0 1.27,1.27 1.2699999,1.2700001 0 0 0 1.27,-1.27 l 0,-2.257778 a 1.2699999,1.2700001 0 0 0 -1.27,-1.27 z m 0,0.282222 a 0.98777777,0.98777781 0 0 1 0.987777,0.987778 l 0,2.257778 a 0.98777777,0.98777781 0 0 1 -0.987777,0.987778 0.98777777,0.98777781 0 0 1 -0.987778,-0.987778 l 0,-2.257778 A 0.98777777,0.98777781 0 0 1 24.130001,-57.92 Z"
     style="opacity:0.9;fill:#000000;fill-opacity:1;fill-rule:nonzero;stroke:none;stroke-width:1.08099997;stroke-miterlimit:4;stroke-dasharray:none;stroke-opacity:1" />
  <path
     id="path4203"
     d="m 24.130092,-57.92 a 0.98777778,0.98777782 0 0 0 -0.987777,0.987778 l 0,2.257778 a 0.98777778,0.98777782 0 0 0 0.987777,0.987778 0.98777778,0.98777782 0 0 0 0.987778,-0.987778 l 0,-2.257778 A 0.98777778,0.98777782 0 0 0 24.130092,-57.92 Z"
     style="opacity:0.66000001;fill:#969696;fill-opacity:1;fill-rule:nonzero;stroke:none;stroke-width:1.08099997;stroke-linecap:round;stroke-linejoin:round;stroke-miterlimit:4;stroke-dasharray:none;stroke-opacity:1"
     inkscape:connector-curvature="0" />
  <path
     style="opacity:0.9;fill:#000000;fill-opacity:1;fill-rule:nonzero;stroke:none;stroke-width:1.08099997;stroke-miterlimit:4;stroke-dasharray:none;stroke-opacity:1"
     d="m 15.804444,-61.730001 a 1.27,1.2700001 0 0 0 1.27,1.27 l 2.257777,0 a 1.27,1.2700001 0 0 0 1.27,-1.27 1.27,1.2700001 0 0 0 -1.27,-1.27 l -2.257777,0 a 1.27,1.2700001 0 0 0 -1.27,1.27 z m 0.282222,0 a 0.98777774,0.98777788 0 0 1 0.987778,-0.987778 l 2.257777,0 a 0.98777774,0.98777788 0 0 1 0.987778,0.987778 0.98777774,0.98777788 0 0 1 -0.987778,0.987778 l -2.257777,0 a 0.98777774,0.98777788 0 0 1 -0.987778,-0.987778 z"
     id="path4207"
     inkscape:connector-curvature="0" />
  <path
     inkscape:connector-curvature="0"
     style="opacity:0.66000001;fill:#969696;fill-opacity:1;fill-rule:nonzero;stroke:none;stroke-width:1.08099997;stroke-linecap:round;stroke-linejoin:round;stroke-miterlimit:4;stroke-dasharray:none;stroke-opacity:1"
     d="m 16.086666,-61.730092 a 0.98777775,0.98777788 0 0 0 0.987778,0.987777 l 2.257778,0 A 0.98777775,0.98777788 0 0 0 20.32,-61.730092 0.98777775,0.98777788 0 0 0 19.332222,-62.71787 l -2.257778,0 a 0.98777775,0.98777788 0 0 0 -0.987778,0.987778 z"
     id="path4209" />
  <path
     inkscape:connector-curvature="0"
     id="path4213"
     d="m 15.804444,-49.876666 a 1.27,1.2700001 0 0 0 1.27,1.27 l 2.257777,0 a 1.27,1.2700001 0 0 0 1.27,-1.27 1.27,1.2700001 0 0 0 -1.27,-1.27 l -2.257777,0 a 1.27,1.2700001 0 0 0 -1.27,1.27 z m 0.282222,0 a 0.98777774,0.98777788 0 0 1 0.987778,-0.987778 l 2.257777,0 a 0.98777774,0.98777788 0 0 1 0.987778,0.987778 0.98777774,0.98777788 0 0 1 -0.987778,0.987778 l -2.257777,0 a 0.98777774,0.98777788 0 0 1 -0.987778,-0.987778 z"
     style="opacity:0.9;fill:#000000;fill-opacity:1;fill-rule:nonzero;stroke:none;stroke-width:1.08099997;stroke-miterlimit:4;stroke-dasharray:none;stroke-opacity:1" />
  <path
     id="path4215"
     d="m 16.086666,-49.876757 a 0.98777775,0.98777788 0 0 0 0.987778,0.987777 l 2.257778,0 A 0.98777775,0.98777788 0 0 0 20.32,-49.876757 0.98777775,0.98777788 0 0 0 19.332222,-50.864535 l -2.257778,0 a 0.98777775,0.98777788 0 0 0 -0.987778,0.987778 z"
     style="opacity:0.66000001;fill:#969696;fill-opacity:1;fill-rule:nonzero;stroke:none;stroke-width:1.08099997;stroke-linecap:round;stroke-linejoin:round;stroke-miterlimit:4;stroke-dasharray:none;stroke-opacity:1"
     inkscape:connector-curvature="0" />
  <path
     inkscape:connector-curvature="0"
     style="opacity:0.9;fill:#000000;fill-opacity:1;fill-rule:nonzero;stroke:none;stroke-width:1.08099997;stroke-miterlimit:4;stroke-dasharray:none;stroke-opacity:1"
     d="M 26.952222,-63.000001 A 1.5522222,1.5522223 0 0 0 25.4,-61.447779 l 0,2.822223 a 1.5522222,1.5522223 0 0 0 1.552222,1.552222 1.5522222,1.5522223 0 0 0 1.552222,-1.552222 l 0,-1.27 1.411111,0 0,-0.0077 a 1.5522222,1.5522223 0 0 0 1.411111,-1.544507 1.5522222,1.5522223 0 0 0 -1.411111,-1.545056 l 0,-0.0072 -2.822222,0 0,0.0072 a 1.5522222,1.5522223 0 0 0 -0.141111,-0.0072 z m 0,0.282222 2.822222,0 a 1.2699999,1.2700001 0 0 1 1.27,1.27 1.2699999,1.2700001 0 0 1 -1.27,1.27 l -1.552222,0 0,1.552223 a 1.2699999,1.2700001 0 0 1 -1.27,1.27 1.2699999,1.2700001 0 0 1 -1.27,-1.27 l 0,-2.822223 a 1.2699999,1.2700001 0 0 1 1.27,-1.27 z"
     id="path3364" />
  <path
     inkscape:connector-curvature="0"
     style="opacity:0.66000001;fill:#969696;fill-opacity:1;fill-rule:nonzero;stroke:none;stroke-width:1.08099997;stroke-linecap:round;stroke-linejoin:round;stroke-miterlimit:4;stroke-dasharray:none;stroke-opacity:1"
     d="m 26.952222,-62.717779 a 1.27,1.2700001 0 0 0 -1.27,1.270001 l 0,2.822222 a 1.27,1.2700001 0 0 0 1.27,1.27 1.27,1.2700001 0 0 0 1.27,-1.27 l 0,-1.552222 1.552223,0 a 1.27,1.2700001 0 0 0 1.27,-1.27 1.27,1.2700001 0 0 0 -1.27,-1.270001 l -2.822223,0 z"
     id="path4181" />
  <path
     inkscape:connector-curvature="0"
     id="path4216"
     d="M 41.627778,-45.219999 A 1.5522222,1.5522223 0 0 0 43.18,-46.772221 l 0,-2.822223 a 1.5522222,1.5522223 0 0 0 -1.552222,-1.552222 1.5522222,1.5522223 0 0 0 -1.552222,1.552222 l 0,1.27 -1.411111,0 0,0.0077 a 1.5522222,1.5522223 0 0 0 -1.411111,1.544507 1.5522222,1.5522223 0 0 0 1.411111,1.545056 l 0,0.0072 2.822222,0 0,-0.0072 a 1.5522222,1.5522223 0 0 0 0.141111,0.0072 z m 0,-0.282222 -2.822222,0 a 1.2699999,1.2700001 0 0 1 -1.27,-1.27 1.2699999,1.2700001 0 0 1 1.27,-1.27 l 1.552222,0 0,-1.552223 a 1.2699999,1.2700001 0 0 1 1.27,-1.27 1.2699999,1.2700001 0 0 1 1.27,1.27 l 0,2.822223 a 1.2699999,1.2700001 0 0 1 -1.27,1.27 z"
     style="opacity:0.9;fill:#000000;fill-opacity:1;fill-rule:nonzero;stroke:none;stroke-width:1.08099997;stroke-miterlimit:4;stroke-dasharray:none;stroke-opacity:1" />
  <path
     id="path4218"
     d="m 41.627778,-45.502221 a 1.27,1.2700001 0 0 0 1.27,-1.270001 l 0,-2.822222 a 1.27,1.2700001 0 0 0 -1.27,-1.27 1.27,1.2700001 0 0 0 -1.27,1.27 l 0,1.552222 -1.552223,0 a 1.27,1.2700001 0 0 0 -1.27,1.27 1.27,1.2700001 0 0 0 1.27,1.270001 l 2.822223,0 z"
     style="opacity:0.66000001;fill:#969696;fill-opacity:1;fill-rule:nonzero;stroke:none;stroke-width:1.08099997;stroke-linecap:round;stroke-linejoin:round;stroke-miterlimit:4;stroke-dasharray:none;stroke-opacity:1"
     inkscape:connector-curvature="0" />
  <path
     inkscape:connector-curvature="0"
     style="opacity:0.9;fill:#000000;fill-opacity:1;fill-rule:nonzero;stroke:none;stroke-width:1.08099997;stroke-miterlimit:4;stroke-dasharray:none;stroke-opacity:1"
     d="m 25.4,-46.772222 a 1.5522222,1.5522224 0 0 0 1.552222,1.552223 l 2.822222,0 a 1.5522222,1.5522224 0 0 0 1.552223,-1.552223 1.5522222,1.5522224 0 0 0 -1.552223,-1.552222 l -1.27,0 0,-1.411112 -0.0077,0 a 1.5522222,1.5522224 0 0 0 -1.544506,-1.411111 1.5522222,1.5522224 0 0 0 -1.545056,1.411111 l -0.0072,0 0,2.822223 0.0072,0 A 1.5522222,1.5522224 0 0 0 25.4,-46.772222 Z m 0.282222,0 0,-2.822222 a 1.27,1.2700001 0 0 1 1.27,-1.270001 1.27,1.2700001 0 0 1 1.27,1.270001 l 0,1.552222 1.552222,0 a 1.27,1.2700001 0 0 1 1.27,1.27 1.27,1.2700001 0 0 1 -1.27,1.27 l -2.822222,0 a 1.27,1.2700001 0 0 1 -1.27,-1.27 z"
     id="path4222" />
  <path
     inkscape:connector-curvature="0"
     style="opacity:0.66000001;fill:#969696;fill-opacity:1;fill-rule:nonzero;stroke:none;stroke-width:1.08099997;stroke-linecap:round;stroke-linejoin:round;stroke-miterlimit:4;stroke-dasharray:none;stroke-opacity:1"
     d="m 25.682222,-46.772222 a 1.27,1.2700001 0 0 0 1.270001,1.27 l 2.822222,0 a 1.27,1.2700001 0 0 0 1.27,-1.27 1.27,1.2700001 0 0 0 -1.27,-1.27 l -1.552222,0 0,-1.552223 a 1.27,1.2700001 0 0 0 -1.27,-1.27 1.27,1.2700001 0 0 0 -1.270001,1.27 l 0,2.822223 z"
     id="path4224" />
  <path
     inkscape:connector-curvature="0"
     id="path4228"
     d="M 43.180001,-61.447778 A 1.5522222,1.5522224 0 0 0 41.627779,-63 l -2.822222,0 a 1.5522222,1.5522224 0 0 0 -1.552223,1.552222 1.5522222,1.5522224 0 0 0 1.552223,1.552222 l 1.27,0 0,1.411112 0.0077,0 a 1.5522222,1.5522224 0 0 0 1.544506,1.411111 1.5522222,1.5522224 0 0 0 1.545056,-1.411111 l 0.0072,0 0,-2.822223 -0.0072,0 a 1.5522222,1.5522224 0 0 0 0.0072,-0.141111 z m -0.282222,0 0,2.822222 a 1.27,1.2700001 0 0 1 -1.27,1.270001 1.27,1.2700001 0 0 1 -1.27,-1.270001 l 0,-1.552222 -1.552222,0 a 1.27,1.2700001 0 0 1 -1.27,-1.27 1.27,1.2700001 0 0 1 1.27,-1.27 l 2.822222,0 a 1.27,1.2700001 0 0 1 1.27,1.27 z"
     style="opacity:0.9;fill:#000000;fill-opacity:1;fill-rule:nonzero;stroke:none;stroke-width:1.08099997;stroke-miterlimit:4;stroke-dasharray:none;stroke-opacity:1" />
  <path
     id="path4230"
     d="m 42.897779,-61.447778 a 1.27,1.2700001 0 0 0 -1.270001,-1.27 l -2.822222,0 a 1.27,1.2700001 0 0 0 -1.27,1.27 1.27,1.2700001 0 0 0 1.27,1.27 l 1.552222,0 0,1.552223 a 1.27,1.2700001 0 0 0 1.27,1.27 1.27,1.2700001 0 0 0 1.270001,-1.27 l 0,-2.822223 z"
     style="opacity:0.66000001;fill:#969696;fill-opacity:1;fill-rule:nonzero;stroke:none;stroke-width:1.08099997;stroke-linecap:round;stroke-linejoin:round;stroke-miterlimit:4;stroke-dasharray:none;stroke-opacity:1"
     inkscape:connector-curvature="0" />
  <path
     inkscape:connector-curvature="0"
     style="opacity:0.9;fill:#000000;fill-opacity:1;fill-rule:nonzero;stroke:none;stroke-width:1.08099997;stroke-miterlimit:4;stroke-dasharray:none;stroke-opacity:1"
     d="M 26.952222,-57.073334 A 1.5522222,1.5522223 0 0 0 25.4,-55.521112 l 0,2.822223 a 1.5522222,1.5522223 0 0 0 1.552222,1.552222 1.5522222,1.5522223 0 0 0 1.552222,-1.552222 l 0,-2.822223 a 1.5522222,1.5522223 0 0 0 -1.552222,-1.552222 z m 0,0.282222 a 1.2699999,1.2700001 0 0 1 1.27,1.27 l 0,2.822223 a 1.2699999,1.2700001 0 0 1 -1.27,1.27 1.2699999,1.2700001 0 0 1 -1.27,-1.27 l 0,-2.822223 a 1.2699999,1.2700001 0 0 1 1.27,-1.27 z"
     id="path3372" />
  <path
     inkscape:connector-curvature="0"
     style="opacity:0.66000001;fill:#969696;fill-opacity:1;fill-rule:nonzero;stroke:none;stroke-width:1.08099997;stroke-linecap:round;stroke-linejoin:round;stroke-miterlimit:4;stroke-dasharray:none;stroke-opacity:1"
     d="m 26.952222,-56.791112 a 1.27,1.2700001 0 0 0 -1.27,1.270001 l 0,2.822222 a 1.27,1.2700001 0 0 0 1.27,1.27 1.27,1.2700001 0 0 0 1.27,-1.27 l 0,-2.822222 a 1.27,1.2700001 0 0 0 -1.27,-1.270001 z"
     id="path3379" />
  <path
     inkscape:connector-curvature="0"
     id="path4223"
     d="m 31.326667,-46.772222 a 1.5522222,1.5522224 0 0 0 1.552222,1.552223 l 2.822222,0 a 1.5522222,1.5522224 0 0 0 1.552222,-1.552223 1.5522222,1.5522224 0 0 0 -1.552222,-1.552222 l -2.822222,0 a 1.5522222,1.5522224 0 0 0 -1.552222,1.552222 z m 0.282222,0 a 1.27,1.2700001 0 0 1 1.27,-1.27 l 2.822222,0 a 1.27,1.2700001 0 0 1 1.27,1.27 1.27,1.2700001 0 0 1 -1.27,1.27 l -2.822222,0 a 1.27,1.2700001 0 0 1 -1.27,-1.27 z"
     style="opacity:0.9;fill:#000000;fill-opacity:1;fill-rule:nonzero;stroke:none;stroke-width:1.08099997;stroke-miterlimit:4;stroke-dasharray:none;stroke-opacity:1" />
  <path
     id="path4225"
     d="m 31.608889,-46.772222 a 1.27,1.2700001 0 0 0 1.270001,1.27 l 2.822222,0 a 1.27,1.2700001 0 0 0 1.27,-1.27 1.27,1.2700001 0 0 0 -1.27,-1.27 l -2.822222,0 a 1.27,1.2700001 0 0 0 -1.270001,1.27 z"
     style="opacity:0.66000001;fill:#969696;fill-opacity:1;fill-rule:nonzero;stroke:none;stroke-width:1.08099997;stroke-linecap:round;stroke-linejoin:round;stroke-miterlimit:4;stroke-dasharray:none;stroke-opacity:1"
     inkscape:connector-curvature="0" />
  <path
     inkscape:connector-curvature="0"
     style="opacity:0.9;fill:#000000;fill-opacity:1;fill-rule:nonzero;stroke:none;stroke-width:1.08099997;stroke-miterlimit:4;stroke-dasharray:none;stroke-opacity:1"
     d="M 37.253334,-61.447778 A 1.5522222,1.5522224 0 0 0 35.701112,-63 l -2.822222,0 a 1.5522222,1.5522224 0 0 0 -1.552222,1.552222 1.5522222,1.5522224 0 0 0 1.552222,1.552222 l 2.822222,0 a 1.5522222,1.5522224 0 0 0 1.552222,-1.552222 z m -0.282222,0 a 1.27,1.2700001 0 0 1 -1.27,1.27 l -2.822222,0 a 1.27,1.2700001 0 0 1 -1.27,-1.27 1.27,1.2700001 0 0 1 1.27,-1.27 l 2.822222,0 a 1.27,1.2700001 0 0 1 1.27,1.27 z"
     id="path4229" />
  <path
     inkscape:connector-curvature="0"
     style="opacity:0.66000001;fill:#969696;fill-opacity:1;fill-rule:nonzero;stroke:none;stroke-width:1.08099997;stroke-linecap:round;stroke-linejoin:round;stroke-miterlimit:4;stroke-dasharray:none;stroke-opacity:1"
     d="m 36.971112,-61.447778 a 1.27,1.2700001 0 0 0 -1.270001,-1.27 l -2.822222,0 a 1.27,1.2700001 0 0 0 -1.27,1.27 1.27,1.2700001 0 0 0 1.27,1.27 l 2.822222,0 a 1.27,1.2700001 0 0 0 1.270001,-1.27 z"
     id="path4231" />
  <path
     inkscape:connector-curvature="0"
     id="path4235"
     d="m 41.627778,-57.073333 a 1.5522222,1.5522223 0 0 0 -1.552222,1.552222 l 0,2.822223 a 1.5522222,1.5522223 0 0 0 1.552222,1.552222 1.5522222,1.5522223 0 0 0 1.552222,-1.552222 l 0,-2.822223 a 1.5522222,1.5522223 0 0 0 -1.552222,-1.552222 z m 0,0.282222 a 1.2699999,1.2700001 0 0 1 1.27,1.27 l 0,2.822223 a 1.2699999,1.2700001 0 0 1 -1.27,1.27 1.2699999,1.2700001 0 0 1 -1.27,-1.27 l 0,-2.822223 a 1.2699999,1.2700001 0 0 1 1.27,-1.27 z"
     style="opacity:0.9;fill:#000000;fill-opacity:1;fill-rule:nonzero;stroke:none;stroke-width:1.08099997;stroke-miterlimit:4;stroke-dasharray:none;stroke-opacity:1" />
  <path
     id="path4237"
     d="m 41.627778,-56.791111 a 1.27,1.2700001 0 0 0 -1.27,1.270001 l 0,2.822222 a 1.27,1.2700001 0 0 0 1.27,1.27 1.27,1.2700001 0 0 0 1.27,-1.27 l 0,-2.822222 a 1.27,1.2700001 0 0 0 -1.27,-1.270001 z"
     style="opacity:0.66000001;fill:#969696;fill-opacity:1;fill-rule:nonzero;stroke:none;stroke-width:1.08099997;stroke-linecap:round;stroke-linejoin:round;stroke-miterlimit:4;stroke-dasharray:none;stroke-opacity:1"
     inkscape:connector-curvature="0" />
</svg>
