<?xml version="1.0" encoding="UTF-8" standalone="no"?>
<svg
   xmlns:dc="http://purl.org/dc/elements/1.1/"
   xmlns:cc="http://creativecommons.org/ns#"
   xmlns:rdf="http://www.w3.org/1999/02/22-rdf-syntax-ns#"
   xmlns:svg="http://www.w3.org/2000/svg"
   xmlns="http://www.w3.org/2000/svg"
   xmlns:sodipodi="http://sodipodi.sourceforge.net/DTD/sodipodi-0.dtd"
   xmlns:inkscape="http://www.inkscape.org/namespaces/inkscape"
   width="153"
   height="63"
   viewBox="0 -63 43.180001 17.78"
   version="1.1"
   style="fill:none;stroke-linecap:round;stroke-linejoin:round"
   id="svg2"
   inkscape:version="0.91 r13725"
   sodipodi:docname="cropmarkers.svg"
   inkscape:export-filename="/home/seidel/Schreibtisch/cropmarkers.png"
   inkscape:export-xdpi="90"
   inkscape:export-ydpi="90">
  <metadata
     id="metadata682">
    <rdf:RDF>
      <cc:Work
         rdf:about="">
        <dc:format>image/svg+xml</dc:format>
        <dc:type
           rdf:resource="http://purl.org/dc/dcmitype/StillImage" />
        <dc:title />
        <dc:creator>
          <cc:Agent>
            <dc:title>Matthias Seidel</dc:title>
          </cc:Agent>
        </dc:creator>
      </cc:Work>
    </rdf:RDF>
  </metadata>
  <defs
     id="defs680" />
  <sodipodi:namedview
     pagecolor="#ffffff"
     bordercolor="#666666"
     borderopacity="1"
     objecttolerance="10"
     gridtolerance="10"
     guidetolerance="10"
     inkscape:pageopacity="0"
     inkscape:pageshadow="2"
     inkscape:window-width="1366"
     inkscape:window-height="744"
     id="namedview678"
     showgrid="false"
     inkscape:showpageshadow="false"
     inkscape:zoom="7.8557163"
     inkscape:cx="76.377504"
     inkscape:cy="31.42624"
     inkscape:window-x="0"
     inkscape:window-y="24"
     inkscape:window-maximized="1"
     inkscape:current-layer="svg2"
     units="px" />
  <path
     inkscape:connector-curvature="0"
     style="opacity:0.9;fill:#000000;fill-opacity:1;fill-rule:nonzero;stroke:none;stroke-width:1.08099997;stroke-miterlimit:4;stroke-dasharray:none;stroke-opacity:1"
     d="m 4.6566666,-63.000001 c -0.5472289,0 -0.9877777,0.440549 -0.9877777,0.987778 0,0.547229 0.4405488,0.987778 0.9877777,0.987778 l 1.6933334,0 c 0.5472288,0 0.9877777,-0.440549 0.9877777,-0.987778 0,-0.547229 -0.4405489,-0.987778 -0.9877777,-0.987778 l -1.6933334,0 z m 0,0.282222 1.6933334,0 c 0.3908777,0 0.7055555,0.314678 0.7055555,0.705556 0,0.390878 -0.3146778,0.705555 -0.7055555,0.705555 l -1.6933334,0 c -0.3908777,0 -0.7055555,-0.314677 -0.7055555,-0.705555 0,-0.390878 0.3146778,-0.705556 0.7055555,-0.705556 z"
     id="rect3399" />
  <path
     inkscape:connector-curvature="0"
     style="opacity:0.66000001;fill:#969696;fill-opacity:1;fill-rule:nonzero;stroke:none;stroke-width:1.08099997;stroke-linecap:round;stroke-linejoin:round;stroke-miterlimit:4;stroke-dasharray:none;stroke-opacity:1"
     d="m 4.6566666,-62.717777 1.6933334,0 c 0.3908778,0 0.7055556,0.314678 0.7055556,0.705555 0,0.390878 -0.3146778,0.705556 -0.7055556,0.705556 l -1.6933334,0 c -0.3908777,0 -0.7055555,-0.314678 -0.7055555,-0.705556 0,-0.390877 0.3146778,-0.705555 0.7055555,-0.705555 z"
     id="rect3402" />
  <path
     inkscape:connector-curvature="0"
     id="path4227"
     d="m 4.6566667,-53.968889 c -0.5472289,0 -0.9877778,0.440549 -0.9877778,0.987778 0,0.547229 0.4405489,0.987778 0.9877778,0.987778 l 1.6933333,0 c 0.5472289,0 0.9877778,-0.440549 0.9877778,-0.987778 0,-0.547229 -0.4405489,-0.987778 -0.9877778,-0.987778 l -1.6933333,0 z m 0,0.282222 1.6933333,0 c 0.3908778,0 0.7055556,0.314678 0.7055556,0.705556 0,0.390878 -0.3146778,0.705555 -0.7055556,0.705555 l -1.6933333,0 c -0.3908778,0 -0.7055556,-0.314677 -0.7055556,-0.705555 0,-0.390878 0.3146778,-0.705556 0.7055556,-0.705556 z"
     style="opacity:0.9;fill:#000000;fill-opacity:1;fill-rule:nonzero;stroke:none;stroke-width:1.08099997;stroke-miterlimit:4;stroke-dasharray:none;stroke-opacity:1" />
  <path
     inkscape:connector-curvature="0"
     id="path4232"
     d="m 4.6566667,-53.686665 1.6933334,0 c 0.3908778,0 0.7055556,0.314678 0.7055556,0.705555 0,0.390878 -0.3146778,0.705556 -0.7055556,0.705556 l -1.6933334,0 c -0.3908777,0 -0.7055555,-0.314678 -0.7055555,-0.705556 0,-0.390877 0.3146778,-0.705555 0.7055555,-0.705555 z"
     style="opacity:0.66000001;fill:#969696;fill-opacity:1;fill-rule:nonzero;stroke:none;stroke-width:1.08099997;stroke-linecap:round;stroke-linejoin:round;stroke-miterlimit:4;stroke-dasharray:none;stroke-opacity:1" />
  <path
     style="opacity:0.9;fill:#000000;fill-opacity:1;fill-rule:nonzero;stroke:none;stroke-width:1.08099997;stroke-miterlimit:4;stroke-dasharray:none;stroke-opacity:1"
     d="m 4.1000008e-7,-56.65 c 0,0.547229 0.44054879999992,0.987778 0.98777776999992,0.987778 0.54722892,0 0.98777782,-0.440549 0.98777782,-0.987778 l 0,-1.693334 c 0,-0.547229 -0.4405489,-0.987777 -0.98777782,-0.987777 -0.54722897,0 -0.98777776999992,0.440548 -0.98777776999992,0.987777 l 0,1.693334 z m 0.28222221999992,0 0,-1.693334 c 0,-0.390877 0.3146778,-0.705555 0.70555555,-0.705555 0.39087772,0 0.70555552,0.314678 0.70555552,0.705555 l 0,1.693334 c 0,0.390878 -0.3146778,0.705555 -0.70555552,0.705555 -0.39087775,0 -0.70555555,-0.314677 -0.70555555,-0.705555 z"
     id="path4236"
     inkscape:connector-curvature="0" />
  <path
     style="opacity:0.66000001;fill:#969696;fill-opacity:1;fill-rule:nonzero;stroke:none;stroke-width:1.08099997;stroke-linecap:round;stroke-linejoin:round;stroke-miterlimit:4;stroke-dasharray:none;stroke-opacity:1"
     d="m 0.28222439,-56.65 0,-1.693334 c 0,-0.390877 0.31467798,-0.705555 0.70555495,-0.705555 0.39087796,0 0.70555596,0.314678 0.70555596,0.705555 l 0,1.693334 c 0,0.390878 -0.314678,0.705556 -0.70555596,0.705556 -0.39087697,0 -0.70555495,-0.314678 -0.70555495,-0.705556 z"
     id="path4238"
     inkscape:connector-curvature="0" />
  <path
     inkscape:connector-curvature="0"
     id="path4242"
     d="m 9.0311114,-56.65 c 0,0.547229 0.4405488,0.987778 0.9877776,0.987778 0.547229,0 0.987778,-0.440549 0.987778,-0.987778 l 0,-1.693334 c 0,-0.547229 -0.440549,-0.987777 -0.987778,-0.987777 -0.5472288,0 -0.9877776,0.440548 -0.9877776,0.987777 l 0,1.693334 z m 0.2822222,0 0,-1.693334 c 0,-0.390877 0.3146778,-0.705555 0.7055554,-0.705555 0.390878,0 0.705556,0.314678 0.705556,0.705555 l 0,1.693334 c 0,0.390878 -0.314678,0.705555 -0.705556,0.705555 -0.3908776,0 -0.7055554,-0.314677 -0.7055554,-0.705555 z"
     style="opacity:0.9;fill:#000000;fill-opacity:1;fill-rule:nonzero;stroke:none;stroke-width:1.08099997;stroke-miterlimit:4;stroke-dasharray:none;stroke-opacity:1" />
  <path
     inkscape:connector-curvature="0"
     id="path4244"
     d="m 9.3133354,-56.65 0,-1.693334 c 0,-0.390877 0.314678,-0.705555 0.7055546,-0.705555 0.390878,0 0.705556,0.314678 0.705556,0.705555 l 0,1.693334 c 0,0.390878 -0.314678,0.705556 -0.705556,0.705556 -0.3908766,0 -0.7055546,-0.314678 -0.7055546,-0.705556 z"
     style="opacity:0.66000001;fill:#969696;fill-opacity:1;fill-rule:nonzero;stroke:none;stroke-width:1.08099997;stroke-linecap:round;stroke-linejoin:round;stroke-miterlimit:4;stroke-dasharray:none;stroke-opacity:1" />
  <path
     inkscape:connector-curvature="0"
     style="opacity:0.9;fill:#000000;fill-opacity:1;fill-rule:nonzero;stroke:none;stroke-width:1.08099997;stroke-miterlimit:4;stroke-dasharray:none;stroke-opacity:1"
     d="M 0.98777777,-63.000001 C 0.44054897,-63.000001 0,-62.559452 0,-62.012223 l 0,1.693333 c 0,0.547229 0.44054897,0.987778 0.98777777,0.987778 0.54722883,0 0.98777773,-0.440549 0.98777773,-0.987778 l 0,-0.705555 0.7055556,0 c 0.5472289,0 0.9877778,-0.440549 0.9877778,-0.987778 0,-0.547229 -0.4405489,-0.987778 -0.9877778,-0.987778 l -1.69333333,0 z m 0,0.282222 1.69333333,0 c 0.3908778,0 0.7055555,0.314679 0.7055555,0.705556 0,0.390878 -0.3146777,0.705555 -0.7055555,0.705555 l -0.9877778,0 0,0.987778 c 0,0.390878 -0.3146774,0.705556 -0.70555553,0.705556 -0.3908769,0 -0.70555555,-0.314678 -0.70555555,-0.705556 l 0,-1.693333 c 0,-0.390877 0.3146778,-0.705556 0.70555555,-0.705556 z"
     id="rect3380" />
  <path
     inkscape:connector-curvature="0"
     style="opacity:0.66000001;fill:#969696;fill-opacity:1;fill-rule:nonzero;stroke:none;stroke-width:1.08099997;stroke-linecap:round;stroke-linejoin:round;stroke-miterlimit:4;stroke-dasharray:none;stroke-opacity:1"
     d="m 0.98777778,-62.717779 c -0.39087775,0 -0.70555556,0.314679 -0.70555556,0.705556 l 0,1.693334 c 0,0.390878 0.31467865,0.705555 0.70555556,0.705555 0.39087822,0 0.70555562,-0.314677 0.70555562,-0.705555 l 0,-0.987778 0.9877778,0 c 0.3908778,0 0.7055556,-0.314678 0.7055556,-0.705556 0,-0.390877 -0.3146778,-0.705556 -0.7055556,-0.705556 l -1.69333342,0 z"
     id="path3387" />
  <path
     inkscape:connector-curvature="0"
     id="path3386"
     d="m 11.006667,-62.012223 c 0,-0.547229 -0.440549,-0.987778 -0.987778,-0.987778 l -1.6933331,0 c -0.5472289,0 -0.9877778,0.440549 -0.9877778,0.987778 0,0.547229 0.4405489,0.987778 0.9877778,0.987778 l 0.7055556,0 0,0.705555 c 0,0.547229 0.4405488,0.987778 0.9877775,0.987778 0.547229,0 0.987778,-0.440549 0.987778,-0.987778 l 0,-1.693333 z m -0.282222,0 0,1.693333 c 0,0.390878 -0.314679,0.705556 -0.705556,0.705556 -0.3908777,0 -0.7055553,-0.314678 -0.7055553,-0.705556 l 0,-0.987777 -0.9877778,0 c -0.390878,0 -0.7055555,-0.314678 -0.7055555,-0.705556 0,-0.390877 0.3146775,-0.705556 0.7055555,-0.705556 l 1.6933331,0 c 0.390877,0 0.705556,0.314678 0.705556,0.705556 z"
     style="opacity:0.9;fill:#000000;fill-opacity:1;fill-rule:nonzero;stroke:none;stroke-width:1.08099997;stroke-miterlimit:4;stroke-dasharray:none;stroke-opacity:1" />
  <path
     id="path3388"
     d="m 10.724445,-62.012223 c 0,-0.390878 -0.314679,-0.705556 -0.705556,-0.705556 l -1.6933342,0 c -0.390878,0 -0.705555,0.314679 -0.705555,0.705556 0,0.390878 0.314677,0.705556 0.705555,0.705556 l 0.9877779,0 0,0.987777 c 0,0.390878 0.314678,0.705556 0.7055563,0.705556 0.390877,0 0.705556,-0.314678 0.705556,-0.705556 l 0,-1.693333 z"
     style="opacity:0.66000001;fill:#969696;fill-opacity:1;fill-rule:nonzero;stroke:none;stroke-width:1.08099997;stroke-linecap:round;stroke-linejoin:round;stroke-miterlimit:4;stroke-dasharray:none;stroke-opacity:1"
     inkscape:connector-curvature="0" />
  <path
     style="opacity:0.9;fill:#000000;fill-opacity:1;fill-rule:nonzero;stroke:none;stroke-width:1.08099997;stroke-miterlimit:4;stroke-dasharray:none;stroke-opacity:1"
     d="m 4.1000008e-7,-52.981111 c 0,0.547229 0.44054879999992,0.987778 0.98777776999992,0.987778 l 1.69333332,0 c 0.5472289,0 0.9877778,-0.440549 0.9877778,-0.987778 0,-0.547229 -0.4405489,-0.987778 -0.9877778,-0.987778 l -0.7055555,0 0,-0.705555 c 0,-0.547229 -0.4405489,-0.987778 -0.98777782,-0.987778 -0.54722897,0 -0.98777776999992,0.440549 -0.98777776999992,0.987778 l 0,1.693333 z m 0.28222221999992,0 0,-1.693333 c 0,-0.390878 0.31467859,-0.705556 0.70555555,-0.705556 0.39087802,0 0.70555552,0.314678 0.70555552,0.705556 l 0,0.987778 0.9877778,0 c 0.3908781,0 0.7055556,0.314677 0.7055556,0.705555 0,0.390877 -0.3146775,0.705556 -0.7055556,0.705556 l -1.69333332,0 c -0.39087696,0 -0.70555555,-0.314678 -0.70555555,-0.705556 z"
     id="path3392"
     inkscape:connector-curvature="0" />
  <path
     inkscape:connector-curvature="0"
     style="opacity:0.66000001;fill:#969696;fill-opacity:1;fill-rule:nonzero;stroke:none;stroke-width:1.08099997;stroke-linecap:round;stroke-linejoin:round;stroke-miterlimit:4;stroke-dasharray:none;stroke-opacity:1"
     d="m 0.28222239,-52.981111 c 0,0.390878 0.31467898,0.705556 0.70555595,0.705556 l 1.69333386,0 c 0.390878,0 0.705555,-0.314679 0.705555,-0.705556 0,-0.390878 -0.314677,-0.705556 -0.705555,-0.705556 l -0.9877779,0 0,-0.987777 c 0,-0.390878 -0.314678,-0.705556 -0.70555596,-0.705556 -0.39087697,0 -0.70555595,0.314678 -0.70555595,0.705556 l 0,1.693333 z"
     id="path3394" />
  <path
     inkscape:connector-curvature="0"
     id="path3398"
     d="m 10.018889,-51.993329 c 0.547229,0 0.987778,-0.440549 0.987778,-0.987778 l 0,-1.693333 c 0,-0.547229 -0.440549,-0.987778 -0.987778,-0.987778 -0.5472286,0 -0.9877775,0.440549 -0.9877775,0.987778 l 0,0.705555 -0.7055556,0 c -0.5472289,0 -0.9877778,0.440549 -0.9877778,0.987778 0,0.547229 0.4405489,0.987778 0.9877778,0.987778 l 1.6933331,0 z m 0,-0.282222 -1.6933331,0 c -0.3908778,0 -0.7055555,-0.314679 -0.7055555,-0.705556 0,-0.390878 0.3146777,-0.705555 0.7055555,-0.705555 l 0.9877778,0 0,-0.987778 c 0,-0.390878 0.3146774,-0.705556 0.7055553,-0.705556 0.390877,0 0.705556,0.314678 0.705556,0.705556 l 0,1.693333 c 0,0.390877 -0.314678,0.705556 -0.705556,0.705556 z"
     style="opacity:0.9;fill:#000000;fill-opacity:1;fill-rule:nonzero;stroke:none;stroke-width:1.08099997;stroke-miterlimit:4;stroke-dasharray:none;stroke-opacity:1" />
  <path
     id="path3400"
     d="m 10.018889,-52.275551 c 0.390878,0 0.705556,-0.314679 0.705556,-0.705556 l 0,-1.693334 c 0,-0.390878 -0.314679,-0.705555 -0.705556,-0.705555 -0.390878,0 -0.7055554,0.314677 -0.7055554,0.705555 l 0,0.987778 -0.9877778,0 c -0.3908778,0 -0.7055556,0.314678 -0.7055556,0.705556 0,0.390877 0.3146778,0.705556 0.7055556,0.705556 l 1.6933332,0 z"
     style="opacity:0.66000001;fill:#969696;fill-opacity:1;fill-rule:nonzero;stroke:none;stroke-width:1.08099997;stroke-linecap:round;stroke-linejoin:round;stroke-miterlimit:4;stroke-dasharray:none;stroke-opacity:1"
     inkscape:connector-curvature="0" />
  <path
     inkscape:connector-curvature="0"
     style="opacity:0.9;fill:#000000;fill-opacity:1;fill-rule:nonzero;stroke:none;stroke-width:1.08099997;stroke-miterlimit:4;stroke-dasharray:none;stroke-opacity:1"
     d="m 17.074444,-63.000001 c -0.70358,0 -1.27,0.56642 -1.27,1.27 0,0.70358 0.56642,1.27 1.27,1.27 l 2.257778,0 c 0.70358,0 1.27,-0.56642 1.27,-1.27 0,-0.70358 -0.56642,-1.27 -1.27,-1.27 l -2.257778,0 z m 0,0.282222 2.257778,0 c 0.547229,0 0.987778,0.440549 0.987778,0.987778 0,0.547229 -0.440549,0.987778 -0.987778,0.987778 l -2.257778,0 c -0.547229,0 -0.987777,-0.440549 -0.987777,-0.987778 0,-0.547229 0.440548,-0.987778 0.987777,-0.987778 z"
     id="rect3381" />
  <path
     inkscape:connector-curvature="0"
     style="opacity:0.66000001;fill:#969696;fill-opacity:1;fill-rule:nonzero;stroke:none;stroke-width:1.08099997;stroke-linecap:round;stroke-linejoin:round;stroke-miterlimit:4;stroke-dasharray:none;stroke-opacity:1"
     d="m 17.074444,-62.717777 2.257777,0 c 0.547229,0 0.987778,0.440549 0.987778,0.987778 0,0.547228 -0.440549,0.987777 -0.987778,0.987777 l -2.257777,0 c -0.547229,0 -0.987778,-0.440549 -0.987778,-0.987777 0,-0.547229 0.440549,-0.987778 0.987778,-0.987778 z"
     id="rect3383" />
  <path
     inkscape:connector-curvature="0"
     id="path4207"
     d="m 11.006666,-54.674444 c 0,0.70358 0.56642,1.27 1.27,1.27 0.70358,0 1.27,-0.56642 1.27,-1.27 l 0,-2.257778 c 0,-0.70358 -0.56642,-1.27 -1.27,-1.27 -0.70358,0 -1.27,0.56642 -1.27,1.27 l 0,2.257778 z m 0.282222,0 0,-2.257778 c 0,-0.547229 0.440549,-0.987778 0.987778,-0.987778 0.547229,0 0.987778,0.440549 0.987778,0.987778 l 0,2.257778 c 0,0.547229 -0.440549,0.987778 -0.987778,0.987778 -0.547229,0 -0.987778,-0.440549 -0.987778,-0.987778 z"
     style="opacity:0.9;fill:#000000;fill-opacity:1;fill-rule:nonzero;stroke:none;stroke-width:1.08099997;stroke-miterlimit:4;stroke-dasharray:none;stroke-opacity:1" />
  <path
     transform="matrix(0,-1,1,0,0,0)"
     style="opacity:0.66000001;fill:#969696;fill-opacity:1;fill-rule:nonzero;stroke:none;stroke-width:1.08099997;stroke-linecap:round;stroke-linejoin:round;stroke-miterlimit:4;stroke-dasharray:none;stroke-opacity:1"
     d="m 54.674442,11.28889 2.257778,0 c 0.547229,0 0.987778,0.440549 0.987778,0.987778 0,0.547228 -0.440549,0.987777 -0.987778,0.987777 l -2.257778,0 c -0.547229,0 -0.987777,-0.440549 -0.987777,-0.987777 0,-0.547229 0.440548,-0.987778 0.987777,-0.987778 z"
     id="rect4209" />
  <path
     style="opacity:0.9;fill:#000000;fill-opacity:1;fill-rule:nonzero;stroke:none;stroke-width:1.08099997;stroke-miterlimit:4;stroke-dasharray:none;stroke-opacity:1"
     d="m 17.074445,-51.146666 c -0.70358,0 -1.27,0.56642 -1.27,1.27 0,0.70358 0.56642,1.27 1.27,1.27 l 2.257777,0 c 0.70358,0 1.27,-0.56642 1.27,-1.27 0,-0.70358 -0.56642,-1.27 -1.27,-1.27 l -2.257777,0 z m 0,0.282222 2.257777,0 c 0.547229,0 0.987778,0.440549 0.987778,0.987778 0,0.547229 -0.440549,0.987778 -0.987778,0.987778 l -2.257777,0 c -0.547229,0 -0.987778,-0.440549 -0.987778,-0.987778 0,-0.547229 0.440549,-0.987778 0.987778,-0.987778 z"
     id="path4213"
     inkscape:connector-curvature="0" />
  <path
     style="opacity:0.66000001;fill:#969696;fill-opacity:1;fill-rule:nonzero;stroke:none;stroke-width:1.08099997;stroke-linecap:round;stroke-linejoin:round;stroke-miterlimit:4;stroke-dasharray:none;stroke-opacity:1"
     d="m 17.074444,-50.864441 2.257777,0 c 0.547229,0 0.987778,0.440549 0.987778,0.987778 0,0.547229 -0.440549,0.987778 -0.987778,0.987778 l -2.257777,0 c -0.547229,0 -0.987778,-0.440549 -0.987778,-0.987778 0,-0.547229 0.440549,-0.987778 0.987778,-0.987778 z"
     id="rect4215" />
  <path
     inkscape:connector-curvature="0"
     id="path4219"
     d="m 22.86,-54.674444 c 0,0.70358 0.56642,1.27 1.27,1.27 0.70358,0 1.27,-0.56642 1.27,-1.27 l 0,-2.257778 c 0,-0.70358 -0.56642,-1.27 -1.27,-1.27 -0.70358,0 -1.27,0.56642 -1.27,1.27 l 0,2.257778 z m 0.282222,0 0,-2.257778 c 0,-0.547229 0.440549,-0.987778 0.987778,-0.987778 0.547229,0 0.987778,0.440549 0.987778,0.987778 l 0,2.257778 c 0,0.547229 -0.440549,0.987778 -0.987778,0.987778 -0.547229,0 -0.987778,-0.440549 -0.987778,-0.987778 z"
     style="opacity:0.9;fill:#000000;fill-opacity:1;fill-rule:nonzero;stroke:none;stroke-width:1.08099997;stroke-miterlimit:4;stroke-dasharray:none;stroke-opacity:1" />
  <path
     transform="matrix(0,-1,1,0,0,0)"
     style="opacity:0.66000001;fill:#969696;fill-opacity:1;fill-rule:nonzero;stroke:none;stroke-width:1.08099997;stroke-linecap:round;stroke-linejoin:round;stroke-miterlimit:4;stroke-dasharray:none;stroke-opacity:1"
     d="m 54.674442,23.142223 2.257778,0 c 0.547229,0 0.987778,0.440549 0.987778,0.987778 0,0.547229 -0.440549,0.987778 -0.987778,0.987778 l -2.257778,0 c -0.547229,0 -0.987777,-0.440549 -0.987777,-0.987778 0,-0.547229 0.440548,-0.987778 0.987777,-0.987778 z"
     id="rect4221" />
  <path
     inkscape:connector-curvature="0"
     style="opacity:0.9;fill:#000000;fill-opacity:1;fill-rule:nonzero;stroke:none;stroke-width:1.08099997;stroke-miterlimit:4;stroke-dasharray:none;stroke-opacity:1"
     d="m 12.276667,-63.000001 c -0.70358,0 -1.27,0.56642 -1.27,1.27 l 0,2.257778 c 0,0.70358 0.56642,1.27 1.27,1.27 0.70358,0 1.27,-0.56642 1.27,-1.27 l 0,-0.987778 0.987777,0 c 0.70358,0 1.27,-0.56642 1.27,-1.27 0,-0.70358 -0.56642,-1.27 -1.27,-1.27 l -2.257777,0 z m 0,0.282222 0.791545,0 1.466232,0 c 0.547229,0 0.987778,0.440549 0.987778,0.987778 0,0.547228 -0.440549,0.987778 -0.987778,0.987778 l -0.987777,0 -0.282223,0 0,0.282222 0,0.987778 c 0,0.478825 -0.337313,0.876129 -0.788238,0.967934 -0.06442,0.01311 -0.131136,0.01984 -0.199539,0.01984 -0.547229,0 -0.987778,-0.440549 -0.987778,-0.987778 l 0,-1.466233 0,-0.791545 c 0,-0.0684 0.0067,-0.135122 0.01984,-0.19954 0.01223,-0.06009 0.03091,-0.117551 0.05347,-0.173081 0.0079,-0.01954 0.01844,-0.03734 0.02756,-0.05622 0.01784,-0.03694 0.03631,-0.07331 0.05843,-0.107487 0.01136,-0.01755 0.02451,-0.03341 0.03693,-0.05016 0.02311,-0.03118 0.04731,-0.06111 0.07386,-0.0893 0.01557,-0.01654 0.03183,-0.03198 0.04851,-0.0474 0.02709,-0.02507 0.0551,-0.04863 0.08489,-0.07056 0.01985,-0.01462 0.03968,-0.02877 0.06063,-0.04189 0.02952,-0.01849 0.06053,-0.03426 0.09205,-0.04961 0.0227,-0.01105 0.0447,-0.02264 0.06835,-0.03197 0.03654,-0.01443 0.07445,-0.02522 0.112999,-0.03528 0.02104,-0.0055 0.04127,-0.01242 0.06284,-0.01654 0.06078,-0.01161 0.12315,-0.01874 0.187413,-0.01874 z"
     id="path3389" />
  <path
     inkscape:connector-curvature="0"
     style="opacity:0.66000001;fill:#969696;fill-opacity:1;fill-rule:nonzero;stroke:none;stroke-width:1.08099997;stroke-linecap:round;stroke-linejoin:round;stroke-miterlimit:4;stroke-dasharray:none;stroke-opacity:1"
     d="m 12.276667,-62.717779 c -0.547229,0 -0.987778,0.440549 -0.987778,0.987778 l 0,2.257778 c 0,0.547229 0.440549,0.987778 0.987778,0.987778 0.547228,0 0.987777,-0.440549 0.987777,-0.987778 l 0,-1.27 1.27,0 c 0.547229,0 0.987778,-0.44055 0.987778,-0.987778 0,-0.547229 -0.440549,-0.987778 -0.987778,-0.987778 l -2.257777,0 z"
     id="path3406" />
  <path
     inkscape:connector-curvature="0"
     id="path3434"
     d="m 25.4,-61.73 c 0,-0.70358 -0.56642,-1.27 -1.27,-1.27 l -2.257778,0 c -0.70358,0 -1.27,0.56642 -1.27,1.27 0,0.70358 0.56642,1.27 1.27,1.27 l 0.987778,0 0,0.987778 c 0,0.70358 0.56642,1.27 1.27,1.27 0.70358,0 1.27,-0.56642 1.27,-1.27 l 0,-2.257778 z m -0.282222,0 0,0.791545 0,1.466233 c 0,0.547229 -0.440549,0.987778 -0.987778,0.987778 -0.547228,0 -0.987778,-0.440549 -0.987778,-0.987778 l 0,-0.987778 0,-0.282222 -0.282222,0 -0.987778,0 c -0.478825,0 -0.876128,-0.337314 -0.967934,-0.788238 -0.01312,-0.06442 -0.01984,-0.131137 -0.01984,-0.19954 0,-0.547229 0.440549,-0.987778 0.987778,-0.987778 l 1.466233,0 0.791545,0 c 0.0684,0 0.135122,0.0067 0.19954,0.01984 0.06009,0.01223 0.117551,0.03091 0.173082,0.05347 0.01954,0.0079 0.03734,0.01844 0.05622,0.02756 0.03694,0.01784 0.07331,0.03631 0.107487,0.05843 0.01755,0.01136 0.03341,0.02451 0.05016,0.03693 0.03118,0.02311 0.06111,0.04731 0.0893,0.07386 0.01654,0.01557 0.03198,0.03183 0.0474,0.04851 0.02507,0.02709 0.04863,0.0551 0.07056,0.08489 0.01462,0.01985 0.02877,0.03968 0.04189,0.06063 0.01849,0.02952 0.03426,0.06053 0.04961,0.09205 0.01105,0.0227 0.02264,0.0447 0.03197,0.06835 0.01443,0.03654 0.02522,0.07444 0.03528,0.112999 0.0055,0.02104 0.01242,0.04127 0.01654,0.06284 0.01161,0.06078 0.01874,0.12315 0.01874,0.187413 z"
     style="opacity:0.9;fill:#000000;fill-opacity:1;fill-rule:nonzero;stroke:none;stroke-width:1.08099997;stroke-miterlimit:4;stroke-dasharray:none;stroke-opacity:1" />
  <path
     id="path3436"
     d="m 25.117778,-61.73 c 0,-0.547229 -0.440549,-0.987778 -0.987778,-0.987778 l -2.257778,0 c -0.547229,0 -0.987778,0.440549 -0.987778,0.987778 0,0.547228 0.440549,0.987777 0.987778,0.987777 l 1.27,0 0,1.27 c 0,0.54723 0.44055,0.987779 0.987778,0.987779 0.547229,0 0.987778,-0.440549 0.987778,-0.987779 l 0,-2.257777 z"
     style="opacity:0.66000001;fill:#969696;fill-opacity:1;fill-rule:nonzero;stroke:none;stroke-width:1.08099997;stroke-linecap:round;stroke-linejoin:round;stroke-miterlimit:4;stroke-dasharray:none;stroke-opacity:1"
     inkscape:connector-curvature="0" />
  <path
     style="opacity:0.9;fill:#000000;fill-opacity:1;fill-rule:nonzero;stroke:none;stroke-width:1.08099997;stroke-miterlimit:4;stroke-dasharray:none;stroke-opacity:1"
     d="m 24.13,-48.606669 c 0.70358,0 1.27,-0.56642 1.27,-1.27 l 0,-2.257778 c 0,-0.70358 -0.56642,-1.27 -1.27,-1.27 -0.70358,0 -1.27,0.56642 -1.27,1.27 l 0,0.987778 -0.987777,0 c -0.70358,0 -1.27,0.56642 -1.27,1.27 0,0.70358 0.56642,1.27 1.27,1.27 l 2.257777,0 z m 0,-0.282222 -0.791545,0 -1.466232,0 c -0.547229,0 -0.987778,-0.440549 -0.987778,-0.987778 0,-0.547228 0.440549,-0.987778 0.987778,-0.987778 l 0.987777,0 0.282223,0 0,-0.282222 0,-0.987778 c 0,-0.478825 0.337313,-0.876129 0.788238,-0.967934 0.06442,-0.01311 0.131136,-0.01984 0.199539,-0.01984 0.547229,0 0.987778,0.440549 0.987778,0.987778 l 0,1.466233 0,0.791545 c 0,0.0684 -0.0067,0.135122 -0.01984,0.19954 -0.01223,0.0601 -0.03091,0.117551 -0.05347,0.173081 -0.0079,0.01954 -0.01844,0.03734 -0.02756,0.05622 -0.01784,0.03694 -0.03631,0.07331 -0.05843,0.107487 -0.01136,0.01755 -0.02451,0.03341 -0.03693,0.05016 -0.02311,0.03118 -0.04731,0.06111 -0.07386,0.0893 -0.01557,0.01654 -0.03183,0.03198 -0.04851,0.0474 -0.02709,0.02507 -0.0551,0.04863 -0.08489,0.07056 -0.01985,0.01462 -0.03968,0.02877 -0.06063,0.04189 -0.02952,0.01849 -0.06052,0.03426 -0.09205,0.04961 -0.0227,0.01105 -0.0447,0.02264 -0.06835,0.03197 -0.03654,0.01443 -0.07445,0.02522 -0.112999,0.03528 -0.02104,0.0055 -0.04127,0.01242 -0.06284,0.01654 -0.06078,0.01161 -0.12315,0.01874 -0.187413,0.01874 z"
     id="path3440"
     inkscape:connector-curvature="0" />
  <path
     inkscape:connector-curvature="0"
     style="opacity:0.66000001;fill:#969696;fill-opacity:1;fill-rule:nonzero;stroke:none;stroke-width:1.08099997;stroke-linecap:round;stroke-linejoin:round;stroke-miterlimit:4;stroke-dasharray:none;stroke-opacity:1"
     d="m 24.13,-48.888891 c 0.547229,0 0.987778,-0.440549 0.987778,-0.987778 l 0,-2.257778 c 0,-0.547229 -0.440549,-0.987778 -0.987778,-0.987778 -0.547228,0 -0.987777,0.440549 -0.987777,0.987778 l 0,1.27 -1.27,0 c -0.547229,0 -0.987778,0.44055 -0.987778,0.987778 0,0.547229 0.440549,0.987778 0.987778,0.987778 l 2.257777,0 z"
     id="path3442" />
  <path
     inkscape:connector-curvature="0"
     id="path3446"
     d="m 11.006666,-49.876666 c 0,0.70358 0.56642,1.27 1.27,1.27 l 2.257778,0 c 0.70358,0 1.27,-0.56642 1.27,-1.27 0,-0.70358 -0.56642,-1.27 -1.27,-1.27 l -0.987778,0 0,-0.987778 c 0,-0.70358 -0.56642,-1.27 -1.27,-1.27 -0.70358,0 -1.27,0.56642 -1.27,1.27 l 0,2.257778 z m 0.282222,0 0,-0.791545 0,-1.466233 c 0,-0.547229 0.440549,-0.987778 0.987778,-0.987778 0.547228,0 0.987778,0.440549 0.987778,0.987778 l 0,0.987778 0,0.282222 0.282222,0 0.987778,0 c 0.478825,0 0.876128,0.337314 0.967934,0.788238 0.01311,0.06442 0.01984,0.131137 0.01984,0.19954 0,0.547229 -0.440549,0.987778 -0.987778,0.987778 l -1.466233,0 -0.791545,0 c -0.0684,0 -0.135122,-0.0067 -0.19954,-0.01984 -0.0601,-0.01223 -0.117551,-0.03091 -0.173082,-0.05347 -0.01954,-0.0079 -0.03734,-0.01844 -0.05622,-0.02756 -0.03694,-0.01784 -0.07331,-0.0363 -0.107487,-0.05843 -0.01755,-0.01136 -0.03341,-0.02451 -0.05016,-0.03693 -0.03118,-0.02311 -0.06111,-0.04731 -0.0893,-0.07386 -0.01654,-0.01557 -0.03198,-0.03183 -0.0474,-0.04851 -0.02507,-0.02709 -0.04863,-0.0551 -0.07056,-0.08489 -0.01462,-0.01985 -0.02877,-0.03968 -0.04189,-0.06063 -0.01849,-0.02952 -0.03426,-0.06053 -0.04961,-0.09205 -0.01105,-0.0227 -0.02264,-0.0447 -0.03197,-0.06835 -0.01443,-0.03654 -0.02522,-0.07444 -0.03528,-0.112999 -0.0055,-0.02104 -0.01242,-0.04127 -0.01654,-0.06284 -0.01161,-0.06078 -0.01874,-0.12315 -0.01874,-0.187413 z"
     style="opacity:0.9;fill:#000000;fill-opacity:1;fill-rule:nonzero;stroke:none;stroke-width:1.08099997;stroke-miterlimit:4;stroke-dasharray:none;stroke-opacity:1" />
  <path
     id="path3448"
     d="m 11.288888,-49.876666 c 0,0.547229 0.440549,0.987778 0.987778,0.987778 l 2.257778,0 c 0.547229,0 0.987778,-0.440549 0.987778,-0.987778 0,-0.547228 -0.440549,-0.987777 -0.987778,-0.987777 l -1.27,0 0,-1.27 c 0,-0.54723 -0.44055,-0.987779 -0.987778,-0.987779 -0.547229,0 -0.987778,0.440549 -0.987778,0.987779 l 0,2.257777 z"
     style="opacity:0.66000001;fill:#969696;fill-opacity:1;fill-rule:nonzero;stroke:none;stroke-width:1.08099997;stroke-linecap:round;stroke-linejoin:round;stroke-miterlimit:4;stroke-dasharray:none;stroke-opacity:1"
     inkscape:connector-curvature="0" />
  <path
     inkscape:connector-curvature="0"
     style="opacity:0.9;fill:#000000;fill-opacity:1;fill-rule:nonzero;stroke:none;stroke-width:1.08099997;stroke-miterlimit:4;stroke-dasharray:none;stroke-opacity:1"
     d="m 32.878889,-63.000001 c -0.859931,0 -1.552223,0.692291 -1.552223,1.552222 0,0.859931 0.692292,1.552223 1.552223,1.552223 l 2.822222,0 c 0.859931,0 1.552222,-0.692292 1.552222,-1.552223 0,-0.859931 -0.692291,-1.552222 -1.552222,-1.552222 l -2.822222,0 z m 0,0.282222 2.822222,0 c 0.70358,0 1.27,0.56642 1.27,1.27 0,0.70358 -0.56642,1.27 -1.27,1.27 l -2.822222,0 c -0.70358,0 -1.27,-0.56642 -1.27,-1.27 0,-0.70358 0.56642,-1.27 1.27,-1.27 z"
     id="rect3458" />
  <path
     style="opacity:0.66000001;fill:#969696;fill-opacity:1;fill-rule:nonzero;stroke:none;stroke-width:1.08099997;stroke-linecap:round;stroke-linejoin:round;stroke-miterlimit:4;stroke-dasharray:none;stroke-opacity:1"
     d="m 32.878889,-62.717777 2.822222,0 c 0.70358,0 1.27,0.56642 1.27,1.27 0,0.70358 -0.56642,1.27 -1.27,1.27 l -2.822222,0 c -0.70358,0 -1.27,-0.56642 -1.27,-1.27 0,-0.70358 0.56642,-1.27 1.27,-1.27 z"
     id="rect3465" />
  <path
     inkscape:connector-curvature="0"
     id="path4293"
     d="m 32.878889,-48.324444 c -0.859931,0 -1.552222,0.692291 -1.552222,1.552222 0,0.859931 0.692291,1.552223 1.552222,1.552223 l 2.822222,0 c 0.859932,0 1.552223,-0.692292 1.552223,-1.552223 0,-0.859931 -0.692291,-1.552222 -1.552223,-1.552222 l -2.822222,0 z m 0,0.282222 2.822222,0 c 0.70358,0 1.27,0.56642 1.27,1.27 0,0.70358 -0.56642,1.27 -1.27,1.27 l -2.822222,0 c -0.70358,0 -1.27,-0.56642 -1.27,-1.27 0,-0.70358 0.56642,-1.27 1.27,-1.27 z"
     style="opacity:0.9;fill:#000000;fill-opacity:1;fill-rule:nonzero;stroke:none;stroke-width:1.08099997;stroke-miterlimit:4;stroke-dasharray:none;stroke-opacity:1" />
  <path
     style="opacity:0.66000001;fill:#969696;fill-opacity:1;fill-rule:nonzero;stroke:none;stroke-width:1.08099997;stroke-linecap:round;stroke-linejoin:round;stroke-miterlimit:4;stroke-dasharray:none;stroke-opacity:1"
     d="m 32.878887,-48.042221 2.822222,0 c 0.70358,0 1.27,0.56642 1.27,1.27 0,0.70358 -0.56642,1.27 -1.27,1.27 l -2.822222,0 c -0.70358,0 -1.27,-0.56642 -1.27,-1.27 0,-0.70358 0.56642,-1.27 1.27,-1.27 z"
     id="rect4295" />
  <path
     style="opacity:0.9;fill:#000000;fill-opacity:1;fill-rule:nonzero;stroke:none;stroke-width:1.08099997;stroke-miterlimit:4;stroke-dasharray:none;stroke-opacity:1"
     d="m 25.4,-52.698889 c 0,0.859931 0.692291,1.552222 1.552222,1.552222 0.859931,0 1.552222,-0.692291 1.552222,-1.552222 l 0,-2.822223 c 0,-0.859931 -0.692291,-1.552222 -1.552222,-1.552222 -0.859931,0 -1.552222,0.692291 -1.552222,1.552222 l 0,2.822223 z m 0.282222,0 0,-2.822223 c 0,-0.70358 0.56642,-1.27 1.27,-1.27 0.70358,0 1.27,0.56642 1.27,1.27 l 0,2.822223 c 0,0.70358 -0.56642,1.27 -1.27,1.27 -0.70358,0 -1.27,-0.56642 -1.27,-1.27 z"
     id="path4299"
     inkscape:connector-curvature="0" />
  <path
     transform="matrix(0,-1,1,0,0,0)"
     style="opacity:0.66000001;fill:#969696;fill-opacity:1;fill-rule:nonzero;stroke:none;stroke-width:1.08099997;stroke-linecap:round;stroke-linejoin:round;stroke-miterlimit:4;stroke-dasharray:none;stroke-opacity:1"
     d="m 52.69889,25.682224 2.822223,0 c 0.70358,0 1.27,0.56642 1.27,1.27 0,0.70358 -0.56642,1.27 -1.27,1.27 l -2.822223,0 c -0.70358,0 -1.27,-0.56642 -1.27,-1.27 0,-0.70358 0.56642,-1.27 1.27,-1.27 z"
     id="rect4301" />
  <path
     inkscape:connector-curvature="0"
     id="path4305"
     d="m 40.075553,-52.698889 c 0,0.859931 0.692291,1.552222 1.552222,1.552222 0.859931,0 1.552222,-0.692291 1.552222,-1.552222 l 0,-2.822223 c 0,-0.859931 -0.692291,-1.552222 -1.552222,-1.552222 -0.859931,0 -1.552222,0.692291 -1.552222,1.552222 l 0,2.822223 z m 0.282222,0 0,-2.822223 c 0,-0.70358 0.56642,-1.27 1.27,-1.27 0.70358,0 1.27,0.56642 1.27,1.27 l 0,2.822223 c 0,0.70358 -0.56642,1.27 -1.27,1.27 -0.70358,0 -1.27,-0.56642 -1.27,-1.27 z"
     style="opacity:0.9;fill:#000000;fill-opacity:1;fill-rule:nonzero;stroke:none;stroke-width:1.08099997;stroke-miterlimit:4;stroke-dasharray:none;stroke-opacity:1" />
  <path
     transform="matrix(0,-1,1,0,0,0)"
     style="opacity:0.66000001;fill:#969696;fill-opacity:1;fill-rule:nonzero;stroke:none;stroke-width:1.08099997;stroke-linecap:round;stroke-linejoin:round;stroke-miterlimit:4;stroke-dasharray:none;stroke-opacity:1"
     d="m 52.69889,40.357777 2.822223,0 c 0.70358,0 1.27,0.56642 1.27,1.27 0,0.703579 -0.56642,1.269999 -1.27,1.269999 l -2.822223,0 c -0.70358,0 -1.27,-0.56642 -1.27,-1.269999 0,-0.70358 0.56642,-1.27 1.27,-1.27 z"
     id="rect4307" />
  <path
     inkscape:connector-curvature="0"
     style="opacity:0.9;fill:#000000;fill-opacity:1;fill-rule:nonzero;stroke:none;stroke-width:1.08099997;stroke-miterlimit:4;stroke-dasharray:none;stroke-opacity:1"
     d="m 26.952222,-63.000001 c -0.859931,0 -1.552222,0.692291 -1.552222,1.552222 l 0,2.822223 c 0,0.859931 0.692291,1.552222 1.552222,1.552222 0.859931,0 1.552222,-0.692291 1.552222,-1.552222 l 0,-1.27 1.27,0 c 0.859931,0 1.552222,-0.692292 1.552222,-1.552223 0,-0.859931 -0.692291,-1.552222 -1.552222,-1.552222 l -2.822222,0 z m 0,0.282222 2.822222,0 c 0.70358,0 1.27,0.56642 1.27,1.27 0,0.70358 -0.56642,1.27 -1.27,1.27 l -1.552222,0 0,1.552223 c 0,0.70358 -0.56642,1.27 -1.27,1.27 -0.70358,0 -1.27,-0.56642 -1.27,-1.27 l 0,-2.822223 c 0,-0.70358 0.56642,-1.27 1.27,-1.27 z"
     id="rect3460" />
  <path
     inkscape:connector-curvature="0"
     style="opacity:0.66000001;fill:#969696;fill-opacity:1;fill-rule:nonzero;stroke:none;stroke-width:1.08099997;stroke-linecap:round;stroke-linejoin:round;stroke-miterlimit:4;stroke-dasharray:none;stroke-opacity:1"
     d="m 26.952222,-62.717779 c -0.703579,0 -1.27,0.56642 -1.27,1.270001 l 0,2.822222 c 0,0.70358 0.566421,1.27 1.27,1.27 0.70358,0 1.27,-0.56642 1.27,-1.27 l 0,-1.552222 1.552223,0 c 0.70358,0 1.27,-0.56642 1.27,-1.27 0,-0.70358 -0.56642,-1.270001 -1.27,-1.270001 l -2.822223,0 z"
     id="rect4283" />
  <path
     inkscape:connector-curvature="0"
     id="path4338"
     d="M 43.180001,-61.447778 C 43.180001,-62.307709 42.48771,-63 41.627779,-63 l -2.822222,0 c -0.859932,0 -1.552223,0.692291 -1.552223,1.552222 0,0.859931 0.692291,1.552222 1.552223,1.552222 l 1.27,0 0,1.27 c 0,0.859932 0.692291,1.552223 1.552222,1.552223 0.859931,0 1.552222,-0.692291 1.552222,-1.552223 l 0,-2.822222 z m -0.282222,0 0,2.822222 c 0,0.70358 -0.56642,1.270001 -1.27,1.270001 -0.70358,0 -1.27,-0.566421 -1.27,-1.270001 l 0,-1.552222 -1.552222,0 c -0.70358,0 -1.27,-0.56642 -1.27,-1.27 0,-0.70358 0.56642,-1.27 1.27,-1.27 l 2.822222,0 c 0.70358,0 1.27,0.56642 1.27,1.27 z"
     style="opacity:0.9;fill:#000000;fill-opacity:1;fill-rule:nonzero;stroke:none;stroke-width:1.08099997;stroke-miterlimit:4;stroke-dasharray:none;stroke-opacity:1" />
  <path
     id="path4340"
     d="m 42.897779,-61.447778 c 0,-0.703579 -0.56642,-1.27 -1.270001,-1.27 l -2.822222,0 c -0.70358,0 -1.27,0.566421 -1.27,1.27 0,0.70358 0.56642,1.27 1.27,1.27 l 1.552222,0 0,1.552223 c 0,0.70358 0.56642,1.27 1.27,1.27 0.70358,0 1.270001,-0.56642 1.270001,-1.27 l 0,-2.822223 z"
     style="opacity:0.66000001;fill:#969696;fill-opacity:1;fill-rule:nonzero;stroke:none;stroke-width:1.08099997;stroke-linecap:round;stroke-linejoin:round;stroke-miterlimit:4;stroke-dasharray:none;stroke-opacity:1"
     inkscape:connector-curvature="0" />
  <path
     style="opacity:0.9;fill:#000000;fill-opacity:1;fill-rule:nonzero;stroke:none;stroke-width:1.08099997;stroke-miterlimit:4;stroke-dasharray:none;stroke-opacity:1"
     d="m 41.627778,-45.219999 c 0.859931,0 1.552222,-0.692291 1.552222,-1.552222 l 0,-2.822223 c 0,-0.859931 -0.692291,-1.552222 -1.552222,-1.552222 -0.859931,0 -1.552222,0.692291 -1.552222,1.552222 l 0,1.27 -1.27,0 c -0.859931,0 -1.552222,0.692292 -1.552222,1.552223 0,0.859931 0.692291,1.552222 1.552222,1.552222 l 2.822222,0 z m 0,-0.282222 -2.822222,0 c -0.70358,0 -1.27,-0.56642 -1.27,-1.27 0,-0.70358 0.56642,-1.27 1.27,-1.27 l 1.552222,0 0,-1.552223 c 0,-0.70358 0.56642,-1.27 1.27,-1.27 0.70358,0 1.27,0.56642 1.27,1.27 l 0,2.822223 c 0,0.70358 -0.56642,1.27 -1.27,1.27 z"
     id="path4344"
     inkscape:connector-curvature="0" />
  <path
     inkscape:connector-curvature="0"
     style="opacity:0.66000001;fill:#969696;fill-opacity:1;fill-rule:nonzero;stroke:none;stroke-width:1.08099997;stroke-linecap:round;stroke-linejoin:round;stroke-miterlimit:4;stroke-dasharray:none;stroke-opacity:1"
     d="m 41.627778,-45.502221 c 0.703579,0 1.27,-0.56642 1.27,-1.270001 l 0,-2.822222 c 0,-0.70358 -0.566421,-1.27 -1.27,-1.27 -0.70358,0 -1.27,0.56642 -1.27,1.27 l 0,1.552222 -1.552223,0 c -0.70358,0 -1.27,0.56642 -1.27,1.27 0,0.70358 0.56642,1.270001 1.27,1.270001 l 2.822223,0 z"
     id="path4346" />
  <path
     inkscape:connector-curvature="0"
     id="path4350"
     d="m 25.4,-46.772222 c 0,0.859931 0.692291,1.552223 1.552222,1.552223 l 2.822222,0 c 0.859932,0 1.552223,-0.692292 1.552223,-1.552223 0,-0.859931 -0.692291,-1.552222 -1.552223,-1.552222 l -1.27,0 0,-1.27 c 0,-0.859932 -0.692291,-1.552223 -1.552222,-1.552223 -0.859931,0 -1.552222,0.692291 -1.552222,1.552223 l 0,2.822222 z m 0.282222,0 0,-2.822222 c 0,-0.70358 0.56642,-1.270001 1.27,-1.270001 0.70358,0 1.27,0.566421 1.27,1.270001 l 0,1.552222 1.552222,0 c 0.70358,0 1.27,0.56642 1.27,1.27 0,0.70358 -0.56642,1.27 -1.27,1.27 l -2.822222,0 c -0.70358,0 -1.27,-0.56642 -1.27,-1.27 z"
     style="opacity:0.9;fill:#000000;fill-opacity:1;fill-rule:nonzero;stroke:none;stroke-width:1.08099997;stroke-miterlimit:4;stroke-dasharray:none;stroke-opacity:1" />
  <path
     id="path4352"
     d="m 25.682222,-46.772222 c 0,0.703579 0.56642,1.27 1.270001,1.27 l 2.822222,0 c 0.70358,0 1.27,-0.566421 1.27,-1.27 0,-0.70358 -0.56642,-1.27 -1.27,-1.27 l -1.552222,0 0,-1.552223 c 0,-0.70358 -0.56642,-1.27 -1.27,-1.27 -0.70358,0 -1.270001,0.56642 -1.270001,1.27 l 0,2.822223 z"
     style="opacity:0.66000001;fill:#969696;fill-opacity:1;fill-rule:nonzero;stroke:none;stroke-width:1.08099997;stroke-linecap:round;stroke-linejoin:round;stroke-miterlimit:4;stroke-dasharray:none;stroke-opacity:1"
     inkscape:connector-curvature="0" />
</svg>
